%TF.GenerationSoftware,KiCad,Pcbnew,(5.1.8)-1*%
%TF.CreationDate,2020-12-21T16:49:44+02:00*%
%TF.ProjectId,Thermometer,54686572-6d6f-46d6-9574-65722e6b6963,rev?*%
%TF.SameCoordinates,Original*%
%TF.FileFunction,Legend,Top*%
%TF.FilePolarity,Positive*%
%FSLAX46Y46*%
G04 Gerber Fmt 4.6, Leading zero omitted, Abs format (unit mm)*
G04 Created by KiCad (PCBNEW (5.1.8)-1) date 2020-12-21 16:49:44*
%MOMM*%
%LPD*%
G01*
G04 APERTURE LIST*
%ADD10C,0.120000*%
%ADD11C,0.100000*%
%ADD12C,0.150000*%
G04 APERTURE END LIST*
D10*
%TO.C,C1*%
X50040000Y-141682080D02*
X50040000Y-141400920D01*
X49020000Y-141682080D02*
X49020000Y-141400920D01*
%TO.C,C2*%
X83706580Y-144337500D02*
X83425420Y-144337500D01*
X83706580Y-143317500D02*
X83425420Y-143317500D01*
%TO.C,C3*%
X32912000Y-145434500D02*
X32912000Y-153394500D01*
X32912000Y-153394500D02*
X39732000Y-153394500D01*
X39732000Y-153394500D02*
X39732000Y-145434500D01*
%TO.C,U1*%
X52139000Y-153161500D02*
X52139000Y-151591500D01*
X52139000Y-153161500D02*
X54029000Y-153161500D01*
X64589000Y-153161500D02*
X66479000Y-153161500D01*
X66479000Y-153161500D02*
X66479000Y-151591500D01*
X66479000Y-141081500D02*
X66479000Y-129921500D01*
X66479000Y-129921500D02*
X52139000Y-129921500D01*
X52139000Y-129921500D02*
X52139000Y-141081500D01*
X52139000Y-141081500D02*
X51539000Y-141081500D01*
%TO.C,U2*%
X81970000Y-146028000D02*
X81970000Y-149628000D01*
X81981522Y-145989522D02*
G75*
G02*
X86420000Y-147828000I1838478J-1838478D01*
G01*
X81981522Y-149666478D02*
G75*
G03*
X86420000Y-147828000I1838478J1838478D01*
G01*
D11*
%TO.C,U3*%
X85053000Y-141494500D02*
X85053000Y-141344500D01*
X85043000Y-141494500D02*
X84893000Y-141494500D01*
X85043000Y-138794500D02*
X84893000Y-138794500D01*
X85043000Y-138794500D02*
X85043000Y-138944500D01*
X82343000Y-138944500D02*
X82343000Y-138794500D01*
X82343000Y-138794500D02*
X82493000Y-138794500D01*
X82493000Y-141494500D02*
X82243000Y-141494500D01*
D10*
%TO.C,U4*%
X45511000Y-158487000D02*
X45511000Y-156987000D01*
X45511000Y-158487000D02*
X45511000Y-159987000D01*
X42291000Y-158487000D02*
X42291000Y-156987000D01*
X42291000Y-158487000D02*
X42291000Y-161362000D01*
%TO.C,D1*%
X80937000Y-129948000D02*
X78652000Y-129948000D01*
X78652000Y-129948000D02*
X78652000Y-131418000D01*
X78652000Y-131418000D02*
X80937000Y-131418000D01*
%TO.C,J1*%
X37659000Y-130242000D02*
X37659000Y-132902000D01*
X47879000Y-130242000D02*
X37659000Y-130242000D01*
X47879000Y-132902000D02*
X37659000Y-132902000D01*
X47879000Y-130242000D02*
X47879000Y-132902000D01*
X49149000Y-130242000D02*
X50479000Y-130242000D01*
X50479000Y-130242000D02*
X50479000Y-131572000D01*
%TO.C,L1*%
X37977500Y-159818752D02*
X37977500Y-157046248D01*
X41397500Y-159818752D02*
X41397500Y-157046248D01*
%TO.C,SW1*%
X71282500Y-130674500D02*
X70357500Y-130674500D01*
X75157500Y-132799500D02*
X75157500Y-132249500D01*
X70257500Y-132799500D02*
X70257500Y-132249500D01*
X75057500Y-134374500D02*
X70357500Y-134374500D01*
X75057500Y-130674500D02*
X74132500Y-130674500D01*
%TO.C,C1*%
D12*
X48457142Y-141708166D02*
X48504761Y-141755785D01*
X48552380Y-141898642D01*
X48552380Y-141993880D01*
X48504761Y-142136738D01*
X48409523Y-142231976D01*
X48314285Y-142279595D01*
X48123809Y-142327214D01*
X47980952Y-142327214D01*
X47790476Y-142279595D01*
X47695238Y-142231976D01*
X47600000Y-142136738D01*
X47552380Y-141993880D01*
X47552380Y-141898642D01*
X47600000Y-141755785D01*
X47647619Y-141708166D01*
X48552380Y-140755785D02*
X48552380Y-141327214D01*
X48552380Y-141041500D02*
X47552380Y-141041500D01*
X47695238Y-141136738D01*
X47790476Y-141231976D01*
X47838095Y-141327214D01*
%TO.C,C2*%
X80478333Y-144121142D02*
X80430714Y-144168761D01*
X80287857Y-144216380D01*
X80192619Y-144216380D01*
X80049761Y-144168761D01*
X79954523Y-144073523D01*
X79906904Y-143978285D01*
X79859285Y-143787809D01*
X79859285Y-143644952D01*
X79906904Y-143454476D01*
X79954523Y-143359238D01*
X80049761Y-143264000D01*
X80192619Y-143216380D01*
X80287857Y-143216380D01*
X80430714Y-143264000D01*
X80478333Y-143311619D01*
X80859285Y-143311619D02*
X80906904Y-143264000D01*
X81002142Y-143216380D01*
X81240238Y-143216380D01*
X81335476Y-143264000D01*
X81383095Y-143311619D01*
X81430714Y-143406857D01*
X81430714Y-143502095D01*
X81383095Y-143644952D01*
X80811666Y-144216380D01*
X81430714Y-144216380D01*
%TO.C,C3*%
X39219142Y-142914666D02*
X39266761Y-142962285D01*
X39314380Y-143105142D01*
X39314380Y-143200380D01*
X39266761Y-143343238D01*
X39171523Y-143438476D01*
X39076285Y-143486095D01*
X38885809Y-143533714D01*
X38742952Y-143533714D01*
X38552476Y-143486095D01*
X38457238Y-143438476D01*
X38362000Y-143343238D01*
X38314380Y-143200380D01*
X38314380Y-143105142D01*
X38362000Y-142962285D01*
X38409619Y-142914666D01*
X38314380Y-142581333D02*
X38314380Y-141962285D01*
X38695333Y-142295619D01*
X38695333Y-142152761D01*
X38742952Y-142057523D01*
X38790571Y-142009904D01*
X38885809Y-141962285D01*
X39123904Y-141962285D01*
X39219142Y-142009904D01*
X39266761Y-142057523D01*
X39314380Y-142152761D01*
X39314380Y-142438476D01*
X39266761Y-142533714D01*
X39219142Y-142581333D01*
%TO.C,R1*%
X68669833Y-143864880D02*
X68336500Y-143388690D01*
X68098404Y-143864880D02*
X68098404Y-142864880D01*
X68479357Y-142864880D01*
X68574595Y-142912500D01*
X68622214Y-142960119D01*
X68669833Y-143055357D01*
X68669833Y-143198214D01*
X68622214Y-143293452D01*
X68574595Y-143341071D01*
X68479357Y-143388690D01*
X68098404Y-143388690D01*
X69622214Y-143864880D02*
X69050785Y-143864880D01*
X69336500Y-143864880D02*
X69336500Y-142864880D01*
X69241261Y-143007738D01*
X69146023Y-143102976D01*
X69050785Y-143150595D01*
%TO.C,R2*%
X38568333Y-154757380D02*
X38235000Y-154281190D01*
X37996904Y-154757380D02*
X37996904Y-153757380D01*
X38377857Y-153757380D01*
X38473095Y-153805000D01*
X38520714Y-153852619D01*
X38568333Y-153947857D01*
X38568333Y-154090714D01*
X38520714Y-154185952D01*
X38473095Y-154233571D01*
X38377857Y-154281190D01*
X37996904Y-154281190D01*
X38949285Y-153852619D02*
X38996904Y-153805000D01*
X39092142Y-153757380D01*
X39330238Y-153757380D01*
X39425476Y-153805000D01*
X39473095Y-153852619D01*
X39520714Y-153947857D01*
X39520714Y-154043095D01*
X39473095Y-154185952D01*
X38901666Y-154757380D01*
X39520714Y-154757380D01*
%TO.C,U1*%
X58547095Y-154493880D02*
X58547095Y-155303404D01*
X58594714Y-155398642D01*
X58642333Y-155446261D01*
X58737571Y-155493880D01*
X58928047Y-155493880D01*
X59023285Y-155446261D01*
X59070904Y-155398642D01*
X59118523Y-155303404D01*
X59118523Y-154493880D01*
X60118523Y-155493880D02*
X59547095Y-155493880D01*
X59832809Y-155493880D02*
X59832809Y-154493880D01*
X59737571Y-154636738D01*
X59642333Y-154731976D01*
X59547095Y-154779595D01*
%TO.C,U2*%
X83272380Y-152463404D02*
X84081904Y-152463404D01*
X84177142Y-152415785D01*
X84224761Y-152368166D01*
X84272380Y-152272928D01*
X84272380Y-152082452D01*
X84224761Y-151987214D01*
X84177142Y-151939595D01*
X84081904Y-151891976D01*
X83272380Y-151891976D01*
X83367619Y-151463404D02*
X83320000Y-151415785D01*
X83272380Y-151320547D01*
X83272380Y-151082452D01*
X83320000Y-150987214D01*
X83367619Y-150939595D01*
X83462857Y-150891976D01*
X83558095Y-150891976D01*
X83700952Y-150939595D01*
X84272380Y-151511023D01*
X84272380Y-150891976D01*
%TO.C,U3*%
X80680380Y-140891404D02*
X81489904Y-140891404D01*
X81585142Y-140843785D01*
X81632761Y-140796166D01*
X81680380Y-140700928D01*
X81680380Y-140510452D01*
X81632761Y-140415214D01*
X81585142Y-140367595D01*
X81489904Y-140319976D01*
X80680380Y-140319976D01*
X80680380Y-139939023D02*
X80680380Y-139319976D01*
X81061333Y-139653309D01*
X81061333Y-139510452D01*
X81108952Y-139415214D01*
X81156571Y-139367595D01*
X81251809Y-139319976D01*
X81489904Y-139319976D01*
X81585142Y-139367595D01*
X81632761Y-139415214D01*
X81680380Y-139510452D01*
X81680380Y-139796166D01*
X81632761Y-139891404D01*
X81585142Y-139939023D01*
%TO.C,U4*%
X46061380Y-159194404D02*
X46870904Y-159194404D01*
X46966142Y-159146785D01*
X47013761Y-159099166D01*
X47061380Y-159003928D01*
X47061380Y-158813452D01*
X47013761Y-158718214D01*
X46966142Y-158670595D01*
X46870904Y-158622976D01*
X46061380Y-158622976D01*
X46394714Y-157718214D02*
X47061380Y-157718214D01*
X46013761Y-157956309D02*
X46728047Y-158194404D01*
X46728047Y-157575357D01*
%TO.C,D1*%
X78509904Y-133167380D02*
X78509904Y-132167380D01*
X78748000Y-132167380D01*
X78890857Y-132215000D01*
X78986095Y-132310238D01*
X79033714Y-132405476D01*
X79081333Y-132595952D01*
X79081333Y-132738809D01*
X79033714Y-132929285D01*
X78986095Y-133024523D01*
X78890857Y-133119761D01*
X78748000Y-133167380D01*
X78509904Y-133167380D01*
X80033714Y-133167380D02*
X79462285Y-133167380D01*
X79748000Y-133167380D02*
X79748000Y-132167380D01*
X79652761Y-132310238D01*
X79557523Y-132405476D01*
X79462285Y-132453095D01*
%TO.C,J1*%
X36472880Y-131206833D02*
X37187166Y-131206833D01*
X37330023Y-131254452D01*
X37425261Y-131349690D01*
X37472880Y-131492547D01*
X37472880Y-131587785D01*
X37472880Y-130206833D02*
X37472880Y-130778261D01*
X37472880Y-130492547D02*
X36472880Y-130492547D01*
X36615738Y-130587785D01*
X36710976Y-130683023D01*
X36758595Y-130778261D01*
%TO.C,J2*%
X70802380Y-168227333D02*
X71516666Y-168227333D01*
X71659523Y-168274952D01*
X71754761Y-168370190D01*
X71802380Y-168513047D01*
X71802380Y-168608285D01*
X70897619Y-167798761D02*
X70850000Y-167751142D01*
X70802380Y-167655904D01*
X70802380Y-167417809D01*
X70850000Y-167322571D01*
X70897619Y-167274952D01*
X70992857Y-167227333D01*
X71088095Y-167227333D01*
X71230952Y-167274952D01*
X71802380Y-167846380D01*
X71802380Y-167227333D01*
%TO.C,L1*%
X37489880Y-158599166D02*
X37489880Y-159075357D01*
X36489880Y-159075357D01*
X37489880Y-157742023D02*
X37489880Y-158313452D01*
X37489880Y-158027738D02*
X36489880Y-158027738D01*
X36632738Y-158122976D01*
X36727976Y-158218214D01*
X36775595Y-158313452D01*
%TO.C,SW1*%
X71755166Y-136485261D02*
X71898023Y-136532880D01*
X72136119Y-136532880D01*
X72231357Y-136485261D01*
X72278976Y-136437642D01*
X72326595Y-136342404D01*
X72326595Y-136247166D01*
X72278976Y-136151928D01*
X72231357Y-136104309D01*
X72136119Y-136056690D01*
X71945642Y-136009071D01*
X71850404Y-135961452D01*
X71802785Y-135913833D01*
X71755166Y-135818595D01*
X71755166Y-135723357D01*
X71802785Y-135628119D01*
X71850404Y-135580500D01*
X71945642Y-135532880D01*
X72183738Y-135532880D01*
X72326595Y-135580500D01*
X72659928Y-135532880D02*
X72898023Y-136532880D01*
X73088500Y-135818595D01*
X73278976Y-136532880D01*
X73517071Y-135532880D01*
X74421833Y-136532880D02*
X73850404Y-136532880D01*
X74136119Y-136532880D02*
X74136119Y-135532880D01*
X74040880Y-135675738D01*
X73945642Y-135770976D01*
X73850404Y-135818595D01*
%TD*%
M02*
