%TF.GenerationSoftware,KiCad,Pcbnew,(5.1.8)-1*%
%TF.CreationDate,2021-05-19T16:17:09+03:00*%
%TF.ProjectId,Thermometer,54686572-6d6f-46d6-9574-65722e6b6963,rev?*%
%TF.SameCoordinates,Original*%
%TF.FileFunction,Soldermask,Top*%
%TF.FilePolarity,Negative*%
%FSLAX46Y46*%
G04 Gerber Fmt 4.6, Leading zero omitted, Abs format (unit mm)*
G04 Created by KiCad (PCBNEW (5.1.8)-1) date 2021-05-19 16:17:09*
%MOMM*%
%LPD*%
G01*
G04 APERTURE LIST*
%ADD10R,1.700000X1.700000*%
%ADD11O,1.700000X1.700000*%
%ADD12O,1.000000X1.000000*%
%ADD13R,1.000000X1.000000*%
%ADD14R,1.550000X1.000000*%
%ADD15C,0.750000*%
%ADD16R,2.000000X0.700000*%
%ADD17R,0.700000X2.000000*%
G04 APERTURE END LIST*
D10*
%TO.C,J1*%
X90678000Y-79756000D03*
D11*
X90678000Y-82296000D03*
X90678000Y-84836000D03*
X90678000Y-87376000D03*
X90678000Y-89916000D03*
%TD*%
D12*
%TO.C,J2*%
X93649800Y-102362000D03*
X94919800Y-102362000D03*
X96189800Y-102362000D03*
D13*
X97459800Y-102362000D03*
%TD*%
%TO.C,J3*%
X97459800Y-67259200D03*
D12*
X96189800Y-67259200D03*
X94919800Y-67259200D03*
X93649800Y-67259200D03*
%TD*%
D13*
%TO.C,J4*%
X136702800Y-87985600D03*
D12*
X136702800Y-86715600D03*
X136702800Y-85445600D03*
X136702800Y-84175600D03*
X136702800Y-82905600D03*
X136702800Y-81635600D03*
%TD*%
%TO.C,R2*%
G36*
G01*
X127147900Y-80790201D02*
X127147900Y-79890199D01*
G75*
G02*
X127397899Y-79640200I249999J0D01*
G01*
X127922901Y-79640200D01*
G75*
G02*
X128172900Y-79890199I0J-249999D01*
G01*
X128172900Y-80790201D01*
G75*
G02*
X127922901Y-81040200I-249999J0D01*
G01*
X127397899Y-81040200D01*
G75*
G02*
X127147900Y-80790201I0J249999D01*
G01*
G37*
G36*
G01*
X128972900Y-80790201D02*
X128972900Y-79890199D01*
G75*
G02*
X129222899Y-79640200I249999J0D01*
G01*
X129747901Y-79640200D01*
G75*
G02*
X129997900Y-79890199I0J-249999D01*
G01*
X129997900Y-80790201D01*
G75*
G02*
X129747901Y-81040200I-249999J0D01*
G01*
X129222899Y-81040200D01*
G75*
G02*
X128972900Y-80790201I0J249999D01*
G01*
G37*
%TD*%
D14*
%TO.C,SW1*%
X124654400Y-101105600D03*
X129904400Y-101105600D03*
X129904400Y-102805600D03*
X124654400Y-102805600D03*
D15*
X127279400Y-100580600D03*
X127279400Y-103330600D03*
%TD*%
D16*
%TO.C,U1*%
X120892800Y-86684600D03*
X120892800Y-85414600D03*
X120892800Y-84144600D03*
X120892800Y-82874600D03*
X120892800Y-81604600D03*
X120892800Y-80334600D03*
X120892800Y-79064600D03*
X120892800Y-77794600D03*
D17*
X109382800Y-88944600D03*
X110652800Y-88944600D03*
X111922800Y-88944600D03*
X113192800Y-88944600D03*
X114462800Y-88944600D03*
X115732800Y-88944600D03*
X117002800Y-88944600D03*
X118272800Y-88944600D03*
D16*
X106792800Y-77794600D03*
X106792800Y-79064600D03*
X106792800Y-80334600D03*
X106792800Y-81604600D03*
X106792800Y-82874600D03*
X106792800Y-84144600D03*
X106792800Y-85414600D03*
X106792800Y-86684600D03*
%TD*%
%TO.C,D1*%
G36*
G01*
X136779950Y-75638600D02*
X137692450Y-75638600D01*
G75*
G02*
X137936200Y-75882350I0J-243750D01*
G01*
X137936200Y-76369850D01*
G75*
G02*
X137692450Y-76613600I-243750J0D01*
G01*
X136779950Y-76613600D01*
G75*
G02*
X136536200Y-76369850I0J243750D01*
G01*
X136536200Y-75882350D01*
G75*
G02*
X136779950Y-75638600I243750J0D01*
G01*
G37*
G36*
G01*
X136779950Y-77513600D02*
X137692450Y-77513600D01*
G75*
G02*
X137936200Y-77757350I0J-243750D01*
G01*
X137936200Y-78244850D01*
G75*
G02*
X137692450Y-78488600I-243750J0D01*
G01*
X136779950Y-78488600D01*
G75*
G02*
X136536200Y-78244850I0J243750D01*
G01*
X136536200Y-77757350D01*
G75*
G02*
X136779950Y-77513600I243750J0D01*
G01*
G37*
%TD*%
M02*
