%TF.GenerationSoftware,KiCad,Pcbnew,(5.1.8)-1*%
%TF.CreationDate,2021-05-19T16:17:09+03:00*%
%TF.ProjectId,Thermometer,54686572-6d6f-46d6-9574-65722e6b6963,rev?*%
%TF.SameCoordinates,Original*%
%TF.FileFunction,Copper,L2,Bot*%
%TF.FilePolarity,Positive*%
%FSLAX46Y46*%
G04 Gerber Fmt 4.6, Leading zero omitted, Abs format (unit mm)*
G04 Created by KiCad (PCBNEW (5.1.8)-1) date 2021-05-19 16:17:09*
%MOMM*%
%LPD*%
G01*
G04 APERTURE LIST*
%TA.AperFunction,SMDPad,CuDef*%
%ADD10R,6.000000X5.500000*%
%TD*%
%TA.AperFunction,SMDPad,CuDef*%
%ADD11C,20.000000*%
%TD*%
%TA.AperFunction,ComponentPad*%
%ADD12R,1.700000X1.700000*%
%TD*%
%TA.AperFunction,ComponentPad*%
%ADD13O,1.700000X1.700000*%
%TD*%
%TA.AperFunction,ComponentPad*%
%ADD14O,1.000000X1.000000*%
%TD*%
%TA.AperFunction,ComponentPad*%
%ADD15R,1.000000X1.000000*%
%TD*%
%TA.AperFunction,ViaPad*%
%ADD16C,0.800000*%
%TD*%
%TA.AperFunction,Conductor*%
%ADD17C,1.250000*%
%TD*%
%TA.AperFunction,Conductor*%
%ADD18C,0.250000*%
%TD*%
%TA.AperFunction,Conductor*%
%ADD19C,0.700000*%
%TD*%
%TA.AperFunction,Conductor*%
%ADD20C,0.254000*%
%TD*%
%TA.AperFunction,Conductor*%
%ADD21C,0.100000*%
%TD*%
G04 APERTURE END LIST*
D10*
%TO.P,BT1,1*%
%TO.N,+BATT*%
X97485200Y-82575400D03*
X128085200Y-82575400D03*
D11*
%TO.P,BT1,2*%
%TO.N,GND*%
X112785200Y-82575400D03*
%TD*%
%TO.P,C1,2*%
%TO.N,GND*%
%TA.AperFunction,SMDPad,CuDef*%
G36*
G01*
X96398200Y-73816400D02*
X96398200Y-74316400D01*
G75*
G02*
X96173200Y-74541400I-225000J0D01*
G01*
X95723200Y-74541400D01*
G75*
G02*
X95498200Y-74316400I0J225000D01*
G01*
X95498200Y-73816400D01*
G75*
G02*
X95723200Y-73591400I225000J0D01*
G01*
X96173200Y-73591400D01*
G75*
G02*
X96398200Y-73816400I0J-225000D01*
G01*
G37*
%TD.AperFunction*%
%TO.P,C1,1*%
%TO.N,+3V3*%
%TA.AperFunction,SMDPad,CuDef*%
G36*
G01*
X97948200Y-73816400D02*
X97948200Y-74316400D01*
G75*
G02*
X97723200Y-74541400I-225000J0D01*
G01*
X97273200Y-74541400D01*
G75*
G02*
X97048200Y-74316400I0J225000D01*
G01*
X97048200Y-73816400D01*
G75*
G02*
X97273200Y-73591400I225000J0D01*
G01*
X97723200Y-73591400D01*
G75*
G02*
X97948200Y-73816400I0J-225000D01*
G01*
G37*
%TD.AperFunction*%
%TD*%
D12*
%TO.P,J1,1*%
%TO.N,+3V3*%
X90678000Y-79756000D03*
D13*
%TO.P,J1,2*%
%TO.N,/RESET*%
X90678000Y-82296000D03*
%TO.P,J1,3*%
%TO.N,/P2.2*%
X90678000Y-84836000D03*
%TO.P,J1,4*%
%TO.N,/P2.1*%
X90678000Y-87376000D03*
%TO.P,J1,5*%
%TO.N,GND*%
X90678000Y-89916000D03*
%TD*%
D14*
%TO.P,J2,4*%
%TO.N,/CS1*%
X93649800Y-102362000D03*
%TO.P,J2,3*%
%TO.N,/DC*%
X94919800Y-102362000D03*
%TO.P,J2,2*%
%TO.N,/RST*%
X96189800Y-102362000D03*
D15*
%TO.P,J2,1*%
%TO.N,/BUSY*%
X97459800Y-102362000D03*
%TD*%
%TO.P,J3,1*%
%TO.N,/CLK1*%
X97459800Y-67259200D03*
D14*
%TO.P,J3,2*%
%TO.N,/MOSI1*%
X96189800Y-67259200D03*
%TO.P,J3,3*%
%TO.N,GND*%
X94919800Y-67259200D03*
%TO.P,J3,4*%
%TO.N,+3V3*%
X93649800Y-67259200D03*
%TD*%
D15*
%TO.P,J4,1*%
%TO.N,/P1.0*%
X136702800Y-87985600D03*
D14*
%TO.P,J4,2*%
%TO.N,/MISO0*%
X136702800Y-86715600D03*
%TO.P,J4,3*%
%TO.N,/CLK0*%
X136702800Y-85445600D03*
%TO.P,J4,4*%
%TO.N,/MOSI0*%
X136702800Y-84175600D03*
%TO.P,J4,5*%
%TO.N,/CS0*%
X136702800Y-82905600D03*
%TO.P,J4,6*%
%TO.N,GND*%
X136702800Y-81635600D03*
%TD*%
%TO.P,R1,2*%
%TO.N,+BATT*%
%TA.AperFunction,SMDPad,CuDef*%
G36*
G01*
X97035199Y-77410900D02*
X97935201Y-77410900D01*
G75*
G02*
X98185200Y-77660899I0J-249999D01*
G01*
X98185200Y-78185901D01*
G75*
G02*
X97935201Y-78435900I-249999J0D01*
G01*
X97035199Y-78435900D01*
G75*
G02*
X96785200Y-78185901I0J249999D01*
G01*
X96785200Y-77660899D01*
G75*
G02*
X97035199Y-77410900I249999J0D01*
G01*
G37*
%TD.AperFunction*%
%TO.P,R1,1*%
%TO.N,+3V3*%
%TA.AperFunction,SMDPad,CuDef*%
G36*
G01*
X97035199Y-75585900D02*
X97935201Y-75585900D01*
G75*
G02*
X98185200Y-75835899I0J-249999D01*
G01*
X98185200Y-76360901D01*
G75*
G02*
X97935201Y-76610900I-249999J0D01*
G01*
X97035199Y-76610900D01*
G75*
G02*
X96785200Y-76360901I0J249999D01*
G01*
X96785200Y-75835899D01*
G75*
G02*
X97035199Y-75585900I249999J0D01*
G01*
G37*
%TD.AperFunction*%
%TD*%
%TO.P,C2,1*%
%TO.N,+3V3*%
%TA.AperFunction,SMDPad,CuDef*%
G36*
G01*
X98123900Y-70728399D02*
X98123900Y-72578401D01*
G75*
G02*
X97873901Y-72828400I-249999J0D01*
G01*
X97048899Y-72828400D01*
G75*
G02*
X96798900Y-72578401I0J249999D01*
G01*
X96798900Y-70728399D01*
G75*
G02*
X97048899Y-70478400I249999J0D01*
G01*
X97873901Y-70478400D01*
G75*
G02*
X98123900Y-70728399I0J-249999D01*
G01*
G37*
%TD.AperFunction*%
%TO.P,C2,2*%
%TO.N,GND*%
%TA.AperFunction,SMDPad,CuDef*%
G36*
G01*
X95048900Y-70728399D02*
X95048900Y-72578401D01*
G75*
G02*
X94798901Y-72828400I-249999J0D01*
G01*
X93973899Y-72828400D01*
G75*
G02*
X93723900Y-72578401I0J249999D01*
G01*
X93723900Y-70728399D01*
G75*
G02*
X93973899Y-70478400I249999J0D01*
G01*
X94798901Y-70478400D01*
G75*
G02*
X95048900Y-70728399I0J-249999D01*
G01*
G37*
%TD.AperFunction*%
%TD*%
D16*
%TO.N,GND*%
X117703600Y-82600800D03*
X113360200Y-75641200D03*
X104444800Y-85928200D03*
X109651800Y-77292200D03*
X109753400Y-79933800D03*
X112293400Y-86588600D03*
X117779800Y-86512400D03*
X94437200Y-71653400D03*
X137185400Y-76047600D03*
X104566200Y-77794600D03*
X96647000Y-94665800D03*
X96875600Y-98679000D03*
X106045000Y-99009200D03*
X110794800Y-93929200D03*
X106375200Y-92125800D03*
X102692200Y-88468200D03*
X99822000Y-91973400D03*
X108813600Y-97205800D03*
X101549200Y-98933000D03*
X126669800Y-86741000D03*
X131724400Y-86893400D03*
X113809300Y-81551300D03*
X117822500Y-77538100D03*
X109046800Y-86313800D03*
X106748100Y-88612500D03*
X114198400Y-102031800D03*
X118567200Y-102108000D03*
X121793000Y-102108000D03*
X118491000Y-95732600D03*
X121869200Y-95732600D03*
X125831600Y-95808800D03*
X137007600Y-98475800D03*
X137007600Y-92329000D03*
X137007600Y-95631000D03*
X137337800Y-73228200D03*
X137363200Y-70688200D03*
X133680200Y-70688200D03*
X133223000Y-68707000D03*
X133019800Y-66522600D03*
X129133600Y-66548000D03*
X122732800Y-66522600D03*
X126111000Y-66573400D03*
X122732800Y-69240400D03*
X122555000Y-72288400D03*
X105511600Y-66548000D03*
X105359200Y-69850000D03*
X105587800Y-72415400D03*
X101549200Y-66548000D03*
X89204800Y-71145400D03*
X92659200Y-70942200D03*
X89173810Y-74732390D03*
X90652600Y-76403200D03*
X90703400Y-92913200D03*
X88874600Y-94869000D03*
X88798400Y-98831400D03*
X92506800Y-99034600D03*
X132080000Y-102539800D03*
%TO.N,+3V3*%
X97485200Y-76098400D03*
%TO.N,/RESET*%
X102743000Y-72669400D03*
%TO.N,/DC*%
X94919800Y-99034600D03*
%TO.N,/SW*%
X133654800Y-76377800D03*
X132080000Y-100660200D03*
%TD*%
D17*
%TO.N,+BATT*%
X97459800Y-78105000D02*
X97459800Y-82757000D01*
D18*
%TO.N,GND*%
X94386400Y-71653400D02*
X94386400Y-73482200D01*
X94970600Y-74066400D02*
X95948200Y-74066400D01*
X94386400Y-73482200D02*
X94970600Y-74066400D01*
X136702800Y-81635600D02*
X135229600Y-81635600D01*
X135229600Y-81635600D02*
X134620000Y-82245200D01*
X134620000Y-82245200D02*
X134620000Y-98577400D01*
X105444600Y-89916000D02*
X106748100Y-88612500D01*
X90678000Y-89916000D02*
X105444600Y-89916000D01*
X91135200Y-71653400D02*
X94386400Y-71653400D01*
X89173810Y-73614790D02*
X91135200Y-71653400D01*
X89173810Y-89613891D02*
X89173810Y-74732390D01*
X89475919Y-89916000D02*
X89173810Y-89613891D01*
X90678000Y-89916000D02*
X89475919Y-89916000D01*
X120557600Y-74803000D02*
X117822500Y-77538100D01*
X137185400Y-74828400D02*
X120430600Y-74828400D01*
X113809300Y-81551300D02*
X112785200Y-82575400D01*
X117822500Y-77538100D02*
X113809300Y-81551300D01*
X109046800Y-86313800D02*
X112785200Y-82575400D01*
X106748100Y-88612500D02*
X109046800Y-86313800D01*
X89173810Y-74732390D02*
X89173810Y-73614790D01*
X132080000Y-102539800D02*
X132715000Y-102539800D01*
X132715000Y-102539800D02*
X133223000Y-102031800D01*
X133223000Y-99974400D02*
X134620000Y-98577400D01*
X133223000Y-102031800D02*
X133223000Y-99974400D01*
X136702800Y-76530200D02*
X137185400Y-76047600D01*
X136702800Y-81635600D02*
X136702800Y-76530200D01*
X137185400Y-76047600D02*
X137185400Y-74828400D01*
D19*
%TO.N,+3V3*%
X93649800Y-67259200D02*
X93649800Y-68351400D01*
X93649800Y-68351400D02*
X94310200Y-69011800D01*
X94310200Y-69011800D02*
X97028000Y-69011800D01*
X97461400Y-69445200D02*
X97461400Y-71653400D01*
X97028000Y-69011800D02*
X97461400Y-69445200D01*
D18*
X97461400Y-74029600D02*
X97498200Y-74066400D01*
D19*
X97461400Y-71653400D02*
X97461400Y-74029600D01*
D18*
X97498200Y-76085400D02*
X97485200Y-76098400D01*
D19*
X97498200Y-74066400D02*
X97498200Y-76085400D01*
X94335600Y-76098400D02*
X90678000Y-79756000D01*
X97485200Y-76098400D02*
X94335600Y-76098400D01*
D18*
%TO.N,/RESET*%
X92735400Y-82296000D02*
X90678000Y-82296000D01*
X93167200Y-82727800D02*
X92735400Y-82296000D01*
X101574600Y-87122000D02*
X93345000Y-87122000D01*
X101625400Y-87172800D02*
X101574600Y-87122000D01*
X93167200Y-86944200D02*
X93167200Y-82727800D01*
X93345000Y-87122000D02*
X93167200Y-86944200D01*
X101625400Y-74447400D02*
X101625400Y-87172800D01*
X102743000Y-73329800D02*
X101625400Y-74447400D01*
X102743000Y-72669400D02*
X102743000Y-73329800D01*
%TO.N,/DC*%
X94919800Y-99034600D02*
X94919800Y-102362000D01*
%TO.N,/SW*%
X133654800Y-76377800D02*
X133654800Y-97815400D01*
X132080000Y-99390200D02*
X133654800Y-97815400D01*
X132080000Y-100660200D02*
X132080000Y-99390200D01*
%TD*%
D20*
%TO.N,GND*%
X106264355Y-65836923D02*
X106341376Y-65896024D01*
X106400477Y-65973045D01*
X106437631Y-66062743D01*
X106451400Y-66167328D01*
X106451400Y-71026400D01*
X106452486Y-71042977D01*
X106469523Y-71172387D01*
X106478104Y-71204411D01*
X106528054Y-71325001D01*
X106544632Y-71353713D01*
X106624092Y-71457266D01*
X106647534Y-71480708D01*
X106751087Y-71560168D01*
X106779799Y-71576746D01*
X106900389Y-71626696D01*
X106932413Y-71635277D01*
X107061823Y-71652314D01*
X107078400Y-71653400D01*
X120607200Y-71653400D01*
X120623777Y-71652314D01*
X120753187Y-71635277D01*
X120785211Y-71626696D01*
X120905801Y-71576746D01*
X120934513Y-71560168D01*
X121038066Y-71480708D01*
X121061508Y-71457266D01*
X121140968Y-71353713D01*
X121157546Y-71325001D01*
X121207496Y-71204411D01*
X121216077Y-71172387D01*
X121233114Y-71042977D01*
X121234200Y-71026400D01*
X121234200Y-66167328D01*
X121247969Y-66062743D01*
X121285123Y-65973045D01*
X121344224Y-65896024D01*
X121421245Y-65836923D01*
X121483829Y-65811000D01*
X133799761Y-65811000D01*
X133876206Y-65818496D01*
X133942588Y-65838538D01*
X134003803Y-65871086D01*
X134057537Y-65914911D01*
X134101732Y-65968334D01*
X134134711Y-66029327D01*
X134155215Y-66095563D01*
X134163201Y-66171542D01*
X134163200Y-69146261D01*
X134163860Y-69152962D01*
X134163838Y-69156123D01*
X134164045Y-69158235D01*
X134174409Y-69256837D01*
X134177184Y-69270357D01*
X134179761Y-69283865D01*
X134180374Y-69285896D01*
X134209692Y-69380606D01*
X134215027Y-69393298D01*
X134220191Y-69406079D01*
X134221187Y-69407952D01*
X134268342Y-69495164D01*
X134276052Y-69506594D01*
X134283590Y-69518114D01*
X134284931Y-69519758D01*
X134348128Y-69596150D01*
X134357887Y-69605841D01*
X134367542Y-69615701D01*
X134369177Y-69617053D01*
X134446008Y-69679715D01*
X134457480Y-69687337D01*
X134468851Y-69695123D01*
X134470718Y-69696132D01*
X134558257Y-69742677D01*
X134571000Y-69747930D01*
X134583656Y-69753354D01*
X134585683Y-69753982D01*
X134680596Y-69782638D01*
X134694156Y-69785323D01*
X134707586Y-69788178D01*
X134709696Y-69788400D01*
X134808367Y-69798075D01*
X134808378Y-69798075D01*
X134815738Y-69798800D01*
X137787561Y-69798800D01*
X137864006Y-69806296D01*
X137930388Y-69826338D01*
X137991603Y-69858886D01*
X138045337Y-69902711D01*
X138089532Y-69956134D01*
X138122511Y-70017127D01*
X138143015Y-70083363D01*
X138151001Y-70159342D01*
X138151000Y-99458961D01*
X138143504Y-99535410D01*
X138123463Y-99601787D01*
X138090914Y-99663003D01*
X138047091Y-99716735D01*
X137993666Y-99760933D01*
X137932673Y-99793911D01*
X137866437Y-99814415D01*
X137790468Y-99822400D01*
X134815738Y-99822400D01*
X134809037Y-99823060D01*
X134805877Y-99823038D01*
X134803765Y-99823245D01*
X134705163Y-99833609D01*
X134691643Y-99836384D01*
X134678135Y-99838961D01*
X134676106Y-99839573D01*
X134676100Y-99839575D01*
X134581394Y-99868892D01*
X134568702Y-99874227D01*
X134555921Y-99879391D01*
X134554048Y-99880387D01*
X134466836Y-99927542D01*
X134455421Y-99935241D01*
X134443886Y-99942790D01*
X134442241Y-99944131D01*
X134365850Y-100007328D01*
X134356159Y-100017087D01*
X134346299Y-100026742D01*
X134344947Y-100028377D01*
X134282285Y-100105208D01*
X134274663Y-100116680D01*
X134266877Y-100128051D01*
X134265868Y-100129918D01*
X134219323Y-100217457D01*
X134214070Y-100230200D01*
X134208646Y-100242856D01*
X134208021Y-100244877D01*
X134208018Y-100244884D01*
X134208017Y-100244891D01*
X134179362Y-100339796D01*
X134176684Y-100353324D01*
X134173822Y-100366786D01*
X134173600Y-100368896D01*
X134163925Y-100467567D01*
X134163925Y-100467588D01*
X134163201Y-100474938D01*
X134163200Y-103446761D01*
X134155704Y-103523210D01*
X134135663Y-103589587D01*
X134103114Y-103650803D01*
X134059291Y-103704535D01*
X134005866Y-103748733D01*
X133944873Y-103781711D01*
X133878637Y-103802215D01*
X133802668Y-103810200D01*
X127792578Y-103810200D01*
X127824679Y-103778099D01*
X127901505Y-103663122D01*
X127954423Y-103535366D01*
X127981400Y-103399741D01*
X127981400Y-103261459D01*
X127954423Y-103125834D01*
X127901505Y-102998078D01*
X127824679Y-102883101D01*
X127726899Y-102785321D01*
X127611922Y-102708495D01*
X127484166Y-102655577D01*
X127348541Y-102628600D01*
X127210259Y-102628600D01*
X127074634Y-102655577D01*
X126946878Y-102708495D01*
X126831901Y-102785321D01*
X126734121Y-102883101D01*
X126657295Y-102998078D01*
X126604377Y-103125834D01*
X126577400Y-103261459D01*
X126577400Y-103399741D01*
X126604377Y-103535366D01*
X126657295Y-103663122D01*
X126734121Y-103778099D01*
X126766222Y-103810200D01*
X92336439Y-103810200D01*
X92259990Y-103802704D01*
X92193613Y-103782663D01*
X92132397Y-103750114D01*
X92078665Y-103706291D01*
X92034467Y-103652866D01*
X92001489Y-103591873D01*
X91980985Y-103525637D01*
X91973000Y-103449668D01*
X91973000Y-102280548D01*
X92822800Y-102280548D01*
X92822800Y-102443452D01*
X92854582Y-102603227D01*
X92916923Y-102753731D01*
X93007428Y-102889181D01*
X93122619Y-103004372D01*
X93258069Y-103094877D01*
X93408573Y-103157218D01*
X93568348Y-103189000D01*
X93731252Y-103189000D01*
X93891027Y-103157218D01*
X94041531Y-103094877D01*
X94176981Y-103004372D01*
X94284800Y-102896553D01*
X94392619Y-103004372D01*
X94528069Y-103094877D01*
X94678573Y-103157218D01*
X94838348Y-103189000D01*
X95001252Y-103189000D01*
X95161027Y-103157218D01*
X95311531Y-103094877D01*
X95446981Y-103004372D01*
X95554800Y-102896553D01*
X95662619Y-103004372D01*
X95798069Y-103094877D01*
X95948573Y-103157218D01*
X96108348Y-103189000D01*
X96271252Y-103189000D01*
X96431027Y-103157218D01*
X96581531Y-103094877D01*
X96678767Y-103029906D01*
X96686594Y-103044550D01*
X96727457Y-103094343D01*
X96777250Y-103135206D01*
X96834057Y-103165570D01*
X96895697Y-103184268D01*
X96959800Y-103190582D01*
X97959800Y-103190582D01*
X98023903Y-103184268D01*
X98085543Y-103165570D01*
X98142350Y-103135206D01*
X98192143Y-103094343D01*
X98233006Y-103044550D01*
X98263370Y-102987743D01*
X98282068Y-102926103D01*
X98288382Y-102862000D01*
X98288382Y-101862000D01*
X98282068Y-101797897D01*
X98263370Y-101736257D01*
X98233006Y-101679450D01*
X98192143Y-101629657D01*
X98142350Y-101588794D01*
X98085543Y-101558430D01*
X98023903Y-101539732D01*
X97959800Y-101533418D01*
X96959800Y-101533418D01*
X96895697Y-101539732D01*
X96834057Y-101558430D01*
X96777250Y-101588794D01*
X96727457Y-101629657D01*
X96686594Y-101679450D01*
X96678767Y-101694094D01*
X96581531Y-101629123D01*
X96431027Y-101566782D01*
X96271252Y-101535000D01*
X96108348Y-101535000D01*
X95948573Y-101566782D01*
X95798069Y-101629123D01*
X95662619Y-101719628D01*
X95554800Y-101827447D01*
X95446981Y-101719628D01*
X95371800Y-101669394D01*
X95371800Y-100511459D01*
X126577400Y-100511459D01*
X126577400Y-100649741D01*
X126604377Y-100785366D01*
X126657295Y-100913122D01*
X126734121Y-101028099D01*
X126831901Y-101125879D01*
X126946878Y-101202705D01*
X127074634Y-101255623D01*
X127210259Y-101282600D01*
X127348541Y-101282600D01*
X127484166Y-101255623D01*
X127611922Y-101202705D01*
X127726899Y-101125879D01*
X127824679Y-101028099D01*
X127901505Y-100913122D01*
X127954423Y-100785366D01*
X127981400Y-100649741D01*
X127981400Y-100588597D01*
X131353000Y-100588597D01*
X131353000Y-100731803D01*
X131380938Y-100872258D01*
X131435741Y-101004564D01*
X131515302Y-101123636D01*
X131616564Y-101224898D01*
X131735636Y-101304459D01*
X131867942Y-101359262D01*
X132008397Y-101387200D01*
X132151603Y-101387200D01*
X132292058Y-101359262D01*
X132424364Y-101304459D01*
X132543436Y-101224898D01*
X132644698Y-101123636D01*
X132724259Y-101004564D01*
X132779062Y-100872258D01*
X132807000Y-100731803D01*
X132807000Y-100588597D01*
X132779062Y-100448142D01*
X132724259Y-100315836D01*
X132644698Y-100196764D01*
X132543436Y-100095502D01*
X132532000Y-100087861D01*
X132532000Y-99577423D01*
X133958705Y-98150719D01*
X133975959Y-98136559D01*
X134032443Y-98067733D01*
X134074414Y-97989210D01*
X134100260Y-97904007D01*
X134106800Y-97837605D01*
X134108987Y-97815400D01*
X134106800Y-97793195D01*
X134106800Y-81937474D01*
X135608681Y-81937474D01*
X135625354Y-81992464D01*
X135715677Y-82195806D01*
X135843935Y-82377620D01*
X135976659Y-82503788D01*
X135969923Y-82513869D01*
X135907582Y-82664373D01*
X135875800Y-82824148D01*
X135875800Y-82987052D01*
X135907582Y-83146827D01*
X135969923Y-83297331D01*
X136060428Y-83432781D01*
X136168247Y-83540600D01*
X136060428Y-83648419D01*
X135969923Y-83783869D01*
X135907582Y-83934373D01*
X135875800Y-84094148D01*
X135875800Y-84257052D01*
X135907582Y-84416827D01*
X135969923Y-84567331D01*
X136060428Y-84702781D01*
X136168247Y-84810600D01*
X136060428Y-84918419D01*
X135969923Y-85053869D01*
X135907582Y-85204373D01*
X135875800Y-85364148D01*
X135875800Y-85527052D01*
X135907582Y-85686827D01*
X135969923Y-85837331D01*
X136060428Y-85972781D01*
X136168247Y-86080600D01*
X136060428Y-86188419D01*
X135969923Y-86323869D01*
X135907582Y-86474373D01*
X135875800Y-86634148D01*
X135875800Y-86797052D01*
X135907582Y-86956827D01*
X135969923Y-87107331D01*
X136034894Y-87204567D01*
X136020250Y-87212394D01*
X135970457Y-87253257D01*
X135929594Y-87303050D01*
X135899230Y-87359857D01*
X135880532Y-87421497D01*
X135874218Y-87485600D01*
X135874218Y-88485600D01*
X135880532Y-88549703D01*
X135899230Y-88611343D01*
X135929594Y-88668150D01*
X135970457Y-88717943D01*
X136020250Y-88758806D01*
X136077057Y-88789170D01*
X136138697Y-88807868D01*
X136202800Y-88814182D01*
X137202800Y-88814182D01*
X137266903Y-88807868D01*
X137328543Y-88789170D01*
X137385350Y-88758806D01*
X137435143Y-88717943D01*
X137476006Y-88668150D01*
X137506370Y-88611343D01*
X137525068Y-88549703D01*
X137531382Y-88485600D01*
X137531382Y-87485600D01*
X137525068Y-87421497D01*
X137506370Y-87359857D01*
X137476006Y-87303050D01*
X137435143Y-87253257D01*
X137385350Y-87212394D01*
X137370706Y-87204567D01*
X137435677Y-87107331D01*
X137498018Y-86956827D01*
X137529800Y-86797052D01*
X137529800Y-86634148D01*
X137498018Y-86474373D01*
X137435677Y-86323869D01*
X137345172Y-86188419D01*
X137237353Y-86080600D01*
X137345172Y-85972781D01*
X137435677Y-85837331D01*
X137498018Y-85686827D01*
X137529800Y-85527052D01*
X137529800Y-85364148D01*
X137498018Y-85204373D01*
X137435677Y-85053869D01*
X137345172Y-84918419D01*
X137237353Y-84810600D01*
X137345172Y-84702781D01*
X137435677Y-84567331D01*
X137498018Y-84416827D01*
X137529800Y-84257052D01*
X137529800Y-84094148D01*
X137498018Y-83934373D01*
X137435677Y-83783869D01*
X137345172Y-83648419D01*
X137237353Y-83540600D01*
X137345172Y-83432781D01*
X137435677Y-83297331D01*
X137498018Y-83146827D01*
X137529800Y-82987052D01*
X137529800Y-82824148D01*
X137498018Y-82664373D01*
X137435677Y-82513869D01*
X137428941Y-82503788D01*
X137561665Y-82377620D01*
X137689923Y-82195806D01*
X137780246Y-81992464D01*
X137796919Y-81937474D01*
X137670754Y-81762600D01*
X136829800Y-81762600D01*
X136829800Y-81782600D01*
X136575800Y-81782600D01*
X136575800Y-81762600D01*
X135734846Y-81762600D01*
X135608681Y-81937474D01*
X134106800Y-81937474D01*
X134106800Y-81333726D01*
X135608681Y-81333726D01*
X135734846Y-81508600D01*
X136575800Y-81508600D01*
X136575800Y-80666471D01*
X136829800Y-80666471D01*
X136829800Y-81508600D01*
X137670754Y-81508600D01*
X137796919Y-81333726D01*
X137780246Y-81278736D01*
X137689923Y-81075394D01*
X137561665Y-80893580D01*
X137400401Y-80740282D01*
X137212329Y-80621390D01*
X137004676Y-80541474D01*
X136829800Y-80666471D01*
X136575800Y-80666471D01*
X136400924Y-80541474D01*
X136193271Y-80621390D01*
X136005199Y-80740282D01*
X135843935Y-80893580D01*
X135715677Y-81075394D01*
X135625354Y-81278736D01*
X135608681Y-81333726D01*
X134106800Y-81333726D01*
X134106800Y-76950139D01*
X134118236Y-76942498D01*
X134219498Y-76841236D01*
X134299059Y-76722164D01*
X134353862Y-76589858D01*
X134381800Y-76449403D01*
X134381800Y-76306197D01*
X134353862Y-76165742D01*
X134299059Y-76033436D01*
X134219498Y-75914364D01*
X134118236Y-75813102D01*
X133999164Y-75733541D01*
X133866858Y-75678738D01*
X133726403Y-75650800D01*
X133583197Y-75650800D01*
X133442742Y-75678738D01*
X133310436Y-75733541D01*
X133191364Y-75813102D01*
X133090102Y-75914364D01*
X133010541Y-76033436D01*
X132955738Y-76165742D01*
X132927800Y-76306197D01*
X132927800Y-76449403D01*
X132955738Y-76589858D01*
X133010541Y-76722164D01*
X133090102Y-76841236D01*
X133191364Y-76942498D01*
X133202800Y-76950139D01*
X133202801Y-97628175D01*
X131776096Y-99054881D01*
X131758842Y-99069041D01*
X131728344Y-99106203D01*
X131702358Y-99137867D01*
X131660386Y-99216391D01*
X131634540Y-99301593D01*
X131625813Y-99390200D01*
X131628001Y-99412415D01*
X131628000Y-100087860D01*
X131616564Y-100095502D01*
X131515302Y-100196764D01*
X131435741Y-100315836D01*
X131380938Y-100448142D01*
X131353000Y-100588597D01*
X127981400Y-100588597D01*
X127981400Y-100511459D01*
X127954423Y-100375834D01*
X127901505Y-100248078D01*
X127824679Y-100133101D01*
X127726899Y-100035321D01*
X127611922Y-99958495D01*
X127484166Y-99905577D01*
X127348541Y-99878600D01*
X127210259Y-99878600D01*
X127074634Y-99905577D01*
X126946878Y-99958495D01*
X126831901Y-100035321D01*
X126734121Y-100133101D01*
X126657295Y-100248078D01*
X126604377Y-100375834D01*
X126577400Y-100511459D01*
X95371800Y-100511459D01*
X95371800Y-99606939D01*
X95383236Y-99599298D01*
X95484498Y-99498036D01*
X95564059Y-99378964D01*
X95618862Y-99246658D01*
X95646800Y-99106203D01*
X95646800Y-98962997D01*
X95618862Y-98822542D01*
X95564059Y-98690236D01*
X95484498Y-98571164D01*
X95383236Y-98469902D01*
X95264164Y-98390341D01*
X95131858Y-98335538D01*
X94991403Y-98307600D01*
X94848197Y-98307600D01*
X94707742Y-98335538D01*
X94575436Y-98390341D01*
X94456364Y-98469902D01*
X94355102Y-98571164D01*
X94275541Y-98690236D01*
X94220738Y-98822542D01*
X94192800Y-98962997D01*
X94192800Y-99106203D01*
X94220738Y-99246658D01*
X94275541Y-99378964D01*
X94355102Y-99498036D01*
X94456364Y-99599298D01*
X94467800Y-99606939D01*
X94467801Y-101669393D01*
X94392619Y-101719628D01*
X94284800Y-101827447D01*
X94176981Y-101719628D01*
X94041531Y-101629123D01*
X93891027Y-101566782D01*
X93731252Y-101535000D01*
X93568348Y-101535000D01*
X93408573Y-101566782D01*
X93258069Y-101629123D01*
X93122619Y-101719628D01*
X93007428Y-101834819D01*
X92916923Y-101970269D01*
X92854582Y-102120773D01*
X92822800Y-102280548D01*
X91973000Y-102280548D01*
X91973000Y-100474938D01*
X91972340Y-100468237D01*
X91972362Y-100465077D01*
X91972155Y-100462965D01*
X91961791Y-100364363D01*
X91959016Y-100350843D01*
X91956439Y-100337335D01*
X91955826Y-100335304D01*
X91926508Y-100240594D01*
X91921173Y-100227902D01*
X91916009Y-100215121D01*
X91915013Y-100213248D01*
X91867858Y-100126036D01*
X91860159Y-100114621D01*
X91852610Y-100103086D01*
X91851269Y-100101441D01*
X91788072Y-100025050D01*
X91778313Y-100015359D01*
X91768658Y-100005499D01*
X91767023Y-100004147D01*
X91690192Y-99941485D01*
X91678720Y-99933863D01*
X91667349Y-99926077D01*
X91665482Y-99925068D01*
X91577943Y-99878523D01*
X91565200Y-99873270D01*
X91552544Y-99867846D01*
X91550523Y-99867221D01*
X91550516Y-99867218D01*
X91550509Y-99867217D01*
X91455604Y-99838562D01*
X91442076Y-99835884D01*
X91428614Y-99833022D01*
X91426504Y-99832800D01*
X91327833Y-99823125D01*
X91327822Y-99823125D01*
X91320462Y-99822400D01*
X88348639Y-99822400D01*
X88272190Y-99814904D01*
X88205813Y-99794863D01*
X88144597Y-99762314D01*
X88090865Y-99718491D01*
X88046667Y-99665066D01*
X88013689Y-99604073D01*
X87993185Y-99537837D01*
X87985200Y-99461868D01*
X87985200Y-94387363D01*
X87992073Y-94317271D01*
X88012150Y-94250771D01*
X88044759Y-94189444D01*
X88088660Y-94135614D01*
X88142177Y-94091342D01*
X88203280Y-94058304D01*
X88271211Y-94037276D01*
X88330572Y-94029744D01*
X88333123Y-94029762D01*
X88335235Y-94029555D01*
X88433837Y-94019191D01*
X88447357Y-94016416D01*
X88460865Y-94013839D01*
X88462894Y-94013227D01*
X88462900Y-94013225D01*
X88557606Y-93983908D01*
X88570298Y-93978573D01*
X88583079Y-93973409D01*
X88584952Y-93972413D01*
X88672164Y-93925258D01*
X88683594Y-93917548D01*
X88695114Y-93910010D01*
X88696758Y-93908669D01*
X88773150Y-93845472D01*
X88782841Y-93835713D01*
X88792701Y-93826058D01*
X88794053Y-93824423D01*
X88856715Y-93747592D01*
X88864337Y-93736120D01*
X88872123Y-93724749D01*
X88873132Y-93722882D01*
X88919677Y-93635343D01*
X88924930Y-93622600D01*
X88930354Y-93609944D01*
X88930982Y-93607917D01*
X88959638Y-93513004D01*
X88962323Y-93499444D01*
X88965178Y-93486014D01*
X88965400Y-93483904D01*
X88975075Y-93385233D01*
X88975075Y-93385222D01*
X88975800Y-93377862D01*
X88975800Y-90272890D01*
X89236524Y-90272890D01*
X89281175Y-90420099D01*
X89406359Y-90682920D01*
X89580412Y-90916269D01*
X89796645Y-91111178D01*
X90046748Y-91260157D01*
X90321109Y-91357481D01*
X90551000Y-91236814D01*
X90551000Y-90043000D01*
X90805000Y-90043000D01*
X90805000Y-91236814D01*
X91034891Y-91357481D01*
X91309252Y-91260157D01*
X91559355Y-91111178D01*
X91775588Y-90916269D01*
X91949641Y-90682920D01*
X92074825Y-90420099D01*
X92119476Y-90272890D01*
X92032920Y-90108875D01*
X105431330Y-90108875D01*
X106607047Y-91294964D01*
X108426861Y-92332718D01*
X110414163Y-92995504D01*
X112492584Y-93257850D01*
X114582249Y-93109677D01*
X116602855Y-92556677D01*
X118476751Y-91620102D01*
X118963353Y-91294964D01*
X120139070Y-90108875D01*
X112785200Y-82755005D01*
X105431330Y-90108875D01*
X92032920Y-90108875D01*
X91998155Y-90043000D01*
X90805000Y-90043000D01*
X90551000Y-90043000D01*
X89357845Y-90043000D01*
X89236524Y-90272890D01*
X88975800Y-90272890D01*
X88975800Y-89559110D01*
X89236524Y-89559110D01*
X89357845Y-89789000D01*
X90551000Y-89789000D01*
X90551000Y-89769000D01*
X90805000Y-89769000D01*
X90805000Y-89789000D01*
X91998155Y-89789000D01*
X92119476Y-89559110D01*
X92074825Y-89411901D01*
X91949641Y-89149080D01*
X91775588Y-88915731D01*
X91559355Y-88720822D01*
X91309252Y-88571843D01*
X91070821Y-88487264D01*
X91235519Y-88419044D01*
X91428294Y-88290236D01*
X91592236Y-88126294D01*
X91721044Y-87933519D01*
X91809769Y-87719318D01*
X91855000Y-87491924D01*
X91855000Y-87260076D01*
X91809769Y-87032682D01*
X91721044Y-86818481D01*
X91592236Y-86625706D01*
X91428294Y-86461764D01*
X91235519Y-86332956D01*
X91021318Y-86244231D01*
X90793924Y-86199000D01*
X90562076Y-86199000D01*
X90334682Y-86244231D01*
X90120481Y-86332956D01*
X89927706Y-86461764D01*
X89763764Y-86625706D01*
X89634956Y-86818481D01*
X89546231Y-87032682D01*
X89501000Y-87260076D01*
X89501000Y-87491924D01*
X89546231Y-87719318D01*
X89634956Y-87933519D01*
X89763764Y-88126294D01*
X89927706Y-88290236D01*
X90120481Y-88419044D01*
X90285179Y-88487264D01*
X90046748Y-88571843D01*
X89796645Y-88720822D01*
X89580412Y-88915731D01*
X89406359Y-89149080D01*
X89281175Y-89411901D01*
X89236524Y-89559110D01*
X88975800Y-89559110D01*
X88975800Y-84720076D01*
X89501000Y-84720076D01*
X89501000Y-84951924D01*
X89546231Y-85179318D01*
X89634956Y-85393519D01*
X89763764Y-85586294D01*
X89927706Y-85750236D01*
X90120481Y-85879044D01*
X90334682Y-85967769D01*
X90562076Y-86013000D01*
X90793924Y-86013000D01*
X91021318Y-85967769D01*
X91235519Y-85879044D01*
X91428294Y-85750236D01*
X91592236Y-85586294D01*
X91721044Y-85393519D01*
X91809769Y-85179318D01*
X91855000Y-84951924D01*
X91855000Y-84720076D01*
X91809769Y-84492682D01*
X91721044Y-84278481D01*
X91592236Y-84085706D01*
X91428294Y-83921764D01*
X91235519Y-83792956D01*
X91021318Y-83704231D01*
X90793924Y-83659000D01*
X90562076Y-83659000D01*
X90334682Y-83704231D01*
X90120481Y-83792956D01*
X89927706Y-83921764D01*
X89763764Y-84085706D01*
X89634956Y-84278481D01*
X89546231Y-84492682D01*
X89501000Y-84720076D01*
X88975800Y-84720076D01*
X88975800Y-82180076D01*
X89501000Y-82180076D01*
X89501000Y-82411924D01*
X89546231Y-82639318D01*
X89634956Y-82853519D01*
X89763764Y-83046294D01*
X89927706Y-83210236D01*
X90120481Y-83339044D01*
X90334682Y-83427769D01*
X90562076Y-83473000D01*
X90793924Y-83473000D01*
X91021318Y-83427769D01*
X91235519Y-83339044D01*
X91428294Y-83210236D01*
X91592236Y-83046294D01*
X91721044Y-82853519D01*
X91764751Y-82748000D01*
X92548176Y-82748000D01*
X92715201Y-82915025D01*
X92715200Y-86921995D01*
X92713013Y-86944200D01*
X92721740Y-87032807D01*
X92721918Y-87033393D01*
X92747586Y-87118009D01*
X92789557Y-87196532D01*
X92846041Y-87265359D01*
X92863300Y-87279523D01*
X93009680Y-87425904D01*
X93023841Y-87443159D01*
X93092667Y-87499643D01*
X93171190Y-87541614D01*
X93256392Y-87567460D01*
X93344999Y-87576187D01*
X93367204Y-87574000D01*
X101417140Y-87574000D01*
X101421232Y-87576187D01*
X101451591Y-87592414D01*
X101536793Y-87618260D01*
X101625399Y-87626987D01*
X101625400Y-87626987D01*
X101714007Y-87618260D01*
X101799210Y-87592414D01*
X101877733Y-87550443D01*
X101946559Y-87493959D01*
X102003043Y-87425133D01*
X102045014Y-87346610D01*
X102070860Y-87261407D01*
X102077400Y-87195005D01*
X102077400Y-87195004D01*
X102079587Y-87172799D01*
X102077400Y-87150594D01*
X102077400Y-82282784D01*
X102102750Y-82282784D01*
X102250923Y-84372449D01*
X102803923Y-86393055D01*
X103740498Y-88266951D01*
X104065636Y-88753553D01*
X105251725Y-89929270D01*
X112605595Y-82575400D01*
X112964805Y-82575400D01*
X120318675Y-89929270D01*
X121504764Y-88753553D01*
X122542518Y-86933739D01*
X123205304Y-84946437D01*
X123467650Y-82868016D01*
X123319477Y-80778351D01*
X123058674Y-79825400D01*
X124756618Y-79825400D01*
X124756618Y-85325400D01*
X124762932Y-85389503D01*
X124781630Y-85451143D01*
X124811994Y-85507950D01*
X124852857Y-85557743D01*
X124902650Y-85598606D01*
X124959457Y-85628970D01*
X125021097Y-85647668D01*
X125085200Y-85653982D01*
X131085200Y-85653982D01*
X131149303Y-85647668D01*
X131210943Y-85628970D01*
X131267750Y-85598606D01*
X131317543Y-85557743D01*
X131358406Y-85507950D01*
X131388770Y-85451143D01*
X131407468Y-85389503D01*
X131413782Y-85325400D01*
X131413782Y-79825400D01*
X131407468Y-79761297D01*
X131388770Y-79699657D01*
X131358406Y-79642850D01*
X131317543Y-79593057D01*
X131267750Y-79552194D01*
X131210943Y-79521830D01*
X131149303Y-79503132D01*
X131085200Y-79496818D01*
X125085200Y-79496818D01*
X125021097Y-79503132D01*
X124959457Y-79521830D01*
X124902650Y-79552194D01*
X124852857Y-79593057D01*
X124811994Y-79642850D01*
X124781630Y-79699657D01*
X124762932Y-79761297D01*
X124756618Y-79825400D01*
X123058674Y-79825400D01*
X122766477Y-78757745D01*
X121829902Y-76883849D01*
X121504764Y-76397247D01*
X120318675Y-75221530D01*
X112964805Y-82575400D01*
X112605595Y-82575400D01*
X105251725Y-75221530D01*
X104065636Y-76397247D01*
X103027882Y-78217061D01*
X102365096Y-80204363D01*
X102102750Y-82282784D01*
X102077400Y-82282784D01*
X102077400Y-75041925D01*
X105431330Y-75041925D01*
X112785200Y-82395795D01*
X120139070Y-75041925D01*
X118963353Y-73855836D01*
X117143539Y-72818082D01*
X115156237Y-72155296D01*
X113077816Y-71892950D01*
X110988151Y-72041123D01*
X108967545Y-72594123D01*
X107093649Y-73530698D01*
X106607047Y-73855836D01*
X105431330Y-75041925D01*
X102077400Y-75041925D01*
X102077400Y-74634623D01*
X103046910Y-73665115D01*
X103064159Y-73650959D01*
X103120643Y-73582133D01*
X103162614Y-73503610D01*
X103163475Y-73500772D01*
X103188460Y-73418408D01*
X103197187Y-73329801D01*
X103195000Y-73307596D01*
X103195000Y-73241739D01*
X103206436Y-73234098D01*
X103307698Y-73132836D01*
X103387259Y-73013764D01*
X103442062Y-72881458D01*
X103470000Y-72741003D01*
X103470000Y-72597797D01*
X103442062Y-72457342D01*
X103387259Y-72325036D01*
X103307698Y-72205964D01*
X103206436Y-72104702D01*
X103087364Y-72025141D01*
X102955058Y-71970338D01*
X102814603Y-71942400D01*
X102671397Y-71942400D01*
X102530942Y-71970338D01*
X102398636Y-72025141D01*
X102279564Y-72104702D01*
X102178302Y-72205964D01*
X102098741Y-72325036D01*
X102043938Y-72457342D01*
X102016000Y-72597797D01*
X102016000Y-72741003D01*
X102043938Y-72881458D01*
X102098741Y-73013764D01*
X102178302Y-73132836D01*
X102239521Y-73194055D01*
X101321500Y-74112077D01*
X101304241Y-74126241D01*
X101249126Y-74193400D01*
X101247758Y-74195067D01*
X101205786Y-74273591D01*
X101179940Y-74358793D01*
X101171213Y-74447400D01*
X101173400Y-74469605D01*
X101173401Y-86670000D01*
X93619200Y-86670000D01*
X93619200Y-82750004D01*
X93621387Y-82727799D01*
X93612660Y-82639192D01*
X93602205Y-82604729D01*
X93586814Y-82553990D01*
X93544843Y-82475467D01*
X93488359Y-82406641D01*
X93471110Y-82392485D01*
X93070723Y-81992100D01*
X93056559Y-81974841D01*
X92987733Y-81918357D01*
X92909210Y-81876386D01*
X92824007Y-81850540D01*
X92757605Y-81844000D01*
X92735400Y-81841813D01*
X92713195Y-81844000D01*
X91764751Y-81844000D01*
X91721044Y-81738481D01*
X91592236Y-81545706D01*
X91428294Y-81381764D01*
X91235519Y-81252956D01*
X91021318Y-81164231D01*
X90793924Y-81119000D01*
X90562076Y-81119000D01*
X90334682Y-81164231D01*
X90120481Y-81252956D01*
X89927706Y-81381764D01*
X89763764Y-81545706D01*
X89634956Y-81738481D01*
X89546231Y-81952682D01*
X89501000Y-82180076D01*
X88975800Y-82180076D01*
X88975800Y-78906000D01*
X89499418Y-78906000D01*
X89499418Y-80606000D01*
X89505732Y-80670103D01*
X89524430Y-80731743D01*
X89554794Y-80788550D01*
X89595657Y-80838343D01*
X89645450Y-80879206D01*
X89702257Y-80909570D01*
X89763897Y-80928268D01*
X89828000Y-80934582D01*
X91528000Y-80934582D01*
X91592103Y-80928268D01*
X91653743Y-80909570D01*
X91710550Y-80879206D01*
X91760343Y-80838343D01*
X91801206Y-80788550D01*
X91831570Y-80731743D01*
X91850268Y-80670103D01*
X91856582Y-80606000D01*
X91856582Y-79825400D01*
X94156618Y-79825400D01*
X94156618Y-85325400D01*
X94162932Y-85389503D01*
X94181630Y-85451143D01*
X94211994Y-85507950D01*
X94252857Y-85557743D01*
X94302650Y-85598606D01*
X94359457Y-85628970D01*
X94421097Y-85647668D01*
X94485200Y-85653982D01*
X100485200Y-85653982D01*
X100549303Y-85647668D01*
X100610943Y-85628970D01*
X100667750Y-85598606D01*
X100717543Y-85557743D01*
X100758406Y-85507950D01*
X100788770Y-85451143D01*
X100807468Y-85389503D01*
X100813782Y-85325400D01*
X100813782Y-79825400D01*
X100807468Y-79761297D01*
X100788770Y-79699657D01*
X100758406Y-79642850D01*
X100717543Y-79593057D01*
X100667750Y-79552194D01*
X100610943Y-79521830D01*
X100549303Y-79503132D01*
X100485200Y-79496818D01*
X98411800Y-79496818D01*
X98411800Y-78512795D01*
X98416274Y-78507343D01*
X98469740Y-78407314D01*
X98502665Y-78298777D01*
X98513782Y-78185901D01*
X98513782Y-77660899D01*
X98502665Y-77548023D01*
X98469740Y-77439486D01*
X98416274Y-77339457D01*
X98344320Y-77251780D01*
X98256643Y-77179826D01*
X98156614Y-77126360D01*
X98048077Y-77093435D01*
X97935201Y-77082318D01*
X97035199Y-77082318D01*
X96922323Y-77093435D01*
X96813786Y-77126360D01*
X96713757Y-77179826D01*
X96626080Y-77251780D01*
X96554126Y-77339457D01*
X96500660Y-77439486D01*
X96467735Y-77548023D01*
X96456618Y-77660899D01*
X96456618Y-78185901D01*
X96467735Y-78298777D01*
X96500660Y-78407314D01*
X96507800Y-78420672D01*
X96507800Y-79496818D01*
X94485200Y-79496818D01*
X94421097Y-79503132D01*
X94359457Y-79521830D01*
X94302650Y-79552194D01*
X94252857Y-79593057D01*
X94211994Y-79642850D01*
X94181630Y-79699657D01*
X94162932Y-79761297D01*
X94156618Y-79825400D01*
X91856582Y-79825400D01*
X91856582Y-79534840D01*
X94616023Y-76775400D01*
X96632636Y-76775400D01*
X96713757Y-76841974D01*
X96813786Y-76895440D01*
X96922323Y-76928365D01*
X97035199Y-76939482D01*
X97935201Y-76939482D01*
X98048077Y-76928365D01*
X98156614Y-76895440D01*
X98256643Y-76841974D01*
X98344320Y-76770020D01*
X98416274Y-76682343D01*
X98469740Y-76582314D01*
X98502665Y-76473777D01*
X98513782Y-76360901D01*
X98513782Y-75835899D01*
X98502665Y-75723023D01*
X98469740Y-75614486D01*
X98416274Y-75514457D01*
X98344320Y-75426780D01*
X98256643Y-75354826D01*
X98175200Y-75311294D01*
X98175200Y-74634052D01*
X98183487Y-74623954D01*
X98234643Y-74528247D01*
X98266145Y-74424398D01*
X98276782Y-74316400D01*
X98276782Y-73816400D01*
X98266145Y-73708402D01*
X98234643Y-73604553D01*
X98183487Y-73508846D01*
X98138400Y-73453907D01*
X98138400Y-73089910D01*
X98195343Y-73059474D01*
X98283020Y-72987520D01*
X98354974Y-72899843D01*
X98408440Y-72799814D01*
X98441365Y-72691277D01*
X98452482Y-72578401D01*
X98452482Y-70728399D01*
X98441365Y-70615523D01*
X98408440Y-70506986D01*
X98354974Y-70406957D01*
X98283020Y-70319280D01*
X98195343Y-70247326D01*
X98138400Y-70216890D01*
X98138400Y-69478441D01*
X98141674Y-69445199D01*
X98138400Y-69411957D01*
X98138400Y-69411948D01*
X98128604Y-69312485D01*
X98089892Y-69184870D01*
X98027028Y-69067259D01*
X97942426Y-68964173D01*
X97916595Y-68942974D01*
X97530227Y-68556605D01*
X97509027Y-68530773D01*
X97405941Y-68446172D01*
X97288330Y-68383308D01*
X97160715Y-68344596D01*
X97061252Y-68334800D01*
X97061245Y-68334800D01*
X97028000Y-68331526D01*
X96994755Y-68334800D01*
X95280820Y-68334800D01*
X95480006Y-68246323D01*
X95661820Y-68118065D01*
X95787988Y-67985341D01*
X95798069Y-67992077D01*
X95948573Y-68054418D01*
X96108348Y-68086200D01*
X96271252Y-68086200D01*
X96431027Y-68054418D01*
X96581531Y-67992077D01*
X96678767Y-67927106D01*
X96686594Y-67941750D01*
X96727457Y-67991543D01*
X96777250Y-68032406D01*
X96834057Y-68062770D01*
X96895697Y-68081468D01*
X96959800Y-68087782D01*
X97959800Y-68087782D01*
X98023903Y-68081468D01*
X98085543Y-68062770D01*
X98142350Y-68032406D01*
X98192143Y-67991543D01*
X98233006Y-67941750D01*
X98263370Y-67884943D01*
X98282068Y-67823303D01*
X98288382Y-67759200D01*
X98288382Y-66759200D01*
X98282068Y-66695097D01*
X98263370Y-66633457D01*
X98233006Y-66576650D01*
X98192143Y-66526857D01*
X98142350Y-66485994D01*
X98085543Y-66455630D01*
X98023903Y-66436932D01*
X97959800Y-66430618D01*
X96959800Y-66430618D01*
X96895697Y-66436932D01*
X96834057Y-66455630D01*
X96777250Y-66485994D01*
X96727457Y-66526857D01*
X96686594Y-66576650D01*
X96678767Y-66591294D01*
X96581531Y-66526323D01*
X96431027Y-66463982D01*
X96271252Y-66432200D01*
X96108348Y-66432200D01*
X95948573Y-66463982D01*
X95798069Y-66526323D01*
X95787988Y-66533059D01*
X95661820Y-66400335D01*
X95480006Y-66272077D01*
X95276664Y-66181754D01*
X95221674Y-66165081D01*
X95046800Y-66291246D01*
X95046800Y-67132200D01*
X95066800Y-67132200D01*
X95066800Y-67386200D01*
X95046800Y-67386200D01*
X95046800Y-67406200D01*
X94792800Y-67406200D01*
X94792800Y-67386200D01*
X94772800Y-67386200D01*
X94772800Y-67132200D01*
X94792800Y-67132200D01*
X94792800Y-66291246D01*
X94617926Y-66165081D01*
X94562936Y-66181754D01*
X94359594Y-66272077D01*
X94177780Y-66400335D01*
X94051612Y-66533059D01*
X94041531Y-66526323D01*
X93891027Y-66463982D01*
X93731252Y-66432200D01*
X93568348Y-66432200D01*
X93408573Y-66463982D01*
X93258069Y-66526323D01*
X93122619Y-66616828D01*
X93007428Y-66732019D01*
X92916923Y-66867469D01*
X92854582Y-67017973D01*
X92822800Y-67177748D01*
X92822800Y-67340652D01*
X92854582Y-67500427D01*
X92916923Y-67650931D01*
X92972800Y-67734557D01*
X92972801Y-68318146D01*
X92969526Y-68351400D01*
X92982596Y-68484114D01*
X93021308Y-68611729D01*
X93084172Y-68729340D01*
X93147576Y-68806598D01*
X93147579Y-68806601D01*
X93168774Y-68832427D01*
X93194600Y-68853622D01*
X93807978Y-69467001D01*
X93829173Y-69492827D01*
X93854999Y-69514022D01*
X93855001Y-69514024D01*
X93932259Y-69577428D01*
X94049870Y-69640292D01*
X94177485Y-69679004D01*
X94310200Y-69692075D01*
X94343452Y-69688800D01*
X96747578Y-69688800D01*
X96784400Y-69725622D01*
X96784400Y-70216889D01*
X96727457Y-70247326D01*
X96639780Y-70319280D01*
X96567826Y-70406957D01*
X96514360Y-70506986D01*
X96481435Y-70615523D01*
X96470318Y-70728399D01*
X96470318Y-72578401D01*
X96481435Y-72691277D01*
X96514360Y-72799814D01*
X96567826Y-72899843D01*
X96639780Y-72987520D01*
X96685169Y-73024770D01*
X96642380Y-73001898D01*
X96522682Y-72965588D01*
X96398200Y-72953328D01*
X96233950Y-72956400D01*
X96075200Y-73115150D01*
X96075200Y-73939400D01*
X96095200Y-73939400D01*
X96095200Y-74193400D01*
X96075200Y-74193400D01*
X96075200Y-75017650D01*
X96233950Y-75176400D01*
X96398200Y-75179472D01*
X96522682Y-75167212D01*
X96642380Y-75130902D01*
X96752694Y-75071937D01*
X96821200Y-75015715D01*
X96821201Y-75299111D01*
X96813786Y-75301360D01*
X96713757Y-75354826D01*
X96632636Y-75421400D01*
X94368852Y-75421400D01*
X94335600Y-75418125D01*
X94202885Y-75431196D01*
X94075270Y-75469908D01*
X93957659Y-75532772D01*
X93882014Y-75594853D01*
X93854573Y-75617373D01*
X93833378Y-75643199D01*
X90899160Y-78577418D01*
X89828000Y-78577418D01*
X89763897Y-78583732D01*
X89702257Y-78602430D01*
X89645450Y-78632794D01*
X89595657Y-78673657D01*
X89554794Y-78723450D01*
X89524430Y-78780257D01*
X89505732Y-78841897D01*
X89499418Y-78906000D01*
X88975800Y-78906000D01*
X88975800Y-76573538D01*
X88975232Y-76567770D01*
X88969462Y-76492251D01*
X88967358Y-76480278D01*
X88965681Y-76468250D01*
X88965170Y-76466190D01*
X88940619Y-76370134D01*
X88935914Y-76357164D01*
X88931404Y-76344166D01*
X88930502Y-76342245D01*
X88887761Y-76252787D01*
X88880621Y-76240970D01*
X88873679Y-76229107D01*
X88872421Y-76227397D01*
X88813119Y-76147945D01*
X88803841Y-76137762D01*
X88794704Y-76127448D01*
X88793139Y-76126016D01*
X88719532Y-76059595D01*
X88708471Y-76051422D01*
X88697489Y-76043067D01*
X88695675Y-76041966D01*
X88610569Y-75991107D01*
X88598098Y-75985222D01*
X88585734Y-75979175D01*
X88583741Y-75978447D01*
X88490378Y-75945087D01*
X88476999Y-75941736D01*
X88463697Y-75938206D01*
X88461601Y-75937879D01*
X88366599Y-75923745D01*
X88358143Y-75921947D01*
X88356033Y-75921725D01*
X88272190Y-75913504D01*
X88205813Y-75893463D01*
X88144597Y-75860914D01*
X88090865Y-75817091D01*
X88046667Y-75763666D01*
X88013689Y-75702673D01*
X87993185Y-75636437D01*
X87985200Y-75560468D01*
X87985200Y-74541400D01*
X94860128Y-74541400D01*
X94872388Y-74665882D01*
X94908698Y-74785580D01*
X94967663Y-74895894D01*
X95047015Y-74992585D01*
X95143706Y-75071937D01*
X95254020Y-75130902D01*
X95373718Y-75167212D01*
X95498200Y-75179472D01*
X95662450Y-75176400D01*
X95821200Y-75017650D01*
X95821200Y-74193400D01*
X95021950Y-74193400D01*
X94863200Y-74352150D01*
X94860128Y-74541400D01*
X87985200Y-74541400D01*
X87985200Y-72828400D01*
X93085828Y-72828400D01*
X93098088Y-72952882D01*
X93134398Y-73072580D01*
X93193363Y-73182894D01*
X93272715Y-73279585D01*
X93369406Y-73358937D01*
X93479720Y-73417902D01*
X93599418Y-73454212D01*
X93723900Y-73466472D01*
X94100650Y-73463400D01*
X94259400Y-73304650D01*
X94259400Y-71780400D01*
X94513400Y-71780400D01*
X94513400Y-73304650D01*
X94672150Y-73463400D01*
X94872958Y-73465037D01*
X94872388Y-73466918D01*
X94860128Y-73591400D01*
X94863200Y-73780650D01*
X95021950Y-73939400D01*
X95821200Y-73939400D01*
X95821200Y-73115150D01*
X95671039Y-72964989D01*
X95674712Y-72952882D01*
X95686972Y-72828400D01*
X95683900Y-71939150D01*
X95525150Y-71780400D01*
X94513400Y-71780400D01*
X94259400Y-71780400D01*
X93247650Y-71780400D01*
X93088900Y-71939150D01*
X93085828Y-72828400D01*
X87985200Y-72828400D01*
X87985200Y-70478400D01*
X93085828Y-70478400D01*
X93088900Y-71367650D01*
X93247650Y-71526400D01*
X94259400Y-71526400D01*
X94259400Y-70002150D01*
X94513400Y-70002150D01*
X94513400Y-71526400D01*
X95525150Y-71526400D01*
X95683900Y-71367650D01*
X95686972Y-70478400D01*
X95674712Y-70353918D01*
X95638402Y-70234220D01*
X95579437Y-70123906D01*
X95500085Y-70027215D01*
X95403394Y-69947863D01*
X95293080Y-69888898D01*
X95173382Y-69852588D01*
X95048900Y-69840328D01*
X94672150Y-69843400D01*
X94513400Y-70002150D01*
X94259400Y-70002150D01*
X94100650Y-69843400D01*
X93723900Y-69840328D01*
X93599418Y-69852588D01*
X93479720Y-69888898D01*
X93369406Y-69947863D01*
X93272715Y-70027215D01*
X93193363Y-70123906D01*
X93134398Y-70234220D01*
X93098088Y-70353918D01*
X93085828Y-70478400D01*
X87985200Y-70478400D01*
X87985200Y-70162239D01*
X87992696Y-70085794D01*
X88012738Y-70019412D01*
X88045286Y-69958197D01*
X88089111Y-69904463D01*
X88142534Y-69860268D01*
X88203527Y-69827289D01*
X88269763Y-69806785D01*
X88345732Y-69798800D01*
X91320462Y-69798800D01*
X91327163Y-69798140D01*
X91330323Y-69798162D01*
X91332435Y-69797955D01*
X91431037Y-69787591D01*
X91444557Y-69784816D01*
X91458065Y-69782239D01*
X91460094Y-69781627D01*
X91460100Y-69781625D01*
X91554806Y-69752308D01*
X91567498Y-69746973D01*
X91580279Y-69741809D01*
X91582152Y-69740813D01*
X91669364Y-69693658D01*
X91680794Y-69685948D01*
X91692314Y-69678410D01*
X91693958Y-69677069D01*
X91770350Y-69613872D01*
X91780041Y-69604113D01*
X91789901Y-69594458D01*
X91791253Y-69592823D01*
X91853915Y-69515992D01*
X91861537Y-69504520D01*
X91869323Y-69493149D01*
X91870332Y-69491282D01*
X91916877Y-69403743D01*
X91922130Y-69391000D01*
X91927554Y-69378344D01*
X91928182Y-69376317D01*
X91956838Y-69281404D01*
X91959523Y-69267844D01*
X91962378Y-69254414D01*
X91962600Y-69252304D01*
X91972275Y-69153633D01*
X91972275Y-69153622D01*
X91973000Y-69146262D01*
X91973000Y-66174439D01*
X91980496Y-66097994D01*
X92000538Y-66031612D01*
X92033086Y-65970397D01*
X92076911Y-65916663D01*
X92130334Y-65872468D01*
X92191327Y-65839489D01*
X92257563Y-65818985D01*
X92333532Y-65811000D01*
X106201771Y-65811000D01*
X106264355Y-65836923D01*
%TA.AperFunction,Conductor*%
D21*
G36*
X106264355Y-65836923D02*
G01*
X106341376Y-65896024D01*
X106400477Y-65973045D01*
X106437631Y-66062743D01*
X106451400Y-66167328D01*
X106451400Y-71026400D01*
X106452486Y-71042977D01*
X106469523Y-71172387D01*
X106478104Y-71204411D01*
X106528054Y-71325001D01*
X106544632Y-71353713D01*
X106624092Y-71457266D01*
X106647534Y-71480708D01*
X106751087Y-71560168D01*
X106779799Y-71576746D01*
X106900389Y-71626696D01*
X106932413Y-71635277D01*
X107061823Y-71652314D01*
X107078400Y-71653400D01*
X120607200Y-71653400D01*
X120623777Y-71652314D01*
X120753187Y-71635277D01*
X120785211Y-71626696D01*
X120905801Y-71576746D01*
X120934513Y-71560168D01*
X121038066Y-71480708D01*
X121061508Y-71457266D01*
X121140968Y-71353713D01*
X121157546Y-71325001D01*
X121207496Y-71204411D01*
X121216077Y-71172387D01*
X121233114Y-71042977D01*
X121234200Y-71026400D01*
X121234200Y-66167328D01*
X121247969Y-66062743D01*
X121285123Y-65973045D01*
X121344224Y-65896024D01*
X121421245Y-65836923D01*
X121483829Y-65811000D01*
X133799761Y-65811000D01*
X133876206Y-65818496D01*
X133942588Y-65838538D01*
X134003803Y-65871086D01*
X134057537Y-65914911D01*
X134101732Y-65968334D01*
X134134711Y-66029327D01*
X134155215Y-66095563D01*
X134163201Y-66171542D01*
X134163200Y-69146261D01*
X134163860Y-69152962D01*
X134163838Y-69156123D01*
X134164045Y-69158235D01*
X134174409Y-69256837D01*
X134177184Y-69270357D01*
X134179761Y-69283865D01*
X134180374Y-69285896D01*
X134209692Y-69380606D01*
X134215027Y-69393298D01*
X134220191Y-69406079D01*
X134221187Y-69407952D01*
X134268342Y-69495164D01*
X134276052Y-69506594D01*
X134283590Y-69518114D01*
X134284931Y-69519758D01*
X134348128Y-69596150D01*
X134357887Y-69605841D01*
X134367542Y-69615701D01*
X134369177Y-69617053D01*
X134446008Y-69679715D01*
X134457480Y-69687337D01*
X134468851Y-69695123D01*
X134470718Y-69696132D01*
X134558257Y-69742677D01*
X134571000Y-69747930D01*
X134583656Y-69753354D01*
X134585683Y-69753982D01*
X134680596Y-69782638D01*
X134694156Y-69785323D01*
X134707586Y-69788178D01*
X134709696Y-69788400D01*
X134808367Y-69798075D01*
X134808378Y-69798075D01*
X134815738Y-69798800D01*
X137787561Y-69798800D01*
X137864006Y-69806296D01*
X137930388Y-69826338D01*
X137991603Y-69858886D01*
X138045337Y-69902711D01*
X138089532Y-69956134D01*
X138122511Y-70017127D01*
X138143015Y-70083363D01*
X138151001Y-70159342D01*
X138151000Y-99458961D01*
X138143504Y-99535410D01*
X138123463Y-99601787D01*
X138090914Y-99663003D01*
X138047091Y-99716735D01*
X137993666Y-99760933D01*
X137932673Y-99793911D01*
X137866437Y-99814415D01*
X137790468Y-99822400D01*
X134815738Y-99822400D01*
X134809037Y-99823060D01*
X134805877Y-99823038D01*
X134803765Y-99823245D01*
X134705163Y-99833609D01*
X134691643Y-99836384D01*
X134678135Y-99838961D01*
X134676106Y-99839573D01*
X134676100Y-99839575D01*
X134581394Y-99868892D01*
X134568702Y-99874227D01*
X134555921Y-99879391D01*
X134554048Y-99880387D01*
X134466836Y-99927542D01*
X134455421Y-99935241D01*
X134443886Y-99942790D01*
X134442241Y-99944131D01*
X134365850Y-100007328D01*
X134356159Y-100017087D01*
X134346299Y-100026742D01*
X134344947Y-100028377D01*
X134282285Y-100105208D01*
X134274663Y-100116680D01*
X134266877Y-100128051D01*
X134265868Y-100129918D01*
X134219323Y-100217457D01*
X134214070Y-100230200D01*
X134208646Y-100242856D01*
X134208021Y-100244877D01*
X134208018Y-100244884D01*
X134208017Y-100244891D01*
X134179362Y-100339796D01*
X134176684Y-100353324D01*
X134173822Y-100366786D01*
X134173600Y-100368896D01*
X134163925Y-100467567D01*
X134163925Y-100467588D01*
X134163201Y-100474938D01*
X134163200Y-103446761D01*
X134155704Y-103523210D01*
X134135663Y-103589587D01*
X134103114Y-103650803D01*
X134059291Y-103704535D01*
X134005866Y-103748733D01*
X133944873Y-103781711D01*
X133878637Y-103802215D01*
X133802668Y-103810200D01*
X127792578Y-103810200D01*
X127824679Y-103778099D01*
X127901505Y-103663122D01*
X127954423Y-103535366D01*
X127981400Y-103399741D01*
X127981400Y-103261459D01*
X127954423Y-103125834D01*
X127901505Y-102998078D01*
X127824679Y-102883101D01*
X127726899Y-102785321D01*
X127611922Y-102708495D01*
X127484166Y-102655577D01*
X127348541Y-102628600D01*
X127210259Y-102628600D01*
X127074634Y-102655577D01*
X126946878Y-102708495D01*
X126831901Y-102785321D01*
X126734121Y-102883101D01*
X126657295Y-102998078D01*
X126604377Y-103125834D01*
X126577400Y-103261459D01*
X126577400Y-103399741D01*
X126604377Y-103535366D01*
X126657295Y-103663122D01*
X126734121Y-103778099D01*
X126766222Y-103810200D01*
X92336439Y-103810200D01*
X92259990Y-103802704D01*
X92193613Y-103782663D01*
X92132397Y-103750114D01*
X92078665Y-103706291D01*
X92034467Y-103652866D01*
X92001489Y-103591873D01*
X91980985Y-103525637D01*
X91973000Y-103449668D01*
X91973000Y-102280548D01*
X92822800Y-102280548D01*
X92822800Y-102443452D01*
X92854582Y-102603227D01*
X92916923Y-102753731D01*
X93007428Y-102889181D01*
X93122619Y-103004372D01*
X93258069Y-103094877D01*
X93408573Y-103157218D01*
X93568348Y-103189000D01*
X93731252Y-103189000D01*
X93891027Y-103157218D01*
X94041531Y-103094877D01*
X94176981Y-103004372D01*
X94284800Y-102896553D01*
X94392619Y-103004372D01*
X94528069Y-103094877D01*
X94678573Y-103157218D01*
X94838348Y-103189000D01*
X95001252Y-103189000D01*
X95161027Y-103157218D01*
X95311531Y-103094877D01*
X95446981Y-103004372D01*
X95554800Y-102896553D01*
X95662619Y-103004372D01*
X95798069Y-103094877D01*
X95948573Y-103157218D01*
X96108348Y-103189000D01*
X96271252Y-103189000D01*
X96431027Y-103157218D01*
X96581531Y-103094877D01*
X96678767Y-103029906D01*
X96686594Y-103044550D01*
X96727457Y-103094343D01*
X96777250Y-103135206D01*
X96834057Y-103165570D01*
X96895697Y-103184268D01*
X96959800Y-103190582D01*
X97959800Y-103190582D01*
X98023903Y-103184268D01*
X98085543Y-103165570D01*
X98142350Y-103135206D01*
X98192143Y-103094343D01*
X98233006Y-103044550D01*
X98263370Y-102987743D01*
X98282068Y-102926103D01*
X98288382Y-102862000D01*
X98288382Y-101862000D01*
X98282068Y-101797897D01*
X98263370Y-101736257D01*
X98233006Y-101679450D01*
X98192143Y-101629657D01*
X98142350Y-101588794D01*
X98085543Y-101558430D01*
X98023903Y-101539732D01*
X97959800Y-101533418D01*
X96959800Y-101533418D01*
X96895697Y-101539732D01*
X96834057Y-101558430D01*
X96777250Y-101588794D01*
X96727457Y-101629657D01*
X96686594Y-101679450D01*
X96678767Y-101694094D01*
X96581531Y-101629123D01*
X96431027Y-101566782D01*
X96271252Y-101535000D01*
X96108348Y-101535000D01*
X95948573Y-101566782D01*
X95798069Y-101629123D01*
X95662619Y-101719628D01*
X95554800Y-101827447D01*
X95446981Y-101719628D01*
X95371800Y-101669394D01*
X95371800Y-100511459D01*
X126577400Y-100511459D01*
X126577400Y-100649741D01*
X126604377Y-100785366D01*
X126657295Y-100913122D01*
X126734121Y-101028099D01*
X126831901Y-101125879D01*
X126946878Y-101202705D01*
X127074634Y-101255623D01*
X127210259Y-101282600D01*
X127348541Y-101282600D01*
X127484166Y-101255623D01*
X127611922Y-101202705D01*
X127726899Y-101125879D01*
X127824679Y-101028099D01*
X127901505Y-100913122D01*
X127954423Y-100785366D01*
X127981400Y-100649741D01*
X127981400Y-100588597D01*
X131353000Y-100588597D01*
X131353000Y-100731803D01*
X131380938Y-100872258D01*
X131435741Y-101004564D01*
X131515302Y-101123636D01*
X131616564Y-101224898D01*
X131735636Y-101304459D01*
X131867942Y-101359262D01*
X132008397Y-101387200D01*
X132151603Y-101387200D01*
X132292058Y-101359262D01*
X132424364Y-101304459D01*
X132543436Y-101224898D01*
X132644698Y-101123636D01*
X132724259Y-101004564D01*
X132779062Y-100872258D01*
X132807000Y-100731803D01*
X132807000Y-100588597D01*
X132779062Y-100448142D01*
X132724259Y-100315836D01*
X132644698Y-100196764D01*
X132543436Y-100095502D01*
X132532000Y-100087861D01*
X132532000Y-99577423D01*
X133958705Y-98150719D01*
X133975959Y-98136559D01*
X134032443Y-98067733D01*
X134074414Y-97989210D01*
X134100260Y-97904007D01*
X134106800Y-97837605D01*
X134108987Y-97815400D01*
X134106800Y-97793195D01*
X134106800Y-81937474D01*
X135608681Y-81937474D01*
X135625354Y-81992464D01*
X135715677Y-82195806D01*
X135843935Y-82377620D01*
X135976659Y-82503788D01*
X135969923Y-82513869D01*
X135907582Y-82664373D01*
X135875800Y-82824148D01*
X135875800Y-82987052D01*
X135907582Y-83146827D01*
X135969923Y-83297331D01*
X136060428Y-83432781D01*
X136168247Y-83540600D01*
X136060428Y-83648419D01*
X135969923Y-83783869D01*
X135907582Y-83934373D01*
X135875800Y-84094148D01*
X135875800Y-84257052D01*
X135907582Y-84416827D01*
X135969923Y-84567331D01*
X136060428Y-84702781D01*
X136168247Y-84810600D01*
X136060428Y-84918419D01*
X135969923Y-85053869D01*
X135907582Y-85204373D01*
X135875800Y-85364148D01*
X135875800Y-85527052D01*
X135907582Y-85686827D01*
X135969923Y-85837331D01*
X136060428Y-85972781D01*
X136168247Y-86080600D01*
X136060428Y-86188419D01*
X135969923Y-86323869D01*
X135907582Y-86474373D01*
X135875800Y-86634148D01*
X135875800Y-86797052D01*
X135907582Y-86956827D01*
X135969923Y-87107331D01*
X136034894Y-87204567D01*
X136020250Y-87212394D01*
X135970457Y-87253257D01*
X135929594Y-87303050D01*
X135899230Y-87359857D01*
X135880532Y-87421497D01*
X135874218Y-87485600D01*
X135874218Y-88485600D01*
X135880532Y-88549703D01*
X135899230Y-88611343D01*
X135929594Y-88668150D01*
X135970457Y-88717943D01*
X136020250Y-88758806D01*
X136077057Y-88789170D01*
X136138697Y-88807868D01*
X136202800Y-88814182D01*
X137202800Y-88814182D01*
X137266903Y-88807868D01*
X137328543Y-88789170D01*
X137385350Y-88758806D01*
X137435143Y-88717943D01*
X137476006Y-88668150D01*
X137506370Y-88611343D01*
X137525068Y-88549703D01*
X137531382Y-88485600D01*
X137531382Y-87485600D01*
X137525068Y-87421497D01*
X137506370Y-87359857D01*
X137476006Y-87303050D01*
X137435143Y-87253257D01*
X137385350Y-87212394D01*
X137370706Y-87204567D01*
X137435677Y-87107331D01*
X137498018Y-86956827D01*
X137529800Y-86797052D01*
X137529800Y-86634148D01*
X137498018Y-86474373D01*
X137435677Y-86323869D01*
X137345172Y-86188419D01*
X137237353Y-86080600D01*
X137345172Y-85972781D01*
X137435677Y-85837331D01*
X137498018Y-85686827D01*
X137529800Y-85527052D01*
X137529800Y-85364148D01*
X137498018Y-85204373D01*
X137435677Y-85053869D01*
X137345172Y-84918419D01*
X137237353Y-84810600D01*
X137345172Y-84702781D01*
X137435677Y-84567331D01*
X137498018Y-84416827D01*
X137529800Y-84257052D01*
X137529800Y-84094148D01*
X137498018Y-83934373D01*
X137435677Y-83783869D01*
X137345172Y-83648419D01*
X137237353Y-83540600D01*
X137345172Y-83432781D01*
X137435677Y-83297331D01*
X137498018Y-83146827D01*
X137529800Y-82987052D01*
X137529800Y-82824148D01*
X137498018Y-82664373D01*
X137435677Y-82513869D01*
X137428941Y-82503788D01*
X137561665Y-82377620D01*
X137689923Y-82195806D01*
X137780246Y-81992464D01*
X137796919Y-81937474D01*
X137670754Y-81762600D01*
X136829800Y-81762600D01*
X136829800Y-81782600D01*
X136575800Y-81782600D01*
X136575800Y-81762600D01*
X135734846Y-81762600D01*
X135608681Y-81937474D01*
X134106800Y-81937474D01*
X134106800Y-81333726D01*
X135608681Y-81333726D01*
X135734846Y-81508600D01*
X136575800Y-81508600D01*
X136575800Y-80666471D01*
X136829800Y-80666471D01*
X136829800Y-81508600D01*
X137670754Y-81508600D01*
X137796919Y-81333726D01*
X137780246Y-81278736D01*
X137689923Y-81075394D01*
X137561665Y-80893580D01*
X137400401Y-80740282D01*
X137212329Y-80621390D01*
X137004676Y-80541474D01*
X136829800Y-80666471D01*
X136575800Y-80666471D01*
X136400924Y-80541474D01*
X136193271Y-80621390D01*
X136005199Y-80740282D01*
X135843935Y-80893580D01*
X135715677Y-81075394D01*
X135625354Y-81278736D01*
X135608681Y-81333726D01*
X134106800Y-81333726D01*
X134106800Y-76950139D01*
X134118236Y-76942498D01*
X134219498Y-76841236D01*
X134299059Y-76722164D01*
X134353862Y-76589858D01*
X134381800Y-76449403D01*
X134381800Y-76306197D01*
X134353862Y-76165742D01*
X134299059Y-76033436D01*
X134219498Y-75914364D01*
X134118236Y-75813102D01*
X133999164Y-75733541D01*
X133866858Y-75678738D01*
X133726403Y-75650800D01*
X133583197Y-75650800D01*
X133442742Y-75678738D01*
X133310436Y-75733541D01*
X133191364Y-75813102D01*
X133090102Y-75914364D01*
X133010541Y-76033436D01*
X132955738Y-76165742D01*
X132927800Y-76306197D01*
X132927800Y-76449403D01*
X132955738Y-76589858D01*
X133010541Y-76722164D01*
X133090102Y-76841236D01*
X133191364Y-76942498D01*
X133202800Y-76950139D01*
X133202801Y-97628175D01*
X131776096Y-99054881D01*
X131758842Y-99069041D01*
X131728344Y-99106203D01*
X131702358Y-99137867D01*
X131660386Y-99216391D01*
X131634540Y-99301593D01*
X131625813Y-99390200D01*
X131628001Y-99412415D01*
X131628000Y-100087860D01*
X131616564Y-100095502D01*
X131515302Y-100196764D01*
X131435741Y-100315836D01*
X131380938Y-100448142D01*
X131353000Y-100588597D01*
X127981400Y-100588597D01*
X127981400Y-100511459D01*
X127954423Y-100375834D01*
X127901505Y-100248078D01*
X127824679Y-100133101D01*
X127726899Y-100035321D01*
X127611922Y-99958495D01*
X127484166Y-99905577D01*
X127348541Y-99878600D01*
X127210259Y-99878600D01*
X127074634Y-99905577D01*
X126946878Y-99958495D01*
X126831901Y-100035321D01*
X126734121Y-100133101D01*
X126657295Y-100248078D01*
X126604377Y-100375834D01*
X126577400Y-100511459D01*
X95371800Y-100511459D01*
X95371800Y-99606939D01*
X95383236Y-99599298D01*
X95484498Y-99498036D01*
X95564059Y-99378964D01*
X95618862Y-99246658D01*
X95646800Y-99106203D01*
X95646800Y-98962997D01*
X95618862Y-98822542D01*
X95564059Y-98690236D01*
X95484498Y-98571164D01*
X95383236Y-98469902D01*
X95264164Y-98390341D01*
X95131858Y-98335538D01*
X94991403Y-98307600D01*
X94848197Y-98307600D01*
X94707742Y-98335538D01*
X94575436Y-98390341D01*
X94456364Y-98469902D01*
X94355102Y-98571164D01*
X94275541Y-98690236D01*
X94220738Y-98822542D01*
X94192800Y-98962997D01*
X94192800Y-99106203D01*
X94220738Y-99246658D01*
X94275541Y-99378964D01*
X94355102Y-99498036D01*
X94456364Y-99599298D01*
X94467800Y-99606939D01*
X94467801Y-101669393D01*
X94392619Y-101719628D01*
X94284800Y-101827447D01*
X94176981Y-101719628D01*
X94041531Y-101629123D01*
X93891027Y-101566782D01*
X93731252Y-101535000D01*
X93568348Y-101535000D01*
X93408573Y-101566782D01*
X93258069Y-101629123D01*
X93122619Y-101719628D01*
X93007428Y-101834819D01*
X92916923Y-101970269D01*
X92854582Y-102120773D01*
X92822800Y-102280548D01*
X91973000Y-102280548D01*
X91973000Y-100474938D01*
X91972340Y-100468237D01*
X91972362Y-100465077D01*
X91972155Y-100462965D01*
X91961791Y-100364363D01*
X91959016Y-100350843D01*
X91956439Y-100337335D01*
X91955826Y-100335304D01*
X91926508Y-100240594D01*
X91921173Y-100227902D01*
X91916009Y-100215121D01*
X91915013Y-100213248D01*
X91867858Y-100126036D01*
X91860159Y-100114621D01*
X91852610Y-100103086D01*
X91851269Y-100101441D01*
X91788072Y-100025050D01*
X91778313Y-100015359D01*
X91768658Y-100005499D01*
X91767023Y-100004147D01*
X91690192Y-99941485D01*
X91678720Y-99933863D01*
X91667349Y-99926077D01*
X91665482Y-99925068D01*
X91577943Y-99878523D01*
X91565200Y-99873270D01*
X91552544Y-99867846D01*
X91550523Y-99867221D01*
X91550516Y-99867218D01*
X91550509Y-99867217D01*
X91455604Y-99838562D01*
X91442076Y-99835884D01*
X91428614Y-99833022D01*
X91426504Y-99832800D01*
X91327833Y-99823125D01*
X91327822Y-99823125D01*
X91320462Y-99822400D01*
X88348639Y-99822400D01*
X88272190Y-99814904D01*
X88205813Y-99794863D01*
X88144597Y-99762314D01*
X88090865Y-99718491D01*
X88046667Y-99665066D01*
X88013689Y-99604073D01*
X87993185Y-99537837D01*
X87985200Y-99461868D01*
X87985200Y-94387363D01*
X87992073Y-94317271D01*
X88012150Y-94250771D01*
X88044759Y-94189444D01*
X88088660Y-94135614D01*
X88142177Y-94091342D01*
X88203280Y-94058304D01*
X88271211Y-94037276D01*
X88330572Y-94029744D01*
X88333123Y-94029762D01*
X88335235Y-94029555D01*
X88433837Y-94019191D01*
X88447357Y-94016416D01*
X88460865Y-94013839D01*
X88462894Y-94013227D01*
X88462900Y-94013225D01*
X88557606Y-93983908D01*
X88570298Y-93978573D01*
X88583079Y-93973409D01*
X88584952Y-93972413D01*
X88672164Y-93925258D01*
X88683594Y-93917548D01*
X88695114Y-93910010D01*
X88696758Y-93908669D01*
X88773150Y-93845472D01*
X88782841Y-93835713D01*
X88792701Y-93826058D01*
X88794053Y-93824423D01*
X88856715Y-93747592D01*
X88864337Y-93736120D01*
X88872123Y-93724749D01*
X88873132Y-93722882D01*
X88919677Y-93635343D01*
X88924930Y-93622600D01*
X88930354Y-93609944D01*
X88930982Y-93607917D01*
X88959638Y-93513004D01*
X88962323Y-93499444D01*
X88965178Y-93486014D01*
X88965400Y-93483904D01*
X88975075Y-93385233D01*
X88975075Y-93385222D01*
X88975800Y-93377862D01*
X88975800Y-90272890D01*
X89236524Y-90272890D01*
X89281175Y-90420099D01*
X89406359Y-90682920D01*
X89580412Y-90916269D01*
X89796645Y-91111178D01*
X90046748Y-91260157D01*
X90321109Y-91357481D01*
X90551000Y-91236814D01*
X90551000Y-90043000D01*
X90805000Y-90043000D01*
X90805000Y-91236814D01*
X91034891Y-91357481D01*
X91309252Y-91260157D01*
X91559355Y-91111178D01*
X91775588Y-90916269D01*
X91949641Y-90682920D01*
X92074825Y-90420099D01*
X92119476Y-90272890D01*
X92032920Y-90108875D01*
X105431330Y-90108875D01*
X106607047Y-91294964D01*
X108426861Y-92332718D01*
X110414163Y-92995504D01*
X112492584Y-93257850D01*
X114582249Y-93109677D01*
X116602855Y-92556677D01*
X118476751Y-91620102D01*
X118963353Y-91294964D01*
X120139070Y-90108875D01*
X112785200Y-82755005D01*
X105431330Y-90108875D01*
X92032920Y-90108875D01*
X91998155Y-90043000D01*
X90805000Y-90043000D01*
X90551000Y-90043000D01*
X89357845Y-90043000D01*
X89236524Y-90272890D01*
X88975800Y-90272890D01*
X88975800Y-89559110D01*
X89236524Y-89559110D01*
X89357845Y-89789000D01*
X90551000Y-89789000D01*
X90551000Y-89769000D01*
X90805000Y-89769000D01*
X90805000Y-89789000D01*
X91998155Y-89789000D01*
X92119476Y-89559110D01*
X92074825Y-89411901D01*
X91949641Y-89149080D01*
X91775588Y-88915731D01*
X91559355Y-88720822D01*
X91309252Y-88571843D01*
X91070821Y-88487264D01*
X91235519Y-88419044D01*
X91428294Y-88290236D01*
X91592236Y-88126294D01*
X91721044Y-87933519D01*
X91809769Y-87719318D01*
X91855000Y-87491924D01*
X91855000Y-87260076D01*
X91809769Y-87032682D01*
X91721044Y-86818481D01*
X91592236Y-86625706D01*
X91428294Y-86461764D01*
X91235519Y-86332956D01*
X91021318Y-86244231D01*
X90793924Y-86199000D01*
X90562076Y-86199000D01*
X90334682Y-86244231D01*
X90120481Y-86332956D01*
X89927706Y-86461764D01*
X89763764Y-86625706D01*
X89634956Y-86818481D01*
X89546231Y-87032682D01*
X89501000Y-87260076D01*
X89501000Y-87491924D01*
X89546231Y-87719318D01*
X89634956Y-87933519D01*
X89763764Y-88126294D01*
X89927706Y-88290236D01*
X90120481Y-88419044D01*
X90285179Y-88487264D01*
X90046748Y-88571843D01*
X89796645Y-88720822D01*
X89580412Y-88915731D01*
X89406359Y-89149080D01*
X89281175Y-89411901D01*
X89236524Y-89559110D01*
X88975800Y-89559110D01*
X88975800Y-84720076D01*
X89501000Y-84720076D01*
X89501000Y-84951924D01*
X89546231Y-85179318D01*
X89634956Y-85393519D01*
X89763764Y-85586294D01*
X89927706Y-85750236D01*
X90120481Y-85879044D01*
X90334682Y-85967769D01*
X90562076Y-86013000D01*
X90793924Y-86013000D01*
X91021318Y-85967769D01*
X91235519Y-85879044D01*
X91428294Y-85750236D01*
X91592236Y-85586294D01*
X91721044Y-85393519D01*
X91809769Y-85179318D01*
X91855000Y-84951924D01*
X91855000Y-84720076D01*
X91809769Y-84492682D01*
X91721044Y-84278481D01*
X91592236Y-84085706D01*
X91428294Y-83921764D01*
X91235519Y-83792956D01*
X91021318Y-83704231D01*
X90793924Y-83659000D01*
X90562076Y-83659000D01*
X90334682Y-83704231D01*
X90120481Y-83792956D01*
X89927706Y-83921764D01*
X89763764Y-84085706D01*
X89634956Y-84278481D01*
X89546231Y-84492682D01*
X89501000Y-84720076D01*
X88975800Y-84720076D01*
X88975800Y-82180076D01*
X89501000Y-82180076D01*
X89501000Y-82411924D01*
X89546231Y-82639318D01*
X89634956Y-82853519D01*
X89763764Y-83046294D01*
X89927706Y-83210236D01*
X90120481Y-83339044D01*
X90334682Y-83427769D01*
X90562076Y-83473000D01*
X90793924Y-83473000D01*
X91021318Y-83427769D01*
X91235519Y-83339044D01*
X91428294Y-83210236D01*
X91592236Y-83046294D01*
X91721044Y-82853519D01*
X91764751Y-82748000D01*
X92548176Y-82748000D01*
X92715201Y-82915025D01*
X92715200Y-86921995D01*
X92713013Y-86944200D01*
X92721740Y-87032807D01*
X92721918Y-87033393D01*
X92747586Y-87118009D01*
X92789557Y-87196532D01*
X92846041Y-87265359D01*
X92863300Y-87279523D01*
X93009680Y-87425904D01*
X93023841Y-87443159D01*
X93092667Y-87499643D01*
X93171190Y-87541614D01*
X93256392Y-87567460D01*
X93344999Y-87576187D01*
X93367204Y-87574000D01*
X101417140Y-87574000D01*
X101421232Y-87576187D01*
X101451591Y-87592414D01*
X101536793Y-87618260D01*
X101625399Y-87626987D01*
X101625400Y-87626987D01*
X101714007Y-87618260D01*
X101799210Y-87592414D01*
X101877733Y-87550443D01*
X101946559Y-87493959D01*
X102003043Y-87425133D01*
X102045014Y-87346610D01*
X102070860Y-87261407D01*
X102077400Y-87195005D01*
X102077400Y-87195004D01*
X102079587Y-87172799D01*
X102077400Y-87150594D01*
X102077400Y-82282784D01*
X102102750Y-82282784D01*
X102250923Y-84372449D01*
X102803923Y-86393055D01*
X103740498Y-88266951D01*
X104065636Y-88753553D01*
X105251725Y-89929270D01*
X112605595Y-82575400D01*
X112964805Y-82575400D01*
X120318675Y-89929270D01*
X121504764Y-88753553D01*
X122542518Y-86933739D01*
X123205304Y-84946437D01*
X123467650Y-82868016D01*
X123319477Y-80778351D01*
X123058674Y-79825400D01*
X124756618Y-79825400D01*
X124756618Y-85325400D01*
X124762932Y-85389503D01*
X124781630Y-85451143D01*
X124811994Y-85507950D01*
X124852857Y-85557743D01*
X124902650Y-85598606D01*
X124959457Y-85628970D01*
X125021097Y-85647668D01*
X125085200Y-85653982D01*
X131085200Y-85653982D01*
X131149303Y-85647668D01*
X131210943Y-85628970D01*
X131267750Y-85598606D01*
X131317543Y-85557743D01*
X131358406Y-85507950D01*
X131388770Y-85451143D01*
X131407468Y-85389503D01*
X131413782Y-85325400D01*
X131413782Y-79825400D01*
X131407468Y-79761297D01*
X131388770Y-79699657D01*
X131358406Y-79642850D01*
X131317543Y-79593057D01*
X131267750Y-79552194D01*
X131210943Y-79521830D01*
X131149303Y-79503132D01*
X131085200Y-79496818D01*
X125085200Y-79496818D01*
X125021097Y-79503132D01*
X124959457Y-79521830D01*
X124902650Y-79552194D01*
X124852857Y-79593057D01*
X124811994Y-79642850D01*
X124781630Y-79699657D01*
X124762932Y-79761297D01*
X124756618Y-79825400D01*
X123058674Y-79825400D01*
X122766477Y-78757745D01*
X121829902Y-76883849D01*
X121504764Y-76397247D01*
X120318675Y-75221530D01*
X112964805Y-82575400D01*
X112605595Y-82575400D01*
X105251725Y-75221530D01*
X104065636Y-76397247D01*
X103027882Y-78217061D01*
X102365096Y-80204363D01*
X102102750Y-82282784D01*
X102077400Y-82282784D01*
X102077400Y-75041925D01*
X105431330Y-75041925D01*
X112785200Y-82395795D01*
X120139070Y-75041925D01*
X118963353Y-73855836D01*
X117143539Y-72818082D01*
X115156237Y-72155296D01*
X113077816Y-71892950D01*
X110988151Y-72041123D01*
X108967545Y-72594123D01*
X107093649Y-73530698D01*
X106607047Y-73855836D01*
X105431330Y-75041925D01*
X102077400Y-75041925D01*
X102077400Y-74634623D01*
X103046910Y-73665115D01*
X103064159Y-73650959D01*
X103120643Y-73582133D01*
X103162614Y-73503610D01*
X103163475Y-73500772D01*
X103188460Y-73418408D01*
X103197187Y-73329801D01*
X103195000Y-73307596D01*
X103195000Y-73241739D01*
X103206436Y-73234098D01*
X103307698Y-73132836D01*
X103387259Y-73013764D01*
X103442062Y-72881458D01*
X103470000Y-72741003D01*
X103470000Y-72597797D01*
X103442062Y-72457342D01*
X103387259Y-72325036D01*
X103307698Y-72205964D01*
X103206436Y-72104702D01*
X103087364Y-72025141D01*
X102955058Y-71970338D01*
X102814603Y-71942400D01*
X102671397Y-71942400D01*
X102530942Y-71970338D01*
X102398636Y-72025141D01*
X102279564Y-72104702D01*
X102178302Y-72205964D01*
X102098741Y-72325036D01*
X102043938Y-72457342D01*
X102016000Y-72597797D01*
X102016000Y-72741003D01*
X102043938Y-72881458D01*
X102098741Y-73013764D01*
X102178302Y-73132836D01*
X102239521Y-73194055D01*
X101321500Y-74112077D01*
X101304241Y-74126241D01*
X101249126Y-74193400D01*
X101247758Y-74195067D01*
X101205786Y-74273591D01*
X101179940Y-74358793D01*
X101171213Y-74447400D01*
X101173400Y-74469605D01*
X101173401Y-86670000D01*
X93619200Y-86670000D01*
X93619200Y-82750004D01*
X93621387Y-82727799D01*
X93612660Y-82639192D01*
X93602205Y-82604729D01*
X93586814Y-82553990D01*
X93544843Y-82475467D01*
X93488359Y-82406641D01*
X93471110Y-82392485D01*
X93070723Y-81992100D01*
X93056559Y-81974841D01*
X92987733Y-81918357D01*
X92909210Y-81876386D01*
X92824007Y-81850540D01*
X92757605Y-81844000D01*
X92735400Y-81841813D01*
X92713195Y-81844000D01*
X91764751Y-81844000D01*
X91721044Y-81738481D01*
X91592236Y-81545706D01*
X91428294Y-81381764D01*
X91235519Y-81252956D01*
X91021318Y-81164231D01*
X90793924Y-81119000D01*
X90562076Y-81119000D01*
X90334682Y-81164231D01*
X90120481Y-81252956D01*
X89927706Y-81381764D01*
X89763764Y-81545706D01*
X89634956Y-81738481D01*
X89546231Y-81952682D01*
X89501000Y-82180076D01*
X88975800Y-82180076D01*
X88975800Y-78906000D01*
X89499418Y-78906000D01*
X89499418Y-80606000D01*
X89505732Y-80670103D01*
X89524430Y-80731743D01*
X89554794Y-80788550D01*
X89595657Y-80838343D01*
X89645450Y-80879206D01*
X89702257Y-80909570D01*
X89763897Y-80928268D01*
X89828000Y-80934582D01*
X91528000Y-80934582D01*
X91592103Y-80928268D01*
X91653743Y-80909570D01*
X91710550Y-80879206D01*
X91760343Y-80838343D01*
X91801206Y-80788550D01*
X91831570Y-80731743D01*
X91850268Y-80670103D01*
X91856582Y-80606000D01*
X91856582Y-79825400D01*
X94156618Y-79825400D01*
X94156618Y-85325400D01*
X94162932Y-85389503D01*
X94181630Y-85451143D01*
X94211994Y-85507950D01*
X94252857Y-85557743D01*
X94302650Y-85598606D01*
X94359457Y-85628970D01*
X94421097Y-85647668D01*
X94485200Y-85653982D01*
X100485200Y-85653982D01*
X100549303Y-85647668D01*
X100610943Y-85628970D01*
X100667750Y-85598606D01*
X100717543Y-85557743D01*
X100758406Y-85507950D01*
X100788770Y-85451143D01*
X100807468Y-85389503D01*
X100813782Y-85325400D01*
X100813782Y-79825400D01*
X100807468Y-79761297D01*
X100788770Y-79699657D01*
X100758406Y-79642850D01*
X100717543Y-79593057D01*
X100667750Y-79552194D01*
X100610943Y-79521830D01*
X100549303Y-79503132D01*
X100485200Y-79496818D01*
X98411800Y-79496818D01*
X98411800Y-78512795D01*
X98416274Y-78507343D01*
X98469740Y-78407314D01*
X98502665Y-78298777D01*
X98513782Y-78185901D01*
X98513782Y-77660899D01*
X98502665Y-77548023D01*
X98469740Y-77439486D01*
X98416274Y-77339457D01*
X98344320Y-77251780D01*
X98256643Y-77179826D01*
X98156614Y-77126360D01*
X98048077Y-77093435D01*
X97935201Y-77082318D01*
X97035199Y-77082318D01*
X96922323Y-77093435D01*
X96813786Y-77126360D01*
X96713757Y-77179826D01*
X96626080Y-77251780D01*
X96554126Y-77339457D01*
X96500660Y-77439486D01*
X96467735Y-77548023D01*
X96456618Y-77660899D01*
X96456618Y-78185901D01*
X96467735Y-78298777D01*
X96500660Y-78407314D01*
X96507800Y-78420672D01*
X96507800Y-79496818D01*
X94485200Y-79496818D01*
X94421097Y-79503132D01*
X94359457Y-79521830D01*
X94302650Y-79552194D01*
X94252857Y-79593057D01*
X94211994Y-79642850D01*
X94181630Y-79699657D01*
X94162932Y-79761297D01*
X94156618Y-79825400D01*
X91856582Y-79825400D01*
X91856582Y-79534840D01*
X94616023Y-76775400D01*
X96632636Y-76775400D01*
X96713757Y-76841974D01*
X96813786Y-76895440D01*
X96922323Y-76928365D01*
X97035199Y-76939482D01*
X97935201Y-76939482D01*
X98048077Y-76928365D01*
X98156614Y-76895440D01*
X98256643Y-76841974D01*
X98344320Y-76770020D01*
X98416274Y-76682343D01*
X98469740Y-76582314D01*
X98502665Y-76473777D01*
X98513782Y-76360901D01*
X98513782Y-75835899D01*
X98502665Y-75723023D01*
X98469740Y-75614486D01*
X98416274Y-75514457D01*
X98344320Y-75426780D01*
X98256643Y-75354826D01*
X98175200Y-75311294D01*
X98175200Y-74634052D01*
X98183487Y-74623954D01*
X98234643Y-74528247D01*
X98266145Y-74424398D01*
X98276782Y-74316400D01*
X98276782Y-73816400D01*
X98266145Y-73708402D01*
X98234643Y-73604553D01*
X98183487Y-73508846D01*
X98138400Y-73453907D01*
X98138400Y-73089910D01*
X98195343Y-73059474D01*
X98283020Y-72987520D01*
X98354974Y-72899843D01*
X98408440Y-72799814D01*
X98441365Y-72691277D01*
X98452482Y-72578401D01*
X98452482Y-70728399D01*
X98441365Y-70615523D01*
X98408440Y-70506986D01*
X98354974Y-70406957D01*
X98283020Y-70319280D01*
X98195343Y-70247326D01*
X98138400Y-70216890D01*
X98138400Y-69478441D01*
X98141674Y-69445199D01*
X98138400Y-69411957D01*
X98138400Y-69411948D01*
X98128604Y-69312485D01*
X98089892Y-69184870D01*
X98027028Y-69067259D01*
X97942426Y-68964173D01*
X97916595Y-68942974D01*
X97530227Y-68556605D01*
X97509027Y-68530773D01*
X97405941Y-68446172D01*
X97288330Y-68383308D01*
X97160715Y-68344596D01*
X97061252Y-68334800D01*
X97061245Y-68334800D01*
X97028000Y-68331526D01*
X96994755Y-68334800D01*
X95280820Y-68334800D01*
X95480006Y-68246323D01*
X95661820Y-68118065D01*
X95787988Y-67985341D01*
X95798069Y-67992077D01*
X95948573Y-68054418D01*
X96108348Y-68086200D01*
X96271252Y-68086200D01*
X96431027Y-68054418D01*
X96581531Y-67992077D01*
X96678767Y-67927106D01*
X96686594Y-67941750D01*
X96727457Y-67991543D01*
X96777250Y-68032406D01*
X96834057Y-68062770D01*
X96895697Y-68081468D01*
X96959800Y-68087782D01*
X97959800Y-68087782D01*
X98023903Y-68081468D01*
X98085543Y-68062770D01*
X98142350Y-68032406D01*
X98192143Y-67991543D01*
X98233006Y-67941750D01*
X98263370Y-67884943D01*
X98282068Y-67823303D01*
X98288382Y-67759200D01*
X98288382Y-66759200D01*
X98282068Y-66695097D01*
X98263370Y-66633457D01*
X98233006Y-66576650D01*
X98192143Y-66526857D01*
X98142350Y-66485994D01*
X98085543Y-66455630D01*
X98023903Y-66436932D01*
X97959800Y-66430618D01*
X96959800Y-66430618D01*
X96895697Y-66436932D01*
X96834057Y-66455630D01*
X96777250Y-66485994D01*
X96727457Y-66526857D01*
X96686594Y-66576650D01*
X96678767Y-66591294D01*
X96581531Y-66526323D01*
X96431027Y-66463982D01*
X96271252Y-66432200D01*
X96108348Y-66432200D01*
X95948573Y-66463982D01*
X95798069Y-66526323D01*
X95787988Y-66533059D01*
X95661820Y-66400335D01*
X95480006Y-66272077D01*
X95276664Y-66181754D01*
X95221674Y-66165081D01*
X95046800Y-66291246D01*
X95046800Y-67132200D01*
X95066800Y-67132200D01*
X95066800Y-67386200D01*
X95046800Y-67386200D01*
X95046800Y-67406200D01*
X94792800Y-67406200D01*
X94792800Y-67386200D01*
X94772800Y-67386200D01*
X94772800Y-67132200D01*
X94792800Y-67132200D01*
X94792800Y-66291246D01*
X94617926Y-66165081D01*
X94562936Y-66181754D01*
X94359594Y-66272077D01*
X94177780Y-66400335D01*
X94051612Y-66533059D01*
X94041531Y-66526323D01*
X93891027Y-66463982D01*
X93731252Y-66432200D01*
X93568348Y-66432200D01*
X93408573Y-66463982D01*
X93258069Y-66526323D01*
X93122619Y-66616828D01*
X93007428Y-66732019D01*
X92916923Y-66867469D01*
X92854582Y-67017973D01*
X92822800Y-67177748D01*
X92822800Y-67340652D01*
X92854582Y-67500427D01*
X92916923Y-67650931D01*
X92972800Y-67734557D01*
X92972801Y-68318146D01*
X92969526Y-68351400D01*
X92982596Y-68484114D01*
X93021308Y-68611729D01*
X93084172Y-68729340D01*
X93147576Y-68806598D01*
X93147579Y-68806601D01*
X93168774Y-68832427D01*
X93194600Y-68853622D01*
X93807978Y-69467001D01*
X93829173Y-69492827D01*
X93854999Y-69514022D01*
X93855001Y-69514024D01*
X93932259Y-69577428D01*
X94049870Y-69640292D01*
X94177485Y-69679004D01*
X94310200Y-69692075D01*
X94343452Y-69688800D01*
X96747578Y-69688800D01*
X96784400Y-69725622D01*
X96784400Y-70216889D01*
X96727457Y-70247326D01*
X96639780Y-70319280D01*
X96567826Y-70406957D01*
X96514360Y-70506986D01*
X96481435Y-70615523D01*
X96470318Y-70728399D01*
X96470318Y-72578401D01*
X96481435Y-72691277D01*
X96514360Y-72799814D01*
X96567826Y-72899843D01*
X96639780Y-72987520D01*
X96685169Y-73024770D01*
X96642380Y-73001898D01*
X96522682Y-72965588D01*
X96398200Y-72953328D01*
X96233950Y-72956400D01*
X96075200Y-73115150D01*
X96075200Y-73939400D01*
X96095200Y-73939400D01*
X96095200Y-74193400D01*
X96075200Y-74193400D01*
X96075200Y-75017650D01*
X96233950Y-75176400D01*
X96398200Y-75179472D01*
X96522682Y-75167212D01*
X96642380Y-75130902D01*
X96752694Y-75071937D01*
X96821200Y-75015715D01*
X96821201Y-75299111D01*
X96813786Y-75301360D01*
X96713757Y-75354826D01*
X96632636Y-75421400D01*
X94368852Y-75421400D01*
X94335600Y-75418125D01*
X94202885Y-75431196D01*
X94075270Y-75469908D01*
X93957659Y-75532772D01*
X93882014Y-75594853D01*
X93854573Y-75617373D01*
X93833378Y-75643199D01*
X90899160Y-78577418D01*
X89828000Y-78577418D01*
X89763897Y-78583732D01*
X89702257Y-78602430D01*
X89645450Y-78632794D01*
X89595657Y-78673657D01*
X89554794Y-78723450D01*
X89524430Y-78780257D01*
X89505732Y-78841897D01*
X89499418Y-78906000D01*
X88975800Y-78906000D01*
X88975800Y-76573538D01*
X88975232Y-76567770D01*
X88969462Y-76492251D01*
X88967358Y-76480278D01*
X88965681Y-76468250D01*
X88965170Y-76466190D01*
X88940619Y-76370134D01*
X88935914Y-76357164D01*
X88931404Y-76344166D01*
X88930502Y-76342245D01*
X88887761Y-76252787D01*
X88880621Y-76240970D01*
X88873679Y-76229107D01*
X88872421Y-76227397D01*
X88813119Y-76147945D01*
X88803841Y-76137762D01*
X88794704Y-76127448D01*
X88793139Y-76126016D01*
X88719532Y-76059595D01*
X88708471Y-76051422D01*
X88697489Y-76043067D01*
X88695675Y-76041966D01*
X88610569Y-75991107D01*
X88598098Y-75985222D01*
X88585734Y-75979175D01*
X88583741Y-75978447D01*
X88490378Y-75945087D01*
X88476999Y-75941736D01*
X88463697Y-75938206D01*
X88461601Y-75937879D01*
X88366599Y-75923745D01*
X88358143Y-75921947D01*
X88356033Y-75921725D01*
X88272190Y-75913504D01*
X88205813Y-75893463D01*
X88144597Y-75860914D01*
X88090865Y-75817091D01*
X88046667Y-75763666D01*
X88013689Y-75702673D01*
X87993185Y-75636437D01*
X87985200Y-75560468D01*
X87985200Y-74541400D01*
X94860128Y-74541400D01*
X94872388Y-74665882D01*
X94908698Y-74785580D01*
X94967663Y-74895894D01*
X95047015Y-74992585D01*
X95143706Y-75071937D01*
X95254020Y-75130902D01*
X95373718Y-75167212D01*
X95498200Y-75179472D01*
X95662450Y-75176400D01*
X95821200Y-75017650D01*
X95821200Y-74193400D01*
X95021950Y-74193400D01*
X94863200Y-74352150D01*
X94860128Y-74541400D01*
X87985200Y-74541400D01*
X87985200Y-72828400D01*
X93085828Y-72828400D01*
X93098088Y-72952882D01*
X93134398Y-73072580D01*
X93193363Y-73182894D01*
X93272715Y-73279585D01*
X93369406Y-73358937D01*
X93479720Y-73417902D01*
X93599418Y-73454212D01*
X93723900Y-73466472D01*
X94100650Y-73463400D01*
X94259400Y-73304650D01*
X94259400Y-71780400D01*
X94513400Y-71780400D01*
X94513400Y-73304650D01*
X94672150Y-73463400D01*
X94872958Y-73465037D01*
X94872388Y-73466918D01*
X94860128Y-73591400D01*
X94863200Y-73780650D01*
X95021950Y-73939400D01*
X95821200Y-73939400D01*
X95821200Y-73115150D01*
X95671039Y-72964989D01*
X95674712Y-72952882D01*
X95686972Y-72828400D01*
X95683900Y-71939150D01*
X95525150Y-71780400D01*
X94513400Y-71780400D01*
X94259400Y-71780400D01*
X93247650Y-71780400D01*
X93088900Y-71939150D01*
X93085828Y-72828400D01*
X87985200Y-72828400D01*
X87985200Y-70478400D01*
X93085828Y-70478400D01*
X93088900Y-71367650D01*
X93247650Y-71526400D01*
X94259400Y-71526400D01*
X94259400Y-70002150D01*
X94513400Y-70002150D01*
X94513400Y-71526400D01*
X95525150Y-71526400D01*
X95683900Y-71367650D01*
X95686972Y-70478400D01*
X95674712Y-70353918D01*
X95638402Y-70234220D01*
X95579437Y-70123906D01*
X95500085Y-70027215D01*
X95403394Y-69947863D01*
X95293080Y-69888898D01*
X95173382Y-69852588D01*
X95048900Y-69840328D01*
X94672150Y-69843400D01*
X94513400Y-70002150D01*
X94259400Y-70002150D01*
X94100650Y-69843400D01*
X93723900Y-69840328D01*
X93599418Y-69852588D01*
X93479720Y-69888898D01*
X93369406Y-69947863D01*
X93272715Y-70027215D01*
X93193363Y-70123906D01*
X93134398Y-70234220D01*
X93098088Y-70353918D01*
X93085828Y-70478400D01*
X87985200Y-70478400D01*
X87985200Y-70162239D01*
X87992696Y-70085794D01*
X88012738Y-70019412D01*
X88045286Y-69958197D01*
X88089111Y-69904463D01*
X88142534Y-69860268D01*
X88203527Y-69827289D01*
X88269763Y-69806785D01*
X88345732Y-69798800D01*
X91320462Y-69798800D01*
X91327163Y-69798140D01*
X91330323Y-69798162D01*
X91332435Y-69797955D01*
X91431037Y-69787591D01*
X91444557Y-69784816D01*
X91458065Y-69782239D01*
X91460094Y-69781627D01*
X91460100Y-69781625D01*
X91554806Y-69752308D01*
X91567498Y-69746973D01*
X91580279Y-69741809D01*
X91582152Y-69740813D01*
X91669364Y-69693658D01*
X91680794Y-69685948D01*
X91692314Y-69678410D01*
X91693958Y-69677069D01*
X91770350Y-69613872D01*
X91780041Y-69604113D01*
X91789901Y-69594458D01*
X91791253Y-69592823D01*
X91853915Y-69515992D01*
X91861537Y-69504520D01*
X91869323Y-69493149D01*
X91870332Y-69491282D01*
X91916877Y-69403743D01*
X91922130Y-69391000D01*
X91927554Y-69378344D01*
X91928182Y-69376317D01*
X91956838Y-69281404D01*
X91959523Y-69267844D01*
X91962378Y-69254414D01*
X91962600Y-69252304D01*
X91972275Y-69153633D01*
X91972275Y-69153622D01*
X91973000Y-69146262D01*
X91973000Y-66174439D01*
X91980496Y-66097994D01*
X92000538Y-66031612D01*
X92033086Y-65970397D01*
X92076911Y-65916663D01*
X92130334Y-65872468D01*
X92191327Y-65839489D01*
X92257563Y-65818985D01*
X92333532Y-65811000D01*
X106201771Y-65811000D01*
X106264355Y-65836923D01*
G37*
%TD.AperFunction*%
%TD*%
M02*
