%TF.GenerationSoftware,KiCad,Pcbnew,(5.1.8)-1*%
%TF.CreationDate,2021-05-19T16:17:09+03:00*%
%TF.ProjectId,Thermometer,54686572-6d6f-46d6-9574-65722e6b6963,rev?*%
%TF.SameCoordinates,Original*%
%TF.FileFunction,Soldermask,Bot*%
%TF.FilePolarity,Negative*%
%FSLAX46Y46*%
G04 Gerber Fmt 4.6, Leading zero omitted, Abs format (unit mm)*
G04 Created by KiCad (PCBNEW (5.1.8)-1) date 2021-05-19 16:17:09*
%MOMM*%
%LPD*%
G01*
G04 APERTURE LIST*
%ADD10R,6.000000X5.500000*%
%ADD11C,20.000000*%
%ADD12R,1.700000X1.700000*%
%ADD13O,1.700000X1.700000*%
%ADD14O,1.000000X1.000000*%
%ADD15R,1.000000X1.000000*%
%ADD16C,0.750000*%
G04 APERTURE END LIST*
D10*
%TO.C,BT1*%
X97485200Y-82575400D03*
X128085200Y-82575400D03*
D11*
X112785200Y-82575400D03*
%TD*%
%TO.C,C1*%
G36*
G01*
X96398200Y-73816400D02*
X96398200Y-74316400D01*
G75*
G02*
X96173200Y-74541400I-225000J0D01*
G01*
X95723200Y-74541400D01*
G75*
G02*
X95498200Y-74316400I0J225000D01*
G01*
X95498200Y-73816400D01*
G75*
G02*
X95723200Y-73591400I225000J0D01*
G01*
X96173200Y-73591400D01*
G75*
G02*
X96398200Y-73816400I0J-225000D01*
G01*
G37*
G36*
G01*
X97948200Y-73816400D02*
X97948200Y-74316400D01*
G75*
G02*
X97723200Y-74541400I-225000J0D01*
G01*
X97273200Y-74541400D01*
G75*
G02*
X97048200Y-74316400I0J225000D01*
G01*
X97048200Y-73816400D01*
G75*
G02*
X97273200Y-73591400I225000J0D01*
G01*
X97723200Y-73591400D01*
G75*
G02*
X97948200Y-73816400I0J-225000D01*
G01*
G37*
%TD*%
D12*
%TO.C,J1*%
X90678000Y-79756000D03*
D13*
X90678000Y-82296000D03*
X90678000Y-84836000D03*
X90678000Y-87376000D03*
X90678000Y-89916000D03*
%TD*%
D14*
%TO.C,J2*%
X93649800Y-102362000D03*
X94919800Y-102362000D03*
X96189800Y-102362000D03*
D15*
X97459800Y-102362000D03*
%TD*%
%TO.C,J3*%
X97459800Y-67259200D03*
D14*
X96189800Y-67259200D03*
X94919800Y-67259200D03*
X93649800Y-67259200D03*
%TD*%
D15*
%TO.C,J4*%
X136702800Y-87985600D03*
D14*
X136702800Y-86715600D03*
X136702800Y-85445600D03*
X136702800Y-84175600D03*
X136702800Y-82905600D03*
X136702800Y-81635600D03*
%TD*%
%TO.C,R1*%
G36*
G01*
X97035199Y-77410900D02*
X97935201Y-77410900D01*
G75*
G02*
X98185200Y-77660899I0J-249999D01*
G01*
X98185200Y-78185901D01*
G75*
G02*
X97935201Y-78435900I-249999J0D01*
G01*
X97035199Y-78435900D01*
G75*
G02*
X96785200Y-78185901I0J249999D01*
G01*
X96785200Y-77660899D01*
G75*
G02*
X97035199Y-77410900I249999J0D01*
G01*
G37*
G36*
G01*
X97035199Y-75585900D02*
X97935201Y-75585900D01*
G75*
G02*
X98185200Y-75835899I0J-249999D01*
G01*
X98185200Y-76360901D01*
G75*
G02*
X97935201Y-76610900I-249999J0D01*
G01*
X97035199Y-76610900D01*
G75*
G02*
X96785200Y-76360901I0J249999D01*
G01*
X96785200Y-75835899D01*
G75*
G02*
X97035199Y-75585900I249999J0D01*
G01*
G37*
%TD*%
D16*
%TO.C,SW1*%
X127279400Y-100580600D03*
X127279400Y-103330600D03*
%TD*%
%TO.C,C2*%
G36*
G01*
X98123900Y-70728399D02*
X98123900Y-72578401D01*
G75*
G02*
X97873901Y-72828400I-249999J0D01*
G01*
X97048899Y-72828400D01*
G75*
G02*
X96798900Y-72578401I0J249999D01*
G01*
X96798900Y-70728399D01*
G75*
G02*
X97048899Y-70478400I249999J0D01*
G01*
X97873901Y-70478400D01*
G75*
G02*
X98123900Y-70728399I0J-249999D01*
G01*
G37*
G36*
G01*
X95048900Y-70728399D02*
X95048900Y-72578401D01*
G75*
G02*
X94798901Y-72828400I-249999J0D01*
G01*
X93973899Y-72828400D01*
G75*
G02*
X93723900Y-72578401I0J249999D01*
G01*
X93723900Y-70728399D01*
G75*
G02*
X93973899Y-70478400I249999J0D01*
G01*
X94798901Y-70478400D01*
G75*
G02*
X95048900Y-70728399I0J-249999D01*
G01*
G37*
%TD*%
M02*
