%TF.GenerationSoftware,KiCad,Pcbnew,(5.1.8)-1*%
%TF.CreationDate,2021-05-19T16:17:09+03:00*%
%TF.ProjectId,Thermometer,54686572-6d6f-46d6-9574-65722e6b6963,rev?*%
%TF.SameCoordinates,Original*%
%TF.FileFunction,Profile,NP*%
%FSLAX46Y46*%
G04 Gerber Fmt 4.6, Leading zero omitted, Abs format (unit mm)*
G04 Created by KiCad (PCBNEW (5.1.8)-1) date 2021-05-19 16:17:09*
%MOMM*%
%LPD*%
G01*
G04 APERTURE LIST*
%TA.AperFunction,Profile*%
%ADD10C,0.050000*%
%TD*%
G04 APERTURE END LIST*
D10*
X134315200Y-103454200D02*
X134315200Y-100482400D01*
X138303000Y-99466400D02*
X138303000Y-70154800D01*
X91821000Y-69138800D02*
G75*
G02*
X91313000Y-69646800I-508000J0D01*
G01*
X91821000Y-66167000D02*
G75*
G02*
X92329000Y-65659000I508000J0D01*
G01*
X137795000Y-69646800D02*
G75*
G02*
X138303000Y-70154800I0J-508000D01*
G01*
X88341168Y-76073634D02*
G75*
G02*
X88823800Y-76581000I-25368J-507366D01*
G01*
X87832565Y-94386400D02*
G75*
G02*
X88315800Y-93878400I508635J0D01*
G01*
X91313000Y-99974400D02*
G75*
G02*
X91821000Y-100482400I0J-508000D01*
G01*
X133807200Y-65659000D02*
G75*
G02*
X134315200Y-66167000I0J-508000D01*
G01*
X91821000Y-66167000D02*
X91821000Y-69138800D01*
X134315200Y-69138800D02*
X134315200Y-66167000D01*
X88341200Y-76073000D02*
G75*
G02*
X87833200Y-75565000I0J508000D01*
G01*
X92329000Y-103962200D02*
G75*
G02*
X91821000Y-103454200I0J508000D01*
G01*
X88341200Y-99974400D02*
G75*
G02*
X87833200Y-99466400I0J508000D01*
G01*
X137795000Y-69646800D02*
X134823200Y-69646800D01*
X91313000Y-69646800D02*
X88341200Y-69646800D01*
X87833200Y-94386400D02*
X87833200Y-99466400D01*
X92329000Y-103962200D02*
X133807200Y-103962200D01*
X134823200Y-69646800D02*
G75*
G02*
X134315200Y-69138800I0J508000D01*
G01*
X138303000Y-99466400D02*
G75*
G02*
X137795000Y-99974400I-508000J0D01*
G01*
X134823200Y-99974400D02*
X137795000Y-99974400D01*
X88823800Y-76581000D02*
X88823800Y-93370400D01*
X87833200Y-70154800D02*
X87833200Y-75565000D01*
X88823800Y-93370400D02*
G75*
G02*
X88315800Y-93878400I-508000J0D01*
G01*
X134315200Y-100482400D02*
G75*
G02*
X134823200Y-99974400I508000J0D01*
G01*
X133807200Y-65659000D02*
X92329000Y-65659000D01*
X134315200Y-103454200D02*
G75*
G02*
X133807200Y-103962200I-508000J0D01*
G01*
X91821000Y-100482400D02*
X91821000Y-103454200D01*
X87833200Y-70154800D02*
G75*
G02*
X88341200Y-69646800I508000J0D01*
G01*
X88341200Y-99974400D02*
X91313000Y-99974400D01*
M02*
