%TF.GenerationSoftware,KiCad,Pcbnew,(5.1.8)-1*%
%TF.CreationDate,2021-05-19T16:17:09+03:00*%
%TF.ProjectId,Thermometer,54686572-6d6f-46d6-9574-65722e6b6963,rev?*%
%TF.SameCoordinates,Original*%
%TF.FileFunction,Legend,Top*%
%TF.FilePolarity,Positive*%
%FSLAX46Y46*%
G04 Gerber Fmt 4.6, Leading zero omitted, Abs format (unit mm)*
G04 Created by KiCad (PCBNEW (5.1.8)-1) date 2021-05-19 16:17:09*
%MOMM*%
%LPD*%
G01*
G04 APERTURE LIST*
%ADD10C,0.120000*%
%ADD11C,0.150000*%
G04 APERTURE END LIST*
D10*
%TO.C,J1*%
X89348000Y-91246000D02*
X92008000Y-91246000D01*
X89348000Y-81026000D02*
X89348000Y-91246000D01*
X92008000Y-81026000D02*
X92008000Y-91246000D01*
X89348000Y-81026000D02*
X92008000Y-81026000D01*
X89348000Y-79756000D02*
X89348000Y-78426000D01*
X89348000Y-78426000D02*
X90678000Y-78426000D01*
%TO.C,J2*%
X98219800Y-101252000D02*
X98219800Y-102362000D01*
X97459800Y-101252000D02*
X98219800Y-101252000D01*
X96699800Y-102925471D02*
X96699800Y-103472000D01*
X96699800Y-101252000D02*
X96699800Y-101798529D01*
X96699800Y-103472000D02*
X92954800Y-103472000D01*
X96699800Y-101252000D02*
X92954800Y-101252000D01*
X92954800Y-102669530D02*
X92954800Y-103472000D01*
X92954800Y-101252000D02*
X92954800Y-102054470D01*
%TO.C,J3*%
X92954800Y-66149200D02*
X92954800Y-66951670D01*
X92954800Y-67566730D02*
X92954800Y-68369200D01*
X96699800Y-66149200D02*
X92954800Y-66149200D01*
X96699800Y-68369200D02*
X92954800Y-68369200D01*
X96699800Y-66149200D02*
X96699800Y-66695729D01*
X96699800Y-67822671D02*
X96699800Y-68369200D01*
X97459800Y-66149200D02*
X98219800Y-66149200D01*
X98219800Y-66149200D02*
X98219800Y-67259200D01*
%TO.C,J4*%
X137812800Y-80940600D02*
X137010330Y-80940600D01*
X136395270Y-80940600D02*
X135592800Y-80940600D01*
X137812800Y-87225600D02*
X137812800Y-80940600D01*
X135592800Y-87225600D02*
X135592800Y-80940600D01*
X137812800Y-87225600D02*
X137266271Y-87225600D01*
X136139329Y-87225600D02*
X135592800Y-87225600D01*
X137812800Y-87985600D02*
X137812800Y-88745600D01*
X137812800Y-88745600D02*
X136702800Y-88745600D01*
%TO.C,R2*%
X128345836Y-79605200D02*
X128799964Y-79605200D01*
X128345836Y-81075200D02*
X128799964Y-81075200D01*
%TO.C,SW1*%
X124929400Y-103805600D02*
X125854400Y-103805600D01*
X124929400Y-100105600D02*
X129629400Y-100105600D01*
X129729400Y-101680600D02*
X129729400Y-102230600D01*
X124829400Y-101680600D02*
X124829400Y-102230600D01*
X128704400Y-103805600D02*
X129629400Y-103805600D01*
%TO.C,U1*%
X106672800Y-89064600D02*
X106672800Y-87494600D01*
X106672800Y-89064600D02*
X108562800Y-89064600D01*
X119122800Y-89064600D02*
X121012800Y-89064600D01*
X121012800Y-89064600D02*
X121012800Y-87494600D01*
X121012800Y-76984600D02*
X121012800Y-65824600D01*
X121012800Y-65824600D02*
X106672800Y-65824600D01*
X106672800Y-65824600D02*
X106672800Y-76984600D01*
X106672800Y-76984600D02*
X106072800Y-76984600D01*
%TO.C,D1*%
X136276200Y-75378600D02*
X136276200Y-78063600D01*
X138196200Y-75378600D02*
X136276200Y-75378600D01*
X138196200Y-78063600D02*
X138196200Y-75378600D01*
%TO.C,J1*%
D11*
X90344666Y-76878380D02*
X90344666Y-77592666D01*
X90297047Y-77735523D01*
X90201809Y-77830761D01*
X90058952Y-77878380D01*
X89963714Y-77878380D01*
X91344666Y-77878380D02*
X90773238Y-77878380D01*
X91058952Y-77878380D02*
X91058952Y-76878380D01*
X90963714Y-77021238D01*
X90868476Y-77116476D01*
X90773238Y-77164095D01*
%TO.C,J2*%
X98607180Y-102695333D02*
X99321466Y-102695333D01*
X99464323Y-102742952D01*
X99559561Y-102838190D01*
X99607180Y-102981047D01*
X99607180Y-103076285D01*
X98702419Y-102266761D02*
X98654800Y-102219142D01*
X98607180Y-102123904D01*
X98607180Y-101885809D01*
X98654800Y-101790571D01*
X98702419Y-101742952D01*
X98797657Y-101695333D01*
X98892895Y-101695333D01*
X99035752Y-101742952D01*
X99607180Y-102314380D01*
X99607180Y-101695333D01*
%TO.C,J3*%
X98607180Y-67592533D02*
X99321466Y-67592533D01*
X99464323Y-67640152D01*
X99559561Y-67735390D01*
X99607180Y-67878247D01*
X99607180Y-67973485D01*
X98607180Y-67211580D02*
X98607180Y-66592533D01*
X98988133Y-66925866D01*
X98988133Y-66783009D01*
X99035752Y-66687771D01*
X99083371Y-66640152D01*
X99178609Y-66592533D01*
X99416704Y-66592533D01*
X99511942Y-66640152D01*
X99559561Y-66687771D01*
X99607180Y-66783009D01*
X99607180Y-67068723D01*
X99559561Y-67163961D01*
X99511942Y-67211580D01*
%TO.C,J4*%
X136369466Y-89132980D02*
X136369466Y-89847266D01*
X136321847Y-89990123D01*
X136226609Y-90085361D01*
X136083752Y-90132980D01*
X135988514Y-90132980D01*
X137274228Y-89466314D02*
X137274228Y-90132980D01*
X137036133Y-89085361D02*
X136798038Y-89799647D01*
X137417085Y-89799647D01*
%TO.C,R2*%
X128406233Y-79142580D02*
X128072900Y-78666390D01*
X127834804Y-79142580D02*
X127834804Y-78142580D01*
X128215757Y-78142580D01*
X128310995Y-78190200D01*
X128358614Y-78237819D01*
X128406233Y-78333057D01*
X128406233Y-78475914D01*
X128358614Y-78571152D01*
X128310995Y-78618771D01*
X128215757Y-78666390D01*
X127834804Y-78666390D01*
X128787185Y-78237819D02*
X128834804Y-78190200D01*
X128930042Y-78142580D01*
X129168138Y-78142580D01*
X129263376Y-78190200D01*
X129310995Y-78237819D01*
X129358614Y-78333057D01*
X129358614Y-78428295D01*
X129310995Y-78571152D01*
X128739566Y-79142580D01*
X129358614Y-79142580D01*
%TO.C,SW1*%
X132611761Y-103136533D02*
X132659380Y-102993676D01*
X132659380Y-102755580D01*
X132611761Y-102660342D01*
X132564142Y-102612723D01*
X132468904Y-102565104D01*
X132373666Y-102565104D01*
X132278428Y-102612723D01*
X132230809Y-102660342D01*
X132183190Y-102755580D01*
X132135571Y-102946057D01*
X132087952Y-103041295D01*
X132040333Y-103088914D01*
X131945095Y-103136533D01*
X131849857Y-103136533D01*
X131754619Y-103088914D01*
X131707000Y-103041295D01*
X131659380Y-102946057D01*
X131659380Y-102707961D01*
X131707000Y-102565104D01*
X131659380Y-102231771D02*
X132659380Y-101993676D01*
X131945095Y-101803200D01*
X132659380Y-101612723D01*
X131659380Y-101374628D01*
X132659380Y-100469866D02*
X132659380Y-101041295D01*
X132659380Y-100755580D02*
X131659380Y-100755580D01*
X131802238Y-100850819D01*
X131897476Y-100946057D01*
X131945095Y-101041295D01*
%TO.C,U1*%
X113080895Y-90396980D02*
X113080895Y-91206504D01*
X113128514Y-91301742D01*
X113176133Y-91349361D01*
X113271371Y-91396980D01*
X113461847Y-91396980D01*
X113557085Y-91349361D01*
X113604704Y-91301742D01*
X113652323Y-91206504D01*
X113652323Y-90396980D01*
X114652323Y-91396980D02*
X114080895Y-91396980D01*
X114366609Y-91396980D02*
X114366609Y-90396980D01*
X114271371Y-90539838D01*
X114176133Y-90635076D01*
X114080895Y-90682695D01*
%TO.C,D1*%
X135986780Y-77598495D02*
X134986780Y-77598495D01*
X134986780Y-77360400D01*
X135034400Y-77217542D01*
X135129638Y-77122304D01*
X135224876Y-77074685D01*
X135415352Y-77027066D01*
X135558209Y-77027066D01*
X135748685Y-77074685D01*
X135843923Y-77122304D01*
X135939161Y-77217542D01*
X135986780Y-77360400D01*
X135986780Y-77598495D01*
X135986780Y-76074685D02*
X135986780Y-76646114D01*
X135986780Y-76360400D02*
X134986780Y-76360400D01*
X135129638Y-76455638D01*
X135224876Y-76550876D01*
X135272495Y-76646114D01*
%TD*%
M02*
