M48
; DRILL file {KiCad (5.1.8)-1} date 05/19/21 16:17:52
; FORMAT={-:-/ absolute / metric / decimal}
; #@! TF.CreationDate,2021-05-19T16:17:52+03:00
; #@! TF.GenerationSoftware,Kicad,Pcbnew,(5.1.8)-1
; #@! TF.FileFunction,Plated,1,2,PTH
FMAT,2
METRIC
T1C0.400
T2C0.650
T3C1.000
%
G90
G05
T1
X88.798Y-98.831
X88.875Y-94.869
X89.174Y-74.732
X89.205Y-71.145
X90.653Y-76.403
X90.703Y-92.913
X92.507Y-99.035
X92.659Y-70.942
X94.437Y-71.653
X94.92Y-99.035
X96.647Y-94.666
X96.876Y-98.679
X97.485Y-76.098
X99.822Y-91.973
X101.549Y-66.548
X101.549Y-98.933
X102.692Y-88.468
X102.743Y-72.669
X104.445Y-85.928
X104.566Y-77.795
X105.359Y-69.85
X105.512Y-66.548
X105.588Y-72.415
X106.045Y-99.009
X106.375Y-92.126
X106.748Y-88.612
X108.814Y-97.206
X109.047Y-86.314
X109.652Y-77.292
X109.753Y-79.934
X110.795Y-93.929
X112.293Y-86.589
X113.36Y-75.641
X113.809Y-81.551
X114.198Y-102.032
X117.704Y-82.601
X117.78Y-86.512
X117.822Y-77.538
X118.491Y-95.733
X118.567Y-102.108
X121.793Y-102.108
X121.869Y-95.733
X122.555Y-72.288
X122.733Y-66.523
X122.733Y-69.24
X125.832Y-95.809
X126.111Y-66.573
X126.67Y-86.741
X129.134Y-66.548
X131.724Y-86.893
X132.08Y-100.66
X132.08Y-102.54
X133.02Y-66.523
X133.223Y-68.707
X133.655Y-76.378
X133.68Y-70.688
X137.008Y-92.329
X137.008Y-95.631
X137.008Y-98.476
X137.185Y-76.048
X137.338Y-73.228
X137.363Y-70.688
T2
X93.65Y-102.362
X94.92Y-102.362
X96.19Y-102.362
X97.46Y-102.362
X136.703Y-81.636
X136.703Y-82.906
X136.703Y-84.176
X136.703Y-85.446
X136.703Y-86.716
X136.703Y-87.986
X93.65Y-67.259
X94.92Y-67.259
X96.19Y-67.259
X97.46Y-67.259
T3
X90.678Y-79.756
X90.678Y-82.296
X90.678Y-84.836
X90.678Y-87.376
X90.678Y-89.916
T0
M30
