%TF.GenerationSoftware,KiCad,Pcbnew,(5.1.8)-1*%
%TF.CreationDate,2020-12-21T16:49:44+02:00*%
%TF.ProjectId,Thermometer,54686572-6d6f-46d6-9574-65722e6b6963,rev?*%
%TF.SameCoordinates,Original*%
%TF.FileFunction,Soldermask,Top*%
%TF.FilePolarity,Negative*%
%FSLAX46Y46*%
G04 Gerber Fmt 4.6, Leading zero omitted, Abs format (unit mm)*
G04 Created by KiCad (PCBNEW (5.1.8)-1) date 2020-12-21 16:49:44*
%MOMM*%
%LPD*%
G01*
G04 APERTURE LIST*
%ADD10C,3.200000*%
%ADD11R,2.000000X0.700000*%
%ADD12R,0.700000X2.000000*%
%ADD13O,1.500000X1.050000*%
%ADD14R,1.500000X1.050000*%
%ADD15R,0.500000X0.350000*%
%ADD16R,1.880000X1.680000*%
%ADD17R,2.000000X2.000000*%
%ADD18C,2.000000*%
%ADD19C,3.450000*%
%ADD20R,1.700000X1.700000*%
%ADD21O,1.700000X1.700000*%
%ADD22R,1.550000X1.000000*%
%ADD23C,0.750000*%
G04 APERTURE END LIST*
D10*
%TO.C,REF\u002A\u002A*%
X34671000Y-166370000D03*
%TD*%
%TO.C,REF\u002A\u002A*%
X34671000Y-132588000D03*
%TD*%
%TO.C,REF\u002A\u002A*%
X84074000Y-132588000D03*
%TD*%
%TO.C,REF\u002A\u002A*%
X84074000Y-166370000D03*
%TD*%
%TO.C,C1*%
G36*
G01*
X49780000Y-141216500D02*
X49280000Y-141216500D01*
G75*
G02*
X49055000Y-140991500I0J225000D01*
G01*
X49055000Y-140541500D01*
G75*
G02*
X49280000Y-140316500I225000J0D01*
G01*
X49780000Y-140316500D01*
G75*
G02*
X50005000Y-140541500I0J-225000D01*
G01*
X50005000Y-140991500D01*
G75*
G02*
X49780000Y-141216500I-225000J0D01*
G01*
G37*
G36*
G01*
X49780000Y-142766500D02*
X49280000Y-142766500D01*
G75*
G02*
X49055000Y-142541500I0J225000D01*
G01*
X49055000Y-142091500D01*
G75*
G02*
X49280000Y-141866500I225000J0D01*
G01*
X49780000Y-141866500D01*
G75*
G02*
X50005000Y-142091500I0J-225000D01*
G01*
X50005000Y-142541500D01*
G75*
G02*
X49780000Y-142766500I-225000J0D01*
G01*
G37*
%TD*%
%TO.C,C2*%
G36*
G01*
X84791000Y-143577500D02*
X84791000Y-144077500D01*
G75*
G02*
X84566000Y-144302500I-225000J0D01*
G01*
X84116000Y-144302500D01*
G75*
G02*
X83891000Y-144077500I0J225000D01*
G01*
X83891000Y-143577500D01*
G75*
G02*
X84116000Y-143352500I225000J0D01*
G01*
X84566000Y-143352500D01*
G75*
G02*
X84791000Y-143577500I0J-225000D01*
G01*
G37*
G36*
G01*
X83241000Y-143577500D02*
X83241000Y-144077500D01*
G75*
G02*
X83016000Y-144302500I-225000J0D01*
G01*
X82566000Y-144302500D01*
G75*
G02*
X82341000Y-144077500I0J225000D01*
G01*
X82341000Y-143577500D01*
G75*
G02*
X82566000Y-143352500I225000J0D01*
G01*
X83016000Y-143352500D01*
G75*
G02*
X83241000Y-143577500I0J-225000D01*
G01*
G37*
%TD*%
%TO.C,C3*%
G36*
G01*
X39222000Y-153134500D02*
X33422000Y-153134500D01*
G75*
G02*
X33172000Y-152884500I0J250000D01*
G01*
X33172000Y-150884500D01*
G75*
G02*
X33422000Y-150634500I250000J0D01*
G01*
X39222000Y-150634500D01*
G75*
G02*
X39472000Y-150884500I0J-250000D01*
G01*
X39472000Y-152884500D01*
G75*
G02*
X39222000Y-153134500I-250000J0D01*
G01*
G37*
G36*
G01*
X39222000Y-147434500D02*
X33422000Y-147434500D01*
G75*
G02*
X33172000Y-147184500I0J250000D01*
G01*
X33172000Y-145184500D01*
G75*
G02*
X33422000Y-144934500I250000J0D01*
G01*
X39222000Y-144934500D01*
G75*
G02*
X39472000Y-145184500I0J-250000D01*
G01*
X39472000Y-147184500D01*
G75*
G02*
X39222000Y-147434500I-250000J0D01*
G01*
G37*
%TD*%
%TO.C,R1*%
G36*
G01*
X68286500Y-144562500D02*
X68286500Y-144362500D01*
G75*
G02*
X68386500Y-144262500I100000J0D01*
G01*
X68646500Y-144262500D01*
G75*
G02*
X68746500Y-144362500I0J-100000D01*
G01*
X68746500Y-144562500D01*
G75*
G02*
X68646500Y-144662500I-100000J0D01*
G01*
X68386500Y-144662500D01*
G75*
G02*
X68286500Y-144562500I0J100000D01*
G01*
G37*
G36*
G01*
X68926500Y-144562500D02*
X68926500Y-144362500D01*
G75*
G02*
X69026500Y-144262500I100000J0D01*
G01*
X69286500Y-144262500D01*
G75*
G02*
X69386500Y-144362500I0J-100000D01*
G01*
X69386500Y-144562500D01*
G75*
G02*
X69286500Y-144662500I-100000J0D01*
G01*
X69026500Y-144662500D01*
G75*
G02*
X68926500Y-144562500I0J100000D01*
G01*
G37*
%TD*%
%TO.C,R2*%
G36*
G01*
X40994500Y-153824000D02*
X40994500Y-154024000D01*
G75*
G02*
X40894500Y-154124000I-100000J0D01*
G01*
X40634500Y-154124000D01*
G75*
G02*
X40534500Y-154024000I0J100000D01*
G01*
X40534500Y-153824000D01*
G75*
G02*
X40634500Y-153724000I100000J0D01*
G01*
X40894500Y-153724000D01*
G75*
G02*
X40994500Y-153824000I0J-100000D01*
G01*
G37*
G36*
G01*
X41634500Y-153824000D02*
X41634500Y-154024000D01*
G75*
G02*
X41534500Y-154124000I-100000J0D01*
G01*
X41274500Y-154124000D01*
G75*
G02*
X41174500Y-154024000I0J100000D01*
G01*
X41174500Y-153824000D01*
G75*
G02*
X41274500Y-153724000I100000J0D01*
G01*
X41534500Y-153724000D01*
G75*
G02*
X41634500Y-153824000I0J-100000D01*
G01*
G37*
%TD*%
D11*
%TO.C,U1*%
X66359000Y-150781500D03*
X66359000Y-149511500D03*
X66359000Y-148241500D03*
X66359000Y-146971500D03*
X66359000Y-145701500D03*
X66359000Y-144431500D03*
X66359000Y-143161500D03*
X66359000Y-141891500D03*
D12*
X54849000Y-153041500D03*
X56119000Y-153041500D03*
X57389000Y-153041500D03*
X58659000Y-153041500D03*
X59929000Y-153041500D03*
X61199000Y-153041500D03*
X62469000Y-153041500D03*
X63739000Y-153041500D03*
D11*
X52259000Y-141891500D03*
X52259000Y-143161500D03*
X52259000Y-144431500D03*
X52259000Y-145701500D03*
X52259000Y-146971500D03*
X52259000Y-148241500D03*
X52259000Y-149511500D03*
X52259000Y-150781500D03*
%TD*%
D13*
%TO.C,U2*%
X83820000Y-147828000D03*
X83820000Y-149098000D03*
D14*
X83820000Y-146558000D03*
%TD*%
D15*
%TO.C,U3*%
X82668000Y-139169500D03*
X82668000Y-139819500D03*
X82668000Y-140469500D03*
X82668000Y-141119500D03*
X84718000Y-141119500D03*
X84718000Y-140469500D03*
X84718000Y-139819500D03*
X84718000Y-139169500D03*
%TD*%
%TO.C,U4*%
G36*
G01*
X43026000Y-161362000D02*
X42826000Y-161362000D01*
G75*
G02*
X42726000Y-161262000I0J100000D01*
G01*
X42726000Y-160012000D01*
G75*
G02*
X42826000Y-159912000I100000J0D01*
G01*
X43026000Y-159912000D01*
G75*
G02*
X43126000Y-160012000I0J-100000D01*
G01*
X43126000Y-161262000D01*
G75*
G02*
X43026000Y-161362000I-100000J0D01*
G01*
G37*
G36*
G01*
X43676000Y-161362000D02*
X43476000Y-161362000D01*
G75*
G02*
X43376000Y-161262000I0J100000D01*
G01*
X43376000Y-160012000D01*
G75*
G02*
X43476000Y-159912000I100000J0D01*
G01*
X43676000Y-159912000D01*
G75*
G02*
X43776000Y-160012000I0J-100000D01*
G01*
X43776000Y-161262000D01*
G75*
G02*
X43676000Y-161362000I-100000J0D01*
G01*
G37*
G36*
G01*
X44326000Y-161362000D02*
X44126000Y-161362000D01*
G75*
G02*
X44026000Y-161262000I0J100000D01*
G01*
X44026000Y-160012000D01*
G75*
G02*
X44126000Y-159912000I100000J0D01*
G01*
X44326000Y-159912000D01*
G75*
G02*
X44426000Y-160012000I0J-100000D01*
G01*
X44426000Y-161262000D01*
G75*
G02*
X44326000Y-161362000I-100000J0D01*
G01*
G37*
G36*
G01*
X44976000Y-161362000D02*
X44776000Y-161362000D01*
G75*
G02*
X44676000Y-161262000I0J100000D01*
G01*
X44676000Y-160012000D01*
G75*
G02*
X44776000Y-159912000I100000J0D01*
G01*
X44976000Y-159912000D01*
G75*
G02*
X45076000Y-160012000I0J-100000D01*
G01*
X45076000Y-161262000D01*
G75*
G02*
X44976000Y-161362000I-100000J0D01*
G01*
G37*
G36*
G01*
X44976000Y-157062000D02*
X44776000Y-157062000D01*
G75*
G02*
X44676000Y-156962000I0J100000D01*
G01*
X44676000Y-155712000D01*
G75*
G02*
X44776000Y-155612000I100000J0D01*
G01*
X44976000Y-155612000D01*
G75*
G02*
X45076000Y-155712000I0J-100000D01*
G01*
X45076000Y-156962000D01*
G75*
G02*
X44976000Y-157062000I-100000J0D01*
G01*
G37*
G36*
G01*
X44326000Y-157062000D02*
X44126000Y-157062000D01*
G75*
G02*
X44026000Y-156962000I0J100000D01*
G01*
X44026000Y-155712000D01*
G75*
G02*
X44126000Y-155612000I100000J0D01*
G01*
X44326000Y-155612000D01*
G75*
G02*
X44426000Y-155712000I0J-100000D01*
G01*
X44426000Y-156962000D01*
G75*
G02*
X44326000Y-157062000I-100000J0D01*
G01*
G37*
G36*
G01*
X43676000Y-157062000D02*
X43476000Y-157062000D01*
G75*
G02*
X43376000Y-156962000I0J100000D01*
G01*
X43376000Y-155712000D01*
G75*
G02*
X43476000Y-155612000I100000J0D01*
G01*
X43676000Y-155612000D01*
G75*
G02*
X43776000Y-155712000I0J-100000D01*
G01*
X43776000Y-156962000D01*
G75*
G02*
X43676000Y-157062000I-100000J0D01*
G01*
G37*
G36*
G01*
X43026000Y-157062000D02*
X42826000Y-157062000D01*
G75*
G02*
X42726000Y-156962000I0J100000D01*
G01*
X42726000Y-155712000D01*
G75*
G02*
X42826000Y-155612000I100000J0D01*
G01*
X43026000Y-155612000D01*
G75*
G02*
X43126000Y-155712000I0J-100000D01*
G01*
X43126000Y-156962000D01*
G75*
G02*
X43026000Y-157062000I-100000J0D01*
G01*
G37*
D16*
X43901000Y-158487000D03*
%TD*%
D17*
%TO.C,BT1*%
X35433000Y-155829000D03*
D18*
X35433000Y-143129000D03*
D19*
X74043000Y-147129000D03*
%TD*%
%TO.C,D1*%
G36*
G01*
X78912000Y-130939250D02*
X78912000Y-130426750D01*
G75*
G02*
X79130750Y-130208000I218750J0D01*
G01*
X79568250Y-130208000D01*
G75*
G02*
X79787000Y-130426750I0J-218750D01*
G01*
X79787000Y-130939250D01*
G75*
G02*
X79568250Y-131158000I-218750J0D01*
G01*
X79130750Y-131158000D01*
G75*
G02*
X78912000Y-130939250I0J218750D01*
G01*
G37*
G36*
G01*
X80487000Y-130939250D02*
X80487000Y-130426750D01*
G75*
G02*
X80705750Y-130208000I218750J0D01*
G01*
X81143250Y-130208000D01*
G75*
G02*
X81362000Y-130426750I0J-218750D01*
G01*
X81362000Y-130939250D01*
G75*
G02*
X81143250Y-131158000I-218750J0D01*
G01*
X80705750Y-131158000D01*
G75*
G02*
X80487000Y-130939250I0J218750D01*
G01*
G37*
%TD*%
D20*
%TO.C,J1*%
X49149000Y-131572000D03*
D21*
X46609000Y-131572000D03*
X44069000Y-131572000D03*
X41529000Y-131572000D03*
X38989000Y-131572000D03*
%TD*%
D20*
%TO.C,J2*%
X68580000Y-167894000D03*
D21*
X66040000Y-167894000D03*
X63500000Y-167894000D03*
X60960000Y-167894000D03*
X58420000Y-167894000D03*
X55880000Y-167894000D03*
X53340000Y-167894000D03*
X50800000Y-167894000D03*
%TD*%
%TO.C,L1*%
G36*
G01*
X41137503Y-161132500D02*
X38237497Y-161132500D01*
G75*
G02*
X37987500Y-160882503I0J249997D01*
G01*
X37987500Y-160257497D01*
G75*
G02*
X38237497Y-160007500I249997J0D01*
G01*
X41137503Y-160007500D01*
G75*
G02*
X41387500Y-160257497I0J-249997D01*
G01*
X41387500Y-160882503D01*
G75*
G02*
X41137503Y-161132500I-249997J0D01*
G01*
G37*
G36*
G01*
X41137503Y-156857500D02*
X38237497Y-156857500D01*
G75*
G02*
X37987500Y-156607503I0J249997D01*
G01*
X37987500Y-155982497D01*
G75*
G02*
X38237497Y-155732500I249997J0D01*
G01*
X41137503Y-155732500D01*
G75*
G02*
X41387500Y-155982497I0J-249997D01*
G01*
X41387500Y-156607503D01*
G75*
G02*
X41137503Y-156857500I-249997J0D01*
G01*
G37*
%TD*%
D22*
%TO.C,SW1*%
X75332500Y-133374500D03*
X70082500Y-133374500D03*
X70082500Y-131674500D03*
X75332500Y-131674500D03*
D23*
X72707500Y-133899500D03*
X72707500Y-131149500D03*
%TD*%
M02*
