%TF.GenerationSoftware,KiCad,Pcbnew,(5.1.8)-1*%
%TF.CreationDate,2020-12-21T16:49:44+02:00*%
%TF.ProjectId,Thermometer,54686572-6d6f-46d6-9574-65722e6b6963,rev?*%
%TF.SameCoordinates,Original*%
%TF.FileFunction,Copper,L2,Bot*%
%TF.FilePolarity,Positive*%
%FSLAX46Y46*%
G04 Gerber Fmt 4.6, Leading zero omitted, Abs format (unit mm)*
G04 Created by KiCad (PCBNEW (5.1.8)-1) date 2020-12-21 16:49:44*
%MOMM*%
%LPD*%
G01*
G04 APERTURE LIST*
%TA.AperFunction,ComponentPad*%
%ADD10O,1.500000X1.050000*%
%TD*%
%TA.AperFunction,ComponentPad*%
%ADD11R,1.500000X1.050000*%
%TD*%
%TA.AperFunction,ComponentPad*%
%ADD12R,2.000000X2.000000*%
%TD*%
%TA.AperFunction,ComponentPad*%
%ADD13C,2.000000*%
%TD*%
%TA.AperFunction,ComponentPad*%
%ADD14R,1.700000X1.700000*%
%TD*%
%TA.AperFunction,ComponentPad*%
%ADD15O,1.700000X1.700000*%
%TD*%
%TA.AperFunction,ViaPad*%
%ADD16C,0.800000*%
%TD*%
%TA.AperFunction,Conductor*%
%ADD17C,0.250000*%
%TD*%
%TA.AperFunction,Conductor*%
%ADD18C,1.000000*%
%TD*%
%TA.AperFunction,Conductor*%
%ADD19C,0.254000*%
%TD*%
%TA.AperFunction,Conductor*%
%ADD20C,0.100000*%
%TD*%
G04 APERTURE END LIST*
D10*
%TO.P,U2,2*%
%TO.N,/DQ*%
X83820000Y-147828000D03*
%TO.P,U2,3*%
%TO.N,/P1.0*%
X83820000Y-149098000D03*
D11*
%TO.P,U2,1*%
%TO.N,GND*%
X83820000Y-146558000D03*
%TD*%
D12*
%TO.P,BT1,1*%
%TO.N,+BATT*%
X35433000Y-155829000D03*
D13*
%TO.P,BT1,2*%
%TO.N,GND*%
X35433000Y-143129000D03*
%TD*%
D14*
%TO.P,J1,1*%
%TO.N,+3V3*%
X49149000Y-131572000D03*
D15*
%TO.P,J1,2*%
%TO.N,/RESET*%
X46609000Y-131572000D03*
%TO.P,J1,3*%
%TO.N,/P2.2*%
X44069000Y-131572000D03*
%TO.P,J1,4*%
%TO.N,/P2.1*%
X41529000Y-131572000D03*
%TO.P,J1,5*%
%TO.N,GND*%
X38989000Y-131572000D03*
%TD*%
D14*
%TO.P,J2,1*%
%TO.N,/BUSY*%
X68580000Y-167894000D03*
D15*
%TO.P,J2,2*%
%TO.N,/RST*%
X66040000Y-167894000D03*
%TO.P,J2,3*%
%TO.N,/DC*%
X63500000Y-167894000D03*
%TO.P,J2,4*%
%TO.N,/CS1*%
X60960000Y-167894000D03*
%TO.P,J2,5*%
%TO.N,/CLK1*%
X58420000Y-167894000D03*
%TO.P,J2,6*%
%TO.N,/MOSI1*%
X55880000Y-167894000D03*
%TO.P,J2,7*%
%TO.N,GND*%
X53340000Y-167894000D03*
%TO.P,J2,8*%
%TO.N,+3V3*%
X50800000Y-167894000D03*
%TD*%
D16*
%TO.N,GND*%
X81280000Y-141478000D03*
X79375000Y-131889500D03*
X48831500Y-156337000D03*
X44876000Y-156337000D03*
X36322000Y-146184500D03*
X49530000Y-140766500D03*
X85153500Y-136779000D03*
X85598000Y-152336500D03*
X85534500Y-159702500D03*
X82105500Y-161734500D03*
X79565500Y-166624000D03*
X77470000Y-167767000D03*
X72072500Y-167767000D03*
X47688500Y-167957500D03*
X42100500Y-167894000D03*
X37338000Y-167894000D03*
X33020000Y-163449000D03*
X33020000Y-157416500D03*
X33083500Y-141478000D03*
X33020000Y-135064500D03*
X80962500Y-152146000D03*
X78232000Y-153225500D03*
X75819000Y-155511500D03*
X70104000Y-157226000D03*
X63944500Y-157099000D03*
X65405000Y-160464500D03*
X69469000Y-164338000D03*
X79502000Y-146431000D03*
X71056500Y-151320500D03*
X70993000Y-142303500D03*
X73723500Y-138557000D03*
X77978000Y-135064500D03*
X38862000Y-140398500D03*
X39243000Y-135128000D03*
X64071500Y-143573500D03*
X54800500Y-143827500D03*
X55054500Y-150622000D03*
X63309500Y-150368000D03*
X66040000Y-138176000D03*
X53911500Y-137668000D03*
X62166500Y-137477500D03*
X53403500Y-160972500D03*
X44513500Y-164528500D03*
X37909500Y-162560000D03*
X52514500Y-153543000D03*
X48196500Y-147066000D03*
X51625500Y-165671500D03*
%TO.N,/CLK0*%
X78930500Y-139094500D03*
X68453000Y-149542500D03*
%TO.N,/RESET*%
X66357500Y-141795500D03*
%TO.N,/P2.2*%
X44163500Y-144431500D03*
%TO.N,/P2.1*%
X43243500Y-145732500D03*
%TO.N,/DC*%
X49403000Y-153797000D03*
%TO.N,Net-(L1-Pad2)*%
X39687500Y-156337000D03*
X43561000Y-154876500D03*
%TD*%
D17*
%TO.N,GND*%
X81280000Y-141478000D02*
X80581500Y-141478000D01*
X80581500Y-141478000D02*
X79756000Y-140652500D01*
X79756000Y-140652500D02*
X79756000Y-132270500D01*
X79756000Y-132270500D02*
X79375000Y-131889500D01*
X45466000Y-156337000D02*
X44876000Y-156337000D01*
X36595001Y-146457501D02*
X44857501Y-146457501D01*
X36322000Y-146184500D02*
X36595001Y-146457501D01*
X46609000Y-148209000D02*
X46609000Y-156337000D01*
X44857501Y-146457501D02*
X46609000Y-148209000D01*
X46609000Y-156337000D02*
X45466000Y-156337000D01*
X48831500Y-156337000D02*
X46609000Y-156337000D01*
X49530000Y-140766500D02*
X49530000Y-146494500D01*
X44894500Y-146494500D02*
X44857501Y-146457501D01*
X49530000Y-146494500D02*
X44894500Y-146494500D01*
%TO.N,/CLK0*%
X78930500Y-139094500D02*
X68482500Y-149542500D01*
X68482500Y-149542500D02*
X68453000Y-149542500D01*
%TO.N,/RESET*%
X66357500Y-141795500D02*
X64008000Y-139446000D01*
X64008000Y-139446000D02*
X46609000Y-139446000D01*
X46609000Y-139446000D02*
X46609000Y-131572000D01*
%TO.N,/P2.2*%
X44163500Y-131666500D02*
X44069000Y-131572000D01*
X44163500Y-144431500D02*
X44163500Y-131666500D01*
%TO.N,/P2.1*%
X41529000Y-144018000D02*
X41529000Y-131572000D01*
X43243500Y-145732500D02*
X41529000Y-144018000D01*
%TO.N,/DC*%
X63500000Y-167894000D02*
X49403000Y-153797000D01*
D18*
%TO.N,Net-(L1-Pad2)*%
X39687500Y-156337000D02*
X43561000Y-156337000D01*
X43561000Y-156337000D02*
X43561000Y-154876500D01*
%TD*%
D19*
%TO.N,GND*%
X37988731Y-130474412D02*
X37793822Y-130690645D01*
X37644843Y-130940748D01*
X37547519Y-131215109D01*
X37668186Y-131445000D01*
X38862000Y-131445000D01*
X38862000Y-131425000D01*
X39116000Y-131425000D01*
X39116000Y-131445000D01*
X39136000Y-131445000D01*
X39136000Y-131699000D01*
X39116000Y-131699000D01*
X39116000Y-132892155D01*
X39345890Y-133013476D01*
X39493099Y-132968825D01*
X39755920Y-132843641D01*
X39989269Y-132669588D01*
X40184178Y-132453355D01*
X40253805Y-132336466D01*
X40375525Y-132518632D01*
X40582368Y-132725475D01*
X40769001Y-132850179D01*
X40769000Y-143980678D01*
X40765324Y-144018000D01*
X40769000Y-144055322D01*
X40769000Y-144055332D01*
X40779997Y-144166985D01*
X40809551Y-144264413D01*
X40823454Y-144310246D01*
X40894026Y-144442276D01*
X40915821Y-144468833D01*
X40988999Y-144558001D01*
X41018003Y-144581804D01*
X42208500Y-145772302D01*
X42208500Y-145834439D01*
X42248274Y-146034398D01*
X42326295Y-146222756D01*
X42439563Y-146392274D01*
X42583726Y-146536437D01*
X42753244Y-146649705D01*
X42941602Y-146727726D01*
X43141561Y-146767500D01*
X43345439Y-146767500D01*
X43545398Y-146727726D01*
X43733756Y-146649705D01*
X43903274Y-146536437D01*
X44047437Y-146392274D01*
X44160705Y-146222756D01*
X44238726Y-146034398D01*
X44278500Y-145834439D01*
X44278500Y-145630561D01*
X44245866Y-145466500D01*
X44265439Y-145466500D01*
X44465398Y-145426726D01*
X44653756Y-145348705D01*
X44823274Y-145235437D01*
X44967437Y-145091274D01*
X45080705Y-144921756D01*
X45158726Y-144733398D01*
X45198500Y-144533439D01*
X45198500Y-144329561D01*
X45158726Y-144129602D01*
X45080705Y-143941244D01*
X44967437Y-143771726D01*
X44923500Y-143727789D01*
X44923500Y-132787036D01*
X45015632Y-132725475D01*
X45222475Y-132518632D01*
X45339000Y-132344240D01*
X45455525Y-132518632D01*
X45662368Y-132725475D01*
X45849001Y-132850179D01*
X45849000Y-139408667D01*
X45845323Y-139446000D01*
X45859997Y-139594986D01*
X45903454Y-139738247D01*
X45974026Y-139870276D01*
X46045200Y-139957002D01*
X46068999Y-139986001D01*
X46184724Y-140080974D01*
X46316753Y-140151546D01*
X46460014Y-140195003D01*
X46609000Y-140209677D01*
X46646333Y-140206000D01*
X63693199Y-140206000D01*
X65322500Y-141835302D01*
X65322500Y-141897439D01*
X65362274Y-142097398D01*
X65440295Y-142285756D01*
X65553563Y-142455274D01*
X65697726Y-142599437D01*
X65867244Y-142712705D01*
X66055602Y-142790726D01*
X66255561Y-142830500D01*
X66459439Y-142830500D01*
X66659398Y-142790726D01*
X66847756Y-142712705D01*
X67017274Y-142599437D01*
X67161437Y-142455274D01*
X67274705Y-142285756D01*
X67352726Y-142097398D01*
X67392500Y-141897439D01*
X67392500Y-141693561D01*
X67352726Y-141493602D01*
X67274705Y-141305244D01*
X67161437Y-141135726D01*
X67017274Y-140991563D01*
X66847756Y-140878295D01*
X66659398Y-140800274D01*
X66459439Y-140760500D01*
X66397302Y-140760500D01*
X64571804Y-138935003D01*
X64548001Y-138905999D01*
X64432276Y-138811026D01*
X64300247Y-138740454D01*
X64156986Y-138696997D01*
X64045333Y-138686000D01*
X64045322Y-138686000D01*
X64008000Y-138682324D01*
X63970678Y-138686000D01*
X47369000Y-138686000D01*
X47369000Y-132850178D01*
X47555632Y-132725475D01*
X47687487Y-132593620D01*
X47709498Y-132666180D01*
X47768463Y-132776494D01*
X47847815Y-132873185D01*
X47944506Y-132952537D01*
X48054820Y-133011502D01*
X48174518Y-133047812D01*
X48299000Y-133060072D01*
X49999000Y-133060072D01*
X50123482Y-133047812D01*
X50243180Y-133011502D01*
X50353494Y-132952537D01*
X50450185Y-132873185D01*
X50529537Y-132776494D01*
X50588502Y-132666180D01*
X50624812Y-132546482D01*
X50637072Y-132422000D01*
X50637072Y-130722000D01*
X50624812Y-130597518D01*
X50588502Y-130477820D01*
X50575770Y-130454000D01*
X50863500Y-130454000D01*
X50863500Y-136652000D01*
X50865940Y-136676776D01*
X50873167Y-136700601D01*
X50884903Y-136722557D01*
X50900697Y-136741803D01*
X50919943Y-136757597D01*
X50941899Y-136769333D01*
X50965724Y-136776560D01*
X50990500Y-136779000D01*
X67627500Y-136779000D01*
X67652276Y-136776560D01*
X67676101Y-136769333D01*
X67698057Y-136757597D01*
X67717303Y-136741803D01*
X67733097Y-136722557D01*
X67744833Y-136700601D01*
X67752060Y-136676776D01*
X67754500Y-136652000D01*
X67754500Y-133800024D01*
X71697500Y-133800024D01*
X71697500Y-133998976D01*
X71736314Y-134194106D01*
X71812450Y-134377914D01*
X71922982Y-134543337D01*
X72063663Y-134684018D01*
X72229086Y-134794550D01*
X72412894Y-134870686D01*
X72608024Y-134909500D01*
X72806976Y-134909500D01*
X73002106Y-134870686D01*
X73185914Y-134794550D01*
X73351337Y-134684018D01*
X73492018Y-134543337D01*
X73602550Y-134377914D01*
X73678686Y-134194106D01*
X73717500Y-133998976D01*
X73717500Y-133800024D01*
X73678686Y-133604894D01*
X73602550Y-133421086D01*
X73492018Y-133255663D01*
X73351337Y-133114982D01*
X73185914Y-133004450D01*
X73002106Y-132928314D01*
X72806976Y-132889500D01*
X72608024Y-132889500D01*
X72412894Y-132928314D01*
X72229086Y-133004450D01*
X72063663Y-133114982D01*
X71922982Y-133255663D01*
X71812450Y-133421086D01*
X71736314Y-133604894D01*
X71697500Y-133800024D01*
X67754500Y-133800024D01*
X67754500Y-130454000D01*
X71974645Y-130454000D01*
X71922982Y-130505663D01*
X71812450Y-130671086D01*
X71736314Y-130854894D01*
X71697500Y-131050024D01*
X71697500Y-131248976D01*
X71736314Y-131444106D01*
X71812450Y-131627914D01*
X71922982Y-131793337D01*
X72063663Y-131934018D01*
X72229086Y-132044550D01*
X72412894Y-132120686D01*
X72608024Y-132159500D01*
X72806976Y-132159500D01*
X73002106Y-132120686D01*
X73185914Y-132044550D01*
X73351337Y-131934018D01*
X73492018Y-131793337D01*
X73602550Y-131627914D01*
X73678686Y-131444106D01*
X73717500Y-131248976D01*
X73717500Y-131050024D01*
X73678686Y-130854894D01*
X73602550Y-130671086D01*
X73492018Y-130505663D01*
X73440355Y-130454000D01*
X83385596Y-130454000D01*
X83015331Y-130607369D01*
X82649271Y-130851962D01*
X82337962Y-131163271D01*
X82093369Y-131529331D01*
X81924890Y-131936075D01*
X81839000Y-132367872D01*
X81839000Y-132808128D01*
X81924890Y-133239925D01*
X82093369Y-133646669D01*
X82337962Y-134012729D01*
X82649271Y-134324038D01*
X83015331Y-134568631D01*
X83422075Y-134737110D01*
X83853872Y-134823000D01*
X84294128Y-134823000D01*
X84725925Y-134737110D01*
X85132669Y-134568631D01*
X85498729Y-134324038D01*
X85810038Y-134012729D01*
X86054631Y-133646669D01*
X86208001Y-133276402D01*
X86208000Y-165681596D01*
X86054631Y-165311331D01*
X85810038Y-164945271D01*
X85498729Y-164633962D01*
X85132669Y-164389369D01*
X84725925Y-164220890D01*
X84294128Y-164135000D01*
X83853872Y-164135000D01*
X83422075Y-164220890D01*
X83015331Y-164389369D01*
X82649271Y-164633962D01*
X82337962Y-164945271D01*
X82093369Y-165311331D01*
X81924890Y-165718075D01*
X81839000Y-166149872D01*
X81839000Y-166590128D01*
X81924890Y-167021925D01*
X82093369Y-167428669D01*
X82337962Y-167794729D01*
X82649271Y-168106038D01*
X83015331Y-168350631D01*
X83385596Y-168504000D01*
X70068072Y-168504000D01*
X70068072Y-167044000D01*
X70055812Y-166919518D01*
X70019502Y-166799820D01*
X69960537Y-166689506D01*
X69881185Y-166592815D01*
X69784494Y-166513463D01*
X69674180Y-166454498D01*
X69554482Y-166418188D01*
X69430000Y-166405928D01*
X67730000Y-166405928D01*
X67605518Y-166418188D01*
X67485820Y-166454498D01*
X67375506Y-166513463D01*
X67278815Y-166592815D01*
X67199463Y-166689506D01*
X67140498Y-166799820D01*
X67118487Y-166872380D01*
X66986632Y-166740525D01*
X66743411Y-166578010D01*
X66473158Y-166466068D01*
X66186260Y-166409000D01*
X65893740Y-166409000D01*
X65606842Y-166466068D01*
X65336589Y-166578010D01*
X65093368Y-166740525D01*
X64886525Y-166947368D01*
X64770000Y-167121760D01*
X64653475Y-166947368D01*
X64446632Y-166740525D01*
X64203411Y-166578010D01*
X63933158Y-166466068D01*
X63646260Y-166409000D01*
X63353740Y-166409000D01*
X63133592Y-166452790D01*
X50438000Y-153757199D01*
X50438000Y-153695061D01*
X50398226Y-153495102D01*
X50320205Y-153306744D01*
X50206937Y-153137226D01*
X50062774Y-152993063D01*
X49893256Y-152879795D01*
X49704898Y-152801774D01*
X49504939Y-152762000D01*
X49301061Y-152762000D01*
X49101102Y-152801774D01*
X48912744Y-152879795D01*
X48743226Y-152993063D01*
X48599063Y-153137226D01*
X48485795Y-153306744D01*
X48407774Y-153495102D01*
X48368000Y-153695061D01*
X48368000Y-153898939D01*
X48407774Y-154098898D01*
X48485795Y-154287256D01*
X48599063Y-154456774D01*
X48743226Y-154600937D01*
X48912744Y-154714205D01*
X49101102Y-154792226D01*
X49301061Y-154832000D01*
X49363199Y-154832000D01*
X60940198Y-166409000D01*
X60813740Y-166409000D01*
X60526842Y-166466068D01*
X60256589Y-166578010D01*
X60013368Y-166740525D01*
X59806525Y-166947368D01*
X59690000Y-167121760D01*
X59573475Y-166947368D01*
X59366632Y-166740525D01*
X59123411Y-166578010D01*
X58853158Y-166466068D01*
X58566260Y-166409000D01*
X58273740Y-166409000D01*
X57986842Y-166466068D01*
X57716589Y-166578010D01*
X57473368Y-166740525D01*
X57266525Y-166947368D01*
X57150000Y-167121760D01*
X57033475Y-166947368D01*
X56826632Y-166740525D01*
X56583411Y-166578010D01*
X56313158Y-166466068D01*
X56026260Y-166409000D01*
X55733740Y-166409000D01*
X55446842Y-166466068D01*
X55176589Y-166578010D01*
X54933368Y-166740525D01*
X54726525Y-166947368D01*
X54604805Y-167129534D01*
X54535178Y-167012645D01*
X54340269Y-166796412D01*
X54106920Y-166622359D01*
X53844099Y-166497175D01*
X53696890Y-166452524D01*
X53467000Y-166573845D01*
X53467000Y-167767000D01*
X53487000Y-167767000D01*
X53487000Y-168021000D01*
X53467000Y-168021000D01*
X53467000Y-168041000D01*
X53213000Y-168041000D01*
X53213000Y-168021000D01*
X53193000Y-168021000D01*
X53193000Y-167767000D01*
X53213000Y-167767000D01*
X53213000Y-166573845D01*
X52983110Y-166452524D01*
X52835901Y-166497175D01*
X52573080Y-166622359D01*
X52339731Y-166796412D01*
X52144822Y-167012645D01*
X52075195Y-167129534D01*
X51953475Y-166947368D01*
X51746632Y-166740525D01*
X51503411Y-166578010D01*
X51233158Y-166466068D01*
X50946260Y-166409000D01*
X50653740Y-166409000D01*
X50366842Y-166466068D01*
X50096589Y-166578010D01*
X49853368Y-166740525D01*
X49646525Y-166947368D01*
X49484010Y-167190589D01*
X49372068Y-167460842D01*
X49315000Y-167747740D01*
X49315000Y-168040260D01*
X49372068Y-168327158D01*
X49445318Y-168504000D01*
X35359404Y-168504000D01*
X35729669Y-168350631D01*
X36095729Y-168106038D01*
X36407038Y-167794729D01*
X36651631Y-167428669D01*
X36820110Y-167021925D01*
X36906000Y-166590128D01*
X36906000Y-166149872D01*
X36820110Y-165718075D01*
X36651631Y-165311331D01*
X36407038Y-164945271D01*
X36095729Y-164633962D01*
X35729669Y-164389369D01*
X35322925Y-164220890D01*
X34891128Y-164135000D01*
X34450872Y-164135000D01*
X34019075Y-164220890D01*
X33612331Y-164389369D01*
X33246271Y-164633962D01*
X32934962Y-164945271D01*
X32690369Y-165311331D01*
X32537000Y-165681596D01*
X32537000Y-154829000D01*
X33794928Y-154829000D01*
X33794928Y-156829000D01*
X33807188Y-156953482D01*
X33843498Y-157073180D01*
X33902463Y-157183494D01*
X33981815Y-157280185D01*
X34078506Y-157359537D01*
X34188820Y-157418502D01*
X34308518Y-157454812D01*
X34433000Y-157467072D01*
X36433000Y-157467072D01*
X36557482Y-157454812D01*
X36677180Y-157418502D01*
X36787494Y-157359537D01*
X36884185Y-157280185D01*
X36963537Y-157183494D01*
X37022502Y-157073180D01*
X37058812Y-156953482D01*
X37071072Y-156829000D01*
X37071072Y-156337000D01*
X38547009Y-156337000D01*
X38568923Y-156559499D01*
X38633824Y-156773447D01*
X38739216Y-156970623D01*
X38881051Y-157143449D01*
X39053877Y-157285284D01*
X39251053Y-157390676D01*
X39465001Y-157455577D01*
X39631748Y-157472000D01*
X43505248Y-157472000D01*
X43561000Y-157477491D01*
X43616751Y-157472000D01*
X43616752Y-157472000D01*
X43783499Y-157455577D01*
X43997447Y-157390676D01*
X44194623Y-157285284D01*
X44367449Y-157143449D01*
X44509284Y-156970623D01*
X44614676Y-156773447D01*
X44679577Y-156559499D01*
X44701491Y-156337000D01*
X44696000Y-156281248D01*
X44696000Y-154820748D01*
X44679577Y-154654001D01*
X44614676Y-154440053D01*
X44509284Y-154242877D01*
X44442667Y-154161704D01*
X44761387Y-154098306D01*
X45190879Y-153920405D01*
X45577412Y-153662132D01*
X45906132Y-153333412D01*
X46164405Y-152946879D01*
X46342306Y-152517387D01*
X46433000Y-152061440D01*
X46433000Y-151596560D01*
X46342306Y-151140613D01*
X46164405Y-150711121D01*
X45906132Y-150324588D01*
X45577412Y-149995868D01*
X45190879Y-149737595D01*
X44761387Y-149559694D01*
X44305440Y-149469000D01*
X43840560Y-149469000D01*
X43384613Y-149559694D01*
X42955121Y-149737595D01*
X42568588Y-149995868D01*
X42239868Y-150324588D01*
X41981595Y-150711121D01*
X41803694Y-151140613D01*
X41713000Y-151596560D01*
X41713000Y-152061440D01*
X41803694Y-152517387D01*
X41981595Y-152946879D01*
X42239868Y-153333412D01*
X42568588Y-153662132D01*
X42949286Y-153916506D01*
X42927378Y-153928216D01*
X42754552Y-154070051D01*
X42612717Y-154242877D01*
X42507324Y-154440053D01*
X42442423Y-154654001D01*
X42426000Y-154820748D01*
X42426000Y-155202000D01*
X39631748Y-155202000D01*
X39465001Y-155218423D01*
X39251053Y-155283324D01*
X39053877Y-155388716D01*
X38881051Y-155530551D01*
X38739216Y-155703377D01*
X38633824Y-155900553D01*
X38568923Y-156114501D01*
X38547009Y-156337000D01*
X37071072Y-156337000D01*
X37071072Y-154829000D01*
X37058812Y-154704518D01*
X37022502Y-154584820D01*
X36963537Y-154474506D01*
X36884185Y-154377815D01*
X36787494Y-154298463D01*
X36677180Y-154239498D01*
X36557482Y-154203188D01*
X36433000Y-154190928D01*
X34433000Y-154190928D01*
X34308518Y-154203188D01*
X34188820Y-154239498D01*
X34078506Y-154298463D01*
X33981815Y-154377815D01*
X33902463Y-154474506D01*
X33843498Y-154584820D01*
X33807188Y-154704518D01*
X33794928Y-154829000D01*
X32537000Y-154829000D01*
X32537000Y-149440561D01*
X67418000Y-149440561D01*
X67418000Y-149644439D01*
X67457774Y-149844398D01*
X67535795Y-150032756D01*
X67649063Y-150202274D01*
X67793226Y-150346437D01*
X67962744Y-150459705D01*
X68151102Y-150537726D01*
X68351061Y-150577500D01*
X68554939Y-150577500D01*
X68754898Y-150537726D01*
X68943256Y-150459705D01*
X69112774Y-150346437D01*
X69256937Y-150202274D01*
X69370205Y-150032756D01*
X69448226Y-149844398D01*
X69488000Y-149644439D01*
X69488000Y-149611801D01*
X71692185Y-147407616D01*
X71773694Y-147817387D01*
X71951595Y-148246879D01*
X72209868Y-148633412D01*
X72538588Y-148962132D01*
X72925121Y-149220405D01*
X73354613Y-149398306D01*
X73810560Y-149489000D01*
X74275440Y-149489000D01*
X74731387Y-149398306D01*
X75160879Y-149220405D01*
X75547412Y-148962132D01*
X75876132Y-148633412D01*
X76134405Y-148246879D01*
X76307909Y-147828000D01*
X82429388Y-147828000D01*
X82451785Y-148055400D01*
X82518115Y-148274060D01*
X82619105Y-148463000D01*
X82518115Y-148651940D01*
X82451785Y-148870600D01*
X82429388Y-149098000D01*
X82451785Y-149325400D01*
X82518115Y-149544060D01*
X82625829Y-149745579D01*
X82770788Y-149922212D01*
X82947421Y-150067171D01*
X83148940Y-150174885D01*
X83367600Y-150241215D01*
X83538021Y-150258000D01*
X84101979Y-150258000D01*
X84272400Y-150241215D01*
X84491060Y-150174885D01*
X84692579Y-150067171D01*
X84869212Y-149922212D01*
X85014171Y-149745579D01*
X85121885Y-149544060D01*
X85188215Y-149325400D01*
X85210612Y-149098000D01*
X85188215Y-148870600D01*
X85121885Y-148651940D01*
X85020895Y-148463000D01*
X85121885Y-148274060D01*
X85188215Y-148055400D01*
X85210612Y-147828000D01*
X85188215Y-147600600D01*
X85124907Y-147391902D01*
X85159502Y-147327180D01*
X85195812Y-147207482D01*
X85208072Y-147083000D01*
X85205000Y-146843750D01*
X85046250Y-146685000D01*
X84273109Y-146685000D01*
X84272400Y-146684785D01*
X84101979Y-146668000D01*
X83538021Y-146668000D01*
X83367600Y-146684785D01*
X83366891Y-146685000D01*
X82593750Y-146685000D01*
X82435000Y-146843750D01*
X82431928Y-147083000D01*
X82444188Y-147207482D01*
X82480498Y-147327180D01*
X82515093Y-147391902D01*
X82451785Y-147600600D01*
X82429388Y-147828000D01*
X76307909Y-147828000D01*
X76312306Y-147817387D01*
X76403000Y-147361440D01*
X76403000Y-146896560D01*
X76312306Y-146440613D01*
X76143468Y-146033000D01*
X82431928Y-146033000D01*
X82435000Y-146272250D01*
X82593750Y-146431000D01*
X83693000Y-146431000D01*
X83693000Y-145556750D01*
X83947000Y-145556750D01*
X83947000Y-146431000D01*
X85046250Y-146431000D01*
X85205000Y-146272250D01*
X85208072Y-146033000D01*
X85195812Y-145908518D01*
X85159502Y-145788820D01*
X85100537Y-145678506D01*
X85021185Y-145581815D01*
X84924494Y-145502463D01*
X84814180Y-145443498D01*
X84694482Y-145407188D01*
X84570000Y-145394928D01*
X84105750Y-145398000D01*
X83947000Y-145556750D01*
X83693000Y-145556750D01*
X83534250Y-145398000D01*
X83070000Y-145394928D01*
X82945518Y-145407188D01*
X82825820Y-145443498D01*
X82715506Y-145502463D01*
X82618815Y-145581815D01*
X82539463Y-145678506D01*
X82480498Y-145788820D01*
X82444188Y-145908518D01*
X82431928Y-146033000D01*
X76143468Y-146033000D01*
X76134405Y-146011121D01*
X75876132Y-145624588D01*
X75547412Y-145295868D01*
X75160879Y-145037595D01*
X74731387Y-144859694D01*
X74321616Y-144778185D01*
X78970302Y-140129500D01*
X79032439Y-140129500D01*
X79232398Y-140089726D01*
X79420756Y-140011705D01*
X79590274Y-139898437D01*
X79734437Y-139754274D01*
X79847705Y-139584756D01*
X79925726Y-139396398D01*
X79965500Y-139196439D01*
X79965500Y-138992561D01*
X79925726Y-138792602D01*
X79847705Y-138604244D01*
X79734437Y-138434726D01*
X79590274Y-138290563D01*
X79420756Y-138177295D01*
X79232398Y-138099274D01*
X79032439Y-138059500D01*
X78828561Y-138059500D01*
X78628602Y-138099274D01*
X78440244Y-138177295D01*
X78270726Y-138290563D01*
X78126563Y-138434726D01*
X78013295Y-138604244D01*
X77935274Y-138792602D01*
X77895500Y-138992561D01*
X77895500Y-139054698D01*
X68442699Y-148507500D01*
X68351061Y-148507500D01*
X68151102Y-148547274D01*
X67962744Y-148625295D01*
X67793226Y-148738563D01*
X67649063Y-148882726D01*
X67535795Y-149052244D01*
X67457774Y-149240602D01*
X67418000Y-149440561D01*
X32537000Y-149440561D01*
X32537000Y-144264413D01*
X34477192Y-144264413D01*
X34572956Y-144528814D01*
X34862571Y-144669704D01*
X35174108Y-144751384D01*
X35495595Y-144770718D01*
X35814675Y-144726961D01*
X36119088Y-144621795D01*
X36293044Y-144528814D01*
X36388808Y-144264413D01*
X35433000Y-143308605D01*
X34477192Y-144264413D01*
X32537000Y-144264413D01*
X32537000Y-143191595D01*
X33791282Y-143191595D01*
X33835039Y-143510675D01*
X33940205Y-143815088D01*
X34033186Y-143989044D01*
X34297587Y-144084808D01*
X35253395Y-143129000D01*
X35612605Y-143129000D01*
X36568413Y-144084808D01*
X36832814Y-143989044D01*
X36973704Y-143699429D01*
X37055384Y-143387892D01*
X37074718Y-143066405D01*
X37030961Y-142747325D01*
X36925795Y-142442912D01*
X36832814Y-142268956D01*
X36568413Y-142173192D01*
X35612605Y-143129000D01*
X35253395Y-143129000D01*
X34297587Y-142173192D01*
X34033186Y-142268956D01*
X33892296Y-142558571D01*
X33810616Y-142870108D01*
X33791282Y-143191595D01*
X32537000Y-143191595D01*
X32537000Y-141993587D01*
X34477192Y-141993587D01*
X35433000Y-142949395D01*
X36388808Y-141993587D01*
X36293044Y-141729186D01*
X36003429Y-141588296D01*
X35691892Y-141506616D01*
X35370405Y-141487282D01*
X35051325Y-141531039D01*
X34746912Y-141636205D01*
X34572956Y-141729186D01*
X34477192Y-141993587D01*
X32537000Y-141993587D01*
X32537000Y-133276404D01*
X32690369Y-133646669D01*
X32934962Y-134012729D01*
X33246271Y-134324038D01*
X33612331Y-134568631D01*
X34019075Y-134737110D01*
X34450872Y-134823000D01*
X34891128Y-134823000D01*
X35322925Y-134737110D01*
X35729669Y-134568631D01*
X36095729Y-134324038D01*
X36407038Y-134012729D01*
X36651631Y-133646669D01*
X36820110Y-133239925D01*
X36906000Y-132808128D01*
X36906000Y-132367872D01*
X36820110Y-131936075D01*
X36817135Y-131928891D01*
X37547519Y-131928891D01*
X37644843Y-132203252D01*
X37793822Y-132453355D01*
X37988731Y-132669588D01*
X38222080Y-132843641D01*
X38484901Y-132968825D01*
X38632110Y-133013476D01*
X38862000Y-132892155D01*
X38862000Y-131699000D01*
X37668186Y-131699000D01*
X37547519Y-131928891D01*
X36817135Y-131928891D01*
X36651631Y-131529331D01*
X36407038Y-131163271D01*
X36095729Y-130851962D01*
X35729669Y-130607369D01*
X35359404Y-130454000D01*
X38016097Y-130454000D01*
X37988731Y-130474412D01*
%TA.AperFunction,Conductor*%
D20*
G36*
X37988731Y-130474412D02*
G01*
X37793822Y-130690645D01*
X37644843Y-130940748D01*
X37547519Y-131215109D01*
X37668186Y-131445000D01*
X38862000Y-131445000D01*
X38862000Y-131425000D01*
X39116000Y-131425000D01*
X39116000Y-131445000D01*
X39136000Y-131445000D01*
X39136000Y-131699000D01*
X39116000Y-131699000D01*
X39116000Y-132892155D01*
X39345890Y-133013476D01*
X39493099Y-132968825D01*
X39755920Y-132843641D01*
X39989269Y-132669588D01*
X40184178Y-132453355D01*
X40253805Y-132336466D01*
X40375525Y-132518632D01*
X40582368Y-132725475D01*
X40769001Y-132850179D01*
X40769000Y-143980678D01*
X40765324Y-144018000D01*
X40769000Y-144055322D01*
X40769000Y-144055332D01*
X40779997Y-144166985D01*
X40809551Y-144264413D01*
X40823454Y-144310246D01*
X40894026Y-144442276D01*
X40915821Y-144468833D01*
X40988999Y-144558001D01*
X41018003Y-144581804D01*
X42208500Y-145772302D01*
X42208500Y-145834439D01*
X42248274Y-146034398D01*
X42326295Y-146222756D01*
X42439563Y-146392274D01*
X42583726Y-146536437D01*
X42753244Y-146649705D01*
X42941602Y-146727726D01*
X43141561Y-146767500D01*
X43345439Y-146767500D01*
X43545398Y-146727726D01*
X43733756Y-146649705D01*
X43903274Y-146536437D01*
X44047437Y-146392274D01*
X44160705Y-146222756D01*
X44238726Y-146034398D01*
X44278500Y-145834439D01*
X44278500Y-145630561D01*
X44245866Y-145466500D01*
X44265439Y-145466500D01*
X44465398Y-145426726D01*
X44653756Y-145348705D01*
X44823274Y-145235437D01*
X44967437Y-145091274D01*
X45080705Y-144921756D01*
X45158726Y-144733398D01*
X45198500Y-144533439D01*
X45198500Y-144329561D01*
X45158726Y-144129602D01*
X45080705Y-143941244D01*
X44967437Y-143771726D01*
X44923500Y-143727789D01*
X44923500Y-132787036D01*
X45015632Y-132725475D01*
X45222475Y-132518632D01*
X45339000Y-132344240D01*
X45455525Y-132518632D01*
X45662368Y-132725475D01*
X45849001Y-132850179D01*
X45849000Y-139408667D01*
X45845323Y-139446000D01*
X45859997Y-139594986D01*
X45903454Y-139738247D01*
X45974026Y-139870276D01*
X46045200Y-139957002D01*
X46068999Y-139986001D01*
X46184724Y-140080974D01*
X46316753Y-140151546D01*
X46460014Y-140195003D01*
X46609000Y-140209677D01*
X46646333Y-140206000D01*
X63693199Y-140206000D01*
X65322500Y-141835302D01*
X65322500Y-141897439D01*
X65362274Y-142097398D01*
X65440295Y-142285756D01*
X65553563Y-142455274D01*
X65697726Y-142599437D01*
X65867244Y-142712705D01*
X66055602Y-142790726D01*
X66255561Y-142830500D01*
X66459439Y-142830500D01*
X66659398Y-142790726D01*
X66847756Y-142712705D01*
X67017274Y-142599437D01*
X67161437Y-142455274D01*
X67274705Y-142285756D01*
X67352726Y-142097398D01*
X67392500Y-141897439D01*
X67392500Y-141693561D01*
X67352726Y-141493602D01*
X67274705Y-141305244D01*
X67161437Y-141135726D01*
X67017274Y-140991563D01*
X66847756Y-140878295D01*
X66659398Y-140800274D01*
X66459439Y-140760500D01*
X66397302Y-140760500D01*
X64571804Y-138935003D01*
X64548001Y-138905999D01*
X64432276Y-138811026D01*
X64300247Y-138740454D01*
X64156986Y-138696997D01*
X64045333Y-138686000D01*
X64045322Y-138686000D01*
X64008000Y-138682324D01*
X63970678Y-138686000D01*
X47369000Y-138686000D01*
X47369000Y-132850178D01*
X47555632Y-132725475D01*
X47687487Y-132593620D01*
X47709498Y-132666180D01*
X47768463Y-132776494D01*
X47847815Y-132873185D01*
X47944506Y-132952537D01*
X48054820Y-133011502D01*
X48174518Y-133047812D01*
X48299000Y-133060072D01*
X49999000Y-133060072D01*
X50123482Y-133047812D01*
X50243180Y-133011502D01*
X50353494Y-132952537D01*
X50450185Y-132873185D01*
X50529537Y-132776494D01*
X50588502Y-132666180D01*
X50624812Y-132546482D01*
X50637072Y-132422000D01*
X50637072Y-130722000D01*
X50624812Y-130597518D01*
X50588502Y-130477820D01*
X50575770Y-130454000D01*
X50863500Y-130454000D01*
X50863500Y-136652000D01*
X50865940Y-136676776D01*
X50873167Y-136700601D01*
X50884903Y-136722557D01*
X50900697Y-136741803D01*
X50919943Y-136757597D01*
X50941899Y-136769333D01*
X50965724Y-136776560D01*
X50990500Y-136779000D01*
X67627500Y-136779000D01*
X67652276Y-136776560D01*
X67676101Y-136769333D01*
X67698057Y-136757597D01*
X67717303Y-136741803D01*
X67733097Y-136722557D01*
X67744833Y-136700601D01*
X67752060Y-136676776D01*
X67754500Y-136652000D01*
X67754500Y-133800024D01*
X71697500Y-133800024D01*
X71697500Y-133998976D01*
X71736314Y-134194106D01*
X71812450Y-134377914D01*
X71922982Y-134543337D01*
X72063663Y-134684018D01*
X72229086Y-134794550D01*
X72412894Y-134870686D01*
X72608024Y-134909500D01*
X72806976Y-134909500D01*
X73002106Y-134870686D01*
X73185914Y-134794550D01*
X73351337Y-134684018D01*
X73492018Y-134543337D01*
X73602550Y-134377914D01*
X73678686Y-134194106D01*
X73717500Y-133998976D01*
X73717500Y-133800024D01*
X73678686Y-133604894D01*
X73602550Y-133421086D01*
X73492018Y-133255663D01*
X73351337Y-133114982D01*
X73185914Y-133004450D01*
X73002106Y-132928314D01*
X72806976Y-132889500D01*
X72608024Y-132889500D01*
X72412894Y-132928314D01*
X72229086Y-133004450D01*
X72063663Y-133114982D01*
X71922982Y-133255663D01*
X71812450Y-133421086D01*
X71736314Y-133604894D01*
X71697500Y-133800024D01*
X67754500Y-133800024D01*
X67754500Y-130454000D01*
X71974645Y-130454000D01*
X71922982Y-130505663D01*
X71812450Y-130671086D01*
X71736314Y-130854894D01*
X71697500Y-131050024D01*
X71697500Y-131248976D01*
X71736314Y-131444106D01*
X71812450Y-131627914D01*
X71922982Y-131793337D01*
X72063663Y-131934018D01*
X72229086Y-132044550D01*
X72412894Y-132120686D01*
X72608024Y-132159500D01*
X72806976Y-132159500D01*
X73002106Y-132120686D01*
X73185914Y-132044550D01*
X73351337Y-131934018D01*
X73492018Y-131793337D01*
X73602550Y-131627914D01*
X73678686Y-131444106D01*
X73717500Y-131248976D01*
X73717500Y-131050024D01*
X73678686Y-130854894D01*
X73602550Y-130671086D01*
X73492018Y-130505663D01*
X73440355Y-130454000D01*
X83385596Y-130454000D01*
X83015331Y-130607369D01*
X82649271Y-130851962D01*
X82337962Y-131163271D01*
X82093369Y-131529331D01*
X81924890Y-131936075D01*
X81839000Y-132367872D01*
X81839000Y-132808128D01*
X81924890Y-133239925D01*
X82093369Y-133646669D01*
X82337962Y-134012729D01*
X82649271Y-134324038D01*
X83015331Y-134568631D01*
X83422075Y-134737110D01*
X83853872Y-134823000D01*
X84294128Y-134823000D01*
X84725925Y-134737110D01*
X85132669Y-134568631D01*
X85498729Y-134324038D01*
X85810038Y-134012729D01*
X86054631Y-133646669D01*
X86208001Y-133276402D01*
X86208000Y-165681596D01*
X86054631Y-165311331D01*
X85810038Y-164945271D01*
X85498729Y-164633962D01*
X85132669Y-164389369D01*
X84725925Y-164220890D01*
X84294128Y-164135000D01*
X83853872Y-164135000D01*
X83422075Y-164220890D01*
X83015331Y-164389369D01*
X82649271Y-164633962D01*
X82337962Y-164945271D01*
X82093369Y-165311331D01*
X81924890Y-165718075D01*
X81839000Y-166149872D01*
X81839000Y-166590128D01*
X81924890Y-167021925D01*
X82093369Y-167428669D01*
X82337962Y-167794729D01*
X82649271Y-168106038D01*
X83015331Y-168350631D01*
X83385596Y-168504000D01*
X70068072Y-168504000D01*
X70068072Y-167044000D01*
X70055812Y-166919518D01*
X70019502Y-166799820D01*
X69960537Y-166689506D01*
X69881185Y-166592815D01*
X69784494Y-166513463D01*
X69674180Y-166454498D01*
X69554482Y-166418188D01*
X69430000Y-166405928D01*
X67730000Y-166405928D01*
X67605518Y-166418188D01*
X67485820Y-166454498D01*
X67375506Y-166513463D01*
X67278815Y-166592815D01*
X67199463Y-166689506D01*
X67140498Y-166799820D01*
X67118487Y-166872380D01*
X66986632Y-166740525D01*
X66743411Y-166578010D01*
X66473158Y-166466068D01*
X66186260Y-166409000D01*
X65893740Y-166409000D01*
X65606842Y-166466068D01*
X65336589Y-166578010D01*
X65093368Y-166740525D01*
X64886525Y-166947368D01*
X64770000Y-167121760D01*
X64653475Y-166947368D01*
X64446632Y-166740525D01*
X64203411Y-166578010D01*
X63933158Y-166466068D01*
X63646260Y-166409000D01*
X63353740Y-166409000D01*
X63133592Y-166452790D01*
X50438000Y-153757199D01*
X50438000Y-153695061D01*
X50398226Y-153495102D01*
X50320205Y-153306744D01*
X50206937Y-153137226D01*
X50062774Y-152993063D01*
X49893256Y-152879795D01*
X49704898Y-152801774D01*
X49504939Y-152762000D01*
X49301061Y-152762000D01*
X49101102Y-152801774D01*
X48912744Y-152879795D01*
X48743226Y-152993063D01*
X48599063Y-153137226D01*
X48485795Y-153306744D01*
X48407774Y-153495102D01*
X48368000Y-153695061D01*
X48368000Y-153898939D01*
X48407774Y-154098898D01*
X48485795Y-154287256D01*
X48599063Y-154456774D01*
X48743226Y-154600937D01*
X48912744Y-154714205D01*
X49101102Y-154792226D01*
X49301061Y-154832000D01*
X49363199Y-154832000D01*
X60940198Y-166409000D01*
X60813740Y-166409000D01*
X60526842Y-166466068D01*
X60256589Y-166578010D01*
X60013368Y-166740525D01*
X59806525Y-166947368D01*
X59690000Y-167121760D01*
X59573475Y-166947368D01*
X59366632Y-166740525D01*
X59123411Y-166578010D01*
X58853158Y-166466068D01*
X58566260Y-166409000D01*
X58273740Y-166409000D01*
X57986842Y-166466068D01*
X57716589Y-166578010D01*
X57473368Y-166740525D01*
X57266525Y-166947368D01*
X57150000Y-167121760D01*
X57033475Y-166947368D01*
X56826632Y-166740525D01*
X56583411Y-166578010D01*
X56313158Y-166466068D01*
X56026260Y-166409000D01*
X55733740Y-166409000D01*
X55446842Y-166466068D01*
X55176589Y-166578010D01*
X54933368Y-166740525D01*
X54726525Y-166947368D01*
X54604805Y-167129534D01*
X54535178Y-167012645D01*
X54340269Y-166796412D01*
X54106920Y-166622359D01*
X53844099Y-166497175D01*
X53696890Y-166452524D01*
X53467000Y-166573845D01*
X53467000Y-167767000D01*
X53487000Y-167767000D01*
X53487000Y-168021000D01*
X53467000Y-168021000D01*
X53467000Y-168041000D01*
X53213000Y-168041000D01*
X53213000Y-168021000D01*
X53193000Y-168021000D01*
X53193000Y-167767000D01*
X53213000Y-167767000D01*
X53213000Y-166573845D01*
X52983110Y-166452524D01*
X52835901Y-166497175D01*
X52573080Y-166622359D01*
X52339731Y-166796412D01*
X52144822Y-167012645D01*
X52075195Y-167129534D01*
X51953475Y-166947368D01*
X51746632Y-166740525D01*
X51503411Y-166578010D01*
X51233158Y-166466068D01*
X50946260Y-166409000D01*
X50653740Y-166409000D01*
X50366842Y-166466068D01*
X50096589Y-166578010D01*
X49853368Y-166740525D01*
X49646525Y-166947368D01*
X49484010Y-167190589D01*
X49372068Y-167460842D01*
X49315000Y-167747740D01*
X49315000Y-168040260D01*
X49372068Y-168327158D01*
X49445318Y-168504000D01*
X35359404Y-168504000D01*
X35729669Y-168350631D01*
X36095729Y-168106038D01*
X36407038Y-167794729D01*
X36651631Y-167428669D01*
X36820110Y-167021925D01*
X36906000Y-166590128D01*
X36906000Y-166149872D01*
X36820110Y-165718075D01*
X36651631Y-165311331D01*
X36407038Y-164945271D01*
X36095729Y-164633962D01*
X35729669Y-164389369D01*
X35322925Y-164220890D01*
X34891128Y-164135000D01*
X34450872Y-164135000D01*
X34019075Y-164220890D01*
X33612331Y-164389369D01*
X33246271Y-164633962D01*
X32934962Y-164945271D01*
X32690369Y-165311331D01*
X32537000Y-165681596D01*
X32537000Y-154829000D01*
X33794928Y-154829000D01*
X33794928Y-156829000D01*
X33807188Y-156953482D01*
X33843498Y-157073180D01*
X33902463Y-157183494D01*
X33981815Y-157280185D01*
X34078506Y-157359537D01*
X34188820Y-157418502D01*
X34308518Y-157454812D01*
X34433000Y-157467072D01*
X36433000Y-157467072D01*
X36557482Y-157454812D01*
X36677180Y-157418502D01*
X36787494Y-157359537D01*
X36884185Y-157280185D01*
X36963537Y-157183494D01*
X37022502Y-157073180D01*
X37058812Y-156953482D01*
X37071072Y-156829000D01*
X37071072Y-156337000D01*
X38547009Y-156337000D01*
X38568923Y-156559499D01*
X38633824Y-156773447D01*
X38739216Y-156970623D01*
X38881051Y-157143449D01*
X39053877Y-157285284D01*
X39251053Y-157390676D01*
X39465001Y-157455577D01*
X39631748Y-157472000D01*
X43505248Y-157472000D01*
X43561000Y-157477491D01*
X43616751Y-157472000D01*
X43616752Y-157472000D01*
X43783499Y-157455577D01*
X43997447Y-157390676D01*
X44194623Y-157285284D01*
X44367449Y-157143449D01*
X44509284Y-156970623D01*
X44614676Y-156773447D01*
X44679577Y-156559499D01*
X44701491Y-156337000D01*
X44696000Y-156281248D01*
X44696000Y-154820748D01*
X44679577Y-154654001D01*
X44614676Y-154440053D01*
X44509284Y-154242877D01*
X44442667Y-154161704D01*
X44761387Y-154098306D01*
X45190879Y-153920405D01*
X45577412Y-153662132D01*
X45906132Y-153333412D01*
X46164405Y-152946879D01*
X46342306Y-152517387D01*
X46433000Y-152061440D01*
X46433000Y-151596560D01*
X46342306Y-151140613D01*
X46164405Y-150711121D01*
X45906132Y-150324588D01*
X45577412Y-149995868D01*
X45190879Y-149737595D01*
X44761387Y-149559694D01*
X44305440Y-149469000D01*
X43840560Y-149469000D01*
X43384613Y-149559694D01*
X42955121Y-149737595D01*
X42568588Y-149995868D01*
X42239868Y-150324588D01*
X41981595Y-150711121D01*
X41803694Y-151140613D01*
X41713000Y-151596560D01*
X41713000Y-152061440D01*
X41803694Y-152517387D01*
X41981595Y-152946879D01*
X42239868Y-153333412D01*
X42568588Y-153662132D01*
X42949286Y-153916506D01*
X42927378Y-153928216D01*
X42754552Y-154070051D01*
X42612717Y-154242877D01*
X42507324Y-154440053D01*
X42442423Y-154654001D01*
X42426000Y-154820748D01*
X42426000Y-155202000D01*
X39631748Y-155202000D01*
X39465001Y-155218423D01*
X39251053Y-155283324D01*
X39053877Y-155388716D01*
X38881051Y-155530551D01*
X38739216Y-155703377D01*
X38633824Y-155900553D01*
X38568923Y-156114501D01*
X38547009Y-156337000D01*
X37071072Y-156337000D01*
X37071072Y-154829000D01*
X37058812Y-154704518D01*
X37022502Y-154584820D01*
X36963537Y-154474506D01*
X36884185Y-154377815D01*
X36787494Y-154298463D01*
X36677180Y-154239498D01*
X36557482Y-154203188D01*
X36433000Y-154190928D01*
X34433000Y-154190928D01*
X34308518Y-154203188D01*
X34188820Y-154239498D01*
X34078506Y-154298463D01*
X33981815Y-154377815D01*
X33902463Y-154474506D01*
X33843498Y-154584820D01*
X33807188Y-154704518D01*
X33794928Y-154829000D01*
X32537000Y-154829000D01*
X32537000Y-149440561D01*
X67418000Y-149440561D01*
X67418000Y-149644439D01*
X67457774Y-149844398D01*
X67535795Y-150032756D01*
X67649063Y-150202274D01*
X67793226Y-150346437D01*
X67962744Y-150459705D01*
X68151102Y-150537726D01*
X68351061Y-150577500D01*
X68554939Y-150577500D01*
X68754898Y-150537726D01*
X68943256Y-150459705D01*
X69112774Y-150346437D01*
X69256937Y-150202274D01*
X69370205Y-150032756D01*
X69448226Y-149844398D01*
X69488000Y-149644439D01*
X69488000Y-149611801D01*
X71692185Y-147407616D01*
X71773694Y-147817387D01*
X71951595Y-148246879D01*
X72209868Y-148633412D01*
X72538588Y-148962132D01*
X72925121Y-149220405D01*
X73354613Y-149398306D01*
X73810560Y-149489000D01*
X74275440Y-149489000D01*
X74731387Y-149398306D01*
X75160879Y-149220405D01*
X75547412Y-148962132D01*
X75876132Y-148633412D01*
X76134405Y-148246879D01*
X76307909Y-147828000D01*
X82429388Y-147828000D01*
X82451785Y-148055400D01*
X82518115Y-148274060D01*
X82619105Y-148463000D01*
X82518115Y-148651940D01*
X82451785Y-148870600D01*
X82429388Y-149098000D01*
X82451785Y-149325400D01*
X82518115Y-149544060D01*
X82625829Y-149745579D01*
X82770788Y-149922212D01*
X82947421Y-150067171D01*
X83148940Y-150174885D01*
X83367600Y-150241215D01*
X83538021Y-150258000D01*
X84101979Y-150258000D01*
X84272400Y-150241215D01*
X84491060Y-150174885D01*
X84692579Y-150067171D01*
X84869212Y-149922212D01*
X85014171Y-149745579D01*
X85121885Y-149544060D01*
X85188215Y-149325400D01*
X85210612Y-149098000D01*
X85188215Y-148870600D01*
X85121885Y-148651940D01*
X85020895Y-148463000D01*
X85121885Y-148274060D01*
X85188215Y-148055400D01*
X85210612Y-147828000D01*
X85188215Y-147600600D01*
X85124907Y-147391902D01*
X85159502Y-147327180D01*
X85195812Y-147207482D01*
X85208072Y-147083000D01*
X85205000Y-146843750D01*
X85046250Y-146685000D01*
X84273109Y-146685000D01*
X84272400Y-146684785D01*
X84101979Y-146668000D01*
X83538021Y-146668000D01*
X83367600Y-146684785D01*
X83366891Y-146685000D01*
X82593750Y-146685000D01*
X82435000Y-146843750D01*
X82431928Y-147083000D01*
X82444188Y-147207482D01*
X82480498Y-147327180D01*
X82515093Y-147391902D01*
X82451785Y-147600600D01*
X82429388Y-147828000D01*
X76307909Y-147828000D01*
X76312306Y-147817387D01*
X76403000Y-147361440D01*
X76403000Y-146896560D01*
X76312306Y-146440613D01*
X76143468Y-146033000D01*
X82431928Y-146033000D01*
X82435000Y-146272250D01*
X82593750Y-146431000D01*
X83693000Y-146431000D01*
X83693000Y-145556750D01*
X83947000Y-145556750D01*
X83947000Y-146431000D01*
X85046250Y-146431000D01*
X85205000Y-146272250D01*
X85208072Y-146033000D01*
X85195812Y-145908518D01*
X85159502Y-145788820D01*
X85100537Y-145678506D01*
X85021185Y-145581815D01*
X84924494Y-145502463D01*
X84814180Y-145443498D01*
X84694482Y-145407188D01*
X84570000Y-145394928D01*
X84105750Y-145398000D01*
X83947000Y-145556750D01*
X83693000Y-145556750D01*
X83534250Y-145398000D01*
X83070000Y-145394928D01*
X82945518Y-145407188D01*
X82825820Y-145443498D01*
X82715506Y-145502463D01*
X82618815Y-145581815D01*
X82539463Y-145678506D01*
X82480498Y-145788820D01*
X82444188Y-145908518D01*
X82431928Y-146033000D01*
X76143468Y-146033000D01*
X76134405Y-146011121D01*
X75876132Y-145624588D01*
X75547412Y-145295868D01*
X75160879Y-145037595D01*
X74731387Y-144859694D01*
X74321616Y-144778185D01*
X78970302Y-140129500D01*
X79032439Y-140129500D01*
X79232398Y-140089726D01*
X79420756Y-140011705D01*
X79590274Y-139898437D01*
X79734437Y-139754274D01*
X79847705Y-139584756D01*
X79925726Y-139396398D01*
X79965500Y-139196439D01*
X79965500Y-138992561D01*
X79925726Y-138792602D01*
X79847705Y-138604244D01*
X79734437Y-138434726D01*
X79590274Y-138290563D01*
X79420756Y-138177295D01*
X79232398Y-138099274D01*
X79032439Y-138059500D01*
X78828561Y-138059500D01*
X78628602Y-138099274D01*
X78440244Y-138177295D01*
X78270726Y-138290563D01*
X78126563Y-138434726D01*
X78013295Y-138604244D01*
X77935274Y-138792602D01*
X77895500Y-138992561D01*
X77895500Y-139054698D01*
X68442699Y-148507500D01*
X68351061Y-148507500D01*
X68151102Y-148547274D01*
X67962744Y-148625295D01*
X67793226Y-148738563D01*
X67649063Y-148882726D01*
X67535795Y-149052244D01*
X67457774Y-149240602D01*
X67418000Y-149440561D01*
X32537000Y-149440561D01*
X32537000Y-144264413D01*
X34477192Y-144264413D01*
X34572956Y-144528814D01*
X34862571Y-144669704D01*
X35174108Y-144751384D01*
X35495595Y-144770718D01*
X35814675Y-144726961D01*
X36119088Y-144621795D01*
X36293044Y-144528814D01*
X36388808Y-144264413D01*
X35433000Y-143308605D01*
X34477192Y-144264413D01*
X32537000Y-144264413D01*
X32537000Y-143191595D01*
X33791282Y-143191595D01*
X33835039Y-143510675D01*
X33940205Y-143815088D01*
X34033186Y-143989044D01*
X34297587Y-144084808D01*
X35253395Y-143129000D01*
X35612605Y-143129000D01*
X36568413Y-144084808D01*
X36832814Y-143989044D01*
X36973704Y-143699429D01*
X37055384Y-143387892D01*
X37074718Y-143066405D01*
X37030961Y-142747325D01*
X36925795Y-142442912D01*
X36832814Y-142268956D01*
X36568413Y-142173192D01*
X35612605Y-143129000D01*
X35253395Y-143129000D01*
X34297587Y-142173192D01*
X34033186Y-142268956D01*
X33892296Y-142558571D01*
X33810616Y-142870108D01*
X33791282Y-143191595D01*
X32537000Y-143191595D01*
X32537000Y-141993587D01*
X34477192Y-141993587D01*
X35433000Y-142949395D01*
X36388808Y-141993587D01*
X36293044Y-141729186D01*
X36003429Y-141588296D01*
X35691892Y-141506616D01*
X35370405Y-141487282D01*
X35051325Y-141531039D01*
X34746912Y-141636205D01*
X34572956Y-141729186D01*
X34477192Y-141993587D01*
X32537000Y-141993587D01*
X32537000Y-133276404D01*
X32690369Y-133646669D01*
X32934962Y-134012729D01*
X33246271Y-134324038D01*
X33612331Y-134568631D01*
X34019075Y-134737110D01*
X34450872Y-134823000D01*
X34891128Y-134823000D01*
X35322925Y-134737110D01*
X35729669Y-134568631D01*
X36095729Y-134324038D01*
X36407038Y-134012729D01*
X36651631Y-133646669D01*
X36820110Y-133239925D01*
X36906000Y-132808128D01*
X36906000Y-132367872D01*
X36820110Y-131936075D01*
X36817135Y-131928891D01*
X37547519Y-131928891D01*
X37644843Y-132203252D01*
X37793822Y-132453355D01*
X37988731Y-132669588D01*
X38222080Y-132843641D01*
X38484901Y-132968825D01*
X38632110Y-133013476D01*
X38862000Y-132892155D01*
X38862000Y-131699000D01*
X37668186Y-131699000D01*
X37547519Y-131928891D01*
X36817135Y-131928891D01*
X36651631Y-131529331D01*
X36407038Y-131163271D01*
X36095729Y-130851962D01*
X35729669Y-130607369D01*
X35359404Y-130454000D01*
X38016097Y-130454000D01*
X37988731Y-130474412D01*
G37*
%TD.AperFunction*%
%TD*%
M02*
