%TF.GenerationSoftware,KiCad,Pcbnew,(5.1.8)-1*%
%TF.CreationDate,2020-12-21T16:49:44+02:00*%
%TF.ProjectId,Thermometer,54686572-6d6f-46d6-9574-65722e6b6963,rev?*%
%TF.SameCoordinates,Original*%
%TF.FileFunction,Copper,L1,Top*%
%TF.FilePolarity,Positive*%
%FSLAX46Y46*%
G04 Gerber Fmt 4.6, Leading zero omitted, Abs format (unit mm)*
G04 Created by KiCad (PCBNEW (5.1.8)-1) date 2020-12-21 16:49:44*
%MOMM*%
%LPD*%
G01*
G04 APERTURE LIST*
%TA.AperFunction,SMDPad,CuDef*%
%ADD10R,2.000000X0.700000*%
%TD*%
%TA.AperFunction,SMDPad,CuDef*%
%ADD11R,0.700000X2.000000*%
%TD*%
%TA.AperFunction,ComponentPad*%
%ADD12O,1.500000X1.050000*%
%TD*%
%TA.AperFunction,ComponentPad*%
%ADD13R,1.500000X1.050000*%
%TD*%
%TA.AperFunction,SMDPad,CuDef*%
%ADD14R,0.500000X0.350000*%
%TD*%
%TA.AperFunction,SMDPad,CuDef*%
%ADD15R,1.880000X1.680000*%
%TD*%
%TA.AperFunction,ComponentPad*%
%ADD16R,2.000000X2.000000*%
%TD*%
%TA.AperFunction,ComponentPad*%
%ADD17C,2.000000*%
%TD*%
%TA.AperFunction,ComponentPad*%
%ADD18R,1.700000X1.700000*%
%TD*%
%TA.AperFunction,ComponentPad*%
%ADD19O,1.700000X1.700000*%
%TD*%
%TA.AperFunction,SMDPad,CuDef*%
%ADD20R,1.550000X1.000000*%
%TD*%
%TA.AperFunction,ViaPad*%
%ADD21C,0.800000*%
%TD*%
%TA.AperFunction,Conductor*%
%ADD22C,0.250000*%
%TD*%
%TA.AperFunction,Conductor*%
%ADD23C,1.000000*%
%TD*%
%TA.AperFunction,Conductor*%
%ADD24C,0.254000*%
%TD*%
%TA.AperFunction,Conductor*%
%ADD25C,0.100000*%
%TD*%
G04 APERTURE END LIST*
%TO.P,C1,2*%
%TO.N,GND*%
%TA.AperFunction,SMDPad,CuDef*%
G36*
G01*
X49780000Y-141216500D02*
X49280000Y-141216500D01*
G75*
G02*
X49055000Y-140991500I0J225000D01*
G01*
X49055000Y-140541500D01*
G75*
G02*
X49280000Y-140316500I225000J0D01*
G01*
X49780000Y-140316500D01*
G75*
G02*
X50005000Y-140541500I0J-225000D01*
G01*
X50005000Y-140991500D01*
G75*
G02*
X49780000Y-141216500I-225000J0D01*
G01*
G37*
%TD.AperFunction*%
%TO.P,C1,1*%
%TO.N,+3V3*%
%TA.AperFunction,SMDPad,CuDef*%
G36*
G01*
X49780000Y-142766500D02*
X49280000Y-142766500D01*
G75*
G02*
X49055000Y-142541500I0J225000D01*
G01*
X49055000Y-142091500D01*
G75*
G02*
X49280000Y-141866500I225000J0D01*
G01*
X49780000Y-141866500D01*
G75*
G02*
X50005000Y-142091500I0J-225000D01*
G01*
X50005000Y-142541500D01*
G75*
G02*
X49780000Y-142766500I-225000J0D01*
G01*
G37*
%TD.AperFunction*%
%TD*%
%TO.P,C2,1*%
%TO.N,/P1.0*%
%TA.AperFunction,SMDPad,CuDef*%
G36*
G01*
X84791000Y-143577500D02*
X84791000Y-144077500D01*
G75*
G02*
X84566000Y-144302500I-225000J0D01*
G01*
X84116000Y-144302500D01*
G75*
G02*
X83891000Y-144077500I0J225000D01*
G01*
X83891000Y-143577500D01*
G75*
G02*
X84116000Y-143352500I225000J0D01*
G01*
X84566000Y-143352500D01*
G75*
G02*
X84791000Y-143577500I0J-225000D01*
G01*
G37*
%TD.AperFunction*%
%TO.P,C2,2*%
%TO.N,GND*%
%TA.AperFunction,SMDPad,CuDef*%
G36*
G01*
X83241000Y-143577500D02*
X83241000Y-144077500D01*
G75*
G02*
X83016000Y-144302500I-225000J0D01*
G01*
X82566000Y-144302500D01*
G75*
G02*
X82341000Y-144077500I0J225000D01*
G01*
X82341000Y-143577500D01*
G75*
G02*
X82566000Y-143352500I225000J0D01*
G01*
X83016000Y-143352500D01*
G75*
G02*
X83241000Y-143577500I0J-225000D01*
G01*
G37*
%TD.AperFunction*%
%TD*%
%TO.P,C3,1*%
%TO.N,+3V3*%
%TA.AperFunction,SMDPad,CuDef*%
G36*
G01*
X39222000Y-153134500D02*
X33422000Y-153134500D01*
G75*
G02*
X33172000Y-152884500I0J250000D01*
G01*
X33172000Y-150884500D01*
G75*
G02*
X33422000Y-150634500I250000J0D01*
G01*
X39222000Y-150634500D01*
G75*
G02*
X39472000Y-150884500I0J-250000D01*
G01*
X39472000Y-152884500D01*
G75*
G02*
X39222000Y-153134500I-250000J0D01*
G01*
G37*
%TD.AperFunction*%
%TO.P,C3,2*%
%TO.N,GND*%
%TA.AperFunction,SMDPad,CuDef*%
G36*
G01*
X39222000Y-147434500D02*
X33422000Y-147434500D01*
G75*
G02*
X33172000Y-147184500I0J250000D01*
G01*
X33172000Y-145184500D01*
G75*
G02*
X33422000Y-144934500I250000J0D01*
G01*
X39222000Y-144934500D01*
G75*
G02*
X39472000Y-145184500I0J-250000D01*
G01*
X39472000Y-147184500D01*
G75*
G02*
X39222000Y-147434500I-250000J0D01*
G01*
G37*
%TD.AperFunction*%
%TD*%
%TO.P,R1,1*%
%TO.N,/LED*%
%TA.AperFunction,SMDPad,CuDef*%
G36*
G01*
X68286500Y-144562500D02*
X68286500Y-144362500D01*
G75*
G02*
X68386500Y-144262500I100000J0D01*
G01*
X68646500Y-144262500D01*
G75*
G02*
X68746500Y-144362500I0J-100000D01*
G01*
X68746500Y-144562500D01*
G75*
G02*
X68646500Y-144662500I-100000J0D01*
G01*
X68386500Y-144662500D01*
G75*
G02*
X68286500Y-144562500I0J100000D01*
G01*
G37*
%TD.AperFunction*%
%TO.P,R1,2*%
%TO.N,Net-(D1-Pad2)*%
%TA.AperFunction,SMDPad,CuDef*%
G36*
G01*
X68926500Y-144562500D02*
X68926500Y-144362500D01*
G75*
G02*
X69026500Y-144262500I100000J0D01*
G01*
X69286500Y-144262500D01*
G75*
G02*
X69386500Y-144362500I0J-100000D01*
G01*
X69386500Y-144562500D01*
G75*
G02*
X69286500Y-144662500I-100000J0D01*
G01*
X69026500Y-144662500D01*
G75*
G02*
X68926500Y-144562500I0J100000D01*
G01*
G37*
%TD.AperFunction*%
%TD*%
%TO.P,R2,2*%
%TO.N,+BATT*%
%TA.AperFunction,SMDPad,CuDef*%
G36*
G01*
X40994500Y-153824000D02*
X40994500Y-154024000D01*
G75*
G02*
X40894500Y-154124000I-100000J0D01*
G01*
X40634500Y-154124000D01*
G75*
G02*
X40534500Y-154024000I0J100000D01*
G01*
X40534500Y-153824000D01*
G75*
G02*
X40634500Y-153724000I100000J0D01*
G01*
X40894500Y-153724000D01*
G75*
G02*
X40994500Y-153824000I0J-100000D01*
G01*
G37*
%TD.AperFunction*%
%TO.P,R2,1*%
%TO.N,+3V3*%
%TA.AperFunction,SMDPad,CuDef*%
G36*
G01*
X41634500Y-153824000D02*
X41634500Y-154024000D01*
G75*
G02*
X41534500Y-154124000I-100000J0D01*
G01*
X41274500Y-154124000D01*
G75*
G02*
X41174500Y-154024000I0J100000D01*
G01*
X41174500Y-153824000D01*
G75*
G02*
X41274500Y-153724000I100000J0D01*
G01*
X41534500Y-153724000D01*
G75*
G02*
X41634500Y-153824000I0J-100000D01*
G01*
G37*
%TD.AperFunction*%
%TD*%
D10*
%TO.P,U1,17*%
%TO.N,Net-(U1-Pad17)*%
X66359000Y-150781500D03*
%TO.P,U1,18*%
%TO.N,/CLK0*%
X66359000Y-149511500D03*
%TO.P,U1,19*%
%TO.N,/CS0*%
X66359000Y-148241500D03*
%TO.P,U1,20*%
%TO.N,/MOSI0*%
X66359000Y-146971500D03*
%TO.P,U1,21*%
%TO.N,/MISO0*%
X66359000Y-145701500D03*
%TO.P,U1,22*%
%TO.N,/LED*%
X66359000Y-144431500D03*
%TO.P,U1,23*%
%TO.N,/SW*%
X66359000Y-143161500D03*
%TO.P,U1,24*%
%TO.N,/RESET*%
X66359000Y-141891500D03*
D11*
%TO.P,U1,9*%
%TO.N,Net-(U1-Pad9)*%
X54849000Y-153041500D03*
%TO.P,U1,10*%
%TO.N,/CLK1*%
X56119000Y-153041500D03*
%TO.P,U1,11*%
%TO.N,/CS1*%
X57389000Y-153041500D03*
%TO.P,U1,12*%
%TO.N,/RST*%
X58659000Y-153041500D03*
%TO.P,U1,13*%
%TO.N,/BUSY*%
X59929000Y-153041500D03*
%TO.P,U1,14*%
%TO.N,Net-(U1-Pad14)*%
X61199000Y-153041500D03*
%TO.P,U1,15*%
%TO.N,/P1.0*%
X62469000Y-153041500D03*
%TO.P,U1,16*%
%TO.N,/DQ*%
X63739000Y-153041500D03*
D10*
%TO.P,U1,1*%
%TO.N,GND*%
X52259000Y-141891500D03*
%TO.P,U1,2*%
%TO.N,+3V3*%
X52259000Y-143161500D03*
%TO.P,U1,3*%
%TO.N,/P2.2*%
X52259000Y-144431500D03*
%TO.P,U1,4*%
%TO.N,/P2.1*%
X52259000Y-145701500D03*
%TO.P,U1,5*%
%TO.N,Net-(U1-Pad5)*%
X52259000Y-146971500D03*
%TO.P,U1,6*%
%TO.N,/DC*%
X52259000Y-148241500D03*
%TO.P,U1,7*%
%TO.N,/MOSI1*%
X52259000Y-149511500D03*
%TO.P,U1,8*%
%TO.N,Net-(U1-Pad8)*%
X52259000Y-150781500D03*
%TD*%
D12*
%TO.P,U2,2*%
%TO.N,/DQ*%
X83820000Y-147828000D03*
%TO.P,U2,3*%
%TO.N,/P1.0*%
X83820000Y-149098000D03*
D13*
%TO.P,U2,1*%
%TO.N,GND*%
X83820000Y-146558000D03*
%TD*%
D14*
%TO.P,U3,4*%
%TO.N,/CLK0*%
X82668000Y-139169500D03*
%TO.P,U3,3*%
%TO.N,/MOSI0*%
X82668000Y-139819500D03*
%TO.P,U3,2*%
%TO.N,/CS0*%
X82668000Y-140469500D03*
%TO.P,U3,1*%
%TO.N,GND*%
X82668000Y-141119500D03*
%TO.P,U3,8*%
%TO.N,/P1.0*%
X84718000Y-141119500D03*
%TO.P,U3,7*%
%TO.N,GND*%
X84718000Y-140469500D03*
%TO.P,U3,6*%
%TO.N,/P1.0*%
X84718000Y-139819500D03*
%TO.P,U3,5*%
%TO.N,/MISO0*%
X84718000Y-139169500D03*
%TD*%
%TO.P,U4,1*%
%TO.N,+BATT*%
%TA.AperFunction,SMDPad,CuDef*%
G36*
G01*
X43026000Y-161362000D02*
X42826000Y-161362000D01*
G75*
G02*
X42726000Y-161262000I0J100000D01*
G01*
X42726000Y-160012000D01*
G75*
G02*
X42826000Y-159912000I100000J0D01*
G01*
X43026000Y-159912000D01*
G75*
G02*
X43126000Y-160012000I0J-100000D01*
G01*
X43126000Y-161262000D01*
G75*
G02*
X43026000Y-161362000I-100000J0D01*
G01*
G37*
%TD.AperFunction*%
%TO.P,U4,2*%
%TO.N,Net-(U4-Pad2)*%
%TA.AperFunction,SMDPad,CuDef*%
G36*
G01*
X43676000Y-161362000D02*
X43476000Y-161362000D01*
G75*
G02*
X43376000Y-161262000I0J100000D01*
G01*
X43376000Y-160012000D01*
G75*
G02*
X43476000Y-159912000I100000J0D01*
G01*
X43676000Y-159912000D01*
G75*
G02*
X43776000Y-160012000I0J-100000D01*
G01*
X43776000Y-161262000D01*
G75*
G02*
X43676000Y-161362000I-100000J0D01*
G01*
G37*
%TD.AperFunction*%
%TO.P,U4,3*%
%TO.N,Net-(U4-Pad3)*%
%TA.AperFunction,SMDPad,CuDef*%
G36*
G01*
X44326000Y-161362000D02*
X44126000Y-161362000D01*
G75*
G02*
X44026000Y-161262000I0J100000D01*
G01*
X44026000Y-160012000D01*
G75*
G02*
X44126000Y-159912000I100000J0D01*
G01*
X44326000Y-159912000D01*
G75*
G02*
X44426000Y-160012000I0J-100000D01*
G01*
X44426000Y-161262000D01*
G75*
G02*
X44326000Y-161362000I-100000J0D01*
G01*
G37*
%TD.AperFunction*%
%TO.P,U4,4*%
%TO.N,+BATT*%
%TA.AperFunction,SMDPad,CuDef*%
G36*
G01*
X44976000Y-161362000D02*
X44776000Y-161362000D01*
G75*
G02*
X44676000Y-161262000I0J100000D01*
G01*
X44676000Y-160012000D01*
G75*
G02*
X44776000Y-159912000I100000J0D01*
G01*
X44976000Y-159912000D01*
G75*
G02*
X45076000Y-160012000I0J-100000D01*
G01*
X45076000Y-161262000D01*
G75*
G02*
X44976000Y-161362000I-100000J0D01*
G01*
G37*
%TD.AperFunction*%
%TO.P,U4,5*%
%TO.N,GND*%
%TA.AperFunction,SMDPad,CuDef*%
G36*
G01*
X44976000Y-157062000D02*
X44776000Y-157062000D01*
G75*
G02*
X44676000Y-156962000I0J100000D01*
G01*
X44676000Y-155712000D01*
G75*
G02*
X44776000Y-155612000I100000J0D01*
G01*
X44976000Y-155612000D01*
G75*
G02*
X45076000Y-155712000I0J-100000D01*
G01*
X45076000Y-156962000D01*
G75*
G02*
X44976000Y-157062000I-100000J0D01*
G01*
G37*
%TD.AperFunction*%
%TO.P,U4,6*%
%TA.AperFunction,SMDPad,CuDef*%
G36*
G01*
X44326000Y-157062000D02*
X44126000Y-157062000D01*
G75*
G02*
X44026000Y-156962000I0J100000D01*
G01*
X44026000Y-155712000D01*
G75*
G02*
X44126000Y-155612000I100000J0D01*
G01*
X44326000Y-155612000D01*
G75*
G02*
X44426000Y-155712000I0J-100000D01*
G01*
X44426000Y-156962000D01*
G75*
G02*
X44326000Y-157062000I-100000J0D01*
G01*
G37*
%TD.AperFunction*%
%TO.P,U4,7*%
%TO.N,Net-(L1-Pad2)*%
%TA.AperFunction,SMDPad,CuDef*%
G36*
G01*
X43676000Y-157062000D02*
X43476000Y-157062000D01*
G75*
G02*
X43376000Y-156962000I0J100000D01*
G01*
X43376000Y-155712000D01*
G75*
G02*
X43476000Y-155612000I100000J0D01*
G01*
X43676000Y-155612000D01*
G75*
G02*
X43776000Y-155712000I0J-100000D01*
G01*
X43776000Y-156962000D01*
G75*
G02*
X43676000Y-157062000I-100000J0D01*
G01*
G37*
%TD.AperFunction*%
%TO.P,U4,8*%
%TO.N,+3V3*%
%TA.AperFunction,SMDPad,CuDef*%
G36*
G01*
X43026000Y-157062000D02*
X42826000Y-157062000D01*
G75*
G02*
X42726000Y-156962000I0J100000D01*
G01*
X42726000Y-155712000D01*
G75*
G02*
X42826000Y-155612000I100000J0D01*
G01*
X43026000Y-155612000D01*
G75*
G02*
X43126000Y-155712000I0J-100000D01*
G01*
X43126000Y-156962000D01*
G75*
G02*
X43026000Y-157062000I-100000J0D01*
G01*
G37*
%TD.AperFunction*%
D15*
%TO.P,U4,9*%
%TO.N,N/C*%
X43901000Y-158487000D03*
%TD*%
D16*
%TO.P,BT1,1*%
%TO.N,+BATT*%
X35433000Y-155829000D03*
D17*
%TO.P,BT1,2*%
%TO.N,GND*%
X35433000Y-143129000D03*
%TD*%
%TO.P,D1,1*%
%TO.N,GND*%
%TA.AperFunction,SMDPad,CuDef*%
G36*
G01*
X78912000Y-130939250D02*
X78912000Y-130426750D01*
G75*
G02*
X79130750Y-130208000I218750J0D01*
G01*
X79568250Y-130208000D01*
G75*
G02*
X79787000Y-130426750I0J-218750D01*
G01*
X79787000Y-130939250D01*
G75*
G02*
X79568250Y-131158000I-218750J0D01*
G01*
X79130750Y-131158000D01*
G75*
G02*
X78912000Y-130939250I0J218750D01*
G01*
G37*
%TD.AperFunction*%
%TO.P,D1,2*%
%TO.N,Net-(D1-Pad2)*%
%TA.AperFunction,SMDPad,CuDef*%
G36*
G01*
X80487000Y-130939250D02*
X80487000Y-130426750D01*
G75*
G02*
X80705750Y-130208000I218750J0D01*
G01*
X81143250Y-130208000D01*
G75*
G02*
X81362000Y-130426750I0J-218750D01*
G01*
X81362000Y-130939250D01*
G75*
G02*
X81143250Y-131158000I-218750J0D01*
G01*
X80705750Y-131158000D01*
G75*
G02*
X80487000Y-130939250I0J218750D01*
G01*
G37*
%TD.AperFunction*%
%TD*%
D18*
%TO.P,J1,1*%
%TO.N,+3V3*%
X49149000Y-131572000D03*
D19*
%TO.P,J1,2*%
%TO.N,/RESET*%
X46609000Y-131572000D03*
%TO.P,J1,3*%
%TO.N,/P2.2*%
X44069000Y-131572000D03*
%TO.P,J1,4*%
%TO.N,/P2.1*%
X41529000Y-131572000D03*
%TO.P,J1,5*%
%TO.N,GND*%
X38989000Y-131572000D03*
%TD*%
D18*
%TO.P,J2,1*%
%TO.N,/BUSY*%
X68580000Y-167894000D03*
D19*
%TO.P,J2,2*%
%TO.N,/RST*%
X66040000Y-167894000D03*
%TO.P,J2,3*%
%TO.N,/DC*%
X63500000Y-167894000D03*
%TO.P,J2,4*%
%TO.N,/CS1*%
X60960000Y-167894000D03*
%TO.P,J2,5*%
%TO.N,/CLK1*%
X58420000Y-167894000D03*
%TO.P,J2,6*%
%TO.N,/MOSI1*%
X55880000Y-167894000D03*
%TO.P,J2,7*%
%TO.N,GND*%
X53340000Y-167894000D03*
%TO.P,J2,8*%
%TO.N,+3V3*%
X50800000Y-167894000D03*
%TD*%
%TO.P,L1,1*%
%TO.N,+BATT*%
%TA.AperFunction,SMDPad,CuDef*%
G36*
G01*
X41137503Y-161132500D02*
X38237497Y-161132500D01*
G75*
G02*
X37987500Y-160882503I0J249997D01*
G01*
X37987500Y-160257497D01*
G75*
G02*
X38237497Y-160007500I249997J0D01*
G01*
X41137503Y-160007500D01*
G75*
G02*
X41387500Y-160257497I0J-249997D01*
G01*
X41387500Y-160882503D01*
G75*
G02*
X41137503Y-161132500I-249997J0D01*
G01*
G37*
%TD.AperFunction*%
%TO.P,L1,2*%
%TO.N,Net-(L1-Pad2)*%
%TA.AperFunction,SMDPad,CuDef*%
G36*
G01*
X41137503Y-156857500D02*
X38237497Y-156857500D01*
G75*
G02*
X37987500Y-156607503I0J249997D01*
G01*
X37987500Y-155982497D01*
G75*
G02*
X38237497Y-155732500I249997J0D01*
G01*
X41137503Y-155732500D01*
G75*
G02*
X41387500Y-155982497I0J-249997D01*
G01*
X41387500Y-156607503D01*
G75*
G02*
X41137503Y-156857500I-249997J0D01*
G01*
G37*
%TD.AperFunction*%
%TD*%
D20*
%TO.P,SW1,2*%
%TO.N,/SW*%
X75332500Y-133374500D03*
X70082500Y-133374500D03*
%TO.P,SW1,1*%
%TO.N,GND*%
X70082500Y-131674500D03*
X75332500Y-131674500D03*
%TD*%
D21*
%TO.N,GND*%
X81280000Y-141478000D03*
X79375000Y-131889500D03*
X48831500Y-156337000D03*
X44876000Y-156337000D03*
X36322000Y-146184500D03*
X49530000Y-140766500D03*
X85153500Y-136779000D03*
X85598000Y-152336500D03*
X85534500Y-159702500D03*
X82105500Y-161734500D03*
X79565500Y-166624000D03*
X77470000Y-167767000D03*
X72072500Y-167767000D03*
X47688500Y-167957500D03*
X42100500Y-167894000D03*
X37338000Y-167894000D03*
X33020000Y-163449000D03*
X33020000Y-157416500D03*
X33083500Y-141478000D03*
X33020000Y-135064500D03*
X80962500Y-152146000D03*
X78232000Y-153225500D03*
X75819000Y-155511500D03*
X70104000Y-157226000D03*
X63944500Y-157099000D03*
X65405000Y-160464500D03*
X69469000Y-164338000D03*
X79502000Y-146431000D03*
X71056500Y-151320500D03*
X70993000Y-142303500D03*
X73723500Y-138557000D03*
X77978000Y-135064500D03*
X38862000Y-140398500D03*
X39243000Y-135128000D03*
X64071500Y-143573500D03*
X54800500Y-143827500D03*
X55054500Y-150622000D03*
X63309500Y-150368000D03*
X66040000Y-138176000D03*
X53911500Y-137668000D03*
X62166500Y-137477500D03*
X53403500Y-160972500D03*
X44513500Y-164528500D03*
X37909500Y-162560000D03*
X52514500Y-153543000D03*
X48196500Y-147066000D03*
X51625500Y-165671500D03*
%TO.N,/CLK0*%
X78930500Y-139094500D03*
X68453000Y-149542500D03*
%TO.N,/RESET*%
X66357500Y-141795500D03*
%TO.N,/P2.2*%
X44163500Y-144431500D03*
%TO.N,/P2.1*%
X43243500Y-145732500D03*
%TO.N,/DC*%
X49403000Y-153797000D03*
%TO.N,Net-(L1-Pad2)*%
X39687500Y-156337000D03*
X43561000Y-154876500D03*
%TD*%
D22*
%TO.N,GND*%
X38989000Y-139573000D02*
X35433000Y-143129000D01*
X38989000Y-131572000D02*
X38989000Y-139573000D01*
X35433000Y-145295500D02*
X36322000Y-146184500D01*
X35433000Y-143129000D02*
X35433000Y-145295500D01*
X44876000Y-156337000D02*
X44226000Y-156337000D01*
X52259000Y-141891500D02*
X52259000Y-141667000D01*
X51358500Y-140766500D02*
X49530000Y-140766500D01*
X52259000Y-141667000D02*
X51358500Y-140766500D01*
X68008500Y-131572000D02*
X68008500Y-136969500D01*
X68008500Y-136969500D02*
X67818000Y-137160000D01*
X67818000Y-137160000D02*
X51371500Y-137160000D01*
X51371500Y-140753500D02*
X51358500Y-140766500D01*
X51371500Y-137160000D02*
X51371500Y-140753500D01*
X84357998Y-140469500D02*
X84718000Y-140469500D01*
X83707998Y-141119500D02*
X84357998Y-140469500D01*
X82668000Y-141119500D02*
X83707998Y-141119500D01*
X82668000Y-143704500D02*
X82791000Y-143827500D01*
X82668000Y-141119500D02*
X82668000Y-143704500D01*
X82668000Y-141119500D02*
X81638500Y-141119500D01*
X81638500Y-141119500D02*
X81280000Y-141478000D01*
X79349500Y-131864000D02*
X79375000Y-131889500D01*
X79349500Y-130683000D02*
X79349500Y-131864000D01*
X53340000Y-167894000D02*
X48831500Y-163385500D01*
X48831500Y-163385500D02*
X48831500Y-156337000D01*
X49530000Y-140766500D02*
X51799002Y-140766500D01*
X75157499Y-131849501D02*
X75332500Y-131674500D01*
X70257501Y-131849501D02*
X75157499Y-131849501D01*
X70082500Y-131674500D02*
X70257501Y-131849501D01*
X68111000Y-131674500D02*
X68008500Y-131572000D01*
X70082500Y-131674500D02*
X68111000Y-131674500D01*
X83820000Y-146558000D02*
X83820000Y-144970500D01*
X83820000Y-144970500D02*
X82804000Y-144970500D01*
X82791000Y-144957500D02*
X82791000Y-143827500D01*
X82804000Y-144970500D02*
X82791000Y-144957500D01*
X79349500Y-130683000D02*
X78803500Y-130683000D01*
X78803500Y-130683000D02*
X78359000Y-130238500D01*
X78359000Y-130238500D02*
X75311000Y-130238500D01*
X75311000Y-131653000D02*
X75332500Y-131674500D01*
X75311000Y-130238500D02*
X75311000Y-131653000D01*
D23*
%TO.N,+3V3*%
X36322000Y-151884500D02*
X41521500Y-151884500D01*
X41694510Y-153492622D02*
X41694510Y-153924000D01*
X41521500Y-153319612D02*
X41694510Y-153492622D01*
X41521500Y-151884500D02*
X41521500Y-153319612D01*
X42675990Y-155896490D02*
X42675990Y-156337000D01*
X41694510Y-154915010D02*
X42675990Y-155896490D01*
X41694510Y-153492622D02*
X41694510Y-154915010D01*
X50375000Y-143161500D02*
X52259000Y-143161500D01*
X49530000Y-142316500D02*
X50375000Y-143161500D01*
X41579500Y-142316500D02*
X41521500Y-142374500D01*
X47040500Y-139522500D02*
X47040500Y-142316500D01*
X49149000Y-137414000D02*
X47040500Y-139522500D01*
X49149000Y-131572000D02*
X49149000Y-137414000D01*
X47040500Y-142316500D02*
X41579500Y-142316500D01*
X49530000Y-142316500D02*
X47040500Y-142316500D01*
X47434500Y-149288500D02*
X46680000Y-148534000D01*
X47434500Y-164528500D02*
X47434500Y-149288500D01*
X50800000Y-167894000D02*
X47434500Y-164528500D01*
X46680000Y-148534000D02*
X41521500Y-148534000D01*
X41521500Y-148534000D02*
X41521500Y-151884500D01*
X41521500Y-142374500D02*
X41521500Y-148534000D01*
D22*
%TO.N,/P1.0*%
X62469000Y-154798000D02*
X62469000Y-153041500D01*
X62611000Y-154940000D02*
X62469000Y-154798000D01*
X72199500Y-154940000D02*
X62611000Y-154940000D01*
X78041500Y-149098000D02*
X72199500Y-154940000D01*
X83820000Y-149098000D02*
X78041500Y-149098000D01*
X85218000Y-139819500D02*
X85344000Y-139945500D01*
X84718000Y-139819500D02*
X85218000Y-139819500D01*
X85344000Y-139945500D02*
X85344000Y-141160500D01*
X84759000Y-141160500D02*
X84718000Y-141119500D01*
X85344000Y-141160500D02*
X84759000Y-141160500D01*
X84718000Y-143450500D02*
X84341000Y-143827500D01*
X84718000Y-141119500D02*
X84718000Y-143450500D01*
X84341000Y-143827500D02*
X84709000Y-143827500D01*
X84709000Y-143827500D02*
X85153500Y-144272000D01*
X85153500Y-144272000D02*
X85153500Y-149098000D01*
X85153500Y-149098000D02*
X83820000Y-149098000D01*
%TO.N,Net-(D1-Pad2)*%
X80924500Y-130683000D02*
X80924500Y-135039000D01*
X71501000Y-144462500D02*
X69156500Y-144462500D01*
X80924500Y-135039000D02*
X71501000Y-144462500D01*
%TO.N,/LED*%
X66390000Y-144462500D02*
X66359000Y-144431500D01*
X68516500Y-144462500D02*
X66390000Y-144462500D01*
D23*
%TO.N,+BATT*%
X35433000Y-155003500D02*
X35433000Y-155829000D01*
X36195000Y-154241500D02*
X35433000Y-155003500D01*
X40386000Y-154241500D02*
X36195000Y-154241500D01*
X40449500Y-154178000D02*
X40386000Y-154241500D01*
X39687500Y-160570000D02*
X36364000Y-160570000D01*
X35433000Y-159639000D02*
X35433000Y-155829000D01*
X36364000Y-160570000D02*
X35433000Y-159639000D01*
D22*
X39751000Y-160633500D02*
X39687500Y-160570000D01*
X39751000Y-162306000D02*
X39751000Y-160633500D01*
X44857500Y-162306000D02*
X39751000Y-162306000D01*
X44876000Y-162287500D02*
X44857500Y-162306000D01*
X44876000Y-160637000D02*
X44876000Y-162287500D01*
D23*
X42608990Y-160570000D02*
X42675990Y-160637000D01*
X39687500Y-160570000D02*
X42608990Y-160570000D01*
D22*
%TO.N,/CLK0*%
X82668000Y-139169500D02*
X78968498Y-139169500D01*
X78968498Y-139132498D02*
X78930500Y-139094500D01*
X78968498Y-139169500D02*
X78968498Y-139132498D01*
X66390000Y-149542500D02*
X66359000Y-149511500D01*
X68453000Y-149542500D02*
X66390000Y-149542500D01*
%TO.N,/CS0*%
X69631230Y-148241500D02*
X66359000Y-148241500D01*
X77403230Y-140469500D02*
X69631230Y-148241500D01*
X82668000Y-140469500D02*
X77403230Y-140469500D01*
%TO.N,/MOSI0*%
X70264820Y-146971500D02*
X66359000Y-146971500D01*
X77416820Y-139819500D02*
X70264820Y-146971500D01*
X82668000Y-139819500D02*
X77416820Y-139819500D01*
%TO.N,/MISO0*%
X70898410Y-145701500D02*
X66359000Y-145701500D01*
X84718000Y-139169500D02*
X84718000Y-137740500D01*
X84718000Y-137740500D02*
X84074000Y-137096500D01*
X79503410Y-137096500D02*
X78042205Y-138557705D01*
X78042205Y-138557705D02*
X70898410Y-145701500D01*
X84074000Y-137096500D02*
X79503410Y-137096500D01*
X78106410Y-138493500D02*
X78042205Y-138557705D01*
%TO.N,/SW*%
X67024002Y-143161500D02*
X66359000Y-143161500D01*
X69342500Y-140843002D02*
X67024002Y-143161500D01*
X69342500Y-135536500D02*
X69342500Y-140843002D01*
X70257501Y-133199499D02*
X70082500Y-133374500D01*
X75157499Y-133199499D02*
X70257501Y-133199499D01*
X75332500Y-133374500D02*
X75157499Y-133199499D01*
X70082500Y-134796500D02*
X69342500Y-135536500D01*
X70082500Y-133374500D02*
X70082500Y-134796500D01*
%TO.N,/RESET*%
X66359000Y-141797000D02*
X66357500Y-141795500D01*
X66359000Y-141891500D02*
X66359000Y-141797000D01*
%TO.N,/CLK1*%
X56119000Y-165593000D02*
X58420000Y-167894000D01*
X56119000Y-153041500D02*
X56119000Y-165593000D01*
%TO.N,/CS1*%
X57389000Y-164323000D02*
X60960000Y-167894000D01*
X57389000Y-153041500D02*
X57389000Y-164323000D01*
%TO.N,/RST*%
X58659000Y-160513000D02*
X58659000Y-153041500D01*
X66040000Y-167894000D02*
X58659000Y-160513000D01*
%TO.N,/BUSY*%
X59929000Y-159243000D02*
X59929000Y-153041500D01*
X68580000Y-167894000D02*
X59929000Y-159243000D01*
%TO.N,/DQ*%
X82820000Y-147828000D02*
X82756500Y-147891500D01*
X83820000Y-147828000D02*
X82820000Y-147828000D01*
X82756500Y-147891500D02*
X77851000Y-147891500D01*
X72701000Y-153041500D02*
X63739000Y-153041500D01*
X77851000Y-147891500D02*
X72701000Y-153041500D01*
%TO.N,/P2.2*%
X52259000Y-144431500D02*
X44163500Y-144431500D01*
%TO.N,/P2.1*%
X52259000Y-145701500D02*
X43212500Y-145701500D01*
X43212500Y-145701500D02*
X43243500Y-145732500D01*
%TO.N,/DC*%
X52259000Y-148241500D02*
X49435500Y-148241500D01*
X49403000Y-148274000D02*
X49403000Y-153797000D01*
X49435500Y-148241500D02*
X49403000Y-148274000D01*
%TO.N,/MOSI1*%
X50482500Y-162496500D02*
X55880000Y-167894000D01*
X50482500Y-149606000D02*
X50482500Y-162496500D01*
X50577000Y-149511500D02*
X50482500Y-149606000D01*
X52259000Y-149511500D02*
X50577000Y-149511500D01*
%TO.N,Net-(L1-Pad2)*%
X39687500Y-156295000D02*
X39687500Y-156337000D01*
D23*
X43561000Y-154876500D02*
X43561000Y-155084430D01*
D22*
X43576000Y-155463000D02*
X43576000Y-156337000D01*
X43561000Y-155448000D02*
X43576000Y-155463000D01*
X43561000Y-155084430D02*
X43561000Y-155448000D01*
%TD*%
D24*
%TO.N,GND*%
X46299500Y-164472749D02*
X46294009Y-164528500D01*
X46299500Y-164584251D01*
X46315923Y-164750998D01*
X46380824Y-164964946D01*
X46486216Y-165162123D01*
X46628051Y-165334949D01*
X46671365Y-165370496D01*
X49315000Y-168014132D01*
X49315000Y-168040260D01*
X49372068Y-168327158D01*
X49445318Y-168504000D01*
X35359404Y-168504000D01*
X35729669Y-168350631D01*
X36095729Y-168106038D01*
X36407038Y-167794729D01*
X36651631Y-167428669D01*
X36820110Y-167021925D01*
X36906000Y-166590128D01*
X36906000Y-166149872D01*
X36820110Y-165718075D01*
X36651631Y-165311331D01*
X36407038Y-164945271D01*
X36095729Y-164633962D01*
X35729669Y-164389369D01*
X35322925Y-164220890D01*
X34891128Y-164135000D01*
X34450872Y-164135000D01*
X34019075Y-164220890D01*
X33612331Y-164389369D01*
X33246271Y-164633962D01*
X32934962Y-164945271D01*
X32690369Y-165311331D01*
X32537000Y-165681596D01*
X32537000Y-152915691D01*
X32550992Y-153057754D01*
X32601528Y-153224350D01*
X32683595Y-153377886D01*
X32794038Y-153512462D01*
X32928614Y-153622905D01*
X33082150Y-153704972D01*
X33248746Y-153755508D01*
X33422000Y-153772572D01*
X35058796Y-153772572D01*
X34669864Y-154161505D01*
X34634012Y-154190928D01*
X34433000Y-154190928D01*
X34308518Y-154203188D01*
X34188820Y-154239498D01*
X34078506Y-154298463D01*
X33981815Y-154377815D01*
X33902463Y-154474506D01*
X33843498Y-154584820D01*
X33807188Y-154704518D01*
X33794928Y-154829000D01*
X33794928Y-156829000D01*
X33807188Y-156953482D01*
X33843498Y-157073180D01*
X33902463Y-157183494D01*
X33981815Y-157280185D01*
X34078506Y-157359537D01*
X34188820Y-157418502D01*
X34298001Y-157451622D01*
X34298000Y-159583248D01*
X34292509Y-159639000D01*
X34298000Y-159694751D01*
X34314423Y-159861498D01*
X34379324Y-160075446D01*
X34484716Y-160272623D01*
X34626551Y-160445449D01*
X34669864Y-160480995D01*
X35522008Y-161333140D01*
X35557551Y-161376449D01*
X35682495Y-161478988D01*
X35730377Y-161518284D01*
X35927553Y-161623676D01*
X36141501Y-161688577D01*
X36364000Y-161710491D01*
X36419752Y-161705000D01*
X37904333Y-161705000D01*
X38064243Y-161753508D01*
X38237497Y-161770572D01*
X38991000Y-161770572D01*
X38991000Y-162268667D01*
X38987323Y-162306000D01*
X39001997Y-162454986D01*
X39045454Y-162598247D01*
X39116026Y-162730276D01*
X39210999Y-162846001D01*
X39326724Y-162940974D01*
X39458753Y-163011546D01*
X39602014Y-163055003D01*
X39751000Y-163069677D01*
X39788333Y-163066000D01*
X44820178Y-163066000D01*
X44857500Y-163069676D01*
X44894822Y-163066000D01*
X44894833Y-163066000D01*
X45006486Y-163055003D01*
X45149747Y-163011546D01*
X45281776Y-162940974D01*
X45397501Y-162846001D01*
X45405840Y-162835840D01*
X45416001Y-162827501D01*
X45510974Y-162711776D01*
X45581546Y-162579747D01*
X45625003Y-162436486D01*
X45636000Y-162324833D01*
X45636000Y-162324822D01*
X45639676Y-162287500D01*
X45636000Y-162250177D01*
X45636000Y-161585401D01*
X45657890Y-161544448D01*
X45699890Y-161405991D01*
X45714072Y-161262000D01*
X45714072Y-160012000D01*
X45699890Y-159868009D01*
X45657890Y-159729552D01*
X45589684Y-159601949D01*
X45497896Y-159490104D01*
X45463627Y-159461981D01*
X45466812Y-159451482D01*
X45479072Y-159327000D01*
X45479072Y-157647000D01*
X45470505Y-157560013D01*
X45534003Y-157506263D01*
X45611874Y-157408375D01*
X45669151Y-157297175D01*
X45703634Y-157176939D01*
X45713998Y-157052285D01*
X45711000Y-156622750D01*
X45552250Y-156464000D01*
X44949000Y-156464000D01*
X44949000Y-156484000D01*
X44922250Y-156484000D01*
X44902250Y-156464000D01*
X44729000Y-156464000D01*
X44729000Y-156210000D01*
X44902250Y-156210000D01*
X44949000Y-156163250D01*
X44949000Y-156210000D01*
X45552250Y-156210000D01*
X45711000Y-156051250D01*
X45713998Y-155621715D01*
X45703634Y-155497061D01*
X45669151Y-155376825D01*
X45611874Y-155265625D01*
X45534003Y-155167737D01*
X45438531Y-155086922D01*
X45329127Y-155026285D01*
X45209996Y-154988156D01*
X45107750Y-154977000D01*
X44949000Y-155135750D01*
X44949000Y-155249442D01*
X44884003Y-155167737D01*
X44788531Y-155086922D01*
X44711450Y-155044200D01*
X44696000Y-155028750D01*
X44696000Y-154820748D01*
X44679577Y-154654001D01*
X44614676Y-154440053D01*
X44509284Y-154242877D01*
X44442667Y-154161704D01*
X44761387Y-154098306D01*
X45190879Y-153920405D01*
X45577412Y-153662132D01*
X45906132Y-153333412D01*
X46164405Y-152946879D01*
X46299501Y-152620728D01*
X46299500Y-164472749D01*
%TA.AperFunction,Conductor*%
D25*
G36*
X46299500Y-164472749D02*
G01*
X46294009Y-164528500D01*
X46299500Y-164584251D01*
X46315923Y-164750998D01*
X46380824Y-164964946D01*
X46486216Y-165162123D01*
X46628051Y-165334949D01*
X46671365Y-165370496D01*
X49315000Y-168014132D01*
X49315000Y-168040260D01*
X49372068Y-168327158D01*
X49445318Y-168504000D01*
X35359404Y-168504000D01*
X35729669Y-168350631D01*
X36095729Y-168106038D01*
X36407038Y-167794729D01*
X36651631Y-167428669D01*
X36820110Y-167021925D01*
X36906000Y-166590128D01*
X36906000Y-166149872D01*
X36820110Y-165718075D01*
X36651631Y-165311331D01*
X36407038Y-164945271D01*
X36095729Y-164633962D01*
X35729669Y-164389369D01*
X35322925Y-164220890D01*
X34891128Y-164135000D01*
X34450872Y-164135000D01*
X34019075Y-164220890D01*
X33612331Y-164389369D01*
X33246271Y-164633962D01*
X32934962Y-164945271D01*
X32690369Y-165311331D01*
X32537000Y-165681596D01*
X32537000Y-152915691D01*
X32550992Y-153057754D01*
X32601528Y-153224350D01*
X32683595Y-153377886D01*
X32794038Y-153512462D01*
X32928614Y-153622905D01*
X33082150Y-153704972D01*
X33248746Y-153755508D01*
X33422000Y-153772572D01*
X35058796Y-153772572D01*
X34669864Y-154161505D01*
X34634012Y-154190928D01*
X34433000Y-154190928D01*
X34308518Y-154203188D01*
X34188820Y-154239498D01*
X34078506Y-154298463D01*
X33981815Y-154377815D01*
X33902463Y-154474506D01*
X33843498Y-154584820D01*
X33807188Y-154704518D01*
X33794928Y-154829000D01*
X33794928Y-156829000D01*
X33807188Y-156953482D01*
X33843498Y-157073180D01*
X33902463Y-157183494D01*
X33981815Y-157280185D01*
X34078506Y-157359537D01*
X34188820Y-157418502D01*
X34298001Y-157451622D01*
X34298000Y-159583248D01*
X34292509Y-159639000D01*
X34298000Y-159694751D01*
X34314423Y-159861498D01*
X34379324Y-160075446D01*
X34484716Y-160272623D01*
X34626551Y-160445449D01*
X34669864Y-160480995D01*
X35522008Y-161333140D01*
X35557551Y-161376449D01*
X35682495Y-161478988D01*
X35730377Y-161518284D01*
X35927553Y-161623676D01*
X36141501Y-161688577D01*
X36364000Y-161710491D01*
X36419752Y-161705000D01*
X37904333Y-161705000D01*
X38064243Y-161753508D01*
X38237497Y-161770572D01*
X38991000Y-161770572D01*
X38991000Y-162268667D01*
X38987323Y-162306000D01*
X39001997Y-162454986D01*
X39045454Y-162598247D01*
X39116026Y-162730276D01*
X39210999Y-162846001D01*
X39326724Y-162940974D01*
X39458753Y-163011546D01*
X39602014Y-163055003D01*
X39751000Y-163069677D01*
X39788333Y-163066000D01*
X44820178Y-163066000D01*
X44857500Y-163069676D01*
X44894822Y-163066000D01*
X44894833Y-163066000D01*
X45006486Y-163055003D01*
X45149747Y-163011546D01*
X45281776Y-162940974D01*
X45397501Y-162846001D01*
X45405840Y-162835840D01*
X45416001Y-162827501D01*
X45510974Y-162711776D01*
X45581546Y-162579747D01*
X45625003Y-162436486D01*
X45636000Y-162324833D01*
X45636000Y-162324822D01*
X45639676Y-162287500D01*
X45636000Y-162250177D01*
X45636000Y-161585401D01*
X45657890Y-161544448D01*
X45699890Y-161405991D01*
X45714072Y-161262000D01*
X45714072Y-160012000D01*
X45699890Y-159868009D01*
X45657890Y-159729552D01*
X45589684Y-159601949D01*
X45497896Y-159490104D01*
X45463627Y-159461981D01*
X45466812Y-159451482D01*
X45479072Y-159327000D01*
X45479072Y-157647000D01*
X45470505Y-157560013D01*
X45534003Y-157506263D01*
X45611874Y-157408375D01*
X45669151Y-157297175D01*
X45703634Y-157176939D01*
X45713998Y-157052285D01*
X45711000Y-156622750D01*
X45552250Y-156464000D01*
X44949000Y-156464000D01*
X44949000Y-156484000D01*
X44922250Y-156484000D01*
X44902250Y-156464000D01*
X44729000Y-156464000D01*
X44729000Y-156210000D01*
X44902250Y-156210000D01*
X44949000Y-156163250D01*
X44949000Y-156210000D01*
X45552250Y-156210000D01*
X45711000Y-156051250D01*
X45713998Y-155621715D01*
X45703634Y-155497061D01*
X45669151Y-155376825D01*
X45611874Y-155265625D01*
X45534003Y-155167737D01*
X45438531Y-155086922D01*
X45329127Y-155026285D01*
X45209996Y-154988156D01*
X45107750Y-154977000D01*
X44949000Y-155135750D01*
X44949000Y-155249442D01*
X44884003Y-155167737D01*
X44788531Y-155086922D01*
X44711450Y-155044200D01*
X44696000Y-155028750D01*
X44696000Y-154820748D01*
X44679577Y-154654001D01*
X44614676Y-154440053D01*
X44509284Y-154242877D01*
X44442667Y-154161704D01*
X44761387Y-154098306D01*
X45190879Y-153920405D01*
X45577412Y-153662132D01*
X45906132Y-153333412D01*
X46164405Y-152946879D01*
X46299501Y-152620728D01*
X46299500Y-164472749D01*
G37*
%TD.AperFunction*%
D24*
X83015331Y-130607369D02*
X82649271Y-130851962D01*
X82337962Y-131163271D01*
X82093369Y-131529331D01*
X81924890Y-131936075D01*
X81839000Y-132367872D01*
X81839000Y-132808128D01*
X81924890Y-133239925D01*
X82093369Y-133646669D01*
X82337962Y-134012729D01*
X82649271Y-134324038D01*
X83015331Y-134568631D01*
X83422075Y-134737110D01*
X83853872Y-134823000D01*
X84294128Y-134823000D01*
X84725925Y-134737110D01*
X85132669Y-134568631D01*
X85498729Y-134324038D01*
X85810038Y-134012729D01*
X86054631Y-133646669D01*
X86208001Y-133276402D01*
X86208000Y-165681596D01*
X86054631Y-165311331D01*
X85810038Y-164945271D01*
X85498729Y-164633962D01*
X85132669Y-164389369D01*
X84725925Y-164220890D01*
X84294128Y-164135000D01*
X83853872Y-164135000D01*
X83422075Y-164220890D01*
X83015331Y-164389369D01*
X82649271Y-164633962D01*
X82337962Y-164945271D01*
X82093369Y-165311331D01*
X81924890Y-165718075D01*
X81839000Y-166149872D01*
X81839000Y-166590128D01*
X81924890Y-167021925D01*
X82093369Y-167428669D01*
X82337962Y-167794729D01*
X82649271Y-168106038D01*
X83015331Y-168350631D01*
X83385596Y-168504000D01*
X70068072Y-168504000D01*
X70068072Y-167044000D01*
X70055812Y-166919518D01*
X70019502Y-166799820D01*
X69960537Y-166689506D01*
X69881185Y-166592815D01*
X69784494Y-166513463D01*
X69674180Y-166454498D01*
X69554482Y-166418188D01*
X69430000Y-166405928D01*
X68166730Y-166405928D01*
X60689000Y-158928199D01*
X60689000Y-154656538D01*
X60724518Y-154667312D01*
X60849000Y-154679572D01*
X61549000Y-154679572D01*
X61673482Y-154667312D01*
X61709000Y-154656538D01*
X61709000Y-154760677D01*
X61705324Y-154798000D01*
X61709000Y-154835322D01*
X61709000Y-154835332D01*
X61719997Y-154946985D01*
X61761404Y-155083488D01*
X61763454Y-155090246D01*
X61834026Y-155222276D01*
X61851933Y-155244095D01*
X61928999Y-155338001D01*
X61958003Y-155361804D01*
X62047196Y-155450997D01*
X62070999Y-155480001D01*
X62186724Y-155574974D01*
X62318753Y-155645546D01*
X62462014Y-155689003D01*
X62573667Y-155700000D01*
X62573677Y-155700000D01*
X62610999Y-155703676D01*
X62648322Y-155700000D01*
X72162178Y-155700000D01*
X72199500Y-155703676D01*
X72236822Y-155700000D01*
X72236833Y-155700000D01*
X72348486Y-155689003D01*
X72491747Y-155645546D01*
X72623776Y-155574974D01*
X72739501Y-155480001D01*
X72763304Y-155450997D01*
X78356302Y-149858000D01*
X82718091Y-149858000D01*
X82770788Y-149922212D01*
X82947421Y-150067171D01*
X83148940Y-150174885D01*
X83367600Y-150241215D01*
X83538021Y-150258000D01*
X84101979Y-150258000D01*
X84272400Y-150241215D01*
X84491060Y-150174885D01*
X84692579Y-150067171D01*
X84869212Y-149922212D01*
X84921909Y-149858000D01*
X85116167Y-149858000D01*
X85153500Y-149861677D01*
X85302486Y-149847003D01*
X85445747Y-149803546D01*
X85577776Y-149732974D01*
X85693501Y-149638001D01*
X85788474Y-149522276D01*
X85859046Y-149390247D01*
X85902503Y-149246986D01*
X85913500Y-149135333D01*
X85917177Y-149098000D01*
X85913500Y-149060667D01*
X85913500Y-144309323D01*
X85917176Y-144272000D01*
X85913500Y-144234677D01*
X85913500Y-144234667D01*
X85902503Y-144123014D01*
X85859046Y-143979753D01*
X85849923Y-143962685D01*
X85788474Y-143847723D01*
X85745305Y-143795123D01*
X85693501Y-143731999D01*
X85664498Y-143708197D01*
X85474964Y-143518663D01*
X85478000Y-143487833D01*
X85481677Y-143450500D01*
X85478000Y-143413167D01*
X85478000Y-141910979D01*
X85492986Y-141909503D01*
X85636247Y-141866046D01*
X85768276Y-141795474D01*
X85884001Y-141700501D01*
X85978974Y-141584776D01*
X86049546Y-141452747D01*
X86093003Y-141309486D01*
X86104000Y-141197833D01*
X86107677Y-141160500D01*
X86104000Y-141123167D01*
X86104000Y-139982823D01*
X86107676Y-139945500D01*
X86104000Y-139908178D01*
X86104000Y-139908167D01*
X86093003Y-139796514D01*
X86049546Y-139653253D01*
X85978974Y-139521224D01*
X85884001Y-139405499D01*
X85854998Y-139381697D01*
X85781804Y-139308503D01*
X85758001Y-139279499D01*
X85642276Y-139184526D01*
X85606072Y-139165174D01*
X85606072Y-138994500D01*
X85593812Y-138870018D01*
X85557502Y-138750320D01*
X85498537Y-138640006D01*
X85478000Y-138614982D01*
X85478000Y-137777833D01*
X85481677Y-137740500D01*
X85467003Y-137591514D01*
X85423546Y-137448253D01*
X85352974Y-137316224D01*
X85281799Y-137229497D01*
X85258001Y-137200499D01*
X85229002Y-137176700D01*
X84637803Y-136585502D01*
X84614001Y-136556499D01*
X84498276Y-136461526D01*
X84366247Y-136390954D01*
X84222986Y-136347497D01*
X84111333Y-136336500D01*
X84111322Y-136336500D01*
X84074000Y-136332824D01*
X84036678Y-136336500D01*
X80701802Y-136336500D01*
X81435503Y-135602799D01*
X81464501Y-135579001D01*
X81559474Y-135463276D01*
X81630046Y-135331247D01*
X81673503Y-135187986D01*
X81684500Y-135076333D01*
X81688177Y-135039000D01*
X81684500Y-135001667D01*
X81684500Y-131598143D01*
X81749115Y-131545115D01*
X81855671Y-131415275D01*
X81934850Y-131267142D01*
X81983608Y-131106408D01*
X82000072Y-130939250D01*
X82000072Y-130454000D01*
X83385596Y-130454000D01*
X83015331Y-130607369D01*
%TA.AperFunction,Conductor*%
D25*
G36*
X83015331Y-130607369D02*
G01*
X82649271Y-130851962D01*
X82337962Y-131163271D01*
X82093369Y-131529331D01*
X81924890Y-131936075D01*
X81839000Y-132367872D01*
X81839000Y-132808128D01*
X81924890Y-133239925D01*
X82093369Y-133646669D01*
X82337962Y-134012729D01*
X82649271Y-134324038D01*
X83015331Y-134568631D01*
X83422075Y-134737110D01*
X83853872Y-134823000D01*
X84294128Y-134823000D01*
X84725925Y-134737110D01*
X85132669Y-134568631D01*
X85498729Y-134324038D01*
X85810038Y-134012729D01*
X86054631Y-133646669D01*
X86208001Y-133276402D01*
X86208000Y-165681596D01*
X86054631Y-165311331D01*
X85810038Y-164945271D01*
X85498729Y-164633962D01*
X85132669Y-164389369D01*
X84725925Y-164220890D01*
X84294128Y-164135000D01*
X83853872Y-164135000D01*
X83422075Y-164220890D01*
X83015331Y-164389369D01*
X82649271Y-164633962D01*
X82337962Y-164945271D01*
X82093369Y-165311331D01*
X81924890Y-165718075D01*
X81839000Y-166149872D01*
X81839000Y-166590128D01*
X81924890Y-167021925D01*
X82093369Y-167428669D01*
X82337962Y-167794729D01*
X82649271Y-168106038D01*
X83015331Y-168350631D01*
X83385596Y-168504000D01*
X70068072Y-168504000D01*
X70068072Y-167044000D01*
X70055812Y-166919518D01*
X70019502Y-166799820D01*
X69960537Y-166689506D01*
X69881185Y-166592815D01*
X69784494Y-166513463D01*
X69674180Y-166454498D01*
X69554482Y-166418188D01*
X69430000Y-166405928D01*
X68166730Y-166405928D01*
X60689000Y-158928199D01*
X60689000Y-154656538D01*
X60724518Y-154667312D01*
X60849000Y-154679572D01*
X61549000Y-154679572D01*
X61673482Y-154667312D01*
X61709000Y-154656538D01*
X61709000Y-154760677D01*
X61705324Y-154798000D01*
X61709000Y-154835322D01*
X61709000Y-154835332D01*
X61719997Y-154946985D01*
X61761404Y-155083488D01*
X61763454Y-155090246D01*
X61834026Y-155222276D01*
X61851933Y-155244095D01*
X61928999Y-155338001D01*
X61958003Y-155361804D01*
X62047196Y-155450997D01*
X62070999Y-155480001D01*
X62186724Y-155574974D01*
X62318753Y-155645546D01*
X62462014Y-155689003D01*
X62573667Y-155700000D01*
X62573677Y-155700000D01*
X62610999Y-155703676D01*
X62648322Y-155700000D01*
X72162178Y-155700000D01*
X72199500Y-155703676D01*
X72236822Y-155700000D01*
X72236833Y-155700000D01*
X72348486Y-155689003D01*
X72491747Y-155645546D01*
X72623776Y-155574974D01*
X72739501Y-155480001D01*
X72763304Y-155450997D01*
X78356302Y-149858000D01*
X82718091Y-149858000D01*
X82770788Y-149922212D01*
X82947421Y-150067171D01*
X83148940Y-150174885D01*
X83367600Y-150241215D01*
X83538021Y-150258000D01*
X84101979Y-150258000D01*
X84272400Y-150241215D01*
X84491060Y-150174885D01*
X84692579Y-150067171D01*
X84869212Y-149922212D01*
X84921909Y-149858000D01*
X85116167Y-149858000D01*
X85153500Y-149861677D01*
X85302486Y-149847003D01*
X85445747Y-149803546D01*
X85577776Y-149732974D01*
X85693501Y-149638001D01*
X85788474Y-149522276D01*
X85859046Y-149390247D01*
X85902503Y-149246986D01*
X85913500Y-149135333D01*
X85917177Y-149098000D01*
X85913500Y-149060667D01*
X85913500Y-144309323D01*
X85917176Y-144272000D01*
X85913500Y-144234677D01*
X85913500Y-144234667D01*
X85902503Y-144123014D01*
X85859046Y-143979753D01*
X85849923Y-143962685D01*
X85788474Y-143847723D01*
X85745305Y-143795123D01*
X85693501Y-143731999D01*
X85664498Y-143708197D01*
X85474964Y-143518663D01*
X85478000Y-143487833D01*
X85481677Y-143450500D01*
X85478000Y-143413167D01*
X85478000Y-141910979D01*
X85492986Y-141909503D01*
X85636247Y-141866046D01*
X85768276Y-141795474D01*
X85884001Y-141700501D01*
X85978974Y-141584776D01*
X86049546Y-141452747D01*
X86093003Y-141309486D01*
X86104000Y-141197833D01*
X86107677Y-141160500D01*
X86104000Y-141123167D01*
X86104000Y-139982823D01*
X86107676Y-139945500D01*
X86104000Y-139908178D01*
X86104000Y-139908167D01*
X86093003Y-139796514D01*
X86049546Y-139653253D01*
X85978974Y-139521224D01*
X85884001Y-139405499D01*
X85854998Y-139381697D01*
X85781804Y-139308503D01*
X85758001Y-139279499D01*
X85642276Y-139184526D01*
X85606072Y-139165174D01*
X85606072Y-138994500D01*
X85593812Y-138870018D01*
X85557502Y-138750320D01*
X85498537Y-138640006D01*
X85478000Y-138614982D01*
X85478000Y-137777833D01*
X85481677Y-137740500D01*
X85467003Y-137591514D01*
X85423546Y-137448253D01*
X85352974Y-137316224D01*
X85281799Y-137229497D01*
X85258001Y-137200499D01*
X85229002Y-137176700D01*
X84637803Y-136585502D01*
X84614001Y-136556499D01*
X84498276Y-136461526D01*
X84366247Y-136390954D01*
X84222986Y-136347497D01*
X84111333Y-136336500D01*
X84111322Y-136336500D01*
X84074000Y-136332824D01*
X84036678Y-136336500D01*
X80701802Y-136336500D01*
X81435503Y-135602799D01*
X81464501Y-135579001D01*
X81559474Y-135463276D01*
X81630046Y-135331247D01*
X81673503Y-135187986D01*
X81684500Y-135076333D01*
X81688177Y-135039000D01*
X81684500Y-135001667D01*
X81684500Y-131598143D01*
X81749115Y-131545115D01*
X81855671Y-131415275D01*
X81934850Y-131267142D01*
X81983608Y-131106408D01*
X82000072Y-130939250D01*
X82000072Y-130454000D01*
X83385596Y-130454000D01*
X83015331Y-130607369D01*
G37*
%TD.AperFunction*%
D24*
X53467000Y-167767000D02*
X53487000Y-167767000D01*
X53487000Y-168021000D01*
X53467000Y-168021000D01*
X53467000Y-168041000D01*
X53213000Y-168041000D01*
X53213000Y-168021000D01*
X53193000Y-168021000D01*
X53193000Y-167767000D01*
X53213000Y-167767000D01*
X53213000Y-167747000D01*
X53467000Y-167747000D01*
X53467000Y-167767000D01*
%TA.AperFunction,Conductor*%
D25*
G36*
X53467000Y-167767000D02*
G01*
X53487000Y-167767000D01*
X53487000Y-168021000D01*
X53467000Y-168021000D01*
X53467000Y-168041000D01*
X53213000Y-168041000D01*
X53213000Y-168021000D01*
X53193000Y-168021000D01*
X53193000Y-167767000D01*
X53213000Y-167767000D01*
X53213000Y-167747000D01*
X53467000Y-167747000D01*
X53467000Y-167767000D01*
G37*
%TD.AperFunction*%
D24*
X48599063Y-154456774D02*
X48743226Y-154600937D01*
X48912744Y-154714205D01*
X49101102Y-154792226D01*
X49301061Y-154832000D01*
X49504939Y-154832000D01*
X49704898Y-154792226D01*
X49722500Y-154784935D01*
X49722501Y-162459168D01*
X49718824Y-162496500D01*
X49733498Y-162645485D01*
X49776954Y-162788746D01*
X49847526Y-162920776D01*
X49906837Y-162993046D01*
X49942500Y-163036501D01*
X49971498Y-163060299D01*
X53320199Y-166409000D01*
X53212998Y-166409000D01*
X53212998Y-166573844D01*
X52983110Y-166452524D01*
X52835901Y-166497175D01*
X52573080Y-166622359D01*
X52339731Y-166796412D01*
X52144822Y-167012645D01*
X52075195Y-167129534D01*
X51953475Y-166947368D01*
X51746632Y-166740525D01*
X51503411Y-166578010D01*
X51233158Y-166466068D01*
X50946260Y-166409000D01*
X50920132Y-166409000D01*
X48569500Y-164058369D01*
X48569500Y-154412530D01*
X48599063Y-154456774D01*
%TA.AperFunction,Conductor*%
D25*
G36*
X48599063Y-154456774D02*
G01*
X48743226Y-154600937D01*
X48912744Y-154714205D01*
X49101102Y-154792226D01*
X49301061Y-154832000D01*
X49504939Y-154832000D01*
X49704898Y-154792226D01*
X49722500Y-154784935D01*
X49722501Y-162459168D01*
X49718824Y-162496500D01*
X49733498Y-162645485D01*
X49776954Y-162788746D01*
X49847526Y-162920776D01*
X49906837Y-162993046D01*
X49942500Y-163036501D01*
X49971498Y-163060299D01*
X53320199Y-166409000D01*
X53212998Y-166409000D01*
X53212998Y-166573844D01*
X52983110Y-166452524D01*
X52835901Y-166497175D01*
X52573080Y-166622359D01*
X52339731Y-166796412D01*
X52144822Y-167012645D01*
X52075195Y-167129534D01*
X51953475Y-166947368D01*
X51746632Y-166740525D01*
X51503411Y-166578010D01*
X51233158Y-166466068D01*
X50946260Y-166409000D01*
X50920132Y-166409000D01*
X48569500Y-164058369D01*
X48569500Y-154412530D01*
X48599063Y-154456774D01*
G37*
%TD.AperFunction*%
D24*
X50863500Y-136652000D02*
X50865940Y-136676776D01*
X50873167Y-136700601D01*
X50884903Y-136722557D01*
X50900697Y-136741803D01*
X50919943Y-136757597D01*
X50941899Y-136769333D01*
X50965724Y-136776560D01*
X50990500Y-136779000D01*
X67627500Y-136779000D01*
X67652276Y-136776560D01*
X67676101Y-136769333D01*
X67698057Y-136757597D01*
X67717303Y-136741803D01*
X67733097Y-136722557D01*
X67744833Y-136700601D01*
X67752060Y-136676776D01*
X67754500Y-136652000D01*
X67754500Y-131174500D01*
X68669428Y-131174500D01*
X68672500Y-131388750D01*
X68831250Y-131547500D01*
X69955500Y-131547500D01*
X69955500Y-130698250D01*
X70209500Y-130698250D01*
X70209500Y-131547500D01*
X71333750Y-131547500D01*
X71492500Y-131388750D01*
X71495572Y-131174500D01*
X71483312Y-131050018D01*
X71447002Y-130930320D01*
X71388037Y-130820006D01*
X71308685Y-130723315D01*
X71211994Y-130643963D01*
X71101680Y-130584998D01*
X70981982Y-130548688D01*
X70857500Y-130536428D01*
X70368250Y-130539500D01*
X70209500Y-130698250D01*
X69955500Y-130698250D01*
X69796750Y-130539500D01*
X69307500Y-130536428D01*
X69183018Y-130548688D01*
X69063320Y-130584998D01*
X68953006Y-130643963D01*
X68856315Y-130723315D01*
X68776963Y-130820006D01*
X68717998Y-130930320D01*
X68681688Y-131050018D01*
X68669428Y-131174500D01*
X67754500Y-131174500D01*
X67754500Y-130454000D01*
X71974645Y-130454000D01*
X71922982Y-130505663D01*
X71812450Y-130671086D01*
X71736314Y-130854894D01*
X71697500Y-131050024D01*
X71697500Y-131248976D01*
X71736314Y-131444106D01*
X71812450Y-131627914D01*
X71922982Y-131793337D01*
X72063663Y-131934018D01*
X72229086Y-132044550D01*
X72412894Y-132120686D01*
X72608024Y-132159500D01*
X72806976Y-132159500D01*
X73002106Y-132120686D01*
X73185914Y-132044550D01*
X73351337Y-131934018D01*
X73492018Y-131793337D01*
X73602550Y-131627914D01*
X73678686Y-131444106D01*
X73717500Y-131248976D01*
X73717500Y-131174500D01*
X73919428Y-131174500D01*
X73922500Y-131388750D01*
X74081250Y-131547500D01*
X75205500Y-131547500D01*
X75205500Y-130698250D01*
X75459500Y-130698250D01*
X75459500Y-131547500D01*
X76583750Y-131547500D01*
X76742500Y-131388750D01*
X76745572Y-131174500D01*
X76743947Y-131158000D01*
X78273928Y-131158000D01*
X78286188Y-131282482D01*
X78322498Y-131402180D01*
X78381463Y-131512494D01*
X78460815Y-131609185D01*
X78557506Y-131688537D01*
X78667820Y-131747502D01*
X78787518Y-131783812D01*
X78912000Y-131796072D01*
X79063750Y-131793000D01*
X79222500Y-131634250D01*
X79222500Y-130810000D01*
X78435750Y-130810000D01*
X78277000Y-130968750D01*
X78273928Y-131158000D01*
X76743947Y-131158000D01*
X76733312Y-131050018D01*
X76697002Y-130930320D01*
X76638037Y-130820006D01*
X76558685Y-130723315D01*
X76461994Y-130643963D01*
X76351680Y-130584998D01*
X76231982Y-130548688D01*
X76107500Y-130536428D01*
X75618250Y-130539500D01*
X75459500Y-130698250D01*
X75205500Y-130698250D01*
X75046750Y-130539500D01*
X74557500Y-130536428D01*
X74433018Y-130548688D01*
X74313320Y-130584998D01*
X74203006Y-130643963D01*
X74106315Y-130723315D01*
X74026963Y-130820006D01*
X73967998Y-130930320D01*
X73931688Y-131050018D01*
X73919428Y-131174500D01*
X73717500Y-131174500D01*
X73717500Y-131050024D01*
X73678686Y-130854894D01*
X73602550Y-130671086D01*
X73492018Y-130505663D01*
X73440355Y-130454000D01*
X78333750Y-130454000D01*
X78435750Y-130556000D01*
X79222500Y-130556000D01*
X79222500Y-130536000D01*
X79476500Y-130536000D01*
X79476500Y-130556000D01*
X79496500Y-130556000D01*
X79496500Y-130810000D01*
X79476500Y-130810000D01*
X79476500Y-131634250D01*
X79635250Y-131793000D01*
X79787000Y-131796072D01*
X79911482Y-131783812D01*
X80031180Y-131747502D01*
X80141494Y-131688537D01*
X80164500Y-131669656D01*
X80164501Y-134724197D01*
X71186199Y-143702500D01*
X69609901Y-143702500D01*
X69568948Y-143680610D01*
X69430491Y-143638610D01*
X69286500Y-143624428D01*
X69026500Y-143624428D01*
X68882509Y-143638610D01*
X68836500Y-143652567D01*
X68790491Y-143638610D01*
X68646500Y-143624428D01*
X68386500Y-143624428D01*
X68242509Y-143638610D01*
X68104052Y-143680610D01*
X68063099Y-143702500D01*
X67964634Y-143702500D01*
X67984812Y-143635982D01*
X67997072Y-143511500D01*
X67997072Y-143263231D01*
X69853503Y-141406801D01*
X69882501Y-141383003D01*
X69977474Y-141267278D01*
X70048046Y-141135249D01*
X70091503Y-140991988D01*
X70102500Y-140880335D01*
X70102500Y-140880326D01*
X70106176Y-140843003D01*
X70102500Y-140805680D01*
X70102500Y-135851301D01*
X70593502Y-135360299D01*
X70622501Y-135336501D01*
X70648832Y-135304417D01*
X70717474Y-135220777D01*
X70788046Y-135088747D01*
X70807232Y-135025498D01*
X70831503Y-134945486D01*
X70842500Y-134833833D01*
X70842500Y-134833824D01*
X70846176Y-134796501D01*
X70842500Y-134759178D01*
X70842500Y-134512572D01*
X70857500Y-134512572D01*
X70981982Y-134500312D01*
X71101680Y-134464002D01*
X71211994Y-134405037D01*
X71308685Y-134325685D01*
X71388037Y-134228994D01*
X71447002Y-134118680D01*
X71483312Y-133998982D01*
X71487201Y-133959499D01*
X71697500Y-133959499D01*
X71697500Y-133998976D01*
X71736314Y-134194106D01*
X71812450Y-134377914D01*
X71922982Y-134543337D01*
X72063663Y-134684018D01*
X72229086Y-134794550D01*
X72412894Y-134870686D01*
X72608024Y-134909500D01*
X72806976Y-134909500D01*
X73002106Y-134870686D01*
X73185914Y-134794550D01*
X73351337Y-134684018D01*
X73492018Y-134543337D01*
X73602550Y-134377914D01*
X73678686Y-134194106D01*
X73717500Y-133998976D01*
X73717500Y-133959499D01*
X73927799Y-133959499D01*
X73931688Y-133998982D01*
X73967998Y-134118680D01*
X74026963Y-134228994D01*
X74106315Y-134325685D01*
X74203006Y-134405037D01*
X74313320Y-134464002D01*
X74433018Y-134500312D01*
X74557500Y-134512572D01*
X76107500Y-134512572D01*
X76231982Y-134500312D01*
X76351680Y-134464002D01*
X76461994Y-134405037D01*
X76558685Y-134325685D01*
X76638037Y-134228994D01*
X76697002Y-134118680D01*
X76733312Y-133998982D01*
X76745572Y-133874500D01*
X76745572Y-132874500D01*
X76733312Y-132750018D01*
X76697002Y-132630320D01*
X76640439Y-132524500D01*
X76697002Y-132418680D01*
X76733312Y-132298982D01*
X76745572Y-132174500D01*
X76742500Y-131960250D01*
X76583750Y-131801500D01*
X75459500Y-131801500D01*
X75459500Y-131821500D01*
X75205500Y-131821500D01*
X75205500Y-131801500D01*
X74081250Y-131801500D01*
X73922500Y-131960250D01*
X73919428Y-132174500D01*
X73931688Y-132298982D01*
X73967998Y-132418680D01*
X73979126Y-132439499D01*
X71435874Y-132439499D01*
X71447002Y-132418680D01*
X71483312Y-132298982D01*
X71495572Y-132174500D01*
X71492500Y-131960250D01*
X71333750Y-131801500D01*
X70209500Y-131801500D01*
X70209500Y-131821500D01*
X69955500Y-131821500D01*
X69955500Y-131801500D01*
X68831250Y-131801500D01*
X68672500Y-131960250D01*
X68669428Y-132174500D01*
X68681688Y-132298982D01*
X68717998Y-132418680D01*
X68774561Y-132524500D01*
X68717998Y-132630320D01*
X68681688Y-132750018D01*
X68669428Y-132874500D01*
X68669428Y-133874500D01*
X68681688Y-133998982D01*
X68717998Y-134118680D01*
X68776963Y-134228994D01*
X68856315Y-134325685D01*
X68953006Y-134405037D01*
X69063320Y-134464002D01*
X69183018Y-134500312D01*
X69293050Y-134511149D01*
X68831502Y-134972697D01*
X68802499Y-134996499D01*
X68767620Y-135039000D01*
X68707526Y-135112224D01*
X68667030Y-135187986D01*
X68636954Y-135244254D01*
X68593497Y-135387515D01*
X68582500Y-135499168D01*
X68582500Y-135499178D01*
X68578824Y-135536500D01*
X68582500Y-135573823D01*
X68582501Y-140528199D01*
X67901435Y-141209265D01*
X67889537Y-141187006D01*
X67810185Y-141090315D01*
X67713494Y-141010963D01*
X67603180Y-140951998D01*
X67483482Y-140915688D01*
X67359000Y-140903428D01*
X66885370Y-140903428D01*
X66847756Y-140878295D01*
X66659398Y-140800274D01*
X66459439Y-140760500D01*
X66255561Y-140760500D01*
X66055602Y-140800274D01*
X65867244Y-140878295D01*
X65829630Y-140903428D01*
X65359000Y-140903428D01*
X65234518Y-140915688D01*
X65114820Y-140951998D01*
X65004506Y-141010963D01*
X64907815Y-141090315D01*
X64828463Y-141187006D01*
X64769498Y-141297320D01*
X64733188Y-141417018D01*
X64720928Y-141541500D01*
X64720928Y-142241500D01*
X64733188Y-142365982D01*
X64769498Y-142485680D01*
X64791317Y-142526500D01*
X64769498Y-142567320D01*
X64733188Y-142687018D01*
X64720928Y-142811500D01*
X64720928Y-143511500D01*
X64733188Y-143635982D01*
X64769498Y-143755680D01*
X64791317Y-143796500D01*
X64769498Y-143837320D01*
X64733188Y-143957018D01*
X64720928Y-144081500D01*
X64720928Y-144781500D01*
X64733188Y-144905982D01*
X64769498Y-145025680D01*
X64791317Y-145066500D01*
X64769498Y-145107320D01*
X64733188Y-145227018D01*
X64720928Y-145351500D01*
X64720928Y-146051500D01*
X64733188Y-146175982D01*
X64769498Y-146295680D01*
X64791317Y-146336500D01*
X64769498Y-146377320D01*
X64733188Y-146497018D01*
X64720928Y-146621500D01*
X64720928Y-147321500D01*
X64733188Y-147445982D01*
X64769498Y-147565680D01*
X64791317Y-147606500D01*
X64769498Y-147647320D01*
X64733188Y-147767018D01*
X64720928Y-147891500D01*
X64720928Y-148591500D01*
X64733188Y-148715982D01*
X64769498Y-148835680D01*
X64791317Y-148876500D01*
X64769498Y-148917320D01*
X64733188Y-149037018D01*
X64720928Y-149161500D01*
X64720928Y-149861500D01*
X64733188Y-149985982D01*
X64769498Y-150105680D01*
X64791317Y-150146500D01*
X64769498Y-150187320D01*
X64733188Y-150307018D01*
X64720928Y-150431500D01*
X64720928Y-151131500D01*
X64733188Y-151255982D01*
X64769498Y-151375680D01*
X64828463Y-151485994D01*
X64907815Y-151582685D01*
X65004506Y-151662037D01*
X65114820Y-151721002D01*
X65234518Y-151757312D01*
X65359000Y-151769572D01*
X67359000Y-151769572D01*
X67483482Y-151757312D01*
X67603180Y-151721002D01*
X67713494Y-151662037D01*
X67810185Y-151582685D01*
X67889537Y-151485994D01*
X67948502Y-151375680D01*
X67984812Y-151255982D01*
X67997072Y-151131500D01*
X67997072Y-150473924D01*
X68151102Y-150537726D01*
X68351061Y-150577500D01*
X68554939Y-150577500D01*
X68754898Y-150537726D01*
X68943256Y-150459705D01*
X69112774Y-150346437D01*
X69256937Y-150202274D01*
X69370205Y-150032756D01*
X69448226Y-149844398D01*
X69488000Y-149644439D01*
X69488000Y-149440561D01*
X69448226Y-149240602D01*
X69370205Y-149052244D01*
X69336299Y-149001500D01*
X69593908Y-149001500D01*
X69631230Y-149005176D01*
X69668552Y-149001500D01*
X69668563Y-149001500D01*
X69780216Y-148990503D01*
X69923477Y-148947046D01*
X70055506Y-148876474D01*
X70171231Y-148781501D01*
X70195034Y-148752497D01*
X71683000Y-147264531D01*
X71683000Y-147361440D01*
X71773694Y-147817387D01*
X71951595Y-148246879D01*
X72209868Y-148633412D01*
X72538588Y-148962132D01*
X72925121Y-149220405D01*
X73354613Y-149398306D01*
X73810560Y-149489000D01*
X74275440Y-149489000D01*
X74731387Y-149398306D01*
X75160879Y-149220405D01*
X75547412Y-148962132D01*
X75876132Y-148633412D01*
X76134405Y-148246879D01*
X76312306Y-147817387D01*
X76403000Y-147361440D01*
X76403000Y-146896560D01*
X76312306Y-146440613D01*
X76143468Y-146033000D01*
X82431928Y-146033000D01*
X82435000Y-146272250D01*
X82593750Y-146431000D01*
X83693000Y-146431000D01*
X83693000Y-145556750D01*
X83534250Y-145398000D01*
X83070000Y-145394928D01*
X82945518Y-145407188D01*
X82825820Y-145443498D01*
X82715506Y-145502463D01*
X82618815Y-145581815D01*
X82539463Y-145678506D01*
X82480498Y-145788820D01*
X82444188Y-145908518D01*
X82431928Y-146033000D01*
X76143468Y-146033000D01*
X76134405Y-146011121D01*
X75876132Y-145624588D01*
X75547412Y-145295868D01*
X75160879Y-145037595D01*
X74731387Y-144859694D01*
X74275440Y-144769000D01*
X74178532Y-144769000D01*
X74645032Y-144302500D01*
X81702928Y-144302500D01*
X81715188Y-144426982D01*
X81751498Y-144546680D01*
X81810463Y-144656994D01*
X81889815Y-144753685D01*
X81986506Y-144833037D01*
X82096820Y-144892002D01*
X82216518Y-144928312D01*
X82341000Y-144940572D01*
X82505250Y-144937500D01*
X82664000Y-144778750D01*
X82664000Y-143954500D01*
X81864750Y-143954500D01*
X81706000Y-144113250D01*
X81702928Y-144302500D01*
X74645032Y-144302500D01*
X75595032Y-143352500D01*
X81702928Y-143352500D01*
X81706000Y-143541750D01*
X81864750Y-143700500D01*
X82664000Y-143700500D01*
X82664000Y-142876250D01*
X82505250Y-142717500D01*
X82341000Y-142714428D01*
X82216518Y-142726688D01*
X82096820Y-142762998D01*
X81986506Y-142821963D01*
X81889815Y-142901315D01*
X81810463Y-142998006D01*
X81751498Y-143108320D01*
X81715188Y-143228018D01*
X81702928Y-143352500D01*
X75595032Y-143352500D01*
X77718032Y-141229500D01*
X81783000Y-141229500D01*
X81783000Y-141246502D01*
X81862748Y-141246502D01*
X81783000Y-141326250D01*
X81795914Y-141436432D01*
X81835557Y-141555068D01*
X81897583Y-141663690D01*
X81979608Y-141758125D01*
X82078480Y-141834743D01*
X82190400Y-141890599D01*
X82311066Y-141923548D01*
X82386250Y-141929500D01*
X82545000Y-141770750D01*
X82545000Y-141282572D01*
X82791000Y-141282572D01*
X82791000Y-141770750D01*
X82949750Y-141929500D01*
X83024934Y-141923548D01*
X83145600Y-141890599D01*
X83257520Y-141834743D01*
X83356392Y-141758125D01*
X83438417Y-141663690D01*
X83500443Y-141555068D01*
X83540086Y-141436432D01*
X83553000Y-141326250D01*
X83394250Y-141167500D01*
X83281678Y-141167500D01*
X83369185Y-141095685D01*
X83389033Y-141071500D01*
X83394250Y-141071500D01*
X83553000Y-140912750D01*
X83540086Y-140802568D01*
X83536699Y-140792431D01*
X83543812Y-140768982D01*
X83556072Y-140644500D01*
X83556072Y-140294500D01*
X83543812Y-140170018D01*
X83536071Y-140144500D01*
X83543812Y-140118982D01*
X83556072Y-139994500D01*
X83556072Y-139644500D01*
X83543812Y-139520018D01*
X83536071Y-139494500D01*
X83543812Y-139468982D01*
X83556072Y-139344500D01*
X83556072Y-138994500D01*
X83543812Y-138870018D01*
X83507502Y-138750320D01*
X83448537Y-138640006D01*
X83369185Y-138543315D01*
X83272494Y-138463963D01*
X83162180Y-138404998D01*
X83042482Y-138368688D01*
X82918000Y-138356428D01*
X82418000Y-138356428D01*
X82293518Y-138368688D01*
X82173820Y-138404998D01*
X82165397Y-138409500D01*
X79709211Y-138409500D01*
X79590274Y-138290563D01*
X79466711Y-138208001D01*
X79818212Y-137856500D01*
X83759199Y-137856500D01*
X83958001Y-138055302D01*
X83958000Y-138614981D01*
X83937463Y-138640006D01*
X83878498Y-138750320D01*
X83842188Y-138870018D01*
X83829928Y-138994500D01*
X83829928Y-139344500D01*
X83842188Y-139468982D01*
X83849929Y-139494500D01*
X83842188Y-139520018D01*
X83829928Y-139644500D01*
X83829928Y-139994500D01*
X83842188Y-140118982D01*
X83849301Y-140142431D01*
X83845914Y-140152568D01*
X83833000Y-140262750D01*
X83991750Y-140421500D01*
X83996967Y-140421500D01*
X84016815Y-140445685D01*
X84045834Y-140469500D01*
X84016815Y-140493315D01*
X83996967Y-140517500D01*
X83991750Y-140517500D01*
X83833000Y-140676250D01*
X83845914Y-140786432D01*
X83849301Y-140796569D01*
X83842188Y-140820018D01*
X83829928Y-140944500D01*
X83829928Y-141294500D01*
X83842188Y-141418982D01*
X83878498Y-141538680D01*
X83937463Y-141648994D01*
X83958000Y-141674019D01*
X83958001Y-142729990D01*
X83947623Y-142731012D01*
X83785717Y-142780125D01*
X83639649Y-142858200D01*
X83595494Y-142821963D01*
X83485180Y-142762998D01*
X83365482Y-142726688D01*
X83241000Y-142714428D01*
X83076750Y-142717500D01*
X82918000Y-142876250D01*
X82918000Y-143700500D01*
X82938000Y-143700500D01*
X82938000Y-143954500D01*
X82918000Y-143954500D01*
X82918000Y-144778750D01*
X83076750Y-144937500D01*
X83241000Y-144940572D01*
X83365482Y-144928312D01*
X83485180Y-144892002D01*
X83595494Y-144833037D01*
X83639649Y-144796800D01*
X83785717Y-144874875D01*
X83947623Y-144923988D01*
X84116000Y-144940572D01*
X84393500Y-144940572D01*
X84393500Y-145396096D01*
X84105750Y-145398000D01*
X83947000Y-145556750D01*
X83947000Y-146431000D01*
X83967000Y-146431000D01*
X83967000Y-146668000D01*
X83538021Y-146668000D01*
X83367600Y-146684785D01*
X83366891Y-146685000D01*
X82593750Y-146685000D01*
X82435000Y-146843750D01*
X82431928Y-147083000D01*
X82436705Y-147131500D01*
X77888323Y-147131500D01*
X77851000Y-147127824D01*
X77813677Y-147131500D01*
X77813667Y-147131500D01*
X77702014Y-147142497D01*
X77558753Y-147185954D01*
X77426724Y-147256526D01*
X77310999Y-147351499D01*
X77287201Y-147380497D01*
X72386199Y-152281500D01*
X64727072Y-152281500D01*
X64727072Y-152041500D01*
X64714812Y-151917018D01*
X64678502Y-151797320D01*
X64619537Y-151687006D01*
X64540185Y-151590315D01*
X64443494Y-151510963D01*
X64333180Y-151451998D01*
X64213482Y-151415688D01*
X64089000Y-151403428D01*
X63389000Y-151403428D01*
X63264518Y-151415688D01*
X63144820Y-151451998D01*
X63104000Y-151473817D01*
X63063180Y-151451998D01*
X62943482Y-151415688D01*
X62819000Y-151403428D01*
X62119000Y-151403428D01*
X61994518Y-151415688D01*
X61874820Y-151451998D01*
X61834000Y-151473817D01*
X61793180Y-151451998D01*
X61673482Y-151415688D01*
X61549000Y-151403428D01*
X60849000Y-151403428D01*
X60724518Y-151415688D01*
X60604820Y-151451998D01*
X60564000Y-151473817D01*
X60523180Y-151451998D01*
X60403482Y-151415688D01*
X60279000Y-151403428D01*
X59579000Y-151403428D01*
X59454518Y-151415688D01*
X59334820Y-151451998D01*
X59294000Y-151473817D01*
X59253180Y-151451998D01*
X59133482Y-151415688D01*
X59009000Y-151403428D01*
X58309000Y-151403428D01*
X58184518Y-151415688D01*
X58064820Y-151451998D01*
X58024000Y-151473817D01*
X57983180Y-151451998D01*
X57863482Y-151415688D01*
X57739000Y-151403428D01*
X57039000Y-151403428D01*
X56914518Y-151415688D01*
X56794820Y-151451998D01*
X56754000Y-151473817D01*
X56713180Y-151451998D01*
X56593482Y-151415688D01*
X56469000Y-151403428D01*
X55769000Y-151403428D01*
X55644518Y-151415688D01*
X55524820Y-151451998D01*
X55484000Y-151473817D01*
X55443180Y-151451998D01*
X55323482Y-151415688D01*
X55199000Y-151403428D01*
X54499000Y-151403428D01*
X54374518Y-151415688D01*
X54254820Y-151451998D01*
X54144506Y-151510963D01*
X54047815Y-151590315D01*
X53968463Y-151687006D01*
X53909498Y-151797320D01*
X53873188Y-151917018D01*
X53860928Y-152041500D01*
X53860928Y-154041500D01*
X53873188Y-154165982D01*
X53909498Y-154285680D01*
X53968463Y-154395994D01*
X54047815Y-154492685D01*
X54144506Y-154572037D01*
X54254820Y-154631002D01*
X54374518Y-154667312D01*
X54499000Y-154679572D01*
X55199000Y-154679572D01*
X55323482Y-154667312D01*
X55359000Y-154656538D01*
X55359001Y-165555668D01*
X55355324Y-165593000D01*
X55369998Y-165741985D01*
X55413454Y-165885246D01*
X55484026Y-166017276D01*
X55555201Y-166104002D01*
X55579000Y-166133001D01*
X55607998Y-166156799D01*
X55860199Y-166409000D01*
X55733740Y-166409000D01*
X55513592Y-166452790D01*
X51242500Y-162181699D01*
X51242500Y-151767947D01*
X51259000Y-151769572D01*
X53259000Y-151769572D01*
X53383482Y-151757312D01*
X53503180Y-151721002D01*
X53613494Y-151662037D01*
X53710185Y-151582685D01*
X53789537Y-151485994D01*
X53848502Y-151375680D01*
X53884812Y-151255982D01*
X53897072Y-151131500D01*
X53897072Y-150431500D01*
X53884812Y-150307018D01*
X53848502Y-150187320D01*
X53826683Y-150146500D01*
X53848502Y-150105680D01*
X53884812Y-149985982D01*
X53897072Y-149861500D01*
X53897072Y-149161500D01*
X53884812Y-149037018D01*
X53848502Y-148917320D01*
X53826683Y-148876500D01*
X53848502Y-148835680D01*
X53884812Y-148715982D01*
X53897072Y-148591500D01*
X53897072Y-147891500D01*
X53884812Y-147767018D01*
X53848502Y-147647320D01*
X53826683Y-147606500D01*
X53848502Y-147565680D01*
X53884812Y-147445982D01*
X53897072Y-147321500D01*
X53897072Y-146621500D01*
X53884812Y-146497018D01*
X53848502Y-146377320D01*
X53826683Y-146336500D01*
X53848502Y-146295680D01*
X53884812Y-146175982D01*
X53897072Y-146051500D01*
X53897072Y-145351500D01*
X53884812Y-145227018D01*
X53848502Y-145107320D01*
X53826683Y-145066500D01*
X53848502Y-145025680D01*
X53884812Y-144905982D01*
X53897072Y-144781500D01*
X53897072Y-144081500D01*
X53884812Y-143957018D01*
X53848502Y-143837320D01*
X53826683Y-143796500D01*
X53848502Y-143755680D01*
X53884812Y-143635982D01*
X53897072Y-143511500D01*
X53897072Y-142811500D01*
X53884812Y-142687018D01*
X53848502Y-142567320D01*
X53826683Y-142526500D01*
X53848502Y-142485680D01*
X53884812Y-142365982D01*
X53897072Y-142241500D01*
X53894000Y-142177250D01*
X53735250Y-142018500D01*
X52386000Y-142018500D01*
X52386000Y-142033517D01*
X52314752Y-142026500D01*
X52132000Y-142026500D01*
X52132000Y-142018500D01*
X52112000Y-142018500D01*
X52112000Y-141764500D01*
X52132000Y-141764500D01*
X52132000Y-141065250D01*
X52386000Y-141065250D01*
X52386000Y-141764500D01*
X53735250Y-141764500D01*
X53894000Y-141605750D01*
X53897072Y-141541500D01*
X53884812Y-141417018D01*
X53848502Y-141297320D01*
X53789537Y-141187006D01*
X53710185Y-141090315D01*
X53613494Y-141010963D01*
X53503180Y-140951998D01*
X53383482Y-140915688D01*
X53259000Y-140903428D01*
X52544750Y-140906500D01*
X52386000Y-141065250D01*
X52132000Y-141065250D01*
X51973250Y-140906500D01*
X51259000Y-140903428D01*
X51134518Y-140915688D01*
X51014820Y-140951998D01*
X50904506Y-141010963D01*
X50807815Y-141090315D01*
X50728463Y-141187006D01*
X50669498Y-141297320D01*
X50633188Y-141417018D01*
X50620928Y-141541500D01*
X50624000Y-141605750D01*
X50782748Y-141764498D01*
X50624000Y-141764498D01*
X50624000Y-141805369D01*
X50574535Y-141755904D01*
X50499300Y-141615149D01*
X50535537Y-141570994D01*
X50594502Y-141460680D01*
X50630812Y-141340982D01*
X50643072Y-141216500D01*
X50640000Y-141052250D01*
X50481250Y-140893500D01*
X49657000Y-140893500D01*
X49657000Y-140913500D01*
X49403000Y-140913500D01*
X49403000Y-140893500D01*
X48578750Y-140893500D01*
X48420000Y-141052250D01*
X48417583Y-141181500D01*
X48175500Y-141181500D01*
X48175500Y-140316500D01*
X48416928Y-140316500D01*
X48420000Y-140480750D01*
X48578750Y-140639500D01*
X49403000Y-140639500D01*
X49403000Y-139840250D01*
X49657000Y-139840250D01*
X49657000Y-140639500D01*
X50481250Y-140639500D01*
X50640000Y-140480750D01*
X50643072Y-140316500D01*
X50630812Y-140192018D01*
X50594502Y-140072320D01*
X50535537Y-139962006D01*
X50456185Y-139865315D01*
X50359494Y-139785963D01*
X50249180Y-139726998D01*
X50129482Y-139690688D01*
X50005000Y-139678428D01*
X49815750Y-139681500D01*
X49657000Y-139840250D01*
X49403000Y-139840250D01*
X49244250Y-139681500D01*
X49055000Y-139678428D01*
X48930518Y-139690688D01*
X48810820Y-139726998D01*
X48700506Y-139785963D01*
X48603815Y-139865315D01*
X48524463Y-139962006D01*
X48465498Y-140072320D01*
X48429188Y-140192018D01*
X48416928Y-140316500D01*
X48175500Y-140316500D01*
X48175500Y-139992631D01*
X49912141Y-138255991D01*
X49955449Y-138220449D01*
X50097284Y-138047623D01*
X50202676Y-137850447D01*
X50267577Y-137636499D01*
X50284000Y-137469752D01*
X50284000Y-137469743D01*
X50289490Y-137414001D01*
X50284000Y-137358259D01*
X50284000Y-132989683D01*
X50353494Y-132952537D01*
X50450185Y-132873185D01*
X50529537Y-132776494D01*
X50588502Y-132666180D01*
X50624812Y-132546482D01*
X50637072Y-132422000D01*
X50637072Y-130722000D01*
X50624812Y-130597518D01*
X50588502Y-130477820D01*
X50575770Y-130454000D01*
X50863500Y-130454000D01*
X50863500Y-136652000D01*
%TA.AperFunction,Conductor*%
D25*
G36*
X50863500Y-136652000D02*
G01*
X50865940Y-136676776D01*
X50873167Y-136700601D01*
X50884903Y-136722557D01*
X50900697Y-136741803D01*
X50919943Y-136757597D01*
X50941899Y-136769333D01*
X50965724Y-136776560D01*
X50990500Y-136779000D01*
X67627500Y-136779000D01*
X67652276Y-136776560D01*
X67676101Y-136769333D01*
X67698057Y-136757597D01*
X67717303Y-136741803D01*
X67733097Y-136722557D01*
X67744833Y-136700601D01*
X67752060Y-136676776D01*
X67754500Y-136652000D01*
X67754500Y-131174500D01*
X68669428Y-131174500D01*
X68672500Y-131388750D01*
X68831250Y-131547500D01*
X69955500Y-131547500D01*
X69955500Y-130698250D01*
X70209500Y-130698250D01*
X70209500Y-131547500D01*
X71333750Y-131547500D01*
X71492500Y-131388750D01*
X71495572Y-131174500D01*
X71483312Y-131050018D01*
X71447002Y-130930320D01*
X71388037Y-130820006D01*
X71308685Y-130723315D01*
X71211994Y-130643963D01*
X71101680Y-130584998D01*
X70981982Y-130548688D01*
X70857500Y-130536428D01*
X70368250Y-130539500D01*
X70209500Y-130698250D01*
X69955500Y-130698250D01*
X69796750Y-130539500D01*
X69307500Y-130536428D01*
X69183018Y-130548688D01*
X69063320Y-130584998D01*
X68953006Y-130643963D01*
X68856315Y-130723315D01*
X68776963Y-130820006D01*
X68717998Y-130930320D01*
X68681688Y-131050018D01*
X68669428Y-131174500D01*
X67754500Y-131174500D01*
X67754500Y-130454000D01*
X71974645Y-130454000D01*
X71922982Y-130505663D01*
X71812450Y-130671086D01*
X71736314Y-130854894D01*
X71697500Y-131050024D01*
X71697500Y-131248976D01*
X71736314Y-131444106D01*
X71812450Y-131627914D01*
X71922982Y-131793337D01*
X72063663Y-131934018D01*
X72229086Y-132044550D01*
X72412894Y-132120686D01*
X72608024Y-132159500D01*
X72806976Y-132159500D01*
X73002106Y-132120686D01*
X73185914Y-132044550D01*
X73351337Y-131934018D01*
X73492018Y-131793337D01*
X73602550Y-131627914D01*
X73678686Y-131444106D01*
X73717500Y-131248976D01*
X73717500Y-131174500D01*
X73919428Y-131174500D01*
X73922500Y-131388750D01*
X74081250Y-131547500D01*
X75205500Y-131547500D01*
X75205500Y-130698250D01*
X75459500Y-130698250D01*
X75459500Y-131547500D01*
X76583750Y-131547500D01*
X76742500Y-131388750D01*
X76745572Y-131174500D01*
X76743947Y-131158000D01*
X78273928Y-131158000D01*
X78286188Y-131282482D01*
X78322498Y-131402180D01*
X78381463Y-131512494D01*
X78460815Y-131609185D01*
X78557506Y-131688537D01*
X78667820Y-131747502D01*
X78787518Y-131783812D01*
X78912000Y-131796072D01*
X79063750Y-131793000D01*
X79222500Y-131634250D01*
X79222500Y-130810000D01*
X78435750Y-130810000D01*
X78277000Y-130968750D01*
X78273928Y-131158000D01*
X76743947Y-131158000D01*
X76733312Y-131050018D01*
X76697002Y-130930320D01*
X76638037Y-130820006D01*
X76558685Y-130723315D01*
X76461994Y-130643963D01*
X76351680Y-130584998D01*
X76231982Y-130548688D01*
X76107500Y-130536428D01*
X75618250Y-130539500D01*
X75459500Y-130698250D01*
X75205500Y-130698250D01*
X75046750Y-130539500D01*
X74557500Y-130536428D01*
X74433018Y-130548688D01*
X74313320Y-130584998D01*
X74203006Y-130643963D01*
X74106315Y-130723315D01*
X74026963Y-130820006D01*
X73967998Y-130930320D01*
X73931688Y-131050018D01*
X73919428Y-131174500D01*
X73717500Y-131174500D01*
X73717500Y-131050024D01*
X73678686Y-130854894D01*
X73602550Y-130671086D01*
X73492018Y-130505663D01*
X73440355Y-130454000D01*
X78333750Y-130454000D01*
X78435750Y-130556000D01*
X79222500Y-130556000D01*
X79222500Y-130536000D01*
X79476500Y-130536000D01*
X79476500Y-130556000D01*
X79496500Y-130556000D01*
X79496500Y-130810000D01*
X79476500Y-130810000D01*
X79476500Y-131634250D01*
X79635250Y-131793000D01*
X79787000Y-131796072D01*
X79911482Y-131783812D01*
X80031180Y-131747502D01*
X80141494Y-131688537D01*
X80164500Y-131669656D01*
X80164501Y-134724197D01*
X71186199Y-143702500D01*
X69609901Y-143702500D01*
X69568948Y-143680610D01*
X69430491Y-143638610D01*
X69286500Y-143624428D01*
X69026500Y-143624428D01*
X68882509Y-143638610D01*
X68836500Y-143652567D01*
X68790491Y-143638610D01*
X68646500Y-143624428D01*
X68386500Y-143624428D01*
X68242509Y-143638610D01*
X68104052Y-143680610D01*
X68063099Y-143702500D01*
X67964634Y-143702500D01*
X67984812Y-143635982D01*
X67997072Y-143511500D01*
X67997072Y-143263231D01*
X69853503Y-141406801D01*
X69882501Y-141383003D01*
X69977474Y-141267278D01*
X70048046Y-141135249D01*
X70091503Y-140991988D01*
X70102500Y-140880335D01*
X70102500Y-140880326D01*
X70106176Y-140843003D01*
X70102500Y-140805680D01*
X70102500Y-135851301D01*
X70593502Y-135360299D01*
X70622501Y-135336501D01*
X70648832Y-135304417D01*
X70717474Y-135220777D01*
X70788046Y-135088747D01*
X70807232Y-135025498D01*
X70831503Y-134945486D01*
X70842500Y-134833833D01*
X70842500Y-134833824D01*
X70846176Y-134796501D01*
X70842500Y-134759178D01*
X70842500Y-134512572D01*
X70857500Y-134512572D01*
X70981982Y-134500312D01*
X71101680Y-134464002D01*
X71211994Y-134405037D01*
X71308685Y-134325685D01*
X71388037Y-134228994D01*
X71447002Y-134118680D01*
X71483312Y-133998982D01*
X71487201Y-133959499D01*
X71697500Y-133959499D01*
X71697500Y-133998976D01*
X71736314Y-134194106D01*
X71812450Y-134377914D01*
X71922982Y-134543337D01*
X72063663Y-134684018D01*
X72229086Y-134794550D01*
X72412894Y-134870686D01*
X72608024Y-134909500D01*
X72806976Y-134909500D01*
X73002106Y-134870686D01*
X73185914Y-134794550D01*
X73351337Y-134684018D01*
X73492018Y-134543337D01*
X73602550Y-134377914D01*
X73678686Y-134194106D01*
X73717500Y-133998976D01*
X73717500Y-133959499D01*
X73927799Y-133959499D01*
X73931688Y-133998982D01*
X73967998Y-134118680D01*
X74026963Y-134228994D01*
X74106315Y-134325685D01*
X74203006Y-134405037D01*
X74313320Y-134464002D01*
X74433018Y-134500312D01*
X74557500Y-134512572D01*
X76107500Y-134512572D01*
X76231982Y-134500312D01*
X76351680Y-134464002D01*
X76461994Y-134405037D01*
X76558685Y-134325685D01*
X76638037Y-134228994D01*
X76697002Y-134118680D01*
X76733312Y-133998982D01*
X76745572Y-133874500D01*
X76745572Y-132874500D01*
X76733312Y-132750018D01*
X76697002Y-132630320D01*
X76640439Y-132524500D01*
X76697002Y-132418680D01*
X76733312Y-132298982D01*
X76745572Y-132174500D01*
X76742500Y-131960250D01*
X76583750Y-131801500D01*
X75459500Y-131801500D01*
X75459500Y-131821500D01*
X75205500Y-131821500D01*
X75205500Y-131801500D01*
X74081250Y-131801500D01*
X73922500Y-131960250D01*
X73919428Y-132174500D01*
X73931688Y-132298982D01*
X73967998Y-132418680D01*
X73979126Y-132439499D01*
X71435874Y-132439499D01*
X71447002Y-132418680D01*
X71483312Y-132298982D01*
X71495572Y-132174500D01*
X71492500Y-131960250D01*
X71333750Y-131801500D01*
X70209500Y-131801500D01*
X70209500Y-131821500D01*
X69955500Y-131821500D01*
X69955500Y-131801500D01*
X68831250Y-131801500D01*
X68672500Y-131960250D01*
X68669428Y-132174500D01*
X68681688Y-132298982D01*
X68717998Y-132418680D01*
X68774561Y-132524500D01*
X68717998Y-132630320D01*
X68681688Y-132750018D01*
X68669428Y-132874500D01*
X68669428Y-133874500D01*
X68681688Y-133998982D01*
X68717998Y-134118680D01*
X68776963Y-134228994D01*
X68856315Y-134325685D01*
X68953006Y-134405037D01*
X69063320Y-134464002D01*
X69183018Y-134500312D01*
X69293050Y-134511149D01*
X68831502Y-134972697D01*
X68802499Y-134996499D01*
X68767620Y-135039000D01*
X68707526Y-135112224D01*
X68667030Y-135187986D01*
X68636954Y-135244254D01*
X68593497Y-135387515D01*
X68582500Y-135499168D01*
X68582500Y-135499178D01*
X68578824Y-135536500D01*
X68582500Y-135573823D01*
X68582501Y-140528199D01*
X67901435Y-141209265D01*
X67889537Y-141187006D01*
X67810185Y-141090315D01*
X67713494Y-141010963D01*
X67603180Y-140951998D01*
X67483482Y-140915688D01*
X67359000Y-140903428D01*
X66885370Y-140903428D01*
X66847756Y-140878295D01*
X66659398Y-140800274D01*
X66459439Y-140760500D01*
X66255561Y-140760500D01*
X66055602Y-140800274D01*
X65867244Y-140878295D01*
X65829630Y-140903428D01*
X65359000Y-140903428D01*
X65234518Y-140915688D01*
X65114820Y-140951998D01*
X65004506Y-141010963D01*
X64907815Y-141090315D01*
X64828463Y-141187006D01*
X64769498Y-141297320D01*
X64733188Y-141417018D01*
X64720928Y-141541500D01*
X64720928Y-142241500D01*
X64733188Y-142365982D01*
X64769498Y-142485680D01*
X64791317Y-142526500D01*
X64769498Y-142567320D01*
X64733188Y-142687018D01*
X64720928Y-142811500D01*
X64720928Y-143511500D01*
X64733188Y-143635982D01*
X64769498Y-143755680D01*
X64791317Y-143796500D01*
X64769498Y-143837320D01*
X64733188Y-143957018D01*
X64720928Y-144081500D01*
X64720928Y-144781500D01*
X64733188Y-144905982D01*
X64769498Y-145025680D01*
X64791317Y-145066500D01*
X64769498Y-145107320D01*
X64733188Y-145227018D01*
X64720928Y-145351500D01*
X64720928Y-146051500D01*
X64733188Y-146175982D01*
X64769498Y-146295680D01*
X64791317Y-146336500D01*
X64769498Y-146377320D01*
X64733188Y-146497018D01*
X64720928Y-146621500D01*
X64720928Y-147321500D01*
X64733188Y-147445982D01*
X64769498Y-147565680D01*
X64791317Y-147606500D01*
X64769498Y-147647320D01*
X64733188Y-147767018D01*
X64720928Y-147891500D01*
X64720928Y-148591500D01*
X64733188Y-148715982D01*
X64769498Y-148835680D01*
X64791317Y-148876500D01*
X64769498Y-148917320D01*
X64733188Y-149037018D01*
X64720928Y-149161500D01*
X64720928Y-149861500D01*
X64733188Y-149985982D01*
X64769498Y-150105680D01*
X64791317Y-150146500D01*
X64769498Y-150187320D01*
X64733188Y-150307018D01*
X64720928Y-150431500D01*
X64720928Y-151131500D01*
X64733188Y-151255982D01*
X64769498Y-151375680D01*
X64828463Y-151485994D01*
X64907815Y-151582685D01*
X65004506Y-151662037D01*
X65114820Y-151721002D01*
X65234518Y-151757312D01*
X65359000Y-151769572D01*
X67359000Y-151769572D01*
X67483482Y-151757312D01*
X67603180Y-151721002D01*
X67713494Y-151662037D01*
X67810185Y-151582685D01*
X67889537Y-151485994D01*
X67948502Y-151375680D01*
X67984812Y-151255982D01*
X67997072Y-151131500D01*
X67997072Y-150473924D01*
X68151102Y-150537726D01*
X68351061Y-150577500D01*
X68554939Y-150577500D01*
X68754898Y-150537726D01*
X68943256Y-150459705D01*
X69112774Y-150346437D01*
X69256937Y-150202274D01*
X69370205Y-150032756D01*
X69448226Y-149844398D01*
X69488000Y-149644439D01*
X69488000Y-149440561D01*
X69448226Y-149240602D01*
X69370205Y-149052244D01*
X69336299Y-149001500D01*
X69593908Y-149001500D01*
X69631230Y-149005176D01*
X69668552Y-149001500D01*
X69668563Y-149001500D01*
X69780216Y-148990503D01*
X69923477Y-148947046D01*
X70055506Y-148876474D01*
X70171231Y-148781501D01*
X70195034Y-148752497D01*
X71683000Y-147264531D01*
X71683000Y-147361440D01*
X71773694Y-147817387D01*
X71951595Y-148246879D01*
X72209868Y-148633412D01*
X72538588Y-148962132D01*
X72925121Y-149220405D01*
X73354613Y-149398306D01*
X73810560Y-149489000D01*
X74275440Y-149489000D01*
X74731387Y-149398306D01*
X75160879Y-149220405D01*
X75547412Y-148962132D01*
X75876132Y-148633412D01*
X76134405Y-148246879D01*
X76312306Y-147817387D01*
X76403000Y-147361440D01*
X76403000Y-146896560D01*
X76312306Y-146440613D01*
X76143468Y-146033000D01*
X82431928Y-146033000D01*
X82435000Y-146272250D01*
X82593750Y-146431000D01*
X83693000Y-146431000D01*
X83693000Y-145556750D01*
X83534250Y-145398000D01*
X83070000Y-145394928D01*
X82945518Y-145407188D01*
X82825820Y-145443498D01*
X82715506Y-145502463D01*
X82618815Y-145581815D01*
X82539463Y-145678506D01*
X82480498Y-145788820D01*
X82444188Y-145908518D01*
X82431928Y-146033000D01*
X76143468Y-146033000D01*
X76134405Y-146011121D01*
X75876132Y-145624588D01*
X75547412Y-145295868D01*
X75160879Y-145037595D01*
X74731387Y-144859694D01*
X74275440Y-144769000D01*
X74178532Y-144769000D01*
X74645032Y-144302500D01*
X81702928Y-144302500D01*
X81715188Y-144426982D01*
X81751498Y-144546680D01*
X81810463Y-144656994D01*
X81889815Y-144753685D01*
X81986506Y-144833037D01*
X82096820Y-144892002D01*
X82216518Y-144928312D01*
X82341000Y-144940572D01*
X82505250Y-144937500D01*
X82664000Y-144778750D01*
X82664000Y-143954500D01*
X81864750Y-143954500D01*
X81706000Y-144113250D01*
X81702928Y-144302500D01*
X74645032Y-144302500D01*
X75595032Y-143352500D01*
X81702928Y-143352500D01*
X81706000Y-143541750D01*
X81864750Y-143700500D01*
X82664000Y-143700500D01*
X82664000Y-142876250D01*
X82505250Y-142717500D01*
X82341000Y-142714428D01*
X82216518Y-142726688D01*
X82096820Y-142762998D01*
X81986506Y-142821963D01*
X81889815Y-142901315D01*
X81810463Y-142998006D01*
X81751498Y-143108320D01*
X81715188Y-143228018D01*
X81702928Y-143352500D01*
X75595032Y-143352500D01*
X77718032Y-141229500D01*
X81783000Y-141229500D01*
X81783000Y-141246502D01*
X81862748Y-141246502D01*
X81783000Y-141326250D01*
X81795914Y-141436432D01*
X81835557Y-141555068D01*
X81897583Y-141663690D01*
X81979608Y-141758125D01*
X82078480Y-141834743D01*
X82190400Y-141890599D01*
X82311066Y-141923548D01*
X82386250Y-141929500D01*
X82545000Y-141770750D01*
X82545000Y-141282572D01*
X82791000Y-141282572D01*
X82791000Y-141770750D01*
X82949750Y-141929500D01*
X83024934Y-141923548D01*
X83145600Y-141890599D01*
X83257520Y-141834743D01*
X83356392Y-141758125D01*
X83438417Y-141663690D01*
X83500443Y-141555068D01*
X83540086Y-141436432D01*
X83553000Y-141326250D01*
X83394250Y-141167500D01*
X83281678Y-141167500D01*
X83369185Y-141095685D01*
X83389033Y-141071500D01*
X83394250Y-141071500D01*
X83553000Y-140912750D01*
X83540086Y-140802568D01*
X83536699Y-140792431D01*
X83543812Y-140768982D01*
X83556072Y-140644500D01*
X83556072Y-140294500D01*
X83543812Y-140170018D01*
X83536071Y-140144500D01*
X83543812Y-140118982D01*
X83556072Y-139994500D01*
X83556072Y-139644500D01*
X83543812Y-139520018D01*
X83536071Y-139494500D01*
X83543812Y-139468982D01*
X83556072Y-139344500D01*
X83556072Y-138994500D01*
X83543812Y-138870018D01*
X83507502Y-138750320D01*
X83448537Y-138640006D01*
X83369185Y-138543315D01*
X83272494Y-138463963D01*
X83162180Y-138404998D01*
X83042482Y-138368688D01*
X82918000Y-138356428D01*
X82418000Y-138356428D01*
X82293518Y-138368688D01*
X82173820Y-138404998D01*
X82165397Y-138409500D01*
X79709211Y-138409500D01*
X79590274Y-138290563D01*
X79466711Y-138208001D01*
X79818212Y-137856500D01*
X83759199Y-137856500D01*
X83958001Y-138055302D01*
X83958000Y-138614981D01*
X83937463Y-138640006D01*
X83878498Y-138750320D01*
X83842188Y-138870018D01*
X83829928Y-138994500D01*
X83829928Y-139344500D01*
X83842188Y-139468982D01*
X83849929Y-139494500D01*
X83842188Y-139520018D01*
X83829928Y-139644500D01*
X83829928Y-139994500D01*
X83842188Y-140118982D01*
X83849301Y-140142431D01*
X83845914Y-140152568D01*
X83833000Y-140262750D01*
X83991750Y-140421500D01*
X83996967Y-140421500D01*
X84016815Y-140445685D01*
X84045834Y-140469500D01*
X84016815Y-140493315D01*
X83996967Y-140517500D01*
X83991750Y-140517500D01*
X83833000Y-140676250D01*
X83845914Y-140786432D01*
X83849301Y-140796569D01*
X83842188Y-140820018D01*
X83829928Y-140944500D01*
X83829928Y-141294500D01*
X83842188Y-141418982D01*
X83878498Y-141538680D01*
X83937463Y-141648994D01*
X83958000Y-141674019D01*
X83958001Y-142729990D01*
X83947623Y-142731012D01*
X83785717Y-142780125D01*
X83639649Y-142858200D01*
X83595494Y-142821963D01*
X83485180Y-142762998D01*
X83365482Y-142726688D01*
X83241000Y-142714428D01*
X83076750Y-142717500D01*
X82918000Y-142876250D01*
X82918000Y-143700500D01*
X82938000Y-143700500D01*
X82938000Y-143954500D01*
X82918000Y-143954500D01*
X82918000Y-144778750D01*
X83076750Y-144937500D01*
X83241000Y-144940572D01*
X83365482Y-144928312D01*
X83485180Y-144892002D01*
X83595494Y-144833037D01*
X83639649Y-144796800D01*
X83785717Y-144874875D01*
X83947623Y-144923988D01*
X84116000Y-144940572D01*
X84393500Y-144940572D01*
X84393500Y-145396096D01*
X84105750Y-145398000D01*
X83947000Y-145556750D01*
X83947000Y-146431000D01*
X83967000Y-146431000D01*
X83967000Y-146668000D01*
X83538021Y-146668000D01*
X83367600Y-146684785D01*
X83366891Y-146685000D01*
X82593750Y-146685000D01*
X82435000Y-146843750D01*
X82431928Y-147083000D01*
X82436705Y-147131500D01*
X77888323Y-147131500D01*
X77851000Y-147127824D01*
X77813677Y-147131500D01*
X77813667Y-147131500D01*
X77702014Y-147142497D01*
X77558753Y-147185954D01*
X77426724Y-147256526D01*
X77310999Y-147351499D01*
X77287201Y-147380497D01*
X72386199Y-152281500D01*
X64727072Y-152281500D01*
X64727072Y-152041500D01*
X64714812Y-151917018D01*
X64678502Y-151797320D01*
X64619537Y-151687006D01*
X64540185Y-151590315D01*
X64443494Y-151510963D01*
X64333180Y-151451998D01*
X64213482Y-151415688D01*
X64089000Y-151403428D01*
X63389000Y-151403428D01*
X63264518Y-151415688D01*
X63144820Y-151451998D01*
X63104000Y-151473817D01*
X63063180Y-151451998D01*
X62943482Y-151415688D01*
X62819000Y-151403428D01*
X62119000Y-151403428D01*
X61994518Y-151415688D01*
X61874820Y-151451998D01*
X61834000Y-151473817D01*
X61793180Y-151451998D01*
X61673482Y-151415688D01*
X61549000Y-151403428D01*
X60849000Y-151403428D01*
X60724518Y-151415688D01*
X60604820Y-151451998D01*
X60564000Y-151473817D01*
X60523180Y-151451998D01*
X60403482Y-151415688D01*
X60279000Y-151403428D01*
X59579000Y-151403428D01*
X59454518Y-151415688D01*
X59334820Y-151451998D01*
X59294000Y-151473817D01*
X59253180Y-151451998D01*
X59133482Y-151415688D01*
X59009000Y-151403428D01*
X58309000Y-151403428D01*
X58184518Y-151415688D01*
X58064820Y-151451998D01*
X58024000Y-151473817D01*
X57983180Y-151451998D01*
X57863482Y-151415688D01*
X57739000Y-151403428D01*
X57039000Y-151403428D01*
X56914518Y-151415688D01*
X56794820Y-151451998D01*
X56754000Y-151473817D01*
X56713180Y-151451998D01*
X56593482Y-151415688D01*
X56469000Y-151403428D01*
X55769000Y-151403428D01*
X55644518Y-151415688D01*
X55524820Y-151451998D01*
X55484000Y-151473817D01*
X55443180Y-151451998D01*
X55323482Y-151415688D01*
X55199000Y-151403428D01*
X54499000Y-151403428D01*
X54374518Y-151415688D01*
X54254820Y-151451998D01*
X54144506Y-151510963D01*
X54047815Y-151590315D01*
X53968463Y-151687006D01*
X53909498Y-151797320D01*
X53873188Y-151917018D01*
X53860928Y-152041500D01*
X53860928Y-154041500D01*
X53873188Y-154165982D01*
X53909498Y-154285680D01*
X53968463Y-154395994D01*
X54047815Y-154492685D01*
X54144506Y-154572037D01*
X54254820Y-154631002D01*
X54374518Y-154667312D01*
X54499000Y-154679572D01*
X55199000Y-154679572D01*
X55323482Y-154667312D01*
X55359000Y-154656538D01*
X55359001Y-165555668D01*
X55355324Y-165593000D01*
X55369998Y-165741985D01*
X55413454Y-165885246D01*
X55484026Y-166017276D01*
X55555201Y-166104002D01*
X55579000Y-166133001D01*
X55607998Y-166156799D01*
X55860199Y-166409000D01*
X55733740Y-166409000D01*
X55513592Y-166452790D01*
X51242500Y-162181699D01*
X51242500Y-151767947D01*
X51259000Y-151769572D01*
X53259000Y-151769572D01*
X53383482Y-151757312D01*
X53503180Y-151721002D01*
X53613494Y-151662037D01*
X53710185Y-151582685D01*
X53789537Y-151485994D01*
X53848502Y-151375680D01*
X53884812Y-151255982D01*
X53897072Y-151131500D01*
X53897072Y-150431500D01*
X53884812Y-150307018D01*
X53848502Y-150187320D01*
X53826683Y-150146500D01*
X53848502Y-150105680D01*
X53884812Y-149985982D01*
X53897072Y-149861500D01*
X53897072Y-149161500D01*
X53884812Y-149037018D01*
X53848502Y-148917320D01*
X53826683Y-148876500D01*
X53848502Y-148835680D01*
X53884812Y-148715982D01*
X53897072Y-148591500D01*
X53897072Y-147891500D01*
X53884812Y-147767018D01*
X53848502Y-147647320D01*
X53826683Y-147606500D01*
X53848502Y-147565680D01*
X53884812Y-147445982D01*
X53897072Y-147321500D01*
X53897072Y-146621500D01*
X53884812Y-146497018D01*
X53848502Y-146377320D01*
X53826683Y-146336500D01*
X53848502Y-146295680D01*
X53884812Y-146175982D01*
X53897072Y-146051500D01*
X53897072Y-145351500D01*
X53884812Y-145227018D01*
X53848502Y-145107320D01*
X53826683Y-145066500D01*
X53848502Y-145025680D01*
X53884812Y-144905982D01*
X53897072Y-144781500D01*
X53897072Y-144081500D01*
X53884812Y-143957018D01*
X53848502Y-143837320D01*
X53826683Y-143796500D01*
X53848502Y-143755680D01*
X53884812Y-143635982D01*
X53897072Y-143511500D01*
X53897072Y-142811500D01*
X53884812Y-142687018D01*
X53848502Y-142567320D01*
X53826683Y-142526500D01*
X53848502Y-142485680D01*
X53884812Y-142365982D01*
X53897072Y-142241500D01*
X53894000Y-142177250D01*
X53735250Y-142018500D01*
X52386000Y-142018500D01*
X52386000Y-142033517D01*
X52314752Y-142026500D01*
X52132000Y-142026500D01*
X52132000Y-142018500D01*
X52112000Y-142018500D01*
X52112000Y-141764500D01*
X52132000Y-141764500D01*
X52132000Y-141065250D01*
X52386000Y-141065250D01*
X52386000Y-141764500D01*
X53735250Y-141764500D01*
X53894000Y-141605750D01*
X53897072Y-141541500D01*
X53884812Y-141417018D01*
X53848502Y-141297320D01*
X53789537Y-141187006D01*
X53710185Y-141090315D01*
X53613494Y-141010963D01*
X53503180Y-140951998D01*
X53383482Y-140915688D01*
X53259000Y-140903428D01*
X52544750Y-140906500D01*
X52386000Y-141065250D01*
X52132000Y-141065250D01*
X51973250Y-140906500D01*
X51259000Y-140903428D01*
X51134518Y-140915688D01*
X51014820Y-140951998D01*
X50904506Y-141010963D01*
X50807815Y-141090315D01*
X50728463Y-141187006D01*
X50669498Y-141297320D01*
X50633188Y-141417018D01*
X50620928Y-141541500D01*
X50624000Y-141605750D01*
X50782748Y-141764498D01*
X50624000Y-141764498D01*
X50624000Y-141805369D01*
X50574535Y-141755904D01*
X50499300Y-141615149D01*
X50535537Y-141570994D01*
X50594502Y-141460680D01*
X50630812Y-141340982D01*
X50643072Y-141216500D01*
X50640000Y-141052250D01*
X50481250Y-140893500D01*
X49657000Y-140893500D01*
X49657000Y-140913500D01*
X49403000Y-140913500D01*
X49403000Y-140893500D01*
X48578750Y-140893500D01*
X48420000Y-141052250D01*
X48417583Y-141181500D01*
X48175500Y-141181500D01*
X48175500Y-140316500D01*
X48416928Y-140316500D01*
X48420000Y-140480750D01*
X48578750Y-140639500D01*
X49403000Y-140639500D01*
X49403000Y-139840250D01*
X49657000Y-139840250D01*
X49657000Y-140639500D01*
X50481250Y-140639500D01*
X50640000Y-140480750D01*
X50643072Y-140316500D01*
X50630812Y-140192018D01*
X50594502Y-140072320D01*
X50535537Y-139962006D01*
X50456185Y-139865315D01*
X50359494Y-139785963D01*
X50249180Y-139726998D01*
X50129482Y-139690688D01*
X50005000Y-139678428D01*
X49815750Y-139681500D01*
X49657000Y-139840250D01*
X49403000Y-139840250D01*
X49244250Y-139681500D01*
X49055000Y-139678428D01*
X48930518Y-139690688D01*
X48810820Y-139726998D01*
X48700506Y-139785963D01*
X48603815Y-139865315D01*
X48524463Y-139962006D01*
X48465498Y-140072320D01*
X48429188Y-140192018D01*
X48416928Y-140316500D01*
X48175500Y-140316500D01*
X48175500Y-139992631D01*
X49912141Y-138255991D01*
X49955449Y-138220449D01*
X50097284Y-138047623D01*
X50202676Y-137850447D01*
X50267577Y-137636499D01*
X50284000Y-137469752D01*
X50284000Y-137469743D01*
X50289490Y-137414001D01*
X50284000Y-137358259D01*
X50284000Y-132989683D01*
X50353494Y-132952537D01*
X50450185Y-132873185D01*
X50529537Y-132776494D01*
X50588502Y-132666180D01*
X50624812Y-132546482D01*
X50637072Y-132422000D01*
X50637072Y-130722000D01*
X50624812Y-130597518D01*
X50588502Y-130477820D01*
X50575770Y-130454000D01*
X50863500Y-130454000D01*
X50863500Y-136652000D01*
G37*
%TD.AperFunction*%
D24*
X50633188Y-146497018D02*
X50620928Y-146621500D01*
X50620928Y-147321500D01*
X50633188Y-147445982D01*
X50643962Y-147481500D01*
X49472823Y-147481500D01*
X49435500Y-147477824D01*
X49398178Y-147481500D01*
X49398167Y-147481500D01*
X49286514Y-147492497D01*
X49143253Y-147535954D01*
X49011224Y-147606526D01*
X48895499Y-147701499D01*
X48880849Y-147719349D01*
X48862999Y-147733999D01*
X48831251Y-147772685D01*
X48768026Y-147849724D01*
X48700003Y-147976985D01*
X48697454Y-147981754D01*
X48653997Y-148125015D01*
X48643000Y-148236668D01*
X48643000Y-148236678D01*
X48639324Y-148274000D01*
X48643000Y-148311323D01*
X48643001Y-153093288D01*
X48599063Y-153137226D01*
X48569500Y-153181470D01*
X48569500Y-149344251D01*
X48574991Y-149288499D01*
X48553077Y-149066000D01*
X48524410Y-148971499D01*
X48488176Y-148852053D01*
X48382784Y-148654877D01*
X48240949Y-148482051D01*
X48197635Y-148446504D01*
X47521996Y-147770865D01*
X47486449Y-147727551D01*
X47313623Y-147585716D01*
X47116447Y-147480324D01*
X46902499Y-147415423D01*
X46735752Y-147399000D01*
X46735751Y-147399000D01*
X46680000Y-147393509D01*
X46624249Y-147399000D01*
X42656500Y-147399000D01*
X42656500Y-146585063D01*
X42753244Y-146649705D01*
X42941602Y-146727726D01*
X43141561Y-146767500D01*
X43345439Y-146767500D01*
X43545398Y-146727726D01*
X43733756Y-146649705D01*
X43903274Y-146536437D01*
X43978211Y-146461500D01*
X50643962Y-146461500D01*
X50633188Y-146497018D01*
%TA.AperFunction,Conductor*%
D25*
G36*
X50633188Y-146497018D02*
G01*
X50620928Y-146621500D01*
X50620928Y-147321500D01*
X50633188Y-147445982D01*
X50643962Y-147481500D01*
X49472823Y-147481500D01*
X49435500Y-147477824D01*
X49398178Y-147481500D01*
X49398167Y-147481500D01*
X49286514Y-147492497D01*
X49143253Y-147535954D01*
X49011224Y-147606526D01*
X48895499Y-147701499D01*
X48880849Y-147719349D01*
X48862999Y-147733999D01*
X48831251Y-147772685D01*
X48768026Y-147849724D01*
X48700003Y-147976985D01*
X48697454Y-147981754D01*
X48653997Y-148125015D01*
X48643000Y-148236668D01*
X48643000Y-148236678D01*
X48639324Y-148274000D01*
X48643000Y-148311323D01*
X48643001Y-153093288D01*
X48599063Y-153137226D01*
X48569500Y-153181470D01*
X48569500Y-149344251D01*
X48574991Y-149288499D01*
X48553077Y-149066000D01*
X48524410Y-148971499D01*
X48488176Y-148852053D01*
X48382784Y-148654877D01*
X48240949Y-148482051D01*
X48197635Y-148446504D01*
X47521996Y-147770865D01*
X47486449Y-147727551D01*
X47313623Y-147585716D01*
X47116447Y-147480324D01*
X46902499Y-147415423D01*
X46735752Y-147399000D01*
X46735751Y-147399000D01*
X46680000Y-147393509D01*
X46624249Y-147399000D01*
X42656500Y-147399000D01*
X42656500Y-146585063D01*
X42753244Y-146649705D01*
X42941602Y-146727726D01*
X43141561Y-146767500D01*
X43345439Y-146767500D01*
X43545398Y-146727726D01*
X43733756Y-146649705D01*
X43903274Y-146536437D01*
X43978211Y-146461500D01*
X50643962Y-146461500D01*
X50633188Y-146497018D01*
G37*
%TD.AperFunction*%
D24*
X37988731Y-130474412D02*
X37793822Y-130690645D01*
X37644843Y-130940748D01*
X37547519Y-131215109D01*
X37668186Y-131445000D01*
X38862000Y-131445000D01*
X38862000Y-131425000D01*
X39116000Y-131425000D01*
X39116000Y-131445000D01*
X39136000Y-131445000D01*
X39136000Y-131699000D01*
X39116000Y-131699000D01*
X39116000Y-132892155D01*
X39345890Y-133013476D01*
X39493099Y-132968825D01*
X39755920Y-132843641D01*
X39989269Y-132669588D01*
X40184178Y-132453355D01*
X40253805Y-132336466D01*
X40375525Y-132518632D01*
X40582368Y-132725475D01*
X40825589Y-132887990D01*
X41095842Y-132999932D01*
X41382740Y-133057000D01*
X41675260Y-133057000D01*
X41962158Y-132999932D01*
X42232411Y-132887990D01*
X42475632Y-132725475D01*
X42682475Y-132518632D01*
X42799000Y-132344240D01*
X42915525Y-132518632D01*
X43122368Y-132725475D01*
X43365589Y-132887990D01*
X43635842Y-132999932D01*
X43922740Y-133057000D01*
X44215260Y-133057000D01*
X44502158Y-132999932D01*
X44772411Y-132887990D01*
X45015632Y-132725475D01*
X45222475Y-132518632D01*
X45339000Y-132344240D01*
X45455525Y-132518632D01*
X45662368Y-132725475D01*
X45905589Y-132887990D01*
X46175842Y-132999932D01*
X46462740Y-133057000D01*
X46755260Y-133057000D01*
X47042158Y-132999932D01*
X47312411Y-132887990D01*
X47555632Y-132725475D01*
X47687487Y-132593620D01*
X47709498Y-132666180D01*
X47768463Y-132776494D01*
X47847815Y-132873185D01*
X47944506Y-132952537D01*
X48014000Y-132989683D01*
X48014001Y-136943867D01*
X46277365Y-138680504D01*
X46234051Y-138716051D01*
X46092216Y-138888877D01*
X46003424Y-139054998D01*
X45986824Y-139086054D01*
X45921923Y-139300002D01*
X45900009Y-139522500D01*
X45905500Y-139578252D01*
X45905501Y-141181500D01*
X41635241Y-141181500D01*
X41579499Y-141176010D01*
X41523758Y-141181500D01*
X41523748Y-141181500D01*
X41357001Y-141197923D01*
X41143053Y-141262824D01*
X40945877Y-141368216D01*
X40773051Y-141510051D01*
X40746907Y-141541907D01*
X40715051Y-141568051D01*
X40573216Y-141740877D01*
X40496715Y-141884002D01*
X40467824Y-141938054D01*
X40402923Y-142152002D01*
X40381009Y-142374500D01*
X40386500Y-142430252D01*
X40386501Y-148478238D01*
X40381009Y-148534000D01*
X40386500Y-148589752D01*
X40386501Y-150749500D01*
X40096776Y-150749500D01*
X40093008Y-150711246D01*
X40042472Y-150544650D01*
X39960405Y-150391114D01*
X39849962Y-150256538D01*
X39715386Y-150146095D01*
X39561850Y-150064028D01*
X39395254Y-150013492D01*
X39222000Y-149996428D01*
X33422000Y-149996428D01*
X33248746Y-150013492D01*
X33082150Y-150064028D01*
X32928614Y-150146095D01*
X32794038Y-150256538D01*
X32683595Y-150391114D01*
X32601528Y-150544650D01*
X32550992Y-150711246D01*
X32537000Y-150853309D01*
X32537000Y-147465692D01*
X32546188Y-147558982D01*
X32582498Y-147678680D01*
X32641463Y-147788994D01*
X32720815Y-147885685D01*
X32817506Y-147965037D01*
X32927820Y-148024002D01*
X33047518Y-148060312D01*
X33172000Y-148072572D01*
X36036250Y-148069500D01*
X36195000Y-147910750D01*
X36195000Y-146311500D01*
X36449000Y-146311500D01*
X36449000Y-147910750D01*
X36607750Y-148069500D01*
X39472000Y-148072572D01*
X39596482Y-148060312D01*
X39716180Y-148024002D01*
X39826494Y-147965037D01*
X39923185Y-147885685D01*
X40002537Y-147788994D01*
X40061502Y-147678680D01*
X40097812Y-147558982D01*
X40110072Y-147434500D01*
X40107000Y-146470250D01*
X39948250Y-146311500D01*
X36449000Y-146311500D01*
X36195000Y-146311500D01*
X36175000Y-146311500D01*
X36175000Y-146057500D01*
X36195000Y-146057500D01*
X36195000Y-146037500D01*
X36449000Y-146037500D01*
X36449000Y-146057500D01*
X39948250Y-146057500D01*
X40107000Y-145898750D01*
X40110072Y-144934500D01*
X40097812Y-144810018D01*
X40061502Y-144690320D01*
X40002537Y-144580006D01*
X39923185Y-144483315D01*
X39826494Y-144403963D01*
X39716180Y-144344998D01*
X39596482Y-144308688D01*
X39472000Y-144296428D01*
X36607750Y-144299500D01*
X36449002Y-144458248D01*
X36449002Y-144299500D01*
X36376100Y-144299500D01*
X36388808Y-144264413D01*
X35433000Y-143308605D01*
X34477192Y-144264413D01*
X34489299Y-144297841D01*
X33172000Y-144296428D01*
X33047518Y-144308688D01*
X32927820Y-144344998D01*
X32817506Y-144403963D01*
X32720815Y-144483315D01*
X32641463Y-144580006D01*
X32582498Y-144690320D01*
X32546188Y-144810018D01*
X32537000Y-144903308D01*
X32537000Y-143191595D01*
X33791282Y-143191595D01*
X33835039Y-143510675D01*
X33940205Y-143815088D01*
X34033186Y-143989044D01*
X34297587Y-144084808D01*
X35253395Y-143129000D01*
X35612605Y-143129000D01*
X36568413Y-144084808D01*
X36832814Y-143989044D01*
X36973704Y-143699429D01*
X37055384Y-143387892D01*
X37074718Y-143066405D01*
X37030961Y-142747325D01*
X36925795Y-142442912D01*
X36832814Y-142268956D01*
X36568413Y-142173192D01*
X35612605Y-143129000D01*
X35253395Y-143129000D01*
X34297587Y-142173192D01*
X34033186Y-142268956D01*
X33892296Y-142558571D01*
X33810616Y-142870108D01*
X33791282Y-143191595D01*
X32537000Y-143191595D01*
X32537000Y-141993587D01*
X34477192Y-141993587D01*
X35433000Y-142949395D01*
X36388808Y-141993587D01*
X36293044Y-141729186D01*
X36003429Y-141588296D01*
X35691892Y-141506616D01*
X35370405Y-141487282D01*
X35051325Y-141531039D01*
X34746912Y-141636205D01*
X34572956Y-141729186D01*
X34477192Y-141993587D01*
X32537000Y-141993587D01*
X32537000Y-133276404D01*
X32690369Y-133646669D01*
X32934962Y-134012729D01*
X33246271Y-134324038D01*
X33612331Y-134568631D01*
X34019075Y-134737110D01*
X34450872Y-134823000D01*
X34891128Y-134823000D01*
X35322925Y-134737110D01*
X35729669Y-134568631D01*
X36095729Y-134324038D01*
X36407038Y-134012729D01*
X36651631Y-133646669D01*
X36820110Y-133239925D01*
X36906000Y-132808128D01*
X36906000Y-132367872D01*
X36820110Y-131936075D01*
X36817135Y-131928891D01*
X37547519Y-131928891D01*
X37644843Y-132203252D01*
X37793822Y-132453355D01*
X37988731Y-132669588D01*
X38222080Y-132843641D01*
X38484901Y-132968825D01*
X38632110Y-133013476D01*
X38862000Y-132892155D01*
X38862000Y-131699000D01*
X37668186Y-131699000D01*
X37547519Y-131928891D01*
X36817135Y-131928891D01*
X36651631Y-131529331D01*
X36407038Y-131163271D01*
X36095729Y-130851962D01*
X35729669Y-130607369D01*
X35359404Y-130454000D01*
X38016097Y-130454000D01*
X37988731Y-130474412D01*
%TA.AperFunction,Conductor*%
D25*
G36*
X37988731Y-130474412D02*
G01*
X37793822Y-130690645D01*
X37644843Y-130940748D01*
X37547519Y-131215109D01*
X37668186Y-131445000D01*
X38862000Y-131445000D01*
X38862000Y-131425000D01*
X39116000Y-131425000D01*
X39116000Y-131445000D01*
X39136000Y-131445000D01*
X39136000Y-131699000D01*
X39116000Y-131699000D01*
X39116000Y-132892155D01*
X39345890Y-133013476D01*
X39493099Y-132968825D01*
X39755920Y-132843641D01*
X39989269Y-132669588D01*
X40184178Y-132453355D01*
X40253805Y-132336466D01*
X40375525Y-132518632D01*
X40582368Y-132725475D01*
X40825589Y-132887990D01*
X41095842Y-132999932D01*
X41382740Y-133057000D01*
X41675260Y-133057000D01*
X41962158Y-132999932D01*
X42232411Y-132887990D01*
X42475632Y-132725475D01*
X42682475Y-132518632D01*
X42799000Y-132344240D01*
X42915525Y-132518632D01*
X43122368Y-132725475D01*
X43365589Y-132887990D01*
X43635842Y-132999932D01*
X43922740Y-133057000D01*
X44215260Y-133057000D01*
X44502158Y-132999932D01*
X44772411Y-132887990D01*
X45015632Y-132725475D01*
X45222475Y-132518632D01*
X45339000Y-132344240D01*
X45455525Y-132518632D01*
X45662368Y-132725475D01*
X45905589Y-132887990D01*
X46175842Y-132999932D01*
X46462740Y-133057000D01*
X46755260Y-133057000D01*
X47042158Y-132999932D01*
X47312411Y-132887990D01*
X47555632Y-132725475D01*
X47687487Y-132593620D01*
X47709498Y-132666180D01*
X47768463Y-132776494D01*
X47847815Y-132873185D01*
X47944506Y-132952537D01*
X48014000Y-132989683D01*
X48014001Y-136943867D01*
X46277365Y-138680504D01*
X46234051Y-138716051D01*
X46092216Y-138888877D01*
X46003424Y-139054998D01*
X45986824Y-139086054D01*
X45921923Y-139300002D01*
X45900009Y-139522500D01*
X45905500Y-139578252D01*
X45905501Y-141181500D01*
X41635241Y-141181500D01*
X41579499Y-141176010D01*
X41523758Y-141181500D01*
X41523748Y-141181500D01*
X41357001Y-141197923D01*
X41143053Y-141262824D01*
X40945877Y-141368216D01*
X40773051Y-141510051D01*
X40746907Y-141541907D01*
X40715051Y-141568051D01*
X40573216Y-141740877D01*
X40496715Y-141884002D01*
X40467824Y-141938054D01*
X40402923Y-142152002D01*
X40381009Y-142374500D01*
X40386500Y-142430252D01*
X40386501Y-148478238D01*
X40381009Y-148534000D01*
X40386500Y-148589752D01*
X40386501Y-150749500D01*
X40096776Y-150749500D01*
X40093008Y-150711246D01*
X40042472Y-150544650D01*
X39960405Y-150391114D01*
X39849962Y-150256538D01*
X39715386Y-150146095D01*
X39561850Y-150064028D01*
X39395254Y-150013492D01*
X39222000Y-149996428D01*
X33422000Y-149996428D01*
X33248746Y-150013492D01*
X33082150Y-150064028D01*
X32928614Y-150146095D01*
X32794038Y-150256538D01*
X32683595Y-150391114D01*
X32601528Y-150544650D01*
X32550992Y-150711246D01*
X32537000Y-150853309D01*
X32537000Y-147465692D01*
X32546188Y-147558982D01*
X32582498Y-147678680D01*
X32641463Y-147788994D01*
X32720815Y-147885685D01*
X32817506Y-147965037D01*
X32927820Y-148024002D01*
X33047518Y-148060312D01*
X33172000Y-148072572D01*
X36036250Y-148069500D01*
X36195000Y-147910750D01*
X36195000Y-146311500D01*
X36449000Y-146311500D01*
X36449000Y-147910750D01*
X36607750Y-148069500D01*
X39472000Y-148072572D01*
X39596482Y-148060312D01*
X39716180Y-148024002D01*
X39826494Y-147965037D01*
X39923185Y-147885685D01*
X40002537Y-147788994D01*
X40061502Y-147678680D01*
X40097812Y-147558982D01*
X40110072Y-147434500D01*
X40107000Y-146470250D01*
X39948250Y-146311500D01*
X36449000Y-146311500D01*
X36195000Y-146311500D01*
X36175000Y-146311500D01*
X36175000Y-146057500D01*
X36195000Y-146057500D01*
X36195000Y-146037500D01*
X36449000Y-146037500D01*
X36449000Y-146057500D01*
X39948250Y-146057500D01*
X40107000Y-145898750D01*
X40110072Y-144934500D01*
X40097812Y-144810018D01*
X40061502Y-144690320D01*
X40002537Y-144580006D01*
X39923185Y-144483315D01*
X39826494Y-144403963D01*
X39716180Y-144344998D01*
X39596482Y-144308688D01*
X39472000Y-144296428D01*
X36607750Y-144299500D01*
X36449002Y-144458248D01*
X36449002Y-144299500D01*
X36376100Y-144299500D01*
X36388808Y-144264413D01*
X35433000Y-143308605D01*
X34477192Y-144264413D01*
X34489299Y-144297841D01*
X33172000Y-144296428D01*
X33047518Y-144308688D01*
X32927820Y-144344998D01*
X32817506Y-144403963D01*
X32720815Y-144483315D01*
X32641463Y-144580006D01*
X32582498Y-144690320D01*
X32546188Y-144810018D01*
X32537000Y-144903308D01*
X32537000Y-143191595D01*
X33791282Y-143191595D01*
X33835039Y-143510675D01*
X33940205Y-143815088D01*
X34033186Y-143989044D01*
X34297587Y-144084808D01*
X35253395Y-143129000D01*
X35612605Y-143129000D01*
X36568413Y-144084808D01*
X36832814Y-143989044D01*
X36973704Y-143699429D01*
X37055384Y-143387892D01*
X37074718Y-143066405D01*
X37030961Y-142747325D01*
X36925795Y-142442912D01*
X36832814Y-142268956D01*
X36568413Y-142173192D01*
X35612605Y-143129000D01*
X35253395Y-143129000D01*
X34297587Y-142173192D01*
X34033186Y-142268956D01*
X33892296Y-142558571D01*
X33810616Y-142870108D01*
X33791282Y-143191595D01*
X32537000Y-143191595D01*
X32537000Y-141993587D01*
X34477192Y-141993587D01*
X35433000Y-142949395D01*
X36388808Y-141993587D01*
X36293044Y-141729186D01*
X36003429Y-141588296D01*
X35691892Y-141506616D01*
X35370405Y-141487282D01*
X35051325Y-141531039D01*
X34746912Y-141636205D01*
X34572956Y-141729186D01*
X34477192Y-141993587D01*
X32537000Y-141993587D01*
X32537000Y-133276404D01*
X32690369Y-133646669D01*
X32934962Y-134012729D01*
X33246271Y-134324038D01*
X33612331Y-134568631D01*
X34019075Y-134737110D01*
X34450872Y-134823000D01*
X34891128Y-134823000D01*
X35322925Y-134737110D01*
X35729669Y-134568631D01*
X36095729Y-134324038D01*
X36407038Y-134012729D01*
X36651631Y-133646669D01*
X36820110Y-133239925D01*
X36906000Y-132808128D01*
X36906000Y-132367872D01*
X36820110Y-131936075D01*
X36817135Y-131928891D01*
X37547519Y-131928891D01*
X37644843Y-132203252D01*
X37793822Y-132453355D01*
X37988731Y-132669588D01*
X38222080Y-132843641D01*
X38484901Y-132968825D01*
X38632110Y-133013476D01*
X38862000Y-132892155D01*
X38862000Y-131699000D01*
X37668186Y-131699000D01*
X37547519Y-131928891D01*
X36817135Y-131928891D01*
X36651631Y-131529331D01*
X36407038Y-131163271D01*
X36095729Y-130851962D01*
X35729669Y-130607369D01*
X35359404Y-130454000D01*
X38016097Y-130454000D01*
X37988731Y-130474412D01*
G37*
%TD.AperFunction*%
%TD*%
D24*
%TO.N,GND*%
X46299500Y-164472749D02*
X46294009Y-164528500D01*
X46299500Y-164584251D01*
X46315923Y-164750998D01*
X46380824Y-164964946D01*
X46486216Y-165162123D01*
X46628051Y-165334949D01*
X46671365Y-165370496D01*
X49315000Y-168014132D01*
X49315000Y-168040260D01*
X49372068Y-168327158D01*
X49445318Y-168504000D01*
X35359404Y-168504000D01*
X35729669Y-168350631D01*
X36095729Y-168106038D01*
X36407038Y-167794729D01*
X36651631Y-167428669D01*
X36820110Y-167021925D01*
X36906000Y-166590128D01*
X36906000Y-166149872D01*
X36820110Y-165718075D01*
X36651631Y-165311331D01*
X36407038Y-164945271D01*
X36095729Y-164633962D01*
X35729669Y-164389369D01*
X35322925Y-164220890D01*
X34891128Y-164135000D01*
X34450872Y-164135000D01*
X34019075Y-164220890D01*
X33612331Y-164389369D01*
X33246271Y-164633962D01*
X32934962Y-164945271D01*
X32690369Y-165311331D01*
X32537000Y-165681596D01*
X32537000Y-152915691D01*
X32550992Y-153057754D01*
X32601528Y-153224350D01*
X32683595Y-153377886D01*
X32794038Y-153512462D01*
X32928614Y-153622905D01*
X33082150Y-153704972D01*
X33248746Y-153755508D01*
X33422000Y-153772572D01*
X35058796Y-153772572D01*
X34669864Y-154161505D01*
X34634012Y-154190928D01*
X34433000Y-154190928D01*
X34308518Y-154203188D01*
X34188820Y-154239498D01*
X34078506Y-154298463D01*
X33981815Y-154377815D01*
X33902463Y-154474506D01*
X33843498Y-154584820D01*
X33807188Y-154704518D01*
X33794928Y-154829000D01*
X33794928Y-156829000D01*
X33807188Y-156953482D01*
X33843498Y-157073180D01*
X33902463Y-157183494D01*
X33981815Y-157280185D01*
X34078506Y-157359537D01*
X34188820Y-157418502D01*
X34298001Y-157451622D01*
X34298000Y-159583248D01*
X34292509Y-159639000D01*
X34298000Y-159694751D01*
X34314423Y-159861498D01*
X34379324Y-160075446D01*
X34484716Y-160272623D01*
X34626551Y-160445449D01*
X34669864Y-160480995D01*
X35522008Y-161333140D01*
X35557551Y-161376449D01*
X35682495Y-161478988D01*
X35730377Y-161518284D01*
X35927553Y-161623676D01*
X36141501Y-161688577D01*
X36364000Y-161710491D01*
X36419752Y-161705000D01*
X37904333Y-161705000D01*
X38064243Y-161753508D01*
X38237497Y-161770572D01*
X38991000Y-161770572D01*
X38991000Y-162268667D01*
X38987323Y-162306000D01*
X39001997Y-162454986D01*
X39045454Y-162598247D01*
X39116026Y-162730276D01*
X39210999Y-162846001D01*
X39326724Y-162940974D01*
X39458753Y-163011546D01*
X39602014Y-163055003D01*
X39751000Y-163069677D01*
X39788333Y-163066000D01*
X44820178Y-163066000D01*
X44857500Y-163069676D01*
X44894822Y-163066000D01*
X44894833Y-163066000D01*
X45006486Y-163055003D01*
X45149747Y-163011546D01*
X45281776Y-162940974D01*
X45397501Y-162846001D01*
X45405840Y-162835840D01*
X45416001Y-162827501D01*
X45510974Y-162711776D01*
X45581546Y-162579747D01*
X45625003Y-162436486D01*
X45636000Y-162324833D01*
X45636000Y-162324822D01*
X45639676Y-162287500D01*
X45636000Y-162250177D01*
X45636000Y-161585401D01*
X45657890Y-161544448D01*
X45699890Y-161405991D01*
X45714072Y-161262000D01*
X45714072Y-160012000D01*
X45699890Y-159868009D01*
X45657890Y-159729552D01*
X45589684Y-159601949D01*
X45497896Y-159490104D01*
X45463627Y-159461981D01*
X45466812Y-159451482D01*
X45479072Y-159327000D01*
X45479072Y-157647000D01*
X45470505Y-157560013D01*
X45534003Y-157506263D01*
X45611874Y-157408375D01*
X45669151Y-157297175D01*
X45703634Y-157176939D01*
X45713998Y-157052285D01*
X45711000Y-156622750D01*
X45552250Y-156464000D01*
X44949000Y-156464000D01*
X44949000Y-156484000D01*
X44922250Y-156484000D01*
X44902250Y-156464000D01*
X44729000Y-156464000D01*
X44729000Y-156210000D01*
X44902250Y-156210000D01*
X44949000Y-156163250D01*
X44949000Y-156210000D01*
X45552250Y-156210000D01*
X45711000Y-156051250D01*
X45713998Y-155621715D01*
X45703634Y-155497061D01*
X45669151Y-155376825D01*
X45611874Y-155265625D01*
X45534003Y-155167737D01*
X45438531Y-155086922D01*
X45329127Y-155026285D01*
X45209996Y-154988156D01*
X45107750Y-154977000D01*
X44949000Y-155135750D01*
X44949000Y-155249442D01*
X44884003Y-155167737D01*
X44788531Y-155086922D01*
X44711450Y-155044200D01*
X44696000Y-155028750D01*
X44696000Y-154820748D01*
X44679577Y-154654001D01*
X44614676Y-154440053D01*
X44509284Y-154242877D01*
X44442667Y-154161704D01*
X44761387Y-154098306D01*
X45190879Y-153920405D01*
X45577412Y-153662132D01*
X45906132Y-153333412D01*
X46164405Y-152946879D01*
X46299501Y-152620728D01*
X46299500Y-164472749D01*
%TA.AperFunction,Conductor*%
D25*
G36*
X46299500Y-164472749D02*
G01*
X46294009Y-164528500D01*
X46299500Y-164584251D01*
X46315923Y-164750998D01*
X46380824Y-164964946D01*
X46486216Y-165162123D01*
X46628051Y-165334949D01*
X46671365Y-165370496D01*
X49315000Y-168014132D01*
X49315000Y-168040260D01*
X49372068Y-168327158D01*
X49445318Y-168504000D01*
X35359404Y-168504000D01*
X35729669Y-168350631D01*
X36095729Y-168106038D01*
X36407038Y-167794729D01*
X36651631Y-167428669D01*
X36820110Y-167021925D01*
X36906000Y-166590128D01*
X36906000Y-166149872D01*
X36820110Y-165718075D01*
X36651631Y-165311331D01*
X36407038Y-164945271D01*
X36095729Y-164633962D01*
X35729669Y-164389369D01*
X35322925Y-164220890D01*
X34891128Y-164135000D01*
X34450872Y-164135000D01*
X34019075Y-164220890D01*
X33612331Y-164389369D01*
X33246271Y-164633962D01*
X32934962Y-164945271D01*
X32690369Y-165311331D01*
X32537000Y-165681596D01*
X32537000Y-152915691D01*
X32550992Y-153057754D01*
X32601528Y-153224350D01*
X32683595Y-153377886D01*
X32794038Y-153512462D01*
X32928614Y-153622905D01*
X33082150Y-153704972D01*
X33248746Y-153755508D01*
X33422000Y-153772572D01*
X35058796Y-153772572D01*
X34669864Y-154161505D01*
X34634012Y-154190928D01*
X34433000Y-154190928D01*
X34308518Y-154203188D01*
X34188820Y-154239498D01*
X34078506Y-154298463D01*
X33981815Y-154377815D01*
X33902463Y-154474506D01*
X33843498Y-154584820D01*
X33807188Y-154704518D01*
X33794928Y-154829000D01*
X33794928Y-156829000D01*
X33807188Y-156953482D01*
X33843498Y-157073180D01*
X33902463Y-157183494D01*
X33981815Y-157280185D01*
X34078506Y-157359537D01*
X34188820Y-157418502D01*
X34298001Y-157451622D01*
X34298000Y-159583248D01*
X34292509Y-159639000D01*
X34298000Y-159694751D01*
X34314423Y-159861498D01*
X34379324Y-160075446D01*
X34484716Y-160272623D01*
X34626551Y-160445449D01*
X34669864Y-160480995D01*
X35522008Y-161333140D01*
X35557551Y-161376449D01*
X35682495Y-161478988D01*
X35730377Y-161518284D01*
X35927553Y-161623676D01*
X36141501Y-161688577D01*
X36364000Y-161710491D01*
X36419752Y-161705000D01*
X37904333Y-161705000D01*
X38064243Y-161753508D01*
X38237497Y-161770572D01*
X38991000Y-161770572D01*
X38991000Y-162268667D01*
X38987323Y-162306000D01*
X39001997Y-162454986D01*
X39045454Y-162598247D01*
X39116026Y-162730276D01*
X39210999Y-162846001D01*
X39326724Y-162940974D01*
X39458753Y-163011546D01*
X39602014Y-163055003D01*
X39751000Y-163069677D01*
X39788333Y-163066000D01*
X44820178Y-163066000D01*
X44857500Y-163069676D01*
X44894822Y-163066000D01*
X44894833Y-163066000D01*
X45006486Y-163055003D01*
X45149747Y-163011546D01*
X45281776Y-162940974D01*
X45397501Y-162846001D01*
X45405840Y-162835840D01*
X45416001Y-162827501D01*
X45510974Y-162711776D01*
X45581546Y-162579747D01*
X45625003Y-162436486D01*
X45636000Y-162324833D01*
X45636000Y-162324822D01*
X45639676Y-162287500D01*
X45636000Y-162250177D01*
X45636000Y-161585401D01*
X45657890Y-161544448D01*
X45699890Y-161405991D01*
X45714072Y-161262000D01*
X45714072Y-160012000D01*
X45699890Y-159868009D01*
X45657890Y-159729552D01*
X45589684Y-159601949D01*
X45497896Y-159490104D01*
X45463627Y-159461981D01*
X45466812Y-159451482D01*
X45479072Y-159327000D01*
X45479072Y-157647000D01*
X45470505Y-157560013D01*
X45534003Y-157506263D01*
X45611874Y-157408375D01*
X45669151Y-157297175D01*
X45703634Y-157176939D01*
X45713998Y-157052285D01*
X45711000Y-156622750D01*
X45552250Y-156464000D01*
X44949000Y-156464000D01*
X44949000Y-156484000D01*
X44922250Y-156484000D01*
X44902250Y-156464000D01*
X44729000Y-156464000D01*
X44729000Y-156210000D01*
X44902250Y-156210000D01*
X44949000Y-156163250D01*
X44949000Y-156210000D01*
X45552250Y-156210000D01*
X45711000Y-156051250D01*
X45713998Y-155621715D01*
X45703634Y-155497061D01*
X45669151Y-155376825D01*
X45611874Y-155265625D01*
X45534003Y-155167737D01*
X45438531Y-155086922D01*
X45329127Y-155026285D01*
X45209996Y-154988156D01*
X45107750Y-154977000D01*
X44949000Y-155135750D01*
X44949000Y-155249442D01*
X44884003Y-155167737D01*
X44788531Y-155086922D01*
X44711450Y-155044200D01*
X44696000Y-155028750D01*
X44696000Y-154820748D01*
X44679577Y-154654001D01*
X44614676Y-154440053D01*
X44509284Y-154242877D01*
X44442667Y-154161704D01*
X44761387Y-154098306D01*
X45190879Y-153920405D01*
X45577412Y-153662132D01*
X45906132Y-153333412D01*
X46164405Y-152946879D01*
X46299501Y-152620728D01*
X46299500Y-164472749D01*
G37*
%TD.AperFunction*%
D24*
X83015331Y-130607369D02*
X82649271Y-130851962D01*
X82337962Y-131163271D01*
X82093369Y-131529331D01*
X81924890Y-131936075D01*
X81839000Y-132367872D01*
X81839000Y-132808128D01*
X81924890Y-133239925D01*
X82093369Y-133646669D01*
X82337962Y-134012729D01*
X82649271Y-134324038D01*
X83015331Y-134568631D01*
X83422075Y-134737110D01*
X83853872Y-134823000D01*
X84294128Y-134823000D01*
X84725925Y-134737110D01*
X85132669Y-134568631D01*
X85498729Y-134324038D01*
X85810038Y-134012729D01*
X86054631Y-133646669D01*
X86208001Y-133276402D01*
X86208000Y-165681596D01*
X86054631Y-165311331D01*
X85810038Y-164945271D01*
X85498729Y-164633962D01*
X85132669Y-164389369D01*
X84725925Y-164220890D01*
X84294128Y-164135000D01*
X83853872Y-164135000D01*
X83422075Y-164220890D01*
X83015331Y-164389369D01*
X82649271Y-164633962D01*
X82337962Y-164945271D01*
X82093369Y-165311331D01*
X81924890Y-165718075D01*
X81839000Y-166149872D01*
X81839000Y-166590128D01*
X81924890Y-167021925D01*
X82093369Y-167428669D01*
X82337962Y-167794729D01*
X82649271Y-168106038D01*
X83015331Y-168350631D01*
X83385596Y-168504000D01*
X70068072Y-168504000D01*
X70068072Y-167044000D01*
X70055812Y-166919518D01*
X70019502Y-166799820D01*
X69960537Y-166689506D01*
X69881185Y-166592815D01*
X69784494Y-166513463D01*
X69674180Y-166454498D01*
X69554482Y-166418188D01*
X69430000Y-166405928D01*
X68166730Y-166405928D01*
X60689000Y-158928199D01*
X60689000Y-154656538D01*
X60724518Y-154667312D01*
X60849000Y-154679572D01*
X61549000Y-154679572D01*
X61673482Y-154667312D01*
X61709000Y-154656538D01*
X61709000Y-154760677D01*
X61705324Y-154798000D01*
X61709000Y-154835322D01*
X61709000Y-154835332D01*
X61719997Y-154946985D01*
X61761404Y-155083488D01*
X61763454Y-155090246D01*
X61834026Y-155222276D01*
X61851933Y-155244095D01*
X61928999Y-155338001D01*
X61958003Y-155361804D01*
X62047196Y-155450997D01*
X62070999Y-155480001D01*
X62186724Y-155574974D01*
X62318753Y-155645546D01*
X62462014Y-155689003D01*
X62573667Y-155700000D01*
X62573677Y-155700000D01*
X62610999Y-155703676D01*
X62648322Y-155700000D01*
X72162178Y-155700000D01*
X72199500Y-155703676D01*
X72236822Y-155700000D01*
X72236833Y-155700000D01*
X72348486Y-155689003D01*
X72491747Y-155645546D01*
X72623776Y-155574974D01*
X72739501Y-155480001D01*
X72763304Y-155450997D01*
X78356302Y-149858000D01*
X82718091Y-149858000D01*
X82770788Y-149922212D01*
X82947421Y-150067171D01*
X83148940Y-150174885D01*
X83367600Y-150241215D01*
X83538021Y-150258000D01*
X84101979Y-150258000D01*
X84272400Y-150241215D01*
X84491060Y-150174885D01*
X84692579Y-150067171D01*
X84869212Y-149922212D01*
X84921909Y-149858000D01*
X85116167Y-149858000D01*
X85153500Y-149861677D01*
X85302486Y-149847003D01*
X85445747Y-149803546D01*
X85577776Y-149732974D01*
X85693501Y-149638001D01*
X85788474Y-149522276D01*
X85859046Y-149390247D01*
X85902503Y-149246986D01*
X85913500Y-149135333D01*
X85917177Y-149098000D01*
X85913500Y-149060667D01*
X85913500Y-144309323D01*
X85917176Y-144272000D01*
X85913500Y-144234677D01*
X85913500Y-144234667D01*
X85902503Y-144123014D01*
X85859046Y-143979753D01*
X85849923Y-143962685D01*
X85788474Y-143847723D01*
X85745305Y-143795123D01*
X85693501Y-143731999D01*
X85664498Y-143708197D01*
X85474964Y-143518663D01*
X85478000Y-143487833D01*
X85481677Y-143450500D01*
X85478000Y-143413167D01*
X85478000Y-141910979D01*
X85492986Y-141909503D01*
X85636247Y-141866046D01*
X85768276Y-141795474D01*
X85884001Y-141700501D01*
X85978974Y-141584776D01*
X86049546Y-141452747D01*
X86093003Y-141309486D01*
X86104000Y-141197833D01*
X86107677Y-141160500D01*
X86104000Y-141123167D01*
X86104000Y-139982823D01*
X86107676Y-139945500D01*
X86104000Y-139908178D01*
X86104000Y-139908167D01*
X86093003Y-139796514D01*
X86049546Y-139653253D01*
X85978974Y-139521224D01*
X85884001Y-139405499D01*
X85854998Y-139381697D01*
X85781804Y-139308503D01*
X85758001Y-139279499D01*
X85642276Y-139184526D01*
X85606072Y-139165174D01*
X85606072Y-138994500D01*
X85593812Y-138870018D01*
X85557502Y-138750320D01*
X85498537Y-138640006D01*
X85478000Y-138614982D01*
X85478000Y-137777833D01*
X85481677Y-137740500D01*
X85467003Y-137591514D01*
X85423546Y-137448253D01*
X85352974Y-137316224D01*
X85281799Y-137229497D01*
X85258001Y-137200499D01*
X85229002Y-137176700D01*
X84637803Y-136585502D01*
X84614001Y-136556499D01*
X84498276Y-136461526D01*
X84366247Y-136390954D01*
X84222986Y-136347497D01*
X84111333Y-136336500D01*
X84111322Y-136336500D01*
X84074000Y-136332824D01*
X84036678Y-136336500D01*
X80701802Y-136336500D01*
X81435503Y-135602799D01*
X81464501Y-135579001D01*
X81559474Y-135463276D01*
X81630046Y-135331247D01*
X81673503Y-135187986D01*
X81684500Y-135076333D01*
X81688177Y-135039000D01*
X81684500Y-135001667D01*
X81684500Y-131598143D01*
X81749115Y-131545115D01*
X81855671Y-131415275D01*
X81934850Y-131267142D01*
X81983608Y-131106408D01*
X82000072Y-130939250D01*
X82000072Y-130454000D01*
X83385596Y-130454000D01*
X83015331Y-130607369D01*
%TA.AperFunction,Conductor*%
D25*
G36*
X83015331Y-130607369D02*
G01*
X82649271Y-130851962D01*
X82337962Y-131163271D01*
X82093369Y-131529331D01*
X81924890Y-131936075D01*
X81839000Y-132367872D01*
X81839000Y-132808128D01*
X81924890Y-133239925D01*
X82093369Y-133646669D01*
X82337962Y-134012729D01*
X82649271Y-134324038D01*
X83015331Y-134568631D01*
X83422075Y-134737110D01*
X83853872Y-134823000D01*
X84294128Y-134823000D01*
X84725925Y-134737110D01*
X85132669Y-134568631D01*
X85498729Y-134324038D01*
X85810038Y-134012729D01*
X86054631Y-133646669D01*
X86208001Y-133276402D01*
X86208000Y-165681596D01*
X86054631Y-165311331D01*
X85810038Y-164945271D01*
X85498729Y-164633962D01*
X85132669Y-164389369D01*
X84725925Y-164220890D01*
X84294128Y-164135000D01*
X83853872Y-164135000D01*
X83422075Y-164220890D01*
X83015331Y-164389369D01*
X82649271Y-164633962D01*
X82337962Y-164945271D01*
X82093369Y-165311331D01*
X81924890Y-165718075D01*
X81839000Y-166149872D01*
X81839000Y-166590128D01*
X81924890Y-167021925D01*
X82093369Y-167428669D01*
X82337962Y-167794729D01*
X82649271Y-168106038D01*
X83015331Y-168350631D01*
X83385596Y-168504000D01*
X70068072Y-168504000D01*
X70068072Y-167044000D01*
X70055812Y-166919518D01*
X70019502Y-166799820D01*
X69960537Y-166689506D01*
X69881185Y-166592815D01*
X69784494Y-166513463D01*
X69674180Y-166454498D01*
X69554482Y-166418188D01*
X69430000Y-166405928D01*
X68166730Y-166405928D01*
X60689000Y-158928199D01*
X60689000Y-154656538D01*
X60724518Y-154667312D01*
X60849000Y-154679572D01*
X61549000Y-154679572D01*
X61673482Y-154667312D01*
X61709000Y-154656538D01*
X61709000Y-154760677D01*
X61705324Y-154798000D01*
X61709000Y-154835322D01*
X61709000Y-154835332D01*
X61719997Y-154946985D01*
X61761404Y-155083488D01*
X61763454Y-155090246D01*
X61834026Y-155222276D01*
X61851933Y-155244095D01*
X61928999Y-155338001D01*
X61958003Y-155361804D01*
X62047196Y-155450997D01*
X62070999Y-155480001D01*
X62186724Y-155574974D01*
X62318753Y-155645546D01*
X62462014Y-155689003D01*
X62573667Y-155700000D01*
X62573677Y-155700000D01*
X62610999Y-155703676D01*
X62648322Y-155700000D01*
X72162178Y-155700000D01*
X72199500Y-155703676D01*
X72236822Y-155700000D01*
X72236833Y-155700000D01*
X72348486Y-155689003D01*
X72491747Y-155645546D01*
X72623776Y-155574974D01*
X72739501Y-155480001D01*
X72763304Y-155450997D01*
X78356302Y-149858000D01*
X82718091Y-149858000D01*
X82770788Y-149922212D01*
X82947421Y-150067171D01*
X83148940Y-150174885D01*
X83367600Y-150241215D01*
X83538021Y-150258000D01*
X84101979Y-150258000D01*
X84272400Y-150241215D01*
X84491060Y-150174885D01*
X84692579Y-150067171D01*
X84869212Y-149922212D01*
X84921909Y-149858000D01*
X85116167Y-149858000D01*
X85153500Y-149861677D01*
X85302486Y-149847003D01*
X85445747Y-149803546D01*
X85577776Y-149732974D01*
X85693501Y-149638001D01*
X85788474Y-149522276D01*
X85859046Y-149390247D01*
X85902503Y-149246986D01*
X85913500Y-149135333D01*
X85917177Y-149098000D01*
X85913500Y-149060667D01*
X85913500Y-144309323D01*
X85917176Y-144272000D01*
X85913500Y-144234677D01*
X85913500Y-144234667D01*
X85902503Y-144123014D01*
X85859046Y-143979753D01*
X85849923Y-143962685D01*
X85788474Y-143847723D01*
X85745305Y-143795123D01*
X85693501Y-143731999D01*
X85664498Y-143708197D01*
X85474964Y-143518663D01*
X85478000Y-143487833D01*
X85481677Y-143450500D01*
X85478000Y-143413167D01*
X85478000Y-141910979D01*
X85492986Y-141909503D01*
X85636247Y-141866046D01*
X85768276Y-141795474D01*
X85884001Y-141700501D01*
X85978974Y-141584776D01*
X86049546Y-141452747D01*
X86093003Y-141309486D01*
X86104000Y-141197833D01*
X86107677Y-141160500D01*
X86104000Y-141123167D01*
X86104000Y-139982823D01*
X86107676Y-139945500D01*
X86104000Y-139908178D01*
X86104000Y-139908167D01*
X86093003Y-139796514D01*
X86049546Y-139653253D01*
X85978974Y-139521224D01*
X85884001Y-139405499D01*
X85854998Y-139381697D01*
X85781804Y-139308503D01*
X85758001Y-139279499D01*
X85642276Y-139184526D01*
X85606072Y-139165174D01*
X85606072Y-138994500D01*
X85593812Y-138870018D01*
X85557502Y-138750320D01*
X85498537Y-138640006D01*
X85478000Y-138614982D01*
X85478000Y-137777833D01*
X85481677Y-137740500D01*
X85467003Y-137591514D01*
X85423546Y-137448253D01*
X85352974Y-137316224D01*
X85281799Y-137229497D01*
X85258001Y-137200499D01*
X85229002Y-137176700D01*
X84637803Y-136585502D01*
X84614001Y-136556499D01*
X84498276Y-136461526D01*
X84366247Y-136390954D01*
X84222986Y-136347497D01*
X84111333Y-136336500D01*
X84111322Y-136336500D01*
X84074000Y-136332824D01*
X84036678Y-136336500D01*
X80701802Y-136336500D01*
X81435503Y-135602799D01*
X81464501Y-135579001D01*
X81559474Y-135463276D01*
X81630046Y-135331247D01*
X81673503Y-135187986D01*
X81684500Y-135076333D01*
X81688177Y-135039000D01*
X81684500Y-135001667D01*
X81684500Y-131598143D01*
X81749115Y-131545115D01*
X81855671Y-131415275D01*
X81934850Y-131267142D01*
X81983608Y-131106408D01*
X82000072Y-130939250D01*
X82000072Y-130454000D01*
X83385596Y-130454000D01*
X83015331Y-130607369D01*
G37*
%TD.AperFunction*%
D24*
X53467000Y-167767000D02*
X53487000Y-167767000D01*
X53487000Y-168021000D01*
X53467000Y-168021000D01*
X53467000Y-168041000D01*
X53213000Y-168041000D01*
X53213000Y-168021000D01*
X53193000Y-168021000D01*
X53193000Y-167767000D01*
X53213000Y-167767000D01*
X53213000Y-167747000D01*
X53467000Y-167747000D01*
X53467000Y-167767000D01*
%TA.AperFunction,Conductor*%
D25*
G36*
X53467000Y-167767000D02*
G01*
X53487000Y-167767000D01*
X53487000Y-168021000D01*
X53467000Y-168021000D01*
X53467000Y-168041000D01*
X53213000Y-168041000D01*
X53213000Y-168021000D01*
X53193000Y-168021000D01*
X53193000Y-167767000D01*
X53213000Y-167767000D01*
X53213000Y-167747000D01*
X53467000Y-167747000D01*
X53467000Y-167767000D01*
G37*
%TD.AperFunction*%
D24*
X48599063Y-154456774D02*
X48743226Y-154600937D01*
X48912744Y-154714205D01*
X49101102Y-154792226D01*
X49301061Y-154832000D01*
X49504939Y-154832000D01*
X49704898Y-154792226D01*
X49722500Y-154784935D01*
X49722501Y-162459168D01*
X49718824Y-162496500D01*
X49733498Y-162645485D01*
X49776954Y-162788746D01*
X49847526Y-162920776D01*
X49906837Y-162993046D01*
X49942500Y-163036501D01*
X49971498Y-163060299D01*
X53320199Y-166409000D01*
X53212998Y-166409000D01*
X53212998Y-166573844D01*
X52983110Y-166452524D01*
X52835901Y-166497175D01*
X52573080Y-166622359D01*
X52339731Y-166796412D01*
X52144822Y-167012645D01*
X52075195Y-167129534D01*
X51953475Y-166947368D01*
X51746632Y-166740525D01*
X51503411Y-166578010D01*
X51233158Y-166466068D01*
X50946260Y-166409000D01*
X50920132Y-166409000D01*
X48569500Y-164058369D01*
X48569500Y-154412530D01*
X48599063Y-154456774D01*
%TA.AperFunction,Conductor*%
D25*
G36*
X48599063Y-154456774D02*
G01*
X48743226Y-154600937D01*
X48912744Y-154714205D01*
X49101102Y-154792226D01*
X49301061Y-154832000D01*
X49504939Y-154832000D01*
X49704898Y-154792226D01*
X49722500Y-154784935D01*
X49722501Y-162459168D01*
X49718824Y-162496500D01*
X49733498Y-162645485D01*
X49776954Y-162788746D01*
X49847526Y-162920776D01*
X49906837Y-162993046D01*
X49942500Y-163036501D01*
X49971498Y-163060299D01*
X53320199Y-166409000D01*
X53212998Y-166409000D01*
X53212998Y-166573844D01*
X52983110Y-166452524D01*
X52835901Y-166497175D01*
X52573080Y-166622359D01*
X52339731Y-166796412D01*
X52144822Y-167012645D01*
X52075195Y-167129534D01*
X51953475Y-166947368D01*
X51746632Y-166740525D01*
X51503411Y-166578010D01*
X51233158Y-166466068D01*
X50946260Y-166409000D01*
X50920132Y-166409000D01*
X48569500Y-164058369D01*
X48569500Y-154412530D01*
X48599063Y-154456774D01*
G37*
%TD.AperFunction*%
D24*
X50863500Y-136652000D02*
X50865940Y-136676776D01*
X50873167Y-136700601D01*
X50884903Y-136722557D01*
X50900697Y-136741803D01*
X50919943Y-136757597D01*
X50941899Y-136769333D01*
X50965724Y-136776560D01*
X50990500Y-136779000D01*
X67627500Y-136779000D01*
X67652276Y-136776560D01*
X67676101Y-136769333D01*
X67698057Y-136757597D01*
X67717303Y-136741803D01*
X67733097Y-136722557D01*
X67744833Y-136700601D01*
X67752060Y-136676776D01*
X67754500Y-136652000D01*
X67754500Y-131174500D01*
X68669428Y-131174500D01*
X68672500Y-131388750D01*
X68831250Y-131547500D01*
X69955500Y-131547500D01*
X69955500Y-130698250D01*
X70209500Y-130698250D01*
X70209500Y-131547500D01*
X71333750Y-131547500D01*
X71492500Y-131388750D01*
X71495572Y-131174500D01*
X71483312Y-131050018D01*
X71447002Y-130930320D01*
X71388037Y-130820006D01*
X71308685Y-130723315D01*
X71211994Y-130643963D01*
X71101680Y-130584998D01*
X70981982Y-130548688D01*
X70857500Y-130536428D01*
X70368250Y-130539500D01*
X70209500Y-130698250D01*
X69955500Y-130698250D01*
X69796750Y-130539500D01*
X69307500Y-130536428D01*
X69183018Y-130548688D01*
X69063320Y-130584998D01*
X68953006Y-130643963D01*
X68856315Y-130723315D01*
X68776963Y-130820006D01*
X68717998Y-130930320D01*
X68681688Y-131050018D01*
X68669428Y-131174500D01*
X67754500Y-131174500D01*
X67754500Y-130454000D01*
X71974645Y-130454000D01*
X71922982Y-130505663D01*
X71812450Y-130671086D01*
X71736314Y-130854894D01*
X71697500Y-131050024D01*
X71697500Y-131248976D01*
X71736314Y-131444106D01*
X71812450Y-131627914D01*
X71922982Y-131793337D01*
X72063663Y-131934018D01*
X72229086Y-132044550D01*
X72412894Y-132120686D01*
X72608024Y-132159500D01*
X72806976Y-132159500D01*
X73002106Y-132120686D01*
X73185914Y-132044550D01*
X73351337Y-131934018D01*
X73492018Y-131793337D01*
X73602550Y-131627914D01*
X73678686Y-131444106D01*
X73717500Y-131248976D01*
X73717500Y-131174500D01*
X73919428Y-131174500D01*
X73922500Y-131388750D01*
X74081250Y-131547500D01*
X75205500Y-131547500D01*
X75205500Y-130698250D01*
X75459500Y-130698250D01*
X75459500Y-131547500D01*
X76583750Y-131547500D01*
X76742500Y-131388750D01*
X76745572Y-131174500D01*
X76743947Y-131158000D01*
X78273928Y-131158000D01*
X78286188Y-131282482D01*
X78322498Y-131402180D01*
X78381463Y-131512494D01*
X78460815Y-131609185D01*
X78557506Y-131688537D01*
X78667820Y-131747502D01*
X78787518Y-131783812D01*
X78912000Y-131796072D01*
X79063750Y-131793000D01*
X79222500Y-131634250D01*
X79222500Y-130810000D01*
X78435750Y-130810000D01*
X78277000Y-130968750D01*
X78273928Y-131158000D01*
X76743947Y-131158000D01*
X76733312Y-131050018D01*
X76697002Y-130930320D01*
X76638037Y-130820006D01*
X76558685Y-130723315D01*
X76461994Y-130643963D01*
X76351680Y-130584998D01*
X76231982Y-130548688D01*
X76107500Y-130536428D01*
X75618250Y-130539500D01*
X75459500Y-130698250D01*
X75205500Y-130698250D01*
X75046750Y-130539500D01*
X74557500Y-130536428D01*
X74433018Y-130548688D01*
X74313320Y-130584998D01*
X74203006Y-130643963D01*
X74106315Y-130723315D01*
X74026963Y-130820006D01*
X73967998Y-130930320D01*
X73931688Y-131050018D01*
X73919428Y-131174500D01*
X73717500Y-131174500D01*
X73717500Y-131050024D01*
X73678686Y-130854894D01*
X73602550Y-130671086D01*
X73492018Y-130505663D01*
X73440355Y-130454000D01*
X78333750Y-130454000D01*
X78435750Y-130556000D01*
X79222500Y-130556000D01*
X79222500Y-130536000D01*
X79476500Y-130536000D01*
X79476500Y-130556000D01*
X79496500Y-130556000D01*
X79496500Y-130810000D01*
X79476500Y-130810000D01*
X79476500Y-131634250D01*
X79635250Y-131793000D01*
X79787000Y-131796072D01*
X79911482Y-131783812D01*
X80031180Y-131747502D01*
X80141494Y-131688537D01*
X80164500Y-131669656D01*
X80164501Y-134724197D01*
X71186199Y-143702500D01*
X69609901Y-143702500D01*
X69568948Y-143680610D01*
X69430491Y-143638610D01*
X69286500Y-143624428D01*
X69026500Y-143624428D01*
X68882509Y-143638610D01*
X68836500Y-143652567D01*
X68790491Y-143638610D01*
X68646500Y-143624428D01*
X68386500Y-143624428D01*
X68242509Y-143638610D01*
X68104052Y-143680610D01*
X68063099Y-143702500D01*
X67964634Y-143702500D01*
X67984812Y-143635982D01*
X67997072Y-143511500D01*
X67997072Y-143263231D01*
X69853503Y-141406801D01*
X69882501Y-141383003D01*
X69977474Y-141267278D01*
X70048046Y-141135249D01*
X70091503Y-140991988D01*
X70102500Y-140880335D01*
X70102500Y-140880326D01*
X70106176Y-140843003D01*
X70102500Y-140805680D01*
X70102500Y-135851301D01*
X70593502Y-135360299D01*
X70622501Y-135336501D01*
X70648832Y-135304417D01*
X70717474Y-135220777D01*
X70788046Y-135088747D01*
X70807232Y-135025498D01*
X70831503Y-134945486D01*
X70842500Y-134833833D01*
X70842500Y-134833824D01*
X70846176Y-134796501D01*
X70842500Y-134759178D01*
X70842500Y-134512572D01*
X70857500Y-134512572D01*
X70981982Y-134500312D01*
X71101680Y-134464002D01*
X71211994Y-134405037D01*
X71308685Y-134325685D01*
X71388037Y-134228994D01*
X71447002Y-134118680D01*
X71483312Y-133998982D01*
X71487201Y-133959499D01*
X71697500Y-133959499D01*
X71697500Y-133998976D01*
X71736314Y-134194106D01*
X71812450Y-134377914D01*
X71922982Y-134543337D01*
X72063663Y-134684018D01*
X72229086Y-134794550D01*
X72412894Y-134870686D01*
X72608024Y-134909500D01*
X72806976Y-134909500D01*
X73002106Y-134870686D01*
X73185914Y-134794550D01*
X73351337Y-134684018D01*
X73492018Y-134543337D01*
X73602550Y-134377914D01*
X73678686Y-134194106D01*
X73717500Y-133998976D01*
X73717500Y-133959499D01*
X73927799Y-133959499D01*
X73931688Y-133998982D01*
X73967998Y-134118680D01*
X74026963Y-134228994D01*
X74106315Y-134325685D01*
X74203006Y-134405037D01*
X74313320Y-134464002D01*
X74433018Y-134500312D01*
X74557500Y-134512572D01*
X76107500Y-134512572D01*
X76231982Y-134500312D01*
X76351680Y-134464002D01*
X76461994Y-134405037D01*
X76558685Y-134325685D01*
X76638037Y-134228994D01*
X76697002Y-134118680D01*
X76733312Y-133998982D01*
X76745572Y-133874500D01*
X76745572Y-132874500D01*
X76733312Y-132750018D01*
X76697002Y-132630320D01*
X76640439Y-132524500D01*
X76697002Y-132418680D01*
X76733312Y-132298982D01*
X76745572Y-132174500D01*
X76742500Y-131960250D01*
X76583750Y-131801500D01*
X75459500Y-131801500D01*
X75459500Y-131821500D01*
X75205500Y-131821500D01*
X75205500Y-131801500D01*
X74081250Y-131801500D01*
X73922500Y-131960250D01*
X73919428Y-132174500D01*
X73931688Y-132298982D01*
X73967998Y-132418680D01*
X73979126Y-132439499D01*
X71435874Y-132439499D01*
X71447002Y-132418680D01*
X71483312Y-132298982D01*
X71495572Y-132174500D01*
X71492500Y-131960250D01*
X71333750Y-131801500D01*
X70209500Y-131801500D01*
X70209500Y-131821500D01*
X69955500Y-131821500D01*
X69955500Y-131801500D01*
X68831250Y-131801500D01*
X68672500Y-131960250D01*
X68669428Y-132174500D01*
X68681688Y-132298982D01*
X68717998Y-132418680D01*
X68774561Y-132524500D01*
X68717998Y-132630320D01*
X68681688Y-132750018D01*
X68669428Y-132874500D01*
X68669428Y-133874500D01*
X68681688Y-133998982D01*
X68717998Y-134118680D01*
X68776963Y-134228994D01*
X68856315Y-134325685D01*
X68953006Y-134405037D01*
X69063320Y-134464002D01*
X69183018Y-134500312D01*
X69293050Y-134511149D01*
X68831502Y-134972697D01*
X68802499Y-134996499D01*
X68767620Y-135039000D01*
X68707526Y-135112224D01*
X68667030Y-135187986D01*
X68636954Y-135244254D01*
X68593497Y-135387515D01*
X68582500Y-135499168D01*
X68582500Y-135499178D01*
X68578824Y-135536500D01*
X68582500Y-135573823D01*
X68582501Y-140528199D01*
X67901435Y-141209265D01*
X67889537Y-141187006D01*
X67810185Y-141090315D01*
X67713494Y-141010963D01*
X67603180Y-140951998D01*
X67483482Y-140915688D01*
X67359000Y-140903428D01*
X66885370Y-140903428D01*
X66847756Y-140878295D01*
X66659398Y-140800274D01*
X66459439Y-140760500D01*
X66255561Y-140760500D01*
X66055602Y-140800274D01*
X65867244Y-140878295D01*
X65829630Y-140903428D01*
X65359000Y-140903428D01*
X65234518Y-140915688D01*
X65114820Y-140951998D01*
X65004506Y-141010963D01*
X64907815Y-141090315D01*
X64828463Y-141187006D01*
X64769498Y-141297320D01*
X64733188Y-141417018D01*
X64720928Y-141541500D01*
X64720928Y-142241500D01*
X64733188Y-142365982D01*
X64769498Y-142485680D01*
X64791317Y-142526500D01*
X64769498Y-142567320D01*
X64733188Y-142687018D01*
X64720928Y-142811500D01*
X64720928Y-143511500D01*
X64733188Y-143635982D01*
X64769498Y-143755680D01*
X64791317Y-143796500D01*
X64769498Y-143837320D01*
X64733188Y-143957018D01*
X64720928Y-144081500D01*
X64720928Y-144781500D01*
X64733188Y-144905982D01*
X64769498Y-145025680D01*
X64791317Y-145066500D01*
X64769498Y-145107320D01*
X64733188Y-145227018D01*
X64720928Y-145351500D01*
X64720928Y-146051500D01*
X64733188Y-146175982D01*
X64769498Y-146295680D01*
X64791317Y-146336500D01*
X64769498Y-146377320D01*
X64733188Y-146497018D01*
X64720928Y-146621500D01*
X64720928Y-147321500D01*
X64733188Y-147445982D01*
X64769498Y-147565680D01*
X64791317Y-147606500D01*
X64769498Y-147647320D01*
X64733188Y-147767018D01*
X64720928Y-147891500D01*
X64720928Y-148591500D01*
X64733188Y-148715982D01*
X64769498Y-148835680D01*
X64791317Y-148876500D01*
X64769498Y-148917320D01*
X64733188Y-149037018D01*
X64720928Y-149161500D01*
X64720928Y-149861500D01*
X64733188Y-149985982D01*
X64769498Y-150105680D01*
X64791317Y-150146500D01*
X64769498Y-150187320D01*
X64733188Y-150307018D01*
X64720928Y-150431500D01*
X64720928Y-151131500D01*
X64733188Y-151255982D01*
X64769498Y-151375680D01*
X64828463Y-151485994D01*
X64907815Y-151582685D01*
X65004506Y-151662037D01*
X65114820Y-151721002D01*
X65234518Y-151757312D01*
X65359000Y-151769572D01*
X67359000Y-151769572D01*
X67483482Y-151757312D01*
X67603180Y-151721002D01*
X67713494Y-151662037D01*
X67810185Y-151582685D01*
X67889537Y-151485994D01*
X67948502Y-151375680D01*
X67984812Y-151255982D01*
X67997072Y-151131500D01*
X67997072Y-150473924D01*
X68151102Y-150537726D01*
X68351061Y-150577500D01*
X68554939Y-150577500D01*
X68754898Y-150537726D01*
X68943256Y-150459705D01*
X69112774Y-150346437D01*
X69256937Y-150202274D01*
X69370205Y-150032756D01*
X69448226Y-149844398D01*
X69488000Y-149644439D01*
X69488000Y-149440561D01*
X69448226Y-149240602D01*
X69370205Y-149052244D01*
X69336299Y-149001500D01*
X69593908Y-149001500D01*
X69631230Y-149005176D01*
X69668552Y-149001500D01*
X69668563Y-149001500D01*
X69780216Y-148990503D01*
X69923477Y-148947046D01*
X70055506Y-148876474D01*
X70171231Y-148781501D01*
X70195034Y-148752497D01*
X71683000Y-147264531D01*
X71683000Y-147361440D01*
X71773694Y-147817387D01*
X71951595Y-148246879D01*
X72209868Y-148633412D01*
X72538588Y-148962132D01*
X72925121Y-149220405D01*
X73354613Y-149398306D01*
X73810560Y-149489000D01*
X74275440Y-149489000D01*
X74731387Y-149398306D01*
X75160879Y-149220405D01*
X75547412Y-148962132D01*
X75876132Y-148633412D01*
X76134405Y-148246879D01*
X76312306Y-147817387D01*
X76403000Y-147361440D01*
X76403000Y-146896560D01*
X76312306Y-146440613D01*
X76143468Y-146033000D01*
X82431928Y-146033000D01*
X82435000Y-146272250D01*
X82593750Y-146431000D01*
X83693000Y-146431000D01*
X83693000Y-145556750D01*
X83534250Y-145398000D01*
X83070000Y-145394928D01*
X82945518Y-145407188D01*
X82825820Y-145443498D01*
X82715506Y-145502463D01*
X82618815Y-145581815D01*
X82539463Y-145678506D01*
X82480498Y-145788820D01*
X82444188Y-145908518D01*
X82431928Y-146033000D01*
X76143468Y-146033000D01*
X76134405Y-146011121D01*
X75876132Y-145624588D01*
X75547412Y-145295868D01*
X75160879Y-145037595D01*
X74731387Y-144859694D01*
X74275440Y-144769000D01*
X74178532Y-144769000D01*
X74645032Y-144302500D01*
X81702928Y-144302500D01*
X81715188Y-144426982D01*
X81751498Y-144546680D01*
X81810463Y-144656994D01*
X81889815Y-144753685D01*
X81986506Y-144833037D01*
X82096820Y-144892002D01*
X82216518Y-144928312D01*
X82341000Y-144940572D01*
X82505250Y-144937500D01*
X82664000Y-144778750D01*
X82664000Y-143954500D01*
X81864750Y-143954500D01*
X81706000Y-144113250D01*
X81702928Y-144302500D01*
X74645032Y-144302500D01*
X75595032Y-143352500D01*
X81702928Y-143352500D01*
X81706000Y-143541750D01*
X81864750Y-143700500D01*
X82664000Y-143700500D01*
X82664000Y-142876250D01*
X82505250Y-142717500D01*
X82341000Y-142714428D01*
X82216518Y-142726688D01*
X82096820Y-142762998D01*
X81986506Y-142821963D01*
X81889815Y-142901315D01*
X81810463Y-142998006D01*
X81751498Y-143108320D01*
X81715188Y-143228018D01*
X81702928Y-143352500D01*
X75595032Y-143352500D01*
X77718032Y-141229500D01*
X81783000Y-141229500D01*
X81783000Y-141246502D01*
X81862748Y-141246502D01*
X81783000Y-141326250D01*
X81795914Y-141436432D01*
X81835557Y-141555068D01*
X81897583Y-141663690D01*
X81979608Y-141758125D01*
X82078480Y-141834743D01*
X82190400Y-141890599D01*
X82311066Y-141923548D01*
X82386250Y-141929500D01*
X82545000Y-141770750D01*
X82545000Y-141282572D01*
X82791000Y-141282572D01*
X82791000Y-141770750D01*
X82949750Y-141929500D01*
X83024934Y-141923548D01*
X83145600Y-141890599D01*
X83257520Y-141834743D01*
X83356392Y-141758125D01*
X83438417Y-141663690D01*
X83500443Y-141555068D01*
X83540086Y-141436432D01*
X83553000Y-141326250D01*
X83394250Y-141167500D01*
X83281678Y-141167500D01*
X83369185Y-141095685D01*
X83389033Y-141071500D01*
X83394250Y-141071500D01*
X83553000Y-140912750D01*
X83540086Y-140802568D01*
X83536699Y-140792431D01*
X83543812Y-140768982D01*
X83556072Y-140644500D01*
X83556072Y-140294500D01*
X83543812Y-140170018D01*
X83536071Y-140144500D01*
X83543812Y-140118982D01*
X83556072Y-139994500D01*
X83556072Y-139644500D01*
X83543812Y-139520018D01*
X83536071Y-139494500D01*
X83543812Y-139468982D01*
X83556072Y-139344500D01*
X83556072Y-138994500D01*
X83543812Y-138870018D01*
X83507502Y-138750320D01*
X83448537Y-138640006D01*
X83369185Y-138543315D01*
X83272494Y-138463963D01*
X83162180Y-138404998D01*
X83042482Y-138368688D01*
X82918000Y-138356428D01*
X82418000Y-138356428D01*
X82293518Y-138368688D01*
X82173820Y-138404998D01*
X82165397Y-138409500D01*
X79709211Y-138409500D01*
X79590274Y-138290563D01*
X79466711Y-138208001D01*
X79818212Y-137856500D01*
X83759199Y-137856500D01*
X83958001Y-138055302D01*
X83958000Y-138614981D01*
X83937463Y-138640006D01*
X83878498Y-138750320D01*
X83842188Y-138870018D01*
X83829928Y-138994500D01*
X83829928Y-139344500D01*
X83842188Y-139468982D01*
X83849929Y-139494500D01*
X83842188Y-139520018D01*
X83829928Y-139644500D01*
X83829928Y-139994500D01*
X83842188Y-140118982D01*
X83849301Y-140142431D01*
X83845914Y-140152568D01*
X83833000Y-140262750D01*
X83991750Y-140421500D01*
X83996967Y-140421500D01*
X84016815Y-140445685D01*
X84045834Y-140469500D01*
X84016815Y-140493315D01*
X83996967Y-140517500D01*
X83991750Y-140517500D01*
X83833000Y-140676250D01*
X83845914Y-140786432D01*
X83849301Y-140796569D01*
X83842188Y-140820018D01*
X83829928Y-140944500D01*
X83829928Y-141294500D01*
X83842188Y-141418982D01*
X83878498Y-141538680D01*
X83937463Y-141648994D01*
X83958000Y-141674019D01*
X83958001Y-142729990D01*
X83947623Y-142731012D01*
X83785717Y-142780125D01*
X83639649Y-142858200D01*
X83595494Y-142821963D01*
X83485180Y-142762998D01*
X83365482Y-142726688D01*
X83241000Y-142714428D01*
X83076750Y-142717500D01*
X82918000Y-142876250D01*
X82918000Y-143700500D01*
X82938000Y-143700500D01*
X82938000Y-143954500D01*
X82918000Y-143954500D01*
X82918000Y-144778750D01*
X83076750Y-144937500D01*
X83241000Y-144940572D01*
X83365482Y-144928312D01*
X83485180Y-144892002D01*
X83595494Y-144833037D01*
X83639649Y-144796800D01*
X83785717Y-144874875D01*
X83947623Y-144923988D01*
X84116000Y-144940572D01*
X84393500Y-144940572D01*
X84393500Y-145396096D01*
X84105750Y-145398000D01*
X83947000Y-145556750D01*
X83947000Y-146431000D01*
X83967000Y-146431000D01*
X83967000Y-146668000D01*
X83538021Y-146668000D01*
X83367600Y-146684785D01*
X83366891Y-146685000D01*
X82593750Y-146685000D01*
X82435000Y-146843750D01*
X82431928Y-147083000D01*
X82436705Y-147131500D01*
X77888323Y-147131500D01*
X77851000Y-147127824D01*
X77813677Y-147131500D01*
X77813667Y-147131500D01*
X77702014Y-147142497D01*
X77558753Y-147185954D01*
X77426724Y-147256526D01*
X77310999Y-147351499D01*
X77287201Y-147380497D01*
X72386199Y-152281500D01*
X64727072Y-152281500D01*
X64727072Y-152041500D01*
X64714812Y-151917018D01*
X64678502Y-151797320D01*
X64619537Y-151687006D01*
X64540185Y-151590315D01*
X64443494Y-151510963D01*
X64333180Y-151451998D01*
X64213482Y-151415688D01*
X64089000Y-151403428D01*
X63389000Y-151403428D01*
X63264518Y-151415688D01*
X63144820Y-151451998D01*
X63104000Y-151473817D01*
X63063180Y-151451998D01*
X62943482Y-151415688D01*
X62819000Y-151403428D01*
X62119000Y-151403428D01*
X61994518Y-151415688D01*
X61874820Y-151451998D01*
X61834000Y-151473817D01*
X61793180Y-151451998D01*
X61673482Y-151415688D01*
X61549000Y-151403428D01*
X60849000Y-151403428D01*
X60724518Y-151415688D01*
X60604820Y-151451998D01*
X60564000Y-151473817D01*
X60523180Y-151451998D01*
X60403482Y-151415688D01*
X60279000Y-151403428D01*
X59579000Y-151403428D01*
X59454518Y-151415688D01*
X59334820Y-151451998D01*
X59294000Y-151473817D01*
X59253180Y-151451998D01*
X59133482Y-151415688D01*
X59009000Y-151403428D01*
X58309000Y-151403428D01*
X58184518Y-151415688D01*
X58064820Y-151451998D01*
X58024000Y-151473817D01*
X57983180Y-151451998D01*
X57863482Y-151415688D01*
X57739000Y-151403428D01*
X57039000Y-151403428D01*
X56914518Y-151415688D01*
X56794820Y-151451998D01*
X56754000Y-151473817D01*
X56713180Y-151451998D01*
X56593482Y-151415688D01*
X56469000Y-151403428D01*
X55769000Y-151403428D01*
X55644518Y-151415688D01*
X55524820Y-151451998D01*
X55484000Y-151473817D01*
X55443180Y-151451998D01*
X55323482Y-151415688D01*
X55199000Y-151403428D01*
X54499000Y-151403428D01*
X54374518Y-151415688D01*
X54254820Y-151451998D01*
X54144506Y-151510963D01*
X54047815Y-151590315D01*
X53968463Y-151687006D01*
X53909498Y-151797320D01*
X53873188Y-151917018D01*
X53860928Y-152041500D01*
X53860928Y-154041500D01*
X53873188Y-154165982D01*
X53909498Y-154285680D01*
X53968463Y-154395994D01*
X54047815Y-154492685D01*
X54144506Y-154572037D01*
X54254820Y-154631002D01*
X54374518Y-154667312D01*
X54499000Y-154679572D01*
X55199000Y-154679572D01*
X55323482Y-154667312D01*
X55359000Y-154656538D01*
X55359001Y-165555668D01*
X55355324Y-165593000D01*
X55369998Y-165741985D01*
X55413454Y-165885246D01*
X55484026Y-166017276D01*
X55555201Y-166104002D01*
X55579000Y-166133001D01*
X55607998Y-166156799D01*
X55860199Y-166409000D01*
X55733740Y-166409000D01*
X55513592Y-166452790D01*
X51242500Y-162181699D01*
X51242500Y-151767947D01*
X51259000Y-151769572D01*
X53259000Y-151769572D01*
X53383482Y-151757312D01*
X53503180Y-151721002D01*
X53613494Y-151662037D01*
X53710185Y-151582685D01*
X53789537Y-151485994D01*
X53848502Y-151375680D01*
X53884812Y-151255982D01*
X53897072Y-151131500D01*
X53897072Y-150431500D01*
X53884812Y-150307018D01*
X53848502Y-150187320D01*
X53826683Y-150146500D01*
X53848502Y-150105680D01*
X53884812Y-149985982D01*
X53897072Y-149861500D01*
X53897072Y-149161500D01*
X53884812Y-149037018D01*
X53848502Y-148917320D01*
X53826683Y-148876500D01*
X53848502Y-148835680D01*
X53884812Y-148715982D01*
X53897072Y-148591500D01*
X53897072Y-147891500D01*
X53884812Y-147767018D01*
X53848502Y-147647320D01*
X53826683Y-147606500D01*
X53848502Y-147565680D01*
X53884812Y-147445982D01*
X53897072Y-147321500D01*
X53897072Y-146621500D01*
X53884812Y-146497018D01*
X53848502Y-146377320D01*
X53826683Y-146336500D01*
X53848502Y-146295680D01*
X53884812Y-146175982D01*
X53897072Y-146051500D01*
X53897072Y-145351500D01*
X53884812Y-145227018D01*
X53848502Y-145107320D01*
X53826683Y-145066500D01*
X53848502Y-145025680D01*
X53884812Y-144905982D01*
X53897072Y-144781500D01*
X53897072Y-144081500D01*
X53884812Y-143957018D01*
X53848502Y-143837320D01*
X53826683Y-143796500D01*
X53848502Y-143755680D01*
X53884812Y-143635982D01*
X53897072Y-143511500D01*
X53897072Y-142811500D01*
X53884812Y-142687018D01*
X53848502Y-142567320D01*
X53826683Y-142526500D01*
X53848502Y-142485680D01*
X53884812Y-142365982D01*
X53897072Y-142241500D01*
X53894000Y-142177250D01*
X53735250Y-142018500D01*
X52386000Y-142018500D01*
X52386000Y-142033517D01*
X52314752Y-142026500D01*
X52132000Y-142026500D01*
X52132000Y-142018500D01*
X52112000Y-142018500D01*
X52112000Y-141764500D01*
X52132000Y-141764500D01*
X52132000Y-141065250D01*
X52386000Y-141065250D01*
X52386000Y-141764500D01*
X53735250Y-141764500D01*
X53894000Y-141605750D01*
X53897072Y-141541500D01*
X53884812Y-141417018D01*
X53848502Y-141297320D01*
X53789537Y-141187006D01*
X53710185Y-141090315D01*
X53613494Y-141010963D01*
X53503180Y-140951998D01*
X53383482Y-140915688D01*
X53259000Y-140903428D01*
X52544750Y-140906500D01*
X52386000Y-141065250D01*
X52132000Y-141065250D01*
X51973250Y-140906500D01*
X51259000Y-140903428D01*
X51134518Y-140915688D01*
X51014820Y-140951998D01*
X50904506Y-141010963D01*
X50807815Y-141090315D01*
X50728463Y-141187006D01*
X50669498Y-141297320D01*
X50633188Y-141417018D01*
X50620928Y-141541500D01*
X50624000Y-141605750D01*
X50782748Y-141764498D01*
X50624000Y-141764498D01*
X50624000Y-141805369D01*
X50574535Y-141755904D01*
X50499300Y-141615149D01*
X50535537Y-141570994D01*
X50594502Y-141460680D01*
X50630812Y-141340982D01*
X50643072Y-141216500D01*
X50640000Y-141052250D01*
X50481250Y-140893500D01*
X49657000Y-140893500D01*
X49657000Y-140913500D01*
X49403000Y-140913500D01*
X49403000Y-140893500D01*
X48578750Y-140893500D01*
X48420000Y-141052250D01*
X48417583Y-141181500D01*
X48175500Y-141181500D01*
X48175500Y-140316500D01*
X48416928Y-140316500D01*
X48420000Y-140480750D01*
X48578750Y-140639500D01*
X49403000Y-140639500D01*
X49403000Y-139840250D01*
X49657000Y-139840250D01*
X49657000Y-140639500D01*
X50481250Y-140639500D01*
X50640000Y-140480750D01*
X50643072Y-140316500D01*
X50630812Y-140192018D01*
X50594502Y-140072320D01*
X50535537Y-139962006D01*
X50456185Y-139865315D01*
X50359494Y-139785963D01*
X50249180Y-139726998D01*
X50129482Y-139690688D01*
X50005000Y-139678428D01*
X49815750Y-139681500D01*
X49657000Y-139840250D01*
X49403000Y-139840250D01*
X49244250Y-139681500D01*
X49055000Y-139678428D01*
X48930518Y-139690688D01*
X48810820Y-139726998D01*
X48700506Y-139785963D01*
X48603815Y-139865315D01*
X48524463Y-139962006D01*
X48465498Y-140072320D01*
X48429188Y-140192018D01*
X48416928Y-140316500D01*
X48175500Y-140316500D01*
X48175500Y-139992631D01*
X49912141Y-138255991D01*
X49955449Y-138220449D01*
X50097284Y-138047623D01*
X50202676Y-137850447D01*
X50267577Y-137636499D01*
X50284000Y-137469752D01*
X50284000Y-137469743D01*
X50289490Y-137414001D01*
X50284000Y-137358259D01*
X50284000Y-132989683D01*
X50353494Y-132952537D01*
X50450185Y-132873185D01*
X50529537Y-132776494D01*
X50588502Y-132666180D01*
X50624812Y-132546482D01*
X50637072Y-132422000D01*
X50637072Y-130722000D01*
X50624812Y-130597518D01*
X50588502Y-130477820D01*
X50575770Y-130454000D01*
X50863500Y-130454000D01*
X50863500Y-136652000D01*
%TA.AperFunction,Conductor*%
D25*
G36*
X50863500Y-136652000D02*
G01*
X50865940Y-136676776D01*
X50873167Y-136700601D01*
X50884903Y-136722557D01*
X50900697Y-136741803D01*
X50919943Y-136757597D01*
X50941899Y-136769333D01*
X50965724Y-136776560D01*
X50990500Y-136779000D01*
X67627500Y-136779000D01*
X67652276Y-136776560D01*
X67676101Y-136769333D01*
X67698057Y-136757597D01*
X67717303Y-136741803D01*
X67733097Y-136722557D01*
X67744833Y-136700601D01*
X67752060Y-136676776D01*
X67754500Y-136652000D01*
X67754500Y-131174500D01*
X68669428Y-131174500D01*
X68672500Y-131388750D01*
X68831250Y-131547500D01*
X69955500Y-131547500D01*
X69955500Y-130698250D01*
X70209500Y-130698250D01*
X70209500Y-131547500D01*
X71333750Y-131547500D01*
X71492500Y-131388750D01*
X71495572Y-131174500D01*
X71483312Y-131050018D01*
X71447002Y-130930320D01*
X71388037Y-130820006D01*
X71308685Y-130723315D01*
X71211994Y-130643963D01*
X71101680Y-130584998D01*
X70981982Y-130548688D01*
X70857500Y-130536428D01*
X70368250Y-130539500D01*
X70209500Y-130698250D01*
X69955500Y-130698250D01*
X69796750Y-130539500D01*
X69307500Y-130536428D01*
X69183018Y-130548688D01*
X69063320Y-130584998D01*
X68953006Y-130643963D01*
X68856315Y-130723315D01*
X68776963Y-130820006D01*
X68717998Y-130930320D01*
X68681688Y-131050018D01*
X68669428Y-131174500D01*
X67754500Y-131174500D01*
X67754500Y-130454000D01*
X71974645Y-130454000D01*
X71922982Y-130505663D01*
X71812450Y-130671086D01*
X71736314Y-130854894D01*
X71697500Y-131050024D01*
X71697500Y-131248976D01*
X71736314Y-131444106D01*
X71812450Y-131627914D01*
X71922982Y-131793337D01*
X72063663Y-131934018D01*
X72229086Y-132044550D01*
X72412894Y-132120686D01*
X72608024Y-132159500D01*
X72806976Y-132159500D01*
X73002106Y-132120686D01*
X73185914Y-132044550D01*
X73351337Y-131934018D01*
X73492018Y-131793337D01*
X73602550Y-131627914D01*
X73678686Y-131444106D01*
X73717500Y-131248976D01*
X73717500Y-131174500D01*
X73919428Y-131174500D01*
X73922500Y-131388750D01*
X74081250Y-131547500D01*
X75205500Y-131547500D01*
X75205500Y-130698250D01*
X75459500Y-130698250D01*
X75459500Y-131547500D01*
X76583750Y-131547500D01*
X76742500Y-131388750D01*
X76745572Y-131174500D01*
X76743947Y-131158000D01*
X78273928Y-131158000D01*
X78286188Y-131282482D01*
X78322498Y-131402180D01*
X78381463Y-131512494D01*
X78460815Y-131609185D01*
X78557506Y-131688537D01*
X78667820Y-131747502D01*
X78787518Y-131783812D01*
X78912000Y-131796072D01*
X79063750Y-131793000D01*
X79222500Y-131634250D01*
X79222500Y-130810000D01*
X78435750Y-130810000D01*
X78277000Y-130968750D01*
X78273928Y-131158000D01*
X76743947Y-131158000D01*
X76733312Y-131050018D01*
X76697002Y-130930320D01*
X76638037Y-130820006D01*
X76558685Y-130723315D01*
X76461994Y-130643963D01*
X76351680Y-130584998D01*
X76231982Y-130548688D01*
X76107500Y-130536428D01*
X75618250Y-130539500D01*
X75459500Y-130698250D01*
X75205500Y-130698250D01*
X75046750Y-130539500D01*
X74557500Y-130536428D01*
X74433018Y-130548688D01*
X74313320Y-130584998D01*
X74203006Y-130643963D01*
X74106315Y-130723315D01*
X74026963Y-130820006D01*
X73967998Y-130930320D01*
X73931688Y-131050018D01*
X73919428Y-131174500D01*
X73717500Y-131174500D01*
X73717500Y-131050024D01*
X73678686Y-130854894D01*
X73602550Y-130671086D01*
X73492018Y-130505663D01*
X73440355Y-130454000D01*
X78333750Y-130454000D01*
X78435750Y-130556000D01*
X79222500Y-130556000D01*
X79222500Y-130536000D01*
X79476500Y-130536000D01*
X79476500Y-130556000D01*
X79496500Y-130556000D01*
X79496500Y-130810000D01*
X79476500Y-130810000D01*
X79476500Y-131634250D01*
X79635250Y-131793000D01*
X79787000Y-131796072D01*
X79911482Y-131783812D01*
X80031180Y-131747502D01*
X80141494Y-131688537D01*
X80164500Y-131669656D01*
X80164501Y-134724197D01*
X71186199Y-143702500D01*
X69609901Y-143702500D01*
X69568948Y-143680610D01*
X69430491Y-143638610D01*
X69286500Y-143624428D01*
X69026500Y-143624428D01*
X68882509Y-143638610D01*
X68836500Y-143652567D01*
X68790491Y-143638610D01*
X68646500Y-143624428D01*
X68386500Y-143624428D01*
X68242509Y-143638610D01*
X68104052Y-143680610D01*
X68063099Y-143702500D01*
X67964634Y-143702500D01*
X67984812Y-143635982D01*
X67997072Y-143511500D01*
X67997072Y-143263231D01*
X69853503Y-141406801D01*
X69882501Y-141383003D01*
X69977474Y-141267278D01*
X70048046Y-141135249D01*
X70091503Y-140991988D01*
X70102500Y-140880335D01*
X70102500Y-140880326D01*
X70106176Y-140843003D01*
X70102500Y-140805680D01*
X70102500Y-135851301D01*
X70593502Y-135360299D01*
X70622501Y-135336501D01*
X70648832Y-135304417D01*
X70717474Y-135220777D01*
X70788046Y-135088747D01*
X70807232Y-135025498D01*
X70831503Y-134945486D01*
X70842500Y-134833833D01*
X70842500Y-134833824D01*
X70846176Y-134796501D01*
X70842500Y-134759178D01*
X70842500Y-134512572D01*
X70857500Y-134512572D01*
X70981982Y-134500312D01*
X71101680Y-134464002D01*
X71211994Y-134405037D01*
X71308685Y-134325685D01*
X71388037Y-134228994D01*
X71447002Y-134118680D01*
X71483312Y-133998982D01*
X71487201Y-133959499D01*
X71697500Y-133959499D01*
X71697500Y-133998976D01*
X71736314Y-134194106D01*
X71812450Y-134377914D01*
X71922982Y-134543337D01*
X72063663Y-134684018D01*
X72229086Y-134794550D01*
X72412894Y-134870686D01*
X72608024Y-134909500D01*
X72806976Y-134909500D01*
X73002106Y-134870686D01*
X73185914Y-134794550D01*
X73351337Y-134684018D01*
X73492018Y-134543337D01*
X73602550Y-134377914D01*
X73678686Y-134194106D01*
X73717500Y-133998976D01*
X73717500Y-133959499D01*
X73927799Y-133959499D01*
X73931688Y-133998982D01*
X73967998Y-134118680D01*
X74026963Y-134228994D01*
X74106315Y-134325685D01*
X74203006Y-134405037D01*
X74313320Y-134464002D01*
X74433018Y-134500312D01*
X74557500Y-134512572D01*
X76107500Y-134512572D01*
X76231982Y-134500312D01*
X76351680Y-134464002D01*
X76461994Y-134405037D01*
X76558685Y-134325685D01*
X76638037Y-134228994D01*
X76697002Y-134118680D01*
X76733312Y-133998982D01*
X76745572Y-133874500D01*
X76745572Y-132874500D01*
X76733312Y-132750018D01*
X76697002Y-132630320D01*
X76640439Y-132524500D01*
X76697002Y-132418680D01*
X76733312Y-132298982D01*
X76745572Y-132174500D01*
X76742500Y-131960250D01*
X76583750Y-131801500D01*
X75459500Y-131801500D01*
X75459500Y-131821500D01*
X75205500Y-131821500D01*
X75205500Y-131801500D01*
X74081250Y-131801500D01*
X73922500Y-131960250D01*
X73919428Y-132174500D01*
X73931688Y-132298982D01*
X73967998Y-132418680D01*
X73979126Y-132439499D01*
X71435874Y-132439499D01*
X71447002Y-132418680D01*
X71483312Y-132298982D01*
X71495572Y-132174500D01*
X71492500Y-131960250D01*
X71333750Y-131801500D01*
X70209500Y-131801500D01*
X70209500Y-131821500D01*
X69955500Y-131821500D01*
X69955500Y-131801500D01*
X68831250Y-131801500D01*
X68672500Y-131960250D01*
X68669428Y-132174500D01*
X68681688Y-132298982D01*
X68717998Y-132418680D01*
X68774561Y-132524500D01*
X68717998Y-132630320D01*
X68681688Y-132750018D01*
X68669428Y-132874500D01*
X68669428Y-133874500D01*
X68681688Y-133998982D01*
X68717998Y-134118680D01*
X68776963Y-134228994D01*
X68856315Y-134325685D01*
X68953006Y-134405037D01*
X69063320Y-134464002D01*
X69183018Y-134500312D01*
X69293050Y-134511149D01*
X68831502Y-134972697D01*
X68802499Y-134996499D01*
X68767620Y-135039000D01*
X68707526Y-135112224D01*
X68667030Y-135187986D01*
X68636954Y-135244254D01*
X68593497Y-135387515D01*
X68582500Y-135499168D01*
X68582500Y-135499178D01*
X68578824Y-135536500D01*
X68582500Y-135573823D01*
X68582501Y-140528199D01*
X67901435Y-141209265D01*
X67889537Y-141187006D01*
X67810185Y-141090315D01*
X67713494Y-141010963D01*
X67603180Y-140951998D01*
X67483482Y-140915688D01*
X67359000Y-140903428D01*
X66885370Y-140903428D01*
X66847756Y-140878295D01*
X66659398Y-140800274D01*
X66459439Y-140760500D01*
X66255561Y-140760500D01*
X66055602Y-140800274D01*
X65867244Y-140878295D01*
X65829630Y-140903428D01*
X65359000Y-140903428D01*
X65234518Y-140915688D01*
X65114820Y-140951998D01*
X65004506Y-141010963D01*
X64907815Y-141090315D01*
X64828463Y-141187006D01*
X64769498Y-141297320D01*
X64733188Y-141417018D01*
X64720928Y-141541500D01*
X64720928Y-142241500D01*
X64733188Y-142365982D01*
X64769498Y-142485680D01*
X64791317Y-142526500D01*
X64769498Y-142567320D01*
X64733188Y-142687018D01*
X64720928Y-142811500D01*
X64720928Y-143511500D01*
X64733188Y-143635982D01*
X64769498Y-143755680D01*
X64791317Y-143796500D01*
X64769498Y-143837320D01*
X64733188Y-143957018D01*
X64720928Y-144081500D01*
X64720928Y-144781500D01*
X64733188Y-144905982D01*
X64769498Y-145025680D01*
X64791317Y-145066500D01*
X64769498Y-145107320D01*
X64733188Y-145227018D01*
X64720928Y-145351500D01*
X64720928Y-146051500D01*
X64733188Y-146175982D01*
X64769498Y-146295680D01*
X64791317Y-146336500D01*
X64769498Y-146377320D01*
X64733188Y-146497018D01*
X64720928Y-146621500D01*
X64720928Y-147321500D01*
X64733188Y-147445982D01*
X64769498Y-147565680D01*
X64791317Y-147606500D01*
X64769498Y-147647320D01*
X64733188Y-147767018D01*
X64720928Y-147891500D01*
X64720928Y-148591500D01*
X64733188Y-148715982D01*
X64769498Y-148835680D01*
X64791317Y-148876500D01*
X64769498Y-148917320D01*
X64733188Y-149037018D01*
X64720928Y-149161500D01*
X64720928Y-149861500D01*
X64733188Y-149985982D01*
X64769498Y-150105680D01*
X64791317Y-150146500D01*
X64769498Y-150187320D01*
X64733188Y-150307018D01*
X64720928Y-150431500D01*
X64720928Y-151131500D01*
X64733188Y-151255982D01*
X64769498Y-151375680D01*
X64828463Y-151485994D01*
X64907815Y-151582685D01*
X65004506Y-151662037D01*
X65114820Y-151721002D01*
X65234518Y-151757312D01*
X65359000Y-151769572D01*
X67359000Y-151769572D01*
X67483482Y-151757312D01*
X67603180Y-151721002D01*
X67713494Y-151662037D01*
X67810185Y-151582685D01*
X67889537Y-151485994D01*
X67948502Y-151375680D01*
X67984812Y-151255982D01*
X67997072Y-151131500D01*
X67997072Y-150473924D01*
X68151102Y-150537726D01*
X68351061Y-150577500D01*
X68554939Y-150577500D01*
X68754898Y-150537726D01*
X68943256Y-150459705D01*
X69112774Y-150346437D01*
X69256937Y-150202274D01*
X69370205Y-150032756D01*
X69448226Y-149844398D01*
X69488000Y-149644439D01*
X69488000Y-149440561D01*
X69448226Y-149240602D01*
X69370205Y-149052244D01*
X69336299Y-149001500D01*
X69593908Y-149001500D01*
X69631230Y-149005176D01*
X69668552Y-149001500D01*
X69668563Y-149001500D01*
X69780216Y-148990503D01*
X69923477Y-148947046D01*
X70055506Y-148876474D01*
X70171231Y-148781501D01*
X70195034Y-148752497D01*
X71683000Y-147264531D01*
X71683000Y-147361440D01*
X71773694Y-147817387D01*
X71951595Y-148246879D01*
X72209868Y-148633412D01*
X72538588Y-148962132D01*
X72925121Y-149220405D01*
X73354613Y-149398306D01*
X73810560Y-149489000D01*
X74275440Y-149489000D01*
X74731387Y-149398306D01*
X75160879Y-149220405D01*
X75547412Y-148962132D01*
X75876132Y-148633412D01*
X76134405Y-148246879D01*
X76312306Y-147817387D01*
X76403000Y-147361440D01*
X76403000Y-146896560D01*
X76312306Y-146440613D01*
X76143468Y-146033000D01*
X82431928Y-146033000D01*
X82435000Y-146272250D01*
X82593750Y-146431000D01*
X83693000Y-146431000D01*
X83693000Y-145556750D01*
X83534250Y-145398000D01*
X83070000Y-145394928D01*
X82945518Y-145407188D01*
X82825820Y-145443498D01*
X82715506Y-145502463D01*
X82618815Y-145581815D01*
X82539463Y-145678506D01*
X82480498Y-145788820D01*
X82444188Y-145908518D01*
X82431928Y-146033000D01*
X76143468Y-146033000D01*
X76134405Y-146011121D01*
X75876132Y-145624588D01*
X75547412Y-145295868D01*
X75160879Y-145037595D01*
X74731387Y-144859694D01*
X74275440Y-144769000D01*
X74178532Y-144769000D01*
X74645032Y-144302500D01*
X81702928Y-144302500D01*
X81715188Y-144426982D01*
X81751498Y-144546680D01*
X81810463Y-144656994D01*
X81889815Y-144753685D01*
X81986506Y-144833037D01*
X82096820Y-144892002D01*
X82216518Y-144928312D01*
X82341000Y-144940572D01*
X82505250Y-144937500D01*
X82664000Y-144778750D01*
X82664000Y-143954500D01*
X81864750Y-143954500D01*
X81706000Y-144113250D01*
X81702928Y-144302500D01*
X74645032Y-144302500D01*
X75595032Y-143352500D01*
X81702928Y-143352500D01*
X81706000Y-143541750D01*
X81864750Y-143700500D01*
X82664000Y-143700500D01*
X82664000Y-142876250D01*
X82505250Y-142717500D01*
X82341000Y-142714428D01*
X82216518Y-142726688D01*
X82096820Y-142762998D01*
X81986506Y-142821963D01*
X81889815Y-142901315D01*
X81810463Y-142998006D01*
X81751498Y-143108320D01*
X81715188Y-143228018D01*
X81702928Y-143352500D01*
X75595032Y-143352500D01*
X77718032Y-141229500D01*
X81783000Y-141229500D01*
X81783000Y-141246502D01*
X81862748Y-141246502D01*
X81783000Y-141326250D01*
X81795914Y-141436432D01*
X81835557Y-141555068D01*
X81897583Y-141663690D01*
X81979608Y-141758125D01*
X82078480Y-141834743D01*
X82190400Y-141890599D01*
X82311066Y-141923548D01*
X82386250Y-141929500D01*
X82545000Y-141770750D01*
X82545000Y-141282572D01*
X82791000Y-141282572D01*
X82791000Y-141770750D01*
X82949750Y-141929500D01*
X83024934Y-141923548D01*
X83145600Y-141890599D01*
X83257520Y-141834743D01*
X83356392Y-141758125D01*
X83438417Y-141663690D01*
X83500443Y-141555068D01*
X83540086Y-141436432D01*
X83553000Y-141326250D01*
X83394250Y-141167500D01*
X83281678Y-141167500D01*
X83369185Y-141095685D01*
X83389033Y-141071500D01*
X83394250Y-141071500D01*
X83553000Y-140912750D01*
X83540086Y-140802568D01*
X83536699Y-140792431D01*
X83543812Y-140768982D01*
X83556072Y-140644500D01*
X83556072Y-140294500D01*
X83543812Y-140170018D01*
X83536071Y-140144500D01*
X83543812Y-140118982D01*
X83556072Y-139994500D01*
X83556072Y-139644500D01*
X83543812Y-139520018D01*
X83536071Y-139494500D01*
X83543812Y-139468982D01*
X83556072Y-139344500D01*
X83556072Y-138994500D01*
X83543812Y-138870018D01*
X83507502Y-138750320D01*
X83448537Y-138640006D01*
X83369185Y-138543315D01*
X83272494Y-138463963D01*
X83162180Y-138404998D01*
X83042482Y-138368688D01*
X82918000Y-138356428D01*
X82418000Y-138356428D01*
X82293518Y-138368688D01*
X82173820Y-138404998D01*
X82165397Y-138409500D01*
X79709211Y-138409500D01*
X79590274Y-138290563D01*
X79466711Y-138208001D01*
X79818212Y-137856500D01*
X83759199Y-137856500D01*
X83958001Y-138055302D01*
X83958000Y-138614981D01*
X83937463Y-138640006D01*
X83878498Y-138750320D01*
X83842188Y-138870018D01*
X83829928Y-138994500D01*
X83829928Y-139344500D01*
X83842188Y-139468982D01*
X83849929Y-139494500D01*
X83842188Y-139520018D01*
X83829928Y-139644500D01*
X83829928Y-139994500D01*
X83842188Y-140118982D01*
X83849301Y-140142431D01*
X83845914Y-140152568D01*
X83833000Y-140262750D01*
X83991750Y-140421500D01*
X83996967Y-140421500D01*
X84016815Y-140445685D01*
X84045834Y-140469500D01*
X84016815Y-140493315D01*
X83996967Y-140517500D01*
X83991750Y-140517500D01*
X83833000Y-140676250D01*
X83845914Y-140786432D01*
X83849301Y-140796569D01*
X83842188Y-140820018D01*
X83829928Y-140944500D01*
X83829928Y-141294500D01*
X83842188Y-141418982D01*
X83878498Y-141538680D01*
X83937463Y-141648994D01*
X83958000Y-141674019D01*
X83958001Y-142729990D01*
X83947623Y-142731012D01*
X83785717Y-142780125D01*
X83639649Y-142858200D01*
X83595494Y-142821963D01*
X83485180Y-142762998D01*
X83365482Y-142726688D01*
X83241000Y-142714428D01*
X83076750Y-142717500D01*
X82918000Y-142876250D01*
X82918000Y-143700500D01*
X82938000Y-143700500D01*
X82938000Y-143954500D01*
X82918000Y-143954500D01*
X82918000Y-144778750D01*
X83076750Y-144937500D01*
X83241000Y-144940572D01*
X83365482Y-144928312D01*
X83485180Y-144892002D01*
X83595494Y-144833037D01*
X83639649Y-144796800D01*
X83785717Y-144874875D01*
X83947623Y-144923988D01*
X84116000Y-144940572D01*
X84393500Y-144940572D01*
X84393500Y-145396096D01*
X84105750Y-145398000D01*
X83947000Y-145556750D01*
X83947000Y-146431000D01*
X83967000Y-146431000D01*
X83967000Y-146668000D01*
X83538021Y-146668000D01*
X83367600Y-146684785D01*
X83366891Y-146685000D01*
X82593750Y-146685000D01*
X82435000Y-146843750D01*
X82431928Y-147083000D01*
X82436705Y-147131500D01*
X77888323Y-147131500D01*
X77851000Y-147127824D01*
X77813677Y-147131500D01*
X77813667Y-147131500D01*
X77702014Y-147142497D01*
X77558753Y-147185954D01*
X77426724Y-147256526D01*
X77310999Y-147351499D01*
X77287201Y-147380497D01*
X72386199Y-152281500D01*
X64727072Y-152281500D01*
X64727072Y-152041500D01*
X64714812Y-151917018D01*
X64678502Y-151797320D01*
X64619537Y-151687006D01*
X64540185Y-151590315D01*
X64443494Y-151510963D01*
X64333180Y-151451998D01*
X64213482Y-151415688D01*
X64089000Y-151403428D01*
X63389000Y-151403428D01*
X63264518Y-151415688D01*
X63144820Y-151451998D01*
X63104000Y-151473817D01*
X63063180Y-151451998D01*
X62943482Y-151415688D01*
X62819000Y-151403428D01*
X62119000Y-151403428D01*
X61994518Y-151415688D01*
X61874820Y-151451998D01*
X61834000Y-151473817D01*
X61793180Y-151451998D01*
X61673482Y-151415688D01*
X61549000Y-151403428D01*
X60849000Y-151403428D01*
X60724518Y-151415688D01*
X60604820Y-151451998D01*
X60564000Y-151473817D01*
X60523180Y-151451998D01*
X60403482Y-151415688D01*
X60279000Y-151403428D01*
X59579000Y-151403428D01*
X59454518Y-151415688D01*
X59334820Y-151451998D01*
X59294000Y-151473817D01*
X59253180Y-151451998D01*
X59133482Y-151415688D01*
X59009000Y-151403428D01*
X58309000Y-151403428D01*
X58184518Y-151415688D01*
X58064820Y-151451998D01*
X58024000Y-151473817D01*
X57983180Y-151451998D01*
X57863482Y-151415688D01*
X57739000Y-151403428D01*
X57039000Y-151403428D01*
X56914518Y-151415688D01*
X56794820Y-151451998D01*
X56754000Y-151473817D01*
X56713180Y-151451998D01*
X56593482Y-151415688D01*
X56469000Y-151403428D01*
X55769000Y-151403428D01*
X55644518Y-151415688D01*
X55524820Y-151451998D01*
X55484000Y-151473817D01*
X55443180Y-151451998D01*
X55323482Y-151415688D01*
X55199000Y-151403428D01*
X54499000Y-151403428D01*
X54374518Y-151415688D01*
X54254820Y-151451998D01*
X54144506Y-151510963D01*
X54047815Y-151590315D01*
X53968463Y-151687006D01*
X53909498Y-151797320D01*
X53873188Y-151917018D01*
X53860928Y-152041500D01*
X53860928Y-154041500D01*
X53873188Y-154165982D01*
X53909498Y-154285680D01*
X53968463Y-154395994D01*
X54047815Y-154492685D01*
X54144506Y-154572037D01*
X54254820Y-154631002D01*
X54374518Y-154667312D01*
X54499000Y-154679572D01*
X55199000Y-154679572D01*
X55323482Y-154667312D01*
X55359000Y-154656538D01*
X55359001Y-165555668D01*
X55355324Y-165593000D01*
X55369998Y-165741985D01*
X55413454Y-165885246D01*
X55484026Y-166017276D01*
X55555201Y-166104002D01*
X55579000Y-166133001D01*
X55607998Y-166156799D01*
X55860199Y-166409000D01*
X55733740Y-166409000D01*
X55513592Y-166452790D01*
X51242500Y-162181699D01*
X51242500Y-151767947D01*
X51259000Y-151769572D01*
X53259000Y-151769572D01*
X53383482Y-151757312D01*
X53503180Y-151721002D01*
X53613494Y-151662037D01*
X53710185Y-151582685D01*
X53789537Y-151485994D01*
X53848502Y-151375680D01*
X53884812Y-151255982D01*
X53897072Y-151131500D01*
X53897072Y-150431500D01*
X53884812Y-150307018D01*
X53848502Y-150187320D01*
X53826683Y-150146500D01*
X53848502Y-150105680D01*
X53884812Y-149985982D01*
X53897072Y-149861500D01*
X53897072Y-149161500D01*
X53884812Y-149037018D01*
X53848502Y-148917320D01*
X53826683Y-148876500D01*
X53848502Y-148835680D01*
X53884812Y-148715982D01*
X53897072Y-148591500D01*
X53897072Y-147891500D01*
X53884812Y-147767018D01*
X53848502Y-147647320D01*
X53826683Y-147606500D01*
X53848502Y-147565680D01*
X53884812Y-147445982D01*
X53897072Y-147321500D01*
X53897072Y-146621500D01*
X53884812Y-146497018D01*
X53848502Y-146377320D01*
X53826683Y-146336500D01*
X53848502Y-146295680D01*
X53884812Y-146175982D01*
X53897072Y-146051500D01*
X53897072Y-145351500D01*
X53884812Y-145227018D01*
X53848502Y-145107320D01*
X53826683Y-145066500D01*
X53848502Y-145025680D01*
X53884812Y-144905982D01*
X53897072Y-144781500D01*
X53897072Y-144081500D01*
X53884812Y-143957018D01*
X53848502Y-143837320D01*
X53826683Y-143796500D01*
X53848502Y-143755680D01*
X53884812Y-143635982D01*
X53897072Y-143511500D01*
X53897072Y-142811500D01*
X53884812Y-142687018D01*
X53848502Y-142567320D01*
X53826683Y-142526500D01*
X53848502Y-142485680D01*
X53884812Y-142365982D01*
X53897072Y-142241500D01*
X53894000Y-142177250D01*
X53735250Y-142018500D01*
X52386000Y-142018500D01*
X52386000Y-142033517D01*
X52314752Y-142026500D01*
X52132000Y-142026500D01*
X52132000Y-142018500D01*
X52112000Y-142018500D01*
X52112000Y-141764500D01*
X52132000Y-141764500D01*
X52132000Y-141065250D01*
X52386000Y-141065250D01*
X52386000Y-141764500D01*
X53735250Y-141764500D01*
X53894000Y-141605750D01*
X53897072Y-141541500D01*
X53884812Y-141417018D01*
X53848502Y-141297320D01*
X53789537Y-141187006D01*
X53710185Y-141090315D01*
X53613494Y-141010963D01*
X53503180Y-140951998D01*
X53383482Y-140915688D01*
X53259000Y-140903428D01*
X52544750Y-140906500D01*
X52386000Y-141065250D01*
X52132000Y-141065250D01*
X51973250Y-140906500D01*
X51259000Y-140903428D01*
X51134518Y-140915688D01*
X51014820Y-140951998D01*
X50904506Y-141010963D01*
X50807815Y-141090315D01*
X50728463Y-141187006D01*
X50669498Y-141297320D01*
X50633188Y-141417018D01*
X50620928Y-141541500D01*
X50624000Y-141605750D01*
X50782748Y-141764498D01*
X50624000Y-141764498D01*
X50624000Y-141805369D01*
X50574535Y-141755904D01*
X50499300Y-141615149D01*
X50535537Y-141570994D01*
X50594502Y-141460680D01*
X50630812Y-141340982D01*
X50643072Y-141216500D01*
X50640000Y-141052250D01*
X50481250Y-140893500D01*
X49657000Y-140893500D01*
X49657000Y-140913500D01*
X49403000Y-140913500D01*
X49403000Y-140893500D01*
X48578750Y-140893500D01*
X48420000Y-141052250D01*
X48417583Y-141181500D01*
X48175500Y-141181500D01*
X48175500Y-140316500D01*
X48416928Y-140316500D01*
X48420000Y-140480750D01*
X48578750Y-140639500D01*
X49403000Y-140639500D01*
X49403000Y-139840250D01*
X49657000Y-139840250D01*
X49657000Y-140639500D01*
X50481250Y-140639500D01*
X50640000Y-140480750D01*
X50643072Y-140316500D01*
X50630812Y-140192018D01*
X50594502Y-140072320D01*
X50535537Y-139962006D01*
X50456185Y-139865315D01*
X50359494Y-139785963D01*
X50249180Y-139726998D01*
X50129482Y-139690688D01*
X50005000Y-139678428D01*
X49815750Y-139681500D01*
X49657000Y-139840250D01*
X49403000Y-139840250D01*
X49244250Y-139681500D01*
X49055000Y-139678428D01*
X48930518Y-139690688D01*
X48810820Y-139726998D01*
X48700506Y-139785963D01*
X48603815Y-139865315D01*
X48524463Y-139962006D01*
X48465498Y-140072320D01*
X48429188Y-140192018D01*
X48416928Y-140316500D01*
X48175500Y-140316500D01*
X48175500Y-139992631D01*
X49912141Y-138255991D01*
X49955449Y-138220449D01*
X50097284Y-138047623D01*
X50202676Y-137850447D01*
X50267577Y-137636499D01*
X50284000Y-137469752D01*
X50284000Y-137469743D01*
X50289490Y-137414001D01*
X50284000Y-137358259D01*
X50284000Y-132989683D01*
X50353494Y-132952537D01*
X50450185Y-132873185D01*
X50529537Y-132776494D01*
X50588502Y-132666180D01*
X50624812Y-132546482D01*
X50637072Y-132422000D01*
X50637072Y-130722000D01*
X50624812Y-130597518D01*
X50588502Y-130477820D01*
X50575770Y-130454000D01*
X50863500Y-130454000D01*
X50863500Y-136652000D01*
G37*
%TD.AperFunction*%
D24*
X50633188Y-146497018D02*
X50620928Y-146621500D01*
X50620928Y-147321500D01*
X50633188Y-147445982D01*
X50643962Y-147481500D01*
X49472823Y-147481500D01*
X49435500Y-147477824D01*
X49398178Y-147481500D01*
X49398167Y-147481500D01*
X49286514Y-147492497D01*
X49143253Y-147535954D01*
X49011224Y-147606526D01*
X48895499Y-147701499D01*
X48880849Y-147719349D01*
X48862999Y-147733999D01*
X48831251Y-147772685D01*
X48768026Y-147849724D01*
X48700003Y-147976985D01*
X48697454Y-147981754D01*
X48653997Y-148125015D01*
X48643000Y-148236668D01*
X48643000Y-148236678D01*
X48639324Y-148274000D01*
X48643000Y-148311323D01*
X48643001Y-153093288D01*
X48599063Y-153137226D01*
X48569500Y-153181470D01*
X48569500Y-149344251D01*
X48574991Y-149288499D01*
X48553077Y-149066000D01*
X48524410Y-148971499D01*
X48488176Y-148852053D01*
X48382784Y-148654877D01*
X48240949Y-148482051D01*
X48197635Y-148446504D01*
X47521996Y-147770865D01*
X47486449Y-147727551D01*
X47313623Y-147585716D01*
X47116447Y-147480324D01*
X46902499Y-147415423D01*
X46735752Y-147399000D01*
X46735751Y-147399000D01*
X46680000Y-147393509D01*
X46624249Y-147399000D01*
X42656500Y-147399000D01*
X42656500Y-146585063D01*
X42753244Y-146649705D01*
X42941602Y-146727726D01*
X43141561Y-146767500D01*
X43345439Y-146767500D01*
X43545398Y-146727726D01*
X43733756Y-146649705D01*
X43903274Y-146536437D01*
X43978211Y-146461500D01*
X50643962Y-146461500D01*
X50633188Y-146497018D01*
%TA.AperFunction,Conductor*%
D25*
G36*
X50633188Y-146497018D02*
G01*
X50620928Y-146621500D01*
X50620928Y-147321500D01*
X50633188Y-147445982D01*
X50643962Y-147481500D01*
X49472823Y-147481500D01*
X49435500Y-147477824D01*
X49398178Y-147481500D01*
X49398167Y-147481500D01*
X49286514Y-147492497D01*
X49143253Y-147535954D01*
X49011224Y-147606526D01*
X48895499Y-147701499D01*
X48880849Y-147719349D01*
X48862999Y-147733999D01*
X48831251Y-147772685D01*
X48768026Y-147849724D01*
X48700003Y-147976985D01*
X48697454Y-147981754D01*
X48653997Y-148125015D01*
X48643000Y-148236668D01*
X48643000Y-148236678D01*
X48639324Y-148274000D01*
X48643000Y-148311323D01*
X48643001Y-153093288D01*
X48599063Y-153137226D01*
X48569500Y-153181470D01*
X48569500Y-149344251D01*
X48574991Y-149288499D01*
X48553077Y-149066000D01*
X48524410Y-148971499D01*
X48488176Y-148852053D01*
X48382784Y-148654877D01*
X48240949Y-148482051D01*
X48197635Y-148446504D01*
X47521996Y-147770865D01*
X47486449Y-147727551D01*
X47313623Y-147585716D01*
X47116447Y-147480324D01*
X46902499Y-147415423D01*
X46735752Y-147399000D01*
X46735751Y-147399000D01*
X46680000Y-147393509D01*
X46624249Y-147399000D01*
X42656500Y-147399000D01*
X42656500Y-146585063D01*
X42753244Y-146649705D01*
X42941602Y-146727726D01*
X43141561Y-146767500D01*
X43345439Y-146767500D01*
X43545398Y-146727726D01*
X43733756Y-146649705D01*
X43903274Y-146536437D01*
X43978211Y-146461500D01*
X50643962Y-146461500D01*
X50633188Y-146497018D01*
G37*
%TD.AperFunction*%
D24*
X37988731Y-130474412D02*
X37793822Y-130690645D01*
X37644843Y-130940748D01*
X37547519Y-131215109D01*
X37668186Y-131445000D01*
X38862000Y-131445000D01*
X38862000Y-131425000D01*
X39116000Y-131425000D01*
X39116000Y-131445000D01*
X39136000Y-131445000D01*
X39136000Y-131699000D01*
X39116000Y-131699000D01*
X39116000Y-132892155D01*
X39345890Y-133013476D01*
X39493099Y-132968825D01*
X39755920Y-132843641D01*
X39989269Y-132669588D01*
X40184178Y-132453355D01*
X40253805Y-132336466D01*
X40375525Y-132518632D01*
X40582368Y-132725475D01*
X40825589Y-132887990D01*
X41095842Y-132999932D01*
X41382740Y-133057000D01*
X41675260Y-133057000D01*
X41962158Y-132999932D01*
X42232411Y-132887990D01*
X42475632Y-132725475D01*
X42682475Y-132518632D01*
X42799000Y-132344240D01*
X42915525Y-132518632D01*
X43122368Y-132725475D01*
X43365589Y-132887990D01*
X43635842Y-132999932D01*
X43922740Y-133057000D01*
X44215260Y-133057000D01*
X44502158Y-132999932D01*
X44772411Y-132887990D01*
X45015632Y-132725475D01*
X45222475Y-132518632D01*
X45339000Y-132344240D01*
X45455525Y-132518632D01*
X45662368Y-132725475D01*
X45905589Y-132887990D01*
X46175842Y-132999932D01*
X46462740Y-133057000D01*
X46755260Y-133057000D01*
X47042158Y-132999932D01*
X47312411Y-132887990D01*
X47555632Y-132725475D01*
X47687487Y-132593620D01*
X47709498Y-132666180D01*
X47768463Y-132776494D01*
X47847815Y-132873185D01*
X47944506Y-132952537D01*
X48014000Y-132989683D01*
X48014001Y-136943867D01*
X46277365Y-138680504D01*
X46234051Y-138716051D01*
X46092216Y-138888877D01*
X46003424Y-139054998D01*
X45986824Y-139086054D01*
X45921923Y-139300002D01*
X45900009Y-139522500D01*
X45905500Y-139578252D01*
X45905501Y-141181500D01*
X41635241Y-141181500D01*
X41579499Y-141176010D01*
X41523758Y-141181500D01*
X41523748Y-141181500D01*
X41357001Y-141197923D01*
X41143053Y-141262824D01*
X40945877Y-141368216D01*
X40773051Y-141510051D01*
X40746907Y-141541907D01*
X40715051Y-141568051D01*
X40573216Y-141740877D01*
X40496715Y-141884002D01*
X40467824Y-141938054D01*
X40402923Y-142152002D01*
X40381009Y-142374500D01*
X40386500Y-142430252D01*
X40386501Y-148478238D01*
X40381009Y-148534000D01*
X40386500Y-148589752D01*
X40386501Y-150749500D01*
X40096776Y-150749500D01*
X40093008Y-150711246D01*
X40042472Y-150544650D01*
X39960405Y-150391114D01*
X39849962Y-150256538D01*
X39715386Y-150146095D01*
X39561850Y-150064028D01*
X39395254Y-150013492D01*
X39222000Y-149996428D01*
X33422000Y-149996428D01*
X33248746Y-150013492D01*
X33082150Y-150064028D01*
X32928614Y-150146095D01*
X32794038Y-150256538D01*
X32683595Y-150391114D01*
X32601528Y-150544650D01*
X32550992Y-150711246D01*
X32537000Y-150853309D01*
X32537000Y-147465692D01*
X32546188Y-147558982D01*
X32582498Y-147678680D01*
X32641463Y-147788994D01*
X32720815Y-147885685D01*
X32817506Y-147965037D01*
X32927820Y-148024002D01*
X33047518Y-148060312D01*
X33172000Y-148072572D01*
X36036250Y-148069500D01*
X36195000Y-147910750D01*
X36195000Y-146311500D01*
X36449000Y-146311500D01*
X36449000Y-147910750D01*
X36607750Y-148069500D01*
X39472000Y-148072572D01*
X39596482Y-148060312D01*
X39716180Y-148024002D01*
X39826494Y-147965037D01*
X39923185Y-147885685D01*
X40002537Y-147788994D01*
X40061502Y-147678680D01*
X40097812Y-147558982D01*
X40110072Y-147434500D01*
X40107000Y-146470250D01*
X39948250Y-146311500D01*
X36449000Y-146311500D01*
X36195000Y-146311500D01*
X36175000Y-146311500D01*
X36175000Y-146057500D01*
X36195000Y-146057500D01*
X36195000Y-146037500D01*
X36449000Y-146037500D01*
X36449000Y-146057500D01*
X39948250Y-146057500D01*
X40107000Y-145898750D01*
X40110072Y-144934500D01*
X40097812Y-144810018D01*
X40061502Y-144690320D01*
X40002537Y-144580006D01*
X39923185Y-144483315D01*
X39826494Y-144403963D01*
X39716180Y-144344998D01*
X39596482Y-144308688D01*
X39472000Y-144296428D01*
X36607750Y-144299500D01*
X36449002Y-144458248D01*
X36449002Y-144299500D01*
X36376100Y-144299500D01*
X36388808Y-144264413D01*
X35433000Y-143308605D01*
X34477192Y-144264413D01*
X34489299Y-144297841D01*
X33172000Y-144296428D01*
X33047518Y-144308688D01*
X32927820Y-144344998D01*
X32817506Y-144403963D01*
X32720815Y-144483315D01*
X32641463Y-144580006D01*
X32582498Y-144690320D01*
X32546188Y-144810018D01*
X32537000Y-144903308D01*
X32537000Y-143191595D01*
X33791282Y-143191595D01*
X33835039Y-143510675D01*
X33940205Y-143815088D01*
X34033186Y-143989044D01*
X34297587Y-144084808D01*
X35253395Y-143129000D01*
X35612605Y-143129000D01*
X36568413Y-144084808D01*
X36832814Y-143989044D01*
X36973704Y-143699429D01*
X37055384Y-143387892D01*
X37074718Y-143066405D01*
X37030961Y-142747325D01*
X36925795Y-142442912D01*
X36832814Y-142268956D01*
X36568413Y-142173192D01*
X35612605Y-143129000D01*
X35253395Y-143129000D01*
X34297587Y-142173192D01*
X34033186Y-142268956D01*
X33892296Y-142558571D01*
X33810616Y-142870108D01*
X33791282Y-143191595D01*
X32537000Y-143191595D01*
X32537000Y-141993587D01*
X34477192Y-141993587D01*
X35433000Y-142949395D01*
X36388808Y-141993587D01*
X36293044Y-141729186D01*
X36003429Y-141588296D01*
X35691892Y-141506616D01*
X35370405Y-141487282D01*
X35051325Y-141531039D01*
X34746912Y-141636205D01*
X34572956Y-141729186D01*
X34477192Y-141993587D01*
X32537000Y-141993587D01*
X32537000Y-133276404D01*
X32690369Y-133646669D01*
X32934962Y-134012729D01*
X33246271Y-134324038D01*
X33612331Y-134568631D01*
X34019075Y-134737110D01*
X34450872Y-134823000D01*
X34891128Y-134823000D01*
X35322925Y-134737110D01*
X35729669Y-134568631D01*
X36095729Y-134324038D01*
X36407038Y-134012729D01*
X36651631Y-133646669D01*
X36820110Y-133239925D01*
X36906000Y-132808128D01*
X36906000Y-132367872D01*
X36820110Y-131936075D01*
X36817135Y-131928891D01*
X37547519Y-131928891D01*
X37644843Y-132203252D01*
X37793822Y-132453355D01*
X37988731Y-132669588D01*
X38222080Y-132843641D01*
X38484901Y-132968825D01*
X38632110Y-133013476D01*
X38862000Y-132892155D01*
X38862000Y-131699000D01*
X37668186Y-131699000D01*
X37547519Y-131928891D01*
X36817135Y-131928891D01*
X36651631Y-131529331D01*
X36407038Y-131163271D01*
X36095729Y-130851962D01*
X35729669Y-130607369D01*
X35359404Y-130454000D01*
X38016097Y-130454000D01*
X37988731Y-130474412D01*
%TA.AperFunction,Conductor*%
D25*
G36*
X37988731Y-130474412D02*
G01*
X37793822Y-130690645D01*
X37644843Y-130940748D01*
X37547519Y-131215109D01*
X37668186Y-131445000D01*
X38862000Y-131445000D01*
X38862000Y-131425000D01*
X39116000Y-131425000D01*
X39116000Y-131445000D01*
X39136000Y-131445000D01*
X39136000Y-131699000D01*
X39116000Y-131699000D01*
X39116000Y-132892155D01*
X39345890Y-133013476D01*
X39493099Y-132968825D01*
X39755920Y-132843641D01*
X39989269Y-132669588D01*
X40184178Y-132453355D01*
X40253805Y-132336466D01*
X40375525Y-132518632D01*
X40582368Y-132725475D01*
X40825589Y-132887990D01*
X41095842Y-132999932D01*
X41382740Y-133057000D01*
X41675260Y-133057000D01*
X41962158Y-132999932D01*
X42232411Y-132887990D01*
X42475632Y-132725475D01*
X42682475Y-132518632D01*
X42799000Y-132344240D01*
X42915525Y-132518632D01*
X43122368Y-132725475D01*
X43365589Y-132887990D01*
X43635842Y-132999932D01*
X43922740Y-133057000D01*
X44215260Y-133057000D01*
X44502158Y-132999932D01*
X44772411Y-132887990D01*
X45015632Y-132725475D01*
X45222475Y-132518632D01*
X45339000Y-132344240D01*
X45455525Y-132518632D01*
X45662368Y-132725475D01*
X45905589Y-132887990D01*
X46175842Y-132999932D01*
X46462740Y-133057000D01*
X46755260Y-133057000D01*
X47042158Y-132999932D01*
X47312411Y-132887990D01*
X47555632Y-132725475D01*
X47687487Y-132593620D01*
X47709498Y-132666180D01*
X47768463Y-132776494D01*
X47847815Y-132873185D01*
X47944506Y-132952537D01*
X48014000Y-132989683D01*
X48014001Y-136943867D01*
X46277365Y-138680504D01*
X46234051Y-138716051D01*
X46092216Y-138888877D01*
X46003424Y-139054998D01*
X45986824Y-139086054D01*
X45921923Y-139300002D01*
X45900009Y-139522500D01*
X45905500Y-139578252D01*
X45905501Y-141181500D01*
X41635241Y-141181500D01*
X41579499Y-141176010D01*
X41523758Y-141181500D01*
X41523748Y-141181500D01*
X41357001Y-141197923D01*
X41143053Y-141262824D01*
X40945877Y-141368216D01*
X40773051Y-141510051D01*
X40746907Y-141541907D01*
X40715051Y-141568051D01*
X40573216Y-141740877D01*
X40496715Y-141884002D01*
X40467824Y-141938054D01*
X40402923Y-142152002D01*
X40381009Y-142374500D01*
X40386500Y-142430252D01*
X40386501Y-148478238D01*
X40381009Y-148534000D01*
X40386500Y-148589752D01*
X40386501Y-150749500D01*
X40096776Y-150749500D01*
X40093008Y-150711246D01*
X40042472Y-150544650D01*
X39960405Y-150391114D01*
X39849962Y-150256538D01*
X39715386Y-150146095D01*
X39561850Y-150064028D01*
X39395254Y-150013492D01*
X39222000Y-149996428D01*
X33422000Y-149996428D01*
X33248746Y-150013492D01*
X33082150Y-150064028D01*
X32928614Y-150146095D01*
X32794038Y-150256538D01*
X32683595Y-150391114D01*
X32601528Y-150544650D01*
X32550992Y-150711246D01*
X32537000Y-150853309D01*
X32537000Y-147465692D01*
X32546188Y-147558982D01*
X32582498Y-147678680D01*
X32641463Y-147788994D01*
X32720815Y-147885685D01*
X32817506Y-147965037D01*
X32927820Y-148024002D01*
X33047518Y-148060312D01*
X33172000Y-148072572D01*
X36036250Y-148069500D01*
X36195000Y-147910750D01*
X36195000Y-146311500D01*
X36449000Y-146311500D01*
X36449000Y-147910750D01*
X36607750Y-148069500D01*
X39472000Y-148072572D01*
X39596482Y-148060312D01*
X39716180Y-148024002D01*
X39826494Y-147965037D01*
X39923185Y-147885685D01*
X40002537Y-147788994D01*
X40061502Y-147678680D01*
X40097812Y-147558982D01*
X40110072Y-147434500D01*
X40107000Y-146470250D01*
X39948250Y-146311500D01*
X36449000Y-146311500D01*
X36195000Y-146311500D01*
X36175000Y-146311500D01*
X36175000Y-146057500D01*
X36195000Y-146057500D01*
X36195000Y-146037500D01*
X36449000Y-146037500D01*
X36449000Y-146057500D01*
X39948250Y-146057500D01*
X40107000Y-145898750D01*
X40110072Y-144934500D01*
X40097812Y-144810018D01*
X40061502Y-144690320D01*
X40002537Y-144580006D01*
X39923185Y-144483315D01*
X39826494Y-144403963D01*
X39716180Y-144344998D01*
X39596482Y-144308688D01*
X39472000Y-144296428D01*
X36607750Y-144299500D01*
X36449002Y-144458248D01*
X36449002Y-144299500D01*
X36376100Y-144299500D01*
X36388808Y-144264413D01*
X35433000Y-143308605D01*
X34477192Y-144264413D01*
X34489299Y-144297841D01*
X33172000Y-144296428D01*
X33047518Y-144308688D01*
X32927820Y-144344998D01*
X32817506Y-144403963D01*
X32720815Y-144483315D01*
X32641463Y-144580006D01*
X32582498Y-144690320D01*
X32546188Y-144810018D01*
X32537000Y-144903308D01*
X32537000Y-143191595D01*
X33791282Y-143191595D01*
X33835039Y-143510675D01*
X33940205Y-143815088D01*
X34033186Y-143989044D01*
X34297587Y-144084808D01*
X35253395Y-143129000D01*
X35612605Y-143129000D01*
X36568413Y-144084808D01*
X36832814Y-143989044D01*
X36973704Y-143699429D01*
X37055384Y-143387892D01*
X37074718Y-143066405D01*
X37030961Y-142747325D01*
X36925795Y-142442912D01*
X36832814Y-142268956D01*
X36568413Y-142173192D01*
X35612605Y-143129000D01*
X35253395Y-143129000D01*
X34297587Y-142173192D01*
X34033186Y-142268956D01*
X33892296Y-142558571D01*
X33810616Y-142870108D01*
X33791282Y-143191595D01*
X32537000Y-143191595D01*
X32537000Y-141993587D01*
X34477192Y-141993587D01*
X35433000Y-142949395D01*
X36388808Y-141993587D01*
X36293044Y-141729186D01*
X36003429Y-141588296D01*
X35691892Y-141506616D01*
X35370405Y-141487282D01*
X35051325Y-141531039D01*
X34746912Y-141636205D01*
X34572956Y-141729186D01*
X34477192Y-141993587D01*
X32537000Y-141993587D01*
X32537000Y-133276404D01*
X32690369Y-133646669D01*
X32934962Y-134012729D01*
X33246271Y-134324038D01*
X33612331Y-134568631D01*
X34019075Y-134737110D01*
X34450872Y-134823000D01*
X34891128Y-134823000D01*
X35322925Y-134737110D01*
X35729669Y-134568631D01*
X36095729Y-134324038D01*
X36407038Y-134012729D01*
X36651631Y-133646669D01*
X36820110Y-133239925D01*
X36906000Y-132808128D01*
X36906000Y-132367872D01*
X36820110Y-131936075D01*
X36817135Y-131928891D01*
X37547519Y-131928891D01*
X37644843Y-132203252D01*
X37793822Y-132453355D01*
X37988731Y-132669588D01*
X38222080Y-132843641D01*
X38484901Y-132968825D01*
X38632110Y-133013476D01*
X38862000Y-132892155D01*
X38862000Y-131699000D01*
X37668186Y-131699000D01*
X37547519Y-131928891D01*
X36817135Y-131928891D01*
X36651631Y-131529331D01*
X36407038Y-131163271D01*
X36095729Y-130851962D01*
X35729669Y-130607369D01*
X35359404Y-130454000D01*
X38016097Y-130454000D01*
X37988731Y-130474412D01*
G37*
%TD.AperFunction*%
%TD*%
M02*
