M48
; DRILL file {KiCad (5.1.8)-1} date 12/21/20 16:50:04
; FORMAT={-:-/ absolute / metric / decimal}
; #@! TF.CreationDate,2020-12-21T16:50:04+02:00
; #@! TF.GenerationSoftware,Kicad,Pcbnew,(5.1.8)-1
FMAT,2
METRIC
T1C0.400
T2C0.750
T3C1.000
T4C1.020
T5C0.750
T6C3.200
T7C3.450
%
G90
G05
T1
X33.02Y-135.064
X33.02Y-157.416
X33.02Y-163.449
X33.084Y-141.478
X36.322Y-146.184
X37.338Y-167.894
X37.91Y-162.56
X38.862Y-140.398
X39.243Y-135.128
X39.688Y-156.337
X42.1Y-167.894
X43.243Y-145.732
X43.561Y-154.876
X44.163Y-144.431
X44.514Y-164.528
X44.876Y-156.337
X47.688Y-167.957
X48.197Y-147.066
X48.831Y-156.337
X49.403Y-153.797
X49.53Y-140.767
X51.625Y-165.671
X52.514Y-153.543
X53.404Y-160.972
X53.911Y-137.668
X54.8Y-143.827
X55.054Y-150.622
X62.166Y-137.477
X63.309Y-150.368
X63.944Y-157.099
X64.072Y-143.573
X65.405Y-160.464
X66.04Y-138.176
X66.358Y-141.796
X68.453Y-149.542
X69.469Y-164.338
X70.104Y-157.226
X70.993Y-142.303
X71.056Y-151.32
X72.072Y-167.767
X73.724Y-138.557
X75.819Y-155.511
X77.47Y-167.767
X77.978Y-135.064
X78.232Y-153.225
X78.93Y-139.094
X79.375Y-131.889
X79.502Y-146.431
X79.566Y-166.624
X80.962Y-152.146
X81.28Y-141.478
X82.105Y-161.734
X85.153Y-136.779
X85.534Y-159.702
X85.598Y-152.337
T2
X83.82Y-146.558
X83.82Y-147.828
X83.82Y-149.098
T3
X38.989Y-131.572
X41.529Y-131.572
X44.069Y-131.572
X46.609Y-131.572
X49.149Y-131.572
X50.8Y-167.894
X53.34Y-167.894
X55.88Y-167.894
X58.42Y-167.894
X60.96Y-167.894
X63.5Y-167.894
X66.04Y-167.894
X68.58Y-167.894
T4
X35.433Y-143.129
X35.433Y-155.829
T5
X72.707Y-131.149
X72.707Y-133.899
T6
X84.074Y-166.37
X34.671Y-132.588
X84.074Y-132.588
X34.671Y-166.37
T7
X44.073Y-151.829
X74.043Y-147.129
T0
M30
