%TF.GenerationSoftware,KiCad,Pcbnew,(5.1.8)-1*%
%TF.CreationDate,2021-05-19T16:55:57+03:00*%
%TF.ProjectId,eInk_DS18B20,65496e6b-5f44-4533-9138-4232302e6b69,rev?*%
%TF.SameCoordinates,Original*%
%TF.FileFunction,Legend,Bot*%
%TF.FilePolarity,Positive*%
%FSLAX46Y46*%
G04 Gerber Fmt 4.6, Leading zero omitted, Abs format (unit mm)*
G04 Created by KiCad (PCBNEW (5.1.8)-1) date 2021-05-19 16:55:57*
%MOMM*%
%LPD*%
G01*
G04 APERTURE LIST*
%ADD10C,0.120000*%
%ADD11C,0.100000*%
%ADD12C,0.150000*%
%ADD13C,0.254000*%
G04 APERTURE END LIST*
D10*
%TO.C,D1*%
X80788000Y-86726200D02*
X82788000Y-86726200D01*
X82788000Y-86726200D02*
X82788000Y-90626200D01*
X80788000Y-86726200D02*
X80788000Y-90626200D01*
%TO.C,D2*%
X85531200Y-91201800D02*
X85531200Y-87301800D01*
X83531200Y-91201800D02*
X83531200Y-87301800D01*
X85531200Y-91201800D02*
X83531200Y-91201800D01*
%TO.C,D3*%
X80809000Y-86242400D02*
X80809000Y-84242400D01*
X80809000Y-84242400D02*
X84709000Y-84242400D01*
X80809000Y-86242400D02*
X84709000Y-86242400D01*
%TO.C,Q1*%
X84859400Y-74086600D02*
X84859400Y-75016600D01*
X84859400Y-77246600D02*
X84859400Y-76316600D01*
X84859400Y-77246600D02*
X82699400Y-77246600D01*
X84859400Y-74086600D02*
X83399400Y-74086600D01*
%TO.C,J1*%
X73550600Y-83012600D02*
X73550600Y-71012600D01*
X71940600Y-83012600D02*
X71940600Y-71012600D01*
X71940600Y-83012600D02*
X68800600Y-83012600D01*
X71940600Y-71012600D02*
X68800600Y-71012600D01*
X68800600Y-83012600D02*
X68800600Y-85662600D01*
X68800600Y-71012600D02*
X68800600Y-68362600D01*
X68800600Y-85662600D02*
X72160600Y-85662600D01*
X68800600Y-68362600D02*
X72160600Y-68362600D01*
X72160600Y-85662600D02*
X72160600Y-83012600D01*
X72160600Y-68362600D02*
X72160600Y-71012600D01*
X72160600Y-83012600D02*
X73550600Y-83012600D01*
X72160600Y-71012600D02*
X73550600Y-71012600D01*
%TO.C,C1*%
X80647000Y-81101620D02*
X80647000Y-81382780D01*
X79627000Y-81101620D02*
X79627000Y-81382780D01*
%TO.C,C2*%
X88013000Y-86157980D02*
X88013000Y-85876820D01*
X86993000Y-86157980D02*
X86993000Y-85876820D01*
%TO.C,C3*%
X77393220Y-85828600D02*
X77674380Y-85828600D01*
X77393220Y-84808600D02*
X77674380Y-84808600D01*
%TO.C,C4*%
X77392620Y-79885000D02*
X77673780Y-79885000D01*
X77392620Y-78865000D02*
X77673780Y-78865000D01*
%TO.C,C5*%
X77393220Y-82878200D02*
X77674380Y-82878200D01*
X77393220Y-83898200D02*
X77674380Y-83898200D01*
%TO.C,C6*%
X77395420Y-89105200D02*
X77676580Y-89105200D01*
X77395420Y-88085200D02*
X77676580Y-88085200D01*
%TO.C,C7*%
X77380220Y-72769000D02*
X77661380Y-72769000D01*
X77380220Y-73789000D02*
X77661380Y-73789000D01*
%TO.C,C8*%
X77393220Y-81328800D02*
X77674380Y-81328800D01*
X77393220Y-82348800D02*
X77674380Y-82348800D01*
%TO.C,C9*%
X77395420Y-86358000D02*
X77676580Y-86358000D01*
X77395420Y-87378000D02*
X77676580Y-87378000D01*
%TO.C,C10*%
X77395420Y-90066400D02*
X77676580Y-90066400D01*
X77395420Y-91086400D02*
X77676580Y-91086400D01*
%TO.C,R1*%
X83950542Y-72375500D02*
X84425058Y-72375500D01*
X83950542Y-73420500D02*
X84425058Y-73420500D01*
%TO.C,R2*%
X80681300Y-75314542D02*
X80681300Y-75789058D01*
X81726300Y-75314542D02*
X81726300Y-75789058D01*
D11*
%TO.C,L1*%
X84128400Y-78269600D02*
X84628400Y-78269600D01*
X84128400Y-78269600D02*
X84128400Y-78269600D01*
X84628400Y-78269600D02*
X84128400Y-78269600D01*
X84628400Y-78269600D02*
X84628400Y-78269600D01*
X84128400Y-82969600D02*
X84628400Y-82969600D01*
X84128400Y-82969600D02*
X84128400Y-82969600D01*
X84628400Y-82969600D02*
X84128400Y-82969600D01*
X84628400Y-82969600D02*
X84628400Y-82969600D01*
%TO.C,D1*%
D12*
X80240380Y-88238104D02*
X79240380Y-88238104D01*
X79240380Y-88476200D01*
X79288000Y-88619057D01*
X79383238Y-88714295D01*
X79478476Y-88761914D01*
X79668952Y-88809533D01*
X79811809Y-88809533D01*
X80002285Y-88761914D01*
X80097523Y-88714295D01*
X80192761Y-88619057D01*
X80240380Y-88476200D01*
X80240380Y-88238104D01*
X80240380Y-89761914D02*
X80240380Y-89190485D01*
X80240380Y-89476200D02*
X79240380Y-89476200D01*
X79383238Y-89380961D01*
X79478476Y-89285723D01*
X79526095Y-89190485D01*
%TO.C,D2*%
X86983580Y-88213704D02*
X85983580Y-88213704D01*
X85983580Y-88451800D01*
X86031200Y-88594657D01*
X86126438Y-88689895D01*
X86221676Y-88737514D01*
X86412152Y-88785133D01*
X86555009Y-88785133D01*
X86745485Y-88737514D01*
X86840723Y-88689895D01*
X86935961Y-88594657D01*
X86983580Y-88451800D01*
X86983580Y-88213704D01*
X86078819Y-89166085D02*
X86031200Y-89213704D01*
X85983580Y-89308942D01*
X85983580Y-89547038D01*
X86031200Y-89642276D01*
X86078819Y-89689895D01*
X86174057Y-89737514D01*
X86269295Y-89737514D01*
X86412152Y-89689895D01*
X86983580Y-89118466D01*
X86983580Y-89737514D01*
%TO.C,D3*%
X80309980Y-84529704D02*
X79309980Y-84529704D01*
X79309980Y-84767800D01*
X79357600Y-84910657D01*
X79452838Y-85005895D01*
X79548076Y-85053514D01*
X79738552Y-85101133D01*
X79881409Y-85101133D01*
X80071885Y-85053514D01*
X80167123Y-85005895D01*
X80262361Y-84910657D01*
X80309980Y-84767800D01*
X80309980Y-84529704D01*
X79309980Y-85434466D02*
X79309980Y-86053514D01*
X79690933Y-85720180D01*
X79690933Y-85863038D01*
X79738552Y-85958276D01*
X79786171Y-86005895D01*
X79881409Y-86053514D01*
X80119504Y-86053514D01*
X80214742Y-86005895D01*
X80262361Y-85958276D01*
X80309980Y-85863038D01*
X80309980Y-85577323D01*
X80262361Y-85482085D01*
X80214742Y-85434466D01*
%TO.C,Q1*%
X86912438Y-76188819D02*
X87007676Y-76141200D01*
X87102914Y-76045961D01*
X87245771Y-75903104D01*
X87341009Y-75855485D01*
X87436247Y-75855485D01*
X87388628Y-76093580D02*
X87483866Y-76045961D01*
X87579104Y-75950723D01*
X87626723Y-75760247D01*
X87626723Y-75426914D01*
X87579104Y-75236438D01*
X87483866Y-75141200D01*
X87388628Y-75093580D01*
X87198152Y-75093580D01*
X87102914Y-75141200D01*
X87007676Y-75236438D01*
X86960057Y-75426914D01*
X86960057Y-75760247D01*
X87007676Y-75950723D01*
X87102914Y-76045961D01*
X87198152Y-76093580D01*
X87388628Y-76093580D01*
X86007676Y-76093580D02*
X86579104Y-76093580D01*
X86293390Y-76093580D02*
X86293390Y-75093580D01*
X86388628Y-75236438D01*
X86483866Y-75331676D01*
X86579104Y-75379295D01*
%TO.C,J1*%
X71518219Y-77345933D02*
X70803933Y-77345933D01*
X70661076Y-77393552D01*
X70565838Y-77488790D01*
X70518219Y-77631647D01*
X70518219Y-77726885D01*
X70518219Y-76345933D02*
X70518219Y-76917361D01*
X70518219Y-76631647D02*
X71518219Y-76631647D01*
X71375361Y-76726885D01*
X71280123Y-76822123D01*
X71232504Y-76917361D01*
%TO.C,C1*%
X80494142Y-78560933D02*
X80541761Y-78513314D01*
X80589380Y-78370457D01*
X80589380Y-78275219D01*
X80541761Y-78132361D01*
X80446523Y-78037123D01*
X80351285Y-77989504D01*
X80160809Y-77941885D01*
X80017952Y-77941885D01*
X79827476Y-77989504D01*
X79732238Y-78037123D01*
X79637000Y-78132361D01*
X79589380Y-78275219D01*
X79589380Y-78370457D01*
X79637000Y-78513314D01*
X79684619Y-78560933D01*
X80589380Y-79513314D02*
X80589380Y-78941885D01*
X80589380Y-79227600D02*
X79589380Y-79227600D01*
X79732238Y-79132361D01*
X79827476Y-79037123D01*
X79875095Y-78941885D01*
%TO.C,C2*%
X89290142Y-85850733D02*
X89337761Y-85803114D01*
X89385380Y-85660257D01*
X89385380Y-85565019D01*
X89337761Y-85422161D01*
X89242523Y-85326923D01*
X89147285Y-85279304D01*
X88956809Y-85231685D01*
X88813952Y-85231685D01*
X88623476Y-85279304D01*
X88528238Y-85326923D01*
X88433000Y-85422161D01*
X88385380Y-85565019D01*
X88385380Y-85660257D01*
X88433000Y-85803114D01*
X88480619Y-85850733D01*
X88480619Y-86231685D02*
X88433000Y-86279304D01*
X88385380Y-86374542D01*
X88385380Y-86612638D01*
X88433000Y-86707876D01*
X88480619Y-86755495D01*
X88575857Y-86803114D01*
X88671095Y-86803114D01*
X88813952Y-86755495D01*
X89385380Y-86184066D01*
X89385380Y-86803114D01*
%TO.C,C3*%
X75223666Y-85675742D02*
X75271285Y-85723361D01*
X75414142Y-85770980D01*
X75509380Y-85770980D01*
X75652238Y-85723361D01*
X75747476Y-85628123D01*
X75795095Y-85532885D01*
X75842714Y-85342409D01*
X75842714Y-85199552D01*
X75795095Y-85009076D01*
X75747476Y-84913838D01*
X75652238Y-84818600D01*
X75509380Y-84770980D01*
X75414142Y-84770980D01*
X75271285Y-84818600D01*
X75223666Y-84866219D01*
X74890333Y-84770980D02*
X74271285Y-84770980D01*
X74604619Y-85151933D01*
X74461761Y-85151933D01*
X74366523Y-85199552D01*
X74318904Y-85247171D01*
X74271285Y-85342409D01*
X74271285Y-85580504D01*
X74318904Y-85675742D01*
X74366523Y-85723361D01*
X74461761Y-85770980D01*
X74747476Y-85770980D01*
X74842714Y-85723361D01*
X74890333Y-85675742D01*
%TO.C,C4*%
X75223666Y-79732142D02*
X75271285Y-79779761D01*
X75414142Y-79827380D01*
X75509380Y-79827380D01*
X75652238Y-79779761D01*
X75747476Y-79684523D01*
X75795095Y-79589285D01*
X75842714Y-79398809D01*
X75842714Y-79255952D01*
X75795095Y-79065476D01*
X75747476Y-78970238D01*
X75652238Y-78875000D01*
X75509380Y-78827380D01*
X75414142Y-78827380D01*
X75271285Y-78875000D01*
X75223666Y-78922619D01*
X74366523Y-79160714D02*
X74366523Y-79827380D01*
X74604619Y-78779761D02*
X74842714Y-79494047D01*
X74223666Y-79494047D01*
%TO.C,C5*%
X75223666Y-83745342D02*
X75271285Y-83792961D01*
X75414142Y-83840580D01*
X75509380Y-83840580D01*
X75652238Y-83792961D01*
X75747476Y-83697723D01*
X75795095Y-83602485D01*
X75842714Y-83412009D01*
X75842714Y-83269152D01*
X75795095Y-83078676D01*
X75747476Y-82983438D01*
X75652238Y-82888200D01*
X75509380Y-82840580D01*
X75414142Y-82840580D01*
X75271285Y-82888200D01*
X75223666Y-82935819D01*
X74318904Y-82840580D02*
X74795095Y-82840580D01*
X74842714Y-83316771D01*
X74795095Y-83269152D01*
X74699857Y-83221533D01*
X74461761Y-83221533D01*
X74366523Y-83269152D01*
X74318904Y-83316771D01*
X74271285Y-83412009D01*
X74271285Y-83650104D01*
X74318904Y-83745342D01*
X74366523Y-83792961D01*
X74461761Y-83840580D01*
X74699857Y-83840580D01*
X74795095Y-83792961D01*
X74842714Y-83745342D01*
%TO.C,C6*%
X75223666Y-88952342D02*
X75271285Y-88999961D01*
X75414142Y-89047580D01*
X75509380Y-89047580D01*
X75652238Y-88999961D01*
X75747476Y-88904723D01*
X75795095Y-88809485D01*
X75842714Y-88619009D01*
X75842714Y-88476152D01*
X75795095Y-88285676D01*
X75747476Y-88190438D01*
X75652238Y-88095200D01*
X75509380Y-88047580D01*
X75414142Y-88047580D01*
X75271285Y-88095200D01*
X75223666Y-88142819D01*
X74366523Y-88047580D02*
X74557000Y-88047580D01*
X74652238Y-88095200D01*
X74699857Y-88142819D01*
X74795095Y-88285676D01*
X74842714Y-88476152D01*
X74842714Y-88857104D01*
X74795095Y-88952342D01*
X74747476Y-88999961D01*
X74652238Y-89047580D01*
X74461761Y-89047580D01*
X74366523Y-88999961D01*
X74318904Y-88952342D01*
X74271285Y-88857104D01*
X74271285Y-88619009D01*
X74318904Y-88523771D01*
X74366523Y-88476152D01*
X74461761Y-88428533D01*
X74652238Y-88428533D01*
X74747476Y-88476152D01*
X74795095Y-88523771D01*
X74842714Y-88619009D01*
%TO.C,C7*%
X75210666Y-73636142D02*
X75258285Y-73683761D01*
X75401142Y-73731380D01*
X75496380Y-73731380D01*
X75639238Y-73683761D01*
X75734476Y-73588523D01*
X75782095Y-73493285D01*
X75829714Y-73302809D01*
X75829714Y-73159952D01*
X75782095Y-72969476D01*
X75734476Y-72874238D01*
X75639238Y-72779000D01*
X75496380Y-72731380D01*
X75401142Y-72731380D01*
X75258285Y-72779000D01*
X75210666Y-72826619D01*
X74877333Y-72731380D02*
X74210666Y-72731380D01*
X74639238Y-73731380D01*
%TO.C,C8*%
X75223666Y-82195942D02*
X75271285Y-82243561D01*
X75414142Y-82291180D01*
X75509380Y-82291180D01*
X75652238Y-82243561D01*
X75747476Y-82148323D01*
X75795095Y-82053085D01*
X75842714Y-81862609D01*
X75842714Y-81719752D01*
X75795095Y-81529276D01*
X75747476Y-81434038D01*
X75652238Y-81338800D01*
X75509380Y-81291180D01*
X75414142Y-81291180D01*
X75271285Y-81338800D01*
X75223666Y-81386419D01*
X74652238Y-81719752D02*
X74747476Y-81672133D01*
X74795095Y-81624514D01*
X74842714Y-81529276D01*
X74842714Y-81481657D01*
X74795095Y-81386419D01*
X74747476Y-81338800D01*
X74652238Y-81291180D01*
X74461761Y-81291180D01*
X74366523Y-81338800D01*
X74318904Y-81386419D01*
X74271285Y-81481657D01*
X74271285Y-81529276D01*
X74318904Y-81624514D01*
X74366523Y-81672133D01*
X74461761Y-81719752D01*
X74652238Y-81719752D01*
X74747476Y-81767371D01*
X74795095Y-81814990D01*
X74842714Y-81910228D01*
X74842714Y-82100704D01*
X74795095Y-82195942D01*
X74747476Y-82243561D01*
X74652238Y-82291180D01*
X74461761Y-82291180D01*
X74366523Y-82243561D01*
X74318904Y-82195942D01*
X74271285Y-82100704D01*
X74271285Y-81910228D01*
X74318904Y-81814990D01*
X74366523Y-81767371D01*
X74461761Y-81719752D01*
%TO.C,C9*%
X75223666Y-87199742D02*
X75271285Y-87247361D01*
X75414142Y-87294980D01*
X75509380Y-87294980D01*
X75652238Y-87247361D01*
X75747476Y-87152123D01*
X75795095Y-87056885D01*
X75842714Y-86866409D01*
X75842714Y-86723552D01*
X75795095Y-86533076D01*
X75747476Y-86437838D01*
X75652238Y-86342600D01*
X75509380Y-86294980D01*
X75414142Y-86294980D01*
X75271285Y-86342600D01*
X75223666Y-86390219D01*
X74747476Y-87294980D02*
X74557000Y-87294980D01*
X74461761Y-87247361D01*
X74414142Y-87199742D01*
X74318904Y-87056885D01*
X74271285Y-86866409D01*
X74271285Y-86485457D01*
X74318904Y-86390219D01*
X74366523Y-86342600D01*
X74461761Y-86294980D01*
X74652238Y-86294980D01*
X74747476Y-86342600D01*
X74795095Y-86390219D01*
X74842714Y-86485457D01*
X74842714Y-86723552D01*
X74795095Y-86818790D01*
X74747476Y-86866409D01*
X74652238Y-86914028D01*
X74461761Y-86914028D01*
X74366523Y-86866409D01*
X74318904Y-86818790D01*
X74271285Y-86723552D01*
%TO.C,C10*%
X75217257Y-90933542D02*
X75264876Y-90981161D01*
X75407733Y-91028780D01*
X75502971Y-91028780D01*
X75645828Y-90981161D01*
X75741066Y-90885923D01*
X75788685Y-90790685D01*
X75836304Y-90600209D01*
X75836304Y-90457352D01*
X75788685Y-90266876D01*
X75741066Y-90171638D01*
X75645828Y-90076400D01*
X75502971Y-90028780D01*
X75407733Y-90028780D01*
X75264876Y-90076400D01*
X75217257Y-90124019D01*
X74264876Y-91028780D02*
X74836304Y-91028780D01*
X74550590Y-91028780D02*
X74550590Y-90028780D01*
X74645828Y-90171638D01*
X74741066Y-90266876D01*
X74836304Y-90314495D01*
X73645828Y-90028780D02*
X73550590Y-90028780D01*
X73455352Y-90076400D01*
X73407733Y-90124019D01*
X73360114Y-90219257D01*
X73312495Y-90409733D01*
X73312495Y-90647828D01*
X73360114Y-90838304D01*
X73407733Y-90933542D01*
X73455352Y-90981161D01*
X73550590Y-91028780D01*
X73645828Y-91028780D01*
X73741066Y-90981161D01*
X73788685Y-90933542D01*
X73836304Y-90838304D01*
X73883923Y-90647828D01*
X73883923Y-90409733D01*
X73836304Y-90219257D01*
X73788685Y-90124019D01*
X73741066Y-90076400D01*
X73645828Y-90028780D01*
%TO.C,R1*%
X84291466Y-71953380D02*
X84624800Y-71477190D01*
X84862895Y-71953380D02*
X84862895Y-70953380D01*
X84481942Y-70953380D01*
X84386704Y-71001000D01*
X84339085Y-71048619D01*
X84291466Y-71143857D01*
X84291466Y-71286714D01*
X84339085Y-71381952D01*
X84386704Y-71429571D01*
X84481942Y-71477190D01*
X84862895Y-71477190D01*
X83339085Y-71953380D02*
X83910514Y-71953380D01*
X83624800Y-71953380D02*
X83624800Y-70953380D01*
X83720038Y-71096238D01*
X83815276Y-71191476D01*
X83910514Y-71239095D01*
%TO.C,R2*%
X80226180Y-75385133D02*
X79749990Y-75051800D01*
X80226180Y-74813704D02*
X79226180Y-74813704D01*
X79226180Y-75194657D01*
X79273800Y-75289895D01*
X79321419Y-75337514D01*
X79416657Y-75385133D01*
X79559514Y-75385133D01*
X79654752Y-75337514D01*
X79702371Y-75289895D01*
X79749990Y-75194657D01*
X79749990Y-74813704D01*
X79321419Y-75766085D02*
X79273800Y-75813704D01*
X79226180Y-75908942D01*
X79226180Y-76147038D01*
X79273800Y-76242276D01*
X79321419Y-76289895D01*
X79416657Y-76337514D01*
X79511895Y-76337514D01*
X79654752Y-76289895D01*
X80226180Y-75718466D01*
X80226180Y-76337514D01*
%TO.C,L1*%
D13*
X84952923Y-80407933D02*
X84952923Y-79803171D01*
X83682923Y-79803171D01*
X84952923Y-81496504D02*
X84952923Y-80770790D01*
X84952923Y-81133647D02*
X83682923Y-81133647D01*
X83864352Y-81012695D01*
X83985304Y-80891742D01*
X84045780Y-80770790D01*
%TD*%
M02*
