%TF.GenerationSoftware,KiCad,Pcbnew,(5.1.8)-1*%
%TF.CreationDate,2021-05-19T16:55:57+03:00*%
%TF.ProjectId,eInk_DS18B20,65496e6b-5f44-4533-9138-4232302e6b69,rev?*%
%TF.SameCoordinates,Original*%
%TF.FileFunction,Legend,Top*%
%TF.FilePolarity,Positive*%
%FSLAX46Y46*%
G04 Gerber Fmt 4.6, Leading zero omitted, Abs format (unit mm)*
G04 Created by KiCad (PCBNEW (5.1.8)-1) date 2021-05-19 16:55:57*
%MOMM*%
%LPD*%
G01*
G04 APERTURE LIST*
%ADD10C,0.120000*%
%ADD11C,0.100000*%
%ADD12C,0.150000*%
G04 APERTURE END LIST*
D10*
X103403400Y-90347800D02*
X103403400Y-63322200D01*
X76403200Y-90347800D02*
X103403400Y-90347800D01*
X76403200Y-63322200D02*
X76403200Y-90347800D01*
X103403400Y-63322200D02*
X76403200Y-63322200D01*
D11*
X68503800Y-92735400D02*
X68503800Y-60934600D01*
X105816400Y-92735400D02*
X68503800Y-92735400D01*
X105816400Y-60934600D02*
X105816400Y-92735400D01*
X68503800Y-60934600D02*
X105816400Y-60934600D01*
D10*
%TO.C,J2*%
X74166000Y-93276400D02*
X74166000Y-94386400D01*
X73406000Y-93276400D02*
X74166000Y-93276400D01*
X72646000Y-94949871D02*
X72646000Y-95496400D01*
X72646000Y-93276400D02*
X72646000Y-93822929D01*
X72646000Y-95496400D02*
X68901000Y-95496400D01*
X72646000Y-93276400D02*
X68901000Y-93276400D01*
X68901000Y-94693930D02*
X68901000Y-95496400D01*
X68901000Y-93276400D02*
X68901000Y-94078870D01*
%TO.C,J3*%
X68901000Y-58173600D02*
X68901000Y-58976070D01*
X68901000Y-59591130D02*
X68901000Y-60393600D01*
X72646000Y-58173600D02*
X68901000Y-58173600D01*
X72646000Y-60393600D02*
X68901000Y-60393600D01*
X72646000Y-58173600D02*
X72646000Y-58720129D01*
X72646000Y-59847071D02*
X72646000Y-60393600D01*
X73406000Y-58173600D02*
X74166000Y-58173600D01*
X74166000Y-58173600D02*
X74166000Y-59283600D01*
%TO.C,C11*%
X109245980Y-80062800D02*
X108964820Y-80062800D01*
X109245980Y-79042800D02*
X108964820Y-79042800D01*
%TO.C,J4*%
X113759000Y-72965000D02*
X112956530Y-72965000D01*
X112341470Y-72965000D02*
X111539000Y-72965000D01*
X113759000Y-79250000D02*
X113759000Y-72965000D01*
X111539000Y-79250000D02*
X111539000Y-72965000D01*
X113759000Y-79250000D02*
X113212471Y-79250000D01*
X112085529Y-79250000D02*
X111539000Y-79250000D01*
X113759000Y-80010000D02*
X113759000Y-80770000D01*
X113759000Y-80770000D02*
X112649000Y-80770000D01*
D11*
%TO.C,U1*%
X107768400Y-78195000D02*
X107918400Y-78195000D01*
X107768400Y-78185000D02*
X107768400Y-78035000D01*
X110468400Y-78185000D02*
X110468400Y-78035000D01*
X110468400Y-78185000D02*
X110318400Y-78185000D01*
X110318400Y-75485000D02*
X110468400Y-75485000D01*
X110468400Y-75485000D02*
X110468400Y-75635000D01*
X107768400Y-75635000D02*
X107768400Y-75385000D01*
%TO.C,J2*%
D12*
X74553380Y-94719733D02*
X75267666Y-94719733D01*
X75410523Y-94767352D01*
X75505761Y-94862590D01*
X75553380Y-95005447D01*
X75553380Y-95100685D01*
X74648619Y-94291161D02*
X74601000Y-94243542D01*
X74553380Y-94148304D01*
X74553380Y-93910209D01*
X74601000Y-93814971D01*
X74648619Y-93767352D01*
X74743857Y-93719733D01*
X74839095Y-93719733D01*
X74981952Y-93767352D01*
X75553380Y-94338780D01*
X75553380Y-93719733D01*
%TO.C,J3*%
X74553380Y-59616933D02*
X75267666Y-59616933D01*
X75410523Y-59664552D01*
X75505761Y-59759790D01*
X75553380Y-59902647D01*
X75553380Y-59997885D01*
X74553380Y-59235980D02*
X74553380Y-58616933D01*
X74934333Y-58950266D01*
X74934333Y-58807409D01*
X74981952Y-58712171D01*
X75029571Y-58664552D01*
X75124809Y-58616933D01*
X75362904Y-58616933D01*
X75458142Y-58664552D01*
X75505761Y-58712171D01*
X75553380Y-58807409D01*
X75553380Y-59093123D01*
X75505761Y-59188361D01*
X75458142Y-59235980D01*
%TO.C,C11*%
X108462542Y-81339942D02*
X108414923Y-81387561D01*
X108272066Y-81435180D01*
X108176828Y-81435180D01*
X108033971Y-81387561D01*
X107938733Y-81292323D01*
X107891114Y-81197085D01*
X107843495Y-81006609D01*
X107843495Y-80863752D01*
X107891114Y-80673276D01*
X107938733Y-80578038D01*
X108033971Y-80482800D01*
X108176828Y-80435180D01*
X108272066Y-80435180D01*
X108414923Y-80482800D01*
X108462542Y-80530419D01*
X109414923Y-81435180D02*
X108843495Y-81435180D01*
X109129209Y-81435180D02*
X109129209Y-80435180D01*
X109033971Y-80578038D01*
X108938733Y-80673276D01*
X108843495Y-80720895D01*
X110367304Y-81435180D02*
X109795876Y-81435180D01*
X110081590Y-81435180D02*
X110081590Y-80435180D01*
X109986352Y-80578038D01*
X109891114Y-80673276D01*
X109795876Y-80720895D01*
%TO.C,J4*%
X112315666Y-81157380D02*
X112315666Y-81871666D01*
X112268047Y-82014523D01*
X112172809Y-82109761D01*
X112029952Y-82157380D01*
X111934714Y-82157380D01*
X113220428Y-81490714D02*
X113220428Y-82157380D01*
X112982333Y-81109761D02*
X112744238Y-81824047D01*
X113363285Y-81824047D01*
%TO.C,U1*%
X108371495Y-73822380D02*
X108371495Y-74631904D01*
X108419114Y-74727142D01*
X108466733Y-74774761D01*
X108561971Y-74822380D01*
X108752447Y-74822380D01*
X108847685Y-74774761D01*
X108895304Y-74727142D01*
X108942923Y-74631904D01*
X108942923Y-73822380D01*
X109942923Y-74822380D02*
X109371495Y-74822380D01*
X109657209Y-74822380D02*
X109657209Y-73822380D01*
X109561971Y-73965238D01*
X109466733Y-74060476D01*
X109371495Y-74108095D01*
%TD*%
M02*
