M48
; DRILL file {KiCad (5.1.8)-1} date 05/19/21 16:56:02
; FORMAT={-:-/ absolute / metric / decimal}
; #@! TF.CreationDate,2021-05-19T16:56:02+03:00
; #@! TF.GenerationSoftware,Kicad,Pcbnew,(5.1.8)-1
; #@! TF.FileFunction,Plated,1,2,PTH
FMAT,2
METRIC
T1C0.400
T2C0.650
%
G90
G05
T1
X65.608Y-88.697
X66.573Y-89.814
X67.453Y-90.678
X69.596Y-79.654
X70.612Y-78.918
X71.247Y-77.445
X76.784Y-59.334
X76.784Y-94.386
X79.781Y-85.344
X80.035Y-79.375
X80.137Y-82.017
X80.366Y-59.334
X80.366Y-94.437
X83.972Y-59.334
X83.998Y-94.412
X85.014Y-71.196
X87.452Y-59.334
X87.528Y-94.463
X91.313Y-59.334
X91.364Y-94.463
X95.326Y-59.334
X95.479Y-94.463
X99.39Y-94.463
X99.466Y-59.334
X103.632Y-59.334
X103.657Y-94.463
X108.814Y-59.334
X108.814Y-62.814
X108.991Y-94.463
X109.017Y-91.008
X112.928Y-90.856
X112.954Y-70.104
X112.954Y-82.931
X112.954Y-86.741
X113.005Y-62.84
X113.005Y-65.862
T2
X69.596Y-94.386
X70.866Y-94.386
X72.136Y-94.386
X73.406Y-94.386
X69.596Y-59.284
X70.866Y-59.284
X72.136Y-59.284
X73.406Y-59.284
X112.649Y-73.66
X112.649Y-74.93
X112.649Y-76.2
X112.649Y-77.47
X112.649Y-78.74
X112.649Y-80.01
T0
M30
